<svg width="25" height="25" viewBox="0 0 25 25" fill="none" xmlns="http://www.w3.org/2000/svg">
<path d="M12.5017 0C8.93023 0 6.01074 2.91949 6.01074 6.49094C6.01074 10.0624 8.93023 12.9819 12.5017 12.9819C16.0731 12.9819 18.9926 10.0624 18.9926 6.49094C18.9926 2.91949 16.0731 0 12.5017 0Z" fill="#B0D8FF"/>
<path d="M23.6411 18.1689C23.471 17.7437 23.2443 17.3469 22.9892 16.9784C21.6853 15.051 19.6729 13.7755 17.4053 13.4637C17.1219 13.4354 16.8101 13.492 16.5833 13.6621C15.3928 14.5408 13.9756 14.9943 12.5017 14.9943C11.0277 14.9943 9.61052 14.5408 8.42003 13.6621C8.19325 13.492 7.88146 13.407 7.59804 13.4637C5.33046 13.7755 3.28966 15.051 2.01416 16.9784C1.75906 17.3469 1.53228 17.7721 1.36225 18.1689C1.27724 18.339 1.30556 18.5374 1.39057 18.7075C1.61735 19.1043 1.90077 19.5012 2.15587 19.8413C2.55268 20.3799 2.97787 20.8617 3.45974 21.3152C3.85655 21.712 4.31006 22.0805 4.76362 22.449C7.00282 24.1213 9.69558 25 12.4734 25C15.2511 25 17.9439 24.1213 20.1831 22.449C20.6366 22.1089 21.0901 21.712 21.487 21.3152C21.9405 20.8617 22.394 20.3798 22.7909 19.8413C23.0743 19.4728 23.3294 19.1043 23.5562 18.7075C23.6978 18.5374 23.7261 18.3389 23.6411 18.1689Z" fill="#70B8FF"/>
</svg>
