<svg width="25" height="25" viewBox="0 0 25 25" fill="none" xmlns="http://www.w3.org/2000/svg">
<path d="M12.4994 2.0835C18.2526 2.0835 22.9161 6.74704 22.9161 12.5002C22.9161 18.2533 18.2526 22.9168 12.4994 22.9168C6.74631 22.9168 2.08276 18.2533 2.08276 12.5002C2.08276 6.74704 6.74631 2.0835 12.4994 2.0835ZM12.4994 7.29183C12.3106 7.29184 12.1282 7.36021 11.986 7.4843C11.8437 7.60838 11.7511 7.77979 11.7255 7.96683L11.7182 8.07308V11.7189H8.07235C7.87441 11.719 7.68387 11.7942 7.53923 11.9293C7.39459 12.0644 7.30664 12.2494 7.29315 12.4469C7.27966 12.6444 7.34163 12.8396 7.46655 12.9932C7.59146 13.1467 7.77 13.2471 7.9661 13.2741L8.07235 13.2814H11.7182V16.9272C11.7182 17.1252 11.7934 17.3157 11.9286 17.4604C12.0637 17.605 12.2487 17.6929 12.4462 17.7064C12.6437 17.7199 12.8389 17.658 12.9924 17.533C13.146 17.4081 13.2464 17.2296 13.2734 17.0335L13.2807 16.9272V13.2814H16.9265C17.1245 13.2814 17.315 13.2062 17.4596 13.071C17.6043 12.9359 17.6922 12.7509 17.7057 12.5534C17.7192 12.3559 17.6572 12.1607 17.5323 12.0071C17.4074 11.8536 17.2289 11.7532 17.0328 11.7262L16.9265 11.7189H13.2807V8.07308C13.2807 7.86588 13.1984 7.66717 13.0519 7.52065C12.9053 7.37414 12.7066 7.29183 12.4994 7.29183Z" fill="#70B8FF"/>
</svg>
