<svg width="244" height="151" viewBox="0 0 244 151" fill="none" xmlns="http://www.w3.org/2000/svg">
<path fill-rule="evenodd" clip-rule="evenodd" d="M243.578 110.697L243.571 124.794C243.56 131.638 240.735 138.199 235.717 143.037C230.699 147.874 223.897 150.593 216.803 150.598L26.7416 150.509C19.6483 150.498 12.8492 147.772 7.83586 142.93C2.82257 138.088 0.00453895 131.524 0 124.68L6.02247e-06 124.643L0.0496847 25.8401L0.049691 25.8037C0.0611194 18.9592 2.88579 12.3985 7.90395 7.56103C12.9221 2.72356 19.724 0.00437136 26.8173 0L216.879 0.088956C223.972 0.0999673 230.772 2.82555 235.785 7.66772C240.798 12.5099 243.616 19.0732 243.621 25.9178L243.614 40.0148L243.578 110.697ZM235.878 108.094L235.87 124.791C235.862 129.665 233.85 134.337 230.277 137.782C226.703 141.227 221.859 143.163 216.808 143.166L26.746 143.077C21.6948 143.069 16.853 141.128 13.2829 137.68C9.71286 134.232 7.70606 129.558 7.7028 124.684L7.70281 124.647L7.75247 25.8442L7.75251 25.8078C7.76063 20.9336 9.77208 16.2616 13.3456 12.8167C16.9192 9.37179 21.7629 7.43537 26.8143 7.43225L216.876 7.52125C221.927 7.52909 226.769 9.47004 230.339 12.9183C233.909 16.3665 235.916 21.0404 235.919 25.9146L235.911 42.6113L235.878 108.094Z" fill="#E6E6E6"/>
<path d="M194.724 39.7291L88.9283 39.6796C88.3428 39.6799 87.763 39.5688 87.222 39.3528C86.6811 39.1367 86.1895 38.8199 85.7755 38.4205C85.3615 38.021 85.0332 37.5467 84.8093 37.0247C84.5854 36.5028 84.4702 35.9433 84.4705 35.3784C84.4708 34.8134 84.5865 34.2541 84.8109 33.7323C85.0354 33.2105 85.3642 32.7366 85.7786 32.3375C86.193 31.9384 86.6849 31.6221 87.226 31.4065C87.7672 31.191 88.3471 31.0805 88.9326 31.0813L194.729 31.1309C195.909 31.1326 197.041 31.5866 197.875 32.3931C198.71 33.1996 199.178 34.2926 199.177 35.4321C199.177 36.5715 198.707 37.6641 197.872 38.4698C197.037 39.2756 195.905 39.7285 194.724 39.7291Z" fill="#E6E6E6"/>
<path d="M213.095 54.2475L88.9206 54.1894C88.3352 54.1897 87.7554 54.0786 87.2145 53.8625C86.6736 53.6464 86.1821 53.3296 85.7681 52.9302C85.3542 52.5307 85.0258 52.0564 84.8019 51.5345C84.578 51.0125 84.4629 50.4531 84.4632 49.8882C84.4635 49.3233 84.5792 48.764 84.8036 48.2422C85.028 47.7205 85.3568 47.2465 85.7712 46.8474C86.1856 46.4484 86.6773 46.132 87.2185 45.9165C87.7596 45.7009 88.3395 45.5904 88.925 45.5912L213.099 45.6493C213.684 45.6496 214.264 45.7611 214.804 45.9774C215.345 46.1937 215.836 46.5106 216.249 46.91C216.663 47.3094 216.991 47.7834 217.214 48.3051C217.438 48.8268 217.553 49.3859 217.552 49.9505C217.552 50.5151 217.437 51.074 217.213 51.5955C216.988 52.117 216.66 52.5908 216.246 52.9898C215.832 53.3888 215.341 53.7053 214.8 53.9211C214.259 54.1369 213.68 54.2478 213.095 54.2475Z" fill="#E6E6E6"/>
<path d="M213.048 83.1895L29.9769 83.1038C28.796 83.1021 27.6641 82.6481 26.83 81.8416C25.9958 81.0351 25.5276 79.9421 25.5282 78.8026C25.5287 77.6632 25.9981 76.5706 26.8331 75.7649C27.668 74.9591 28.8003 74.5062 29.9812 74.5056L213.053 74.5913C213.638 74.5911 214.218 74.7021 214.759 74.9182C215.3 75.1343 215.791 75.4511 216.205 75.8505C216.619 76.25 216.947 76.7242 217.171 77.2462C217.395 77.7682 217.51 78.3276 217.51 78.8925C217.51 79.4574 217.394 80.0167 217.17 80.5385C216.945 81.0602 216.616 81.5342 216.202 81.9333C215.788 82.3323 215.296 82.6487 214.755 82.8643C214.214 83.0798 213.634 83.1903 213.048 83.1895L213.048 83.1895Z" fill="#E6E6E6"/>
<path d="M213.628 97.6996L29.9685 97.6136C28.7877 97.6119 27.6559 97.158 26.8217 96.3515C25.9875 95.5449 25.5193 94.4519 25.5199 93.3125C25.5204 92.173 25.9898 91.0804 26.8247 90.2747C27.6597 89.469 28.792 89.016 29.9729 89.0154L213.633 89.1014C214.813 89.1031 215.945 89.5571 216.779 90.3636C217.614 91.1701 218.082 92.2632 218.081 93.4026C218.081 94.542 217.611 95.6346 216.776 96.4404C215.941 97.2461 214.809 97.699 213.628 97.6996Z" fill="#E6E6E6"/>
<path d="M213.033 111.621L29.962 111.535C29.3765 111.536 28.7967 111.425 28.2557 111.209C27.7148 110.993 27.2232 110.676 26.8092 110.276C26.3952 109.877 26.0669 109.403 25.843 108.881C25.6191 108.359 25.5039 107.799 25.5042 107.234C25.5045 106.669 25.6202 106.11 25.8446 105.588C26.0691 105.066 26.3979 104.592 26.8123 104.193C27.2267 103.794 27.7186 103.478 28.2597 103.262C28.8009 103.047 29.3808 102.936 29.9663 102.937L213.038 103.023C214.219 103.025 215.35 103.479 216.185 104.285C217.019 105.092 217.487 106.185 217.486 107.324C217.486 108.464 217.017 109.556 216.182 110.362C215.347 111.168 214.214 111.621 213.033 111.621L213.033 111.621Z" fill="#E6E6E6"/>
<path d="M213.615 126.131L29.9549 126.045C28.774 126.044 27.6422 125.59 26.808 124.783C25.9738 123.977 25.5056 122.883 25.5062 121.744C25.5068 120.605 25.9761 119.512 26.8111 118.706C27.646 117.901 28.7783 117.448 29.9592 117.447L213.619 117.533C214.204 117.533 214.784 117.644 215.325 117.86C215.866 118.076 216.358 118.393 216.772 118.792C217.186 119.192 217.514 119.666 217.738 120.188C217.962 120.71 218.077 121.269 218.077 121.834C218.076 122.399 217.961 122.958 217.736 123.48C217.512 124.002 217.183 124.476 216.769 124.875C216.354 125.274 215.862 125.59 215.321 125.806C214.78 126.022 214.2 126.132 213.615 126.131Z" fill="#E6E6E6"/>
<path d="M65.2179 60.765L27.7777 60.7474C27.2113 60.7466 26.6684 60.5289 26.2681 60.1423C25.8677 59.7556 25.6427 59.2315 25.6424 58.685L25.6585 26.5268C25.6594 25.9802 25.885 25.4564 26.2857 25.0701C26.6864 24.6838 27.2295 24.4667 27.7959 24.4663L65.2361 24.4839C65.8025 24.4847 66.3454 24.7024 66.7458 25.089C67.1461 25.4757 67.3711 25.9997 67.3714 26.5463L67.3553 58.7045C67.3544 59.2511 67.1288 59.7749 66.7281 60.1612C66.3274 60.5475 65.7843 60.7646 65.2179 60.765Z" fill="#4385C6"/>
</svg>
