<svg width="170" height="170" viewBox="0 0 170 170" fill="none" xmlns="http://www.w3.org/2000/svg">
<path opacity="0.5" d="M5.94404 84.0947L5.15723 84.1867L6.56332 96.205L7.35013 96.113L5.94404 84.0947Z" fill="#5C82C0"/>
<path opacity="0.5" d="M7.86982 100.578L7.08301 100.67L7.79218 106.731L8.57899 106.639L7.86982 100.578Z" fill="#5C82C0"/>
<path d="M60.3778 59.5952L59.4428 56.9704C58.1168 53.2474 54.3938 50.9354 50.4668 51.3944L13.1654 55.7566C8.5108 56.3006 5.1822 60.5132 5.7262 65.1678L16.3444 155.944C16.7184 159.137 19.6084 161.418 22.7976 161.048L156.258 145.438C159.45 145.064 161.732 142.174 161.361 138.985L152.185 60.5098C151.811 57.3172 148.921 55.0358 145.731 55.4064L68.2318 64.4708C64.7944 64.872 61.5372 62.8524 60.3778 59.5952Z" fill="#88BDE8"/>
<path opacity="0.5" d="M64.1054 20.1147L21.9355 28.5211L33.5166 86.616L75.6865 78.2096L64.1054 20.1147Z" fill="#5C82C0"/>
<path opacity="0.7" d="M64.1054 20.1147L21.9355 28.5211L33.5166 86.616L75.6865 78.2096L64.1054 20.1147Z" fill="white"/>
<g opacity="0.5">
<path opacity="0.5" d="M58.4737 34.0986L32.4977 39.2768C31.2397 39.5284 30.0123 38.709 29.7607 37.451C29.5091 36.193 30.3285 34.9656 31.5865 34.714L57.5625 29.5358C58.8205 29.2842 60.0479 30.1036 60.2995 31.3616C60.5511 32.623 59.7351 33.847 58.4737 34.0986Z" fill="#5C82C0"/>
<path opacity="0.5" d="M60.3883 43.707L34.4123 48.8852C33.1543 49.1368 31.9269 48.3174 31.6753 47.0594C31.4237 45.8014 32.2431 44.574 33.5011 44.3224L59.4771 39.1442C60.7351 38.8926 61.9625 39.712 62.2141 40.97C62.4657 42.2314 61.6497 43.4554 60.3883 43.707Z" fill="#5C82C0"/>
<path opacity="0.5" d="M62.3024 53.312L36.3264 58.4902C35.0684 58.7418 33.841 57.9224 33.5894 56.6644C33.3378 55.4064 34.1572 54.179 35.4152 53.9274L61.3912 48.7492C62.6492 48.4976 63.8766 49.317 64.1282 50.575C64.3798 51.8364 63.5638 53.0604 62.3024 53.312Z" fill="#5C82C0"/>
<path opacity="0.5" d="M64.2169 62.917L38.2409 68.0952C36.9829 68.3468 35.7555 67.5274 35.5039 66.2694C35.2523 65.0114 36.0717 63.784 37.3297 63.5324L63.3057 58.3542C64.5637 58.1026 65.7911 58.922 66.0427 60.18C66.2943 61.4414 65.4783 62.6688 64.2169 62.917Z" fill="#5C82C0"/>
<path opacity="0.5" d="M59.0318 73.9398L40.155 77.7036C38.897 77.9552 37.6696 77.1358 37.418 75.8778C37.1664 74.6198 37.9858 73.3924 39.2438 73.1408L58.1206 69.377C59.3786 69.1254 60.606 69.9448 60.8576 71.2028C61.1092 72.4642 60.2932 73.6882 59.0318 73.9398Z" fill="#5C82C0"/>
</g>
<path opacity="0.5" d="M124.197 8.91154L81.5933 14.7423L89.626 73.4355L132.23 67.6048L124.197 8.91154Z" fill="#5C82C0"/>
<path opacity="0.7" d="M124.197 8.91154L81.5933 14.7423L89.626 73.4355L132.23 67.6048L124.197 8.91154Z" fill="white"/>
<g opacity="0.5">
<path opacity="0.5" d="M117.722 22.5284L91.4804 26.1188C90.2088 26.2922 89.0358 25.4014 88.8624 24.1298C88.689 22.8582 89.5798 21.6852 90.8514 21.5118L117.093 17.9214C118.364 17.748 119.537 18.6388 119.711 19.9104C119.884 21.182 118.993 22.355 117.722 22.5284Z" fill="#5C82C0"/>
<path opacity="0.5" d="M119.051 32.232L92.81 35.8224C91.5384 35.9958 90.3654 35.105 90.192 33.8334C90.0186 32.5618 90.9094 31.3888 92.181 31.2154L118.422 27.625C119.694 27.4516 120.867 28.3424 121.04 29.614C121.214 30.8856 120.323 32.0586 119.051 32.232Z" fill="#5C82C0"/>
<path opacity="0.5" d="M101.367 44.54L94.1357 45.5294C92.8641 45.7028 91.6911 44.812 91.5177 43.5404C91.3443 42.2688 92.2351 41.0958 93.5067 40.9224L100.738 39.933C102.01 39.7596 103.183 40.6504 103.356 41.922C103.53 43.1936 102.639 44.3666 101.367 44.54Z" fill="#5C82C0"/>
<path opacity="0.5" d="M115.389 42.619L108.158 43.6084C106.886 43.7818 105.713 42.891 105.54 41.6194C105.366 40.3478 106.257 39.1748 107.529 39.0014L114.76 38.012C116.032 37.8386 117.205 38.7294 117.378 40.001C117.552 41.2726 116.661 42.4456 115.389 42.619Z" fill="#5C82C0"/>
<path opacity="0.5" d="M121.706 51.6426L95.4653 55.233C94.1937 55.4064 93.0207 54.5156 92.8473 53.244C92.6739 51.9724 93.5647 50.7994 94.8363 50.626L121.077 47.0356C122.349 46.8622 123.522 47.753 123.695 49.0246C123.869 50.2962 122.978 51.4692 121.706 51.6426Z" fill="#5C82C0"/>
<path opacity="0.5" d="M115.862 62.3288L96.7914 64.94C95.5198 65.1134 94.3468 64.2226 94.1734 62.951C94 61.6794 94.8908 60.5064 96.1624 60.333L115.233 57.7218C116.505 57.5484 117.678 58.4392 117.851 59.7108C118.024 60.9824 117.137 62.1554 115.862 62.3288Z" fill="#5C82C0"/>
</g>
<path opacity="0.5" d="M83.9902 17.4908L41.1538 21.2231L46.2957 80.2362L89.1321 76.5039L83.9902 17.4908Z" fill="#5C82C0"/>
<path opacity="0.8" d="M83.9902 17.4908L41.1538 21.2231L46.2957 80.2362L89.1321 76.5039L83.9902 17.4908Z" fill="white"/>
<g opacity="0.5">
<path opacity="0.5" d="M76.8636 30.77L50.4762 33.0684C49.1978 33.1806 48.069 32.232 47.9568 30.9536C47.8446 29.6752 48.7932 28.5464 50.0716 28.4342L76.459 26.1358C77.7374 26.0236 78.8662 26.9722 78.9784 28.2506C79.0906 29.529 78.142 30.6578 76.8636 30.77Z" fill="#5C82C0"/>
<path opacity="0.5" d="M77.7137 40.528L51.3263 42.8264C50.0479 42.9386 48.9191 41.99 48.8069 40.7116C48.6947 39.4332 49.6433 38.3044 50.9217 38.1922L77.3091 35.8938C78.5875 35.7816 79.7163 36.7302 79.8285 38.0086C79.9407 39.287 78.9921 40.4158 77.7137 40.528Z" fill="#5C82C0"/>
<path opacity="0.5" d="M78.5638 50.286L52.1764 52.5844C50.898 52.6966 49.7692 51.748 49.657 50.4696C49.5448 49.1912 50.4934 48.0624 51.7718 47.9502L78.1592 45.6518C79.4376 45.5396 80.5664 46.4882 80.6786 47.7666C80.7908 49.045 79.8422 50.1738 78.5638 50.286Z" fill="#5C82C0"/>
<path opacity="0.5" d="M79.4134 60.044L53.026 62.3424C51.7476 62.4546 50.6188 61.506 50.5066 60.2276C50.3944 58.9492 51.343 57.8204 52.6214 57.7082L79.0088 55.4098C80.2872 55.2976 81.416 56.2462 81.5282 57.5246C81.6404 58.8064 80.6918 59.9318 79.4134 60.044Z" fill="#5C82C0"/>
<path opacity="0.5" d="M73.0521 70.431L53.8761 72.1039C52.5977 72.2161 51.4689 71.2675 51.3567 69.9891C51.2445 68.7107 52.1931 67.5819 53.4715 67.4697L72.6475 65.7969C73.9259 65.6847 75.0547 66.6333 75.1669 67.9117C75.2791 69.1935 74.3339 70.3189 73.0521 70.431Z" fill="#5C82C0"/>
</g>
<path opacity="0.5" d="M136.194 14.6127L93.2461 16.6852L96.1014 75.8524L139.05 73.7798L136.194 14.6127Z" fill="#5C82C0"/>
<path opacity="0.8" d="M136.194 14.6127L93.2461 16.6852L96.1014 75.8524L139.05 73.7798L136.194 14.6127Z" fill="white"/>
<g opacity="0.5">
<path opacity="0.5" d="M128.561 27.6046L102.106 28.883C100.824 28.9442 99.7328 27.9548 99.6716 26.673C99.6104 25.3912 100.6 24.2998 101.882 24.2386L128.337 22.9602C129.619 22.899 130.71 23.8884 130.771 25.1702C130.833 26.452 129.843 27.5434 128.561 27.6046Z" fill="#5C82C0"/>
<path opacity="0.5" d="M129.034 37.3898L102.579 38.6682C101.297 38.7294 100.205 37.74 100.144 36.4582C100.083 35.1764 101.072 34.085 102.354 34.0238L128.81 32.7454C130.091 32.6842 131.183 33.6736 131.244 34.9554C131.305 36.2372 130.316 37.3252 129.034 37.3898Z" fill="#5C82C0"/>
<path opacity="0.5" d="M110.34 48.0964L103.051 48.45C101.769 48.5112 100.678 47.5218 100.616 46.24C100.555 44.9582 101.545 43.8668 102.826 43.8056L110.116 43.452C111.398 43.3908 112.489 44.3802 112.55 45.662C112.612 46.9438 111.622 48.0352 110.34 48.0964Z" fill="#5C82C0"/>
<path opacity="0.5" d="M124.475 47.4164L117.185 47.77C115.903 47.8312 114.812 46.8418 114.751 45.56C114.69 44.2782 115.679 43.1868 116.961 43.1256L124.25 42.772C125.532 42.7108 126.624 43.7002 126.685 44.982C126.749 46.2638 125.76 47.3518 124.475 47.4164Z" fill="#5C82C0"/>
<path opacity="0.5" d="M129.979 56.9568L103.524 58.2352C102.242 58.2964 101.15 57.307 101.089 56.0252C101.028 54.7434 102.017 53.652 103.299 53.5908L129.755 52.3124C131.036 52.2512 132.128 53.2406 132.189 54.5224C132.25 55.8042 131.261 56.8956 129.979 56.9568Z" fill="#5C82C0"/>
<path opacity="0.5" d="M123.22 67.0888L103.993 68.017C102.711 68.0782 101.62 67.0888 101.558 65.807C101.497 64.5252 102.487 63.4338 103.768 63.3726L122.995 62.4444C124.277 62.3832 125.369 63.3726 125.43 64.6544C125.491 65.9362 124.502 67.0276 123.22 67.0888Z" fill="#5C82C0"/>
</g>
<path opacity="0.5" d="M72.2877 61.2748L71.6043 58.7044C70.6353 55.063 67.1673 52.8088 63.2403 53.2678L25.9423 57.6334C21.2877 58.1774 17.6055 62.3118 17.7143 66.8644L19.8291 155.723C19.9039 158.848 22.5491 161.075 25.7417 160.704L159.202 145.095C162.394 144.721 164.921 141.889 164.846 138.764L163.017 61.948C162.942 58.8234 160.297 56.5964 157.104 56.967L79.6045 66.0314C76.1705 66.4326 73.1377 64.4606 72.2877 61.2748Z" fill="#5C82C0"/>
<path d="M72.2877 61.2748L71.6043 58.7044C70.6353 55.063 67.1673 52.8088 63.2403 53.2678L25.9423 57.6334C21.2877 58.1774 17.6055 62.3118 17.7143 66.8644L19.8291 155.723C19.9039 158.848 22.5491 161.075 25.7417 160.704L159.202 145.095C162.394 144.721 164.921 141.889 164.846 138.764L163.017 61.948C162.942 58.8234 160.297 56.5964 157.104 56.967L79.6045 66.0314C76.1705 66.4326 73.1377 64.4606 72.2877 61.2748Z" fill="#5C82C0"/>
</svg>
