<svg width="25" height="25" viewBox="0 0 25 25" fill="none" xmlns="http://www.w3.org/2000/svg">
<path d="M23.2451 7.86353H22.5604V15.3896C22.5604 16.5614 21.8781 17.621 20.5104 17.621H7.10974V17.9788C7.10974 19.0148 8.28806 20.0606 9.49809 20.0606H19.7435L23.6631 22.3652L23.0947 20.0606H23.2451C24.4543 20.0606 25 19.0173 25 17.9788V9.65011C25 8.6141 24.4543 7.86353 23.2451 7.86353Z" fill="#D0E8FF"/>
<path d="M18.5099 2.63477H2.94539C1.57597 2.63477 0 3.8513 0 5.02393V14.457C0 15.5369 1.33526 16.3167 2.61604 16.4371L1.78252 19.6012L7.12357 16.4591H18.5099C19.8793 16.4591 21.143 15.6288 21.143 14.457V6.82515V5.02393C21.143 3.8513 19.8785 2.63477 18.5099 2.63477ZM5.31991 10.5976C4.54331 10.5976 3.9139 9.96814 3.9139 9.19154C3.9139 8.41494 4.54331 7.78553 5.31991 7.78553C6.0957 7.78553 6.72592 8.41494 6.72592 9.19154C6.72592 9.96814 6.0957 10.5976 5.31991 10.5976ZM10.5715 10.5976C9.79491 10.5976 9.1655 9.96814 9.1655 9.19154C9.1655 8.41494 9.79491 7.78553 10.5715 7.78553C11.3481 7.78553 11.9775 8.41494 11.9775 9.19154C11.9775 9.96814 11.3481 10.5976 10.5715 10.5976ZM15.8239 10.5976C15.0473 10.5976 14.4171 9.96814 14.4171 9.19154C14.4171 8.41494 15.0473 7.78553 15.8239 7.78553C16.5989 7.78553 17.2299 8.41494 17.2299 9.19154C17.2299 9.96814 16.5989 10.5976 15.8239 10.5976Z" fill="#70B8FF"/>
</svg>
