<svg width="40" height="41" viewBox="0 0 40 41" fill="none" xmlns="http://www.w3.org/2000/svg">
<circle cx="20" cy="20.369" r="20" fill="#F0F8FF"/>
<path d="M22.7058 23.794L24.1058 22.394C24.2943 22.2078 24.5329 22.0803 24.7925 22.0271C25.0521 21.9738 25.3216 21.9971 25.5683 22.094L27.2745 22.7753C27.5238 22.8765 27.7375 23.0492 27.8888 23.2716C28.04 23.4941 28.1221 23.7563 28.1245 24.0253V27.1503C28.1231 27.3333 28.0846 27.5141 28.0114 27.6818C27.9383 27.8495 27.8319 28.0007 27.6988 28.1263C27.5657 28.2518 27.4085 28.3491 27.2368 28.4123C27.065 28.4755 26.8823 28.5033 26.6995 28.494C14.7433 27.7503 12.3308 17.6253 11.8745 13.7503C11.8534 13.56 11.8727 13.3674 11.9313 13.1851C11.9899 13.0028 12.0865 12.835 12.2146 12.6928C12.3427 12.5505 12.4995 12.4369 12.6746 12.3596C12.8498 12.2822 13.0393 12.2429 13.2308 12.244H16.2495C16.5189 12.2448 16.7819 12.3262 17.0047 12.4777C17.2274 12.6292 17.3998 12.8438 17.4995 13.094L18.1808 14.8003C18.2809 15.046 18.3065 15.3157 18.2543 15.5758C18.202 15.8359 18.0743 16.0749 17.887 16.2628L16.487 17.6628C16.487 17.6628 17.2933 23.119 22.7058 23.794Z" fill="#5AA2E8"/>
</svg>
