<svg width="25" height="26" viewBox="0 0 25 26" fill="none" xmlns="http://www.w3.org/2000/svg">
<g clip-path="url(#clip0)">
<path d="M9.63535 0.914062H1.82285C0.81768 0.914062 0 1.73174 0 2.73692V7.42442C0 8.42978 0.81768 9.24746 1.82285 9.24746H9.63535C10.6407 9.24746 11.4584 8.42978 11.4584 7.42442V2.73692C11.4584 1.73174 10.6407 0.914062 9.63535 0.914062Z" fill="#B0D8FF"/>
<path d="M9.63535 11.3306H1.82285C0.81768 11.3306 0 12.1482 0 13.1536V24.0911C0 25.0963 0.81768 25.914 1.82285 25.914H9.63535C10.6407 25.914 11.4584 25.0963 11.4584 24.0911V13.1536C11.4584 12.1482 10.6407 11.3306 9.63535 11.3306V11.3306Z" fill="#70B8FF"/>
<path d="M23.1772 17.5806H15.3647C14.3593 17.5806 13.5416 18.3982 13.5416 19.4036V24.0911C13.5416 25.0963 14.3593 25.914 15.3647 25.914H23.1772C24.1823 25.914 25 25.0963 25 24.0911V19.4036C25 18.3982 24.1823 17.5806 23.1772 17.5806V17.5806Z" fill="#B0D8FF"/>
<path d="M23.1772 0.914062H15.3647C14.3593 0.914062 13.5416 1.73174 13.5416 2.73692V13.6744C13.5416 14.6798 14.3593 15.4975 15.3647 15.4975H23.1772C24.1823 15.4975 25 14.6798 25 13.6744V2.73692C25 1.73174 24.1823 0.914063 23.1772 0.914063V0.914062Z" fill="#70B8FF"/>
</g>
<defs>
<clipPath id="clip0">
<rect width="25" height="25" fill="white" transform="translate(0 0.914062)"/>
</clipPath>
</defs>
</svg>
