<svg width="50" height="50" viewBox="0 0 50 50" fill="none" xmlns="http://www.w3.org/2000/svg">
<circle cx="25" cy="25" r="25" fill="#F0F8FF"/>
<g clip-path="url(#clip0)">
<path d="M28.125 19.2708C27.55 19.2708 27.0833 18.8042 27.0833 18.2292V16.6667H22.9166V18.2292C22.9166 18.8042 22.45 19.2708 21.875 19.2708C21.3 19.2708 20.8333 18.8042 20.8333 18.2292V16.6667C20.8333 15.5177 21.7677 14.5833 22.9166 14.5833H27.0833C28.2323 14.5833 29.1666 15.5177 29.1666 16.6667V18.2292C29.1666 18.8042 28.7 19.2708 28.125 19.2708Z" fill="#70B8FF"/>
<path d="M25.7396 28.5208C25.5521 28.5937 25.2812 28.6458 25 28.6458C24.7187 28.6458 24.4479 28.5937 24.1979 28.5L12.5 24.6042V32.5521C12.5 34.1354 13.7812 35.4167 15.3646 35.4167H34.6354C36.2188 35.4167 37.5 34.1354 37.5 32.5521V24.6042L25.7396 28.5208Z" fill="#70B8FF"/>
<path d="M37.5 20.5729V22.9583L25.25 27.0417C25.1667 27.0729 25.0833 27.0833 25 27.0833C24.9167 27.0833 24.8333 27.0729 24.75 27.0417L12.5 22.9583V20.5729C12.5 18.9896 13.7812 17.7083 15.3646 17.7083H34.6354C36.2188 17.7083 37.5 18.9896 37.5 20.5729Z" fill="#70B8FF"/>
</g>
<defs>
<clipPath id="clip0">
<rect width="25" height="25" fill="white" transform="translate(12.5 12.5)"/>
</clipPath>
</defs>
</svg>
