<svg width="50" height="50" viewBox="0 0 50 50" fill="none" xmlns="http://www.w3.org/2000/svg">
<circle cx="25" cy="25" r="25" fill="#F0F8FF"/>
<g clip-path="url(#clip0)">
<path d="M36.1771 13H14.8229C13.8177 13 13 13.8177 13 14.8229V17.4271C13 18.4323 13.8177 19.25 14.8229 19.25H36.1771C37.1823 19.25 38 18.4323 38 17.4271V14.8229C38 13.8177 37.1823 13 36.1771 13Z" fill="#5AA2E8"/>
<path d="M13.7813 24.9792H28.8854C29.3167 24.9792 29.6667 24.6292 29.6667 24.1979C29.6667 23.7667 29.3167 23.4167 28.8854 23.4167H13.7813C13.35 23.4167 13 23.7667 13 24.1979C13 24.6292 13.35 24.9792 13.7813 24.9792Z" fill="#5AA2E8"/>
<path d="M13.7813 28.1042H28.8854C29.3167 28.1042 29.6667 27.7542 29.6667 27.3229C29.6667 26.8917 29.3167 26.5417 28.8854 26.5417H13.7813C13.35 26.5417 13 26.8917 13 27.3229C13 27.7542 13.35 28.1042 13.7813 28.1042Z" fill="#5AA2E8"/>
<path d="M13.7813 34.3542H28.8854C29.3167 34.3542 29.6667 34.0042 29.6667 33.5729C29.6667 33.1417 29.3167 32.7917 28.8854 32.7917H13.7813C13.35 32.7917 13 33.1417 13 33.5729C13 34.0042 13.35 34.3542 13.7813 34.3542Z" fill="#5AA2E8"/>
<path d="M13.7813 37.4792H28.8854C29.3167 37.4792 29.6667 37.1292 29.6667 36.6979C29.6667 36.2667 29.3167 35.9167 28.8854 35.9167H13.7813C13.35 35.9167 13 36.2667 13 36.6979C13 37.1292 13.35 37.4792 13.7813 37.4792Z" fill="#5AA2E8"/>
<path d="M34.875 28.625C36.6009 28.625 38 27.2259 38 25.5C38 23.7741 36.6009 22.375 34.875 22.375C33.1491 22.375 31.75 23.7741 31.75 25.5C31.75 27.2259 33.1491 28.625 34.875 28.625Z" fill="#5AA2E8"/>
<path d="M34.875 38C36.6009 38 38 36.6009 38 34.875C38 33.1491 36.6009 31.75 34.875 31.75C33.1491 31.75 31.75 33.1491 31.75 34.875C31.75 36.6009 33.1491 38 34.875 38Z" fill="#5AA2E8"/>
</g>
<defs>
<clipPath id="clip0">
<rect width="25" height="25" fill="white" transform="translate(13 13)"/>
</clipPath>
</defs>
</svg>
