<svg width="70" height="71" viewBox="0 0 70 71" fill="none" xmlns="http://www.w3.org/2000/svg">
<circle cx="35" cy="35.288" r="35" fill="#F0F8FF"/>
<g clip-path="url(#clip0)">
<path d="M37.746 42.5518C37.1231 42.9338 36.3253 43.1443 35.4996 43.1443C34.674 43.1443 33.8762 42.9339 33.2532 42.5518L23.083 36.3143C23.083 36.3143 22.165 35.7516 22.165 37.0263C22.165 38.4738 22.165 42.8162 22.165 42.8162C22.165 42.8741 22.165 43.1647 22.165 43.2548C22.165 46.5359 28.135 50.0731 35.4994 50.0731C42.8637 50.0731 48.8337 46.536 48.8337 43.2548C48.8337 43.1647 48.8337 42.8741 48.8337 42.8162C48.8337 42.8162 48.8337 38.2104 48.8337 36.6751C48.8337 35.652 48.1811 36.1519 48.1811 36.1519L37.746 42.5518Z" fill="#5AA2E8"/>
<path d="M52.4139 31.3528C53.1954 30.8735 53.1954 30.0892 52.4139 29.6099L36.9208 21.8624C36.1393 21.3831 34.8606 21.3831 34.0791 21.8624L18.5861 29.6099C17.8046 30.0892 17.8046 30.8734 18.5861 31.3528L34.0791 40.8548C34.8606 41.334 36.1393 41.334 36.9208 40.8548" fill="#5AA2E8"/>
<path d="M51.7725 45.437C51.7725 42.8134 51.7725 34.9428 51.7725 34.9428C51.7725 34.9428 51.7798 34.4457 51.4848 34.6098C51.2482 34.7415 50.6683 35.0648 50.464 35.2425C50.2281 35.4475 50.2812 35.9077 50.2812 35.9077C50.2812 35.9077 50.2812 43.0547 50.2812 45.437C50.2812 45.5723 50.165 45.6368 50.1095 45.6695C49.574 45.9843 49.2139 46.5655 49.2139 47.2318C49.2139 48.2331 50.0255 49.0448 51.0269 49.0448C52.0282 49.0448 52.8398 48.2331 52.8398 47.2318C52.8398 46.5629 52.4771 45.9799 51.9381 45.6659C51.8845 45.6346 51.7725 45.5722 51.7725 45.437Z" fill="#5AA2E8"/>
</g>
<defs>
<clipPath id="clip0">
<rect width="35" height="35" fill="white" transform="translate(18 18.288)"/>
</clipPath>
</defs>
</svg>
