<svg width="50" height="50" viewBox="0 0 50 50" fill="none" xmlns="http://www.w3.org/2000/svg">
<circle cx="25" cy="25" r="25" fill="#F0F8FF"/>
<g clip-path="url(#clip0)">
<path d="M22.5997 20.2266H25.2404C25.7047 19.263 25.0019 18.127 23.9197 18.127C22.8395 18.127 22.1335 19.2612 22.5997 20.2266Z" fill="#5AA2E8"/>
<path d="M23.9197 16.6621C25.7856 16.6621 27.1851 18.393 26.7801 20.2266H30.5115V18.6152C30.5115 18.3456 30.2929 18.127 30.0232 18.127H29.0377C28.9254 17.7338 28.7687 17.3594 28.574 17.0091L29.2713 16.3118C29.462 16.1211 29.462 15.8119 29.2713 15.6212L27.8902 14.2402C27.6996 14.0495 27.3904 14.0495 27.1997 14.2402L26.5024 14.9375C26.1521 14.7427 25.7777 14.5861 25.3845 14.4737V13.4883C25.3845 13.2186 25.1659 13 24.8962 13H22.9431C22.6734 13 22.4548 13.2186 22.4548 13.4883V14.4738C22.0617 14.5861 21.6873 14.7427 21.337 14.9375L20.6396 14.2402C20.449 14.0495 20.1398 14.0495 19.9491 14.2402L18.5681 15.6212C18.3774 15.8119 18.3774 16.1211 18.5681 16.3118L19.2654 17.0091C19.0707 17.3594 18.914 17.7338 18.8017 18.127H17.8162C17.5465 18.127 17.3279 18.3456 17.3279 18.6152V20.2266H21.0609C20.6537 18.3882 22.0577 16.6621 23.9197 16.6621Z" fill="#5AA2E8"/>
<path d="M36.1458 28.5107L33.2713 24.2124C33.2223 23.3428 33.0477 22.499 32.7504 21.6914H15.2667C13.6173 26.1693 15.8727 31.3333 20.5906 33.0073V37.2676C20.5906 37.6719 20.9182 38 21.323 38H29.6726C30.0769 38 30.4051 37.6719 30.4051 37.2676V33.5078H32.5535C32.9578 33.5078 33.2859 33.1797 33.2859 32.7754V29.6504H35.5369C36.1209 29.6504 36.471 28.9971 36.1458 28.5107Z" fill="#5AA2E8"/>
</g>
<defs>
<clipPath id="clip0">
<rect width="25" height="25" fill="white" transform="translate(13 13)"/>
</clipPath>
</defs>
</svg>
