<svg width="81" height="36" viewBox="0 0 81 36" fill="none" xmlns="http://www.w3.org/2000/svg">
<path d="M22.9611 0C24.8042 0 26.2971 1.49287 26.2971 3.33605C26.2971 5.17923 24.8042 6.6721 22.9611 6.6721C21.1179 6.6721 19.625 5.17923 19.625 3.33605C19.625 1.49287 21.1179 0 22.9611 0Z" fill="#6BBFEB"/>
<path d="M7.12195 0H0.453125V35.5671H7.12195V0Z" fill="#4385C6"/>
<path d="M0.455078 13.0099L0.455078 19.5117H26.2956V13.0099L0.455078 13.0099Z" fill="#4385C6"/>
<path d="M19.6241 35.5654H26.293L26.293 9.49578H19.6241L19.6241 35.5654Z" fill="#4385C6"/>
<path d="M31.1562 35.4072V13.8096H36.3224V17.5353L36.2373 19.0609H36.3224C36.8298 17.4502 37.6974 16.1243 38.9284 15.0799C40.1561 14.0355 41.5769 13.5117 43.1844 13.5117L44.16 13.5968V18.8907C43.7933 18.835 43.3677 18.8055 42.8897 18.8055C41.6195 18.8055 40.4409 19.1853 39.354 19.9481C38.267 20.7109 37.4846 21.8404 37.0033 23.3365C36.6923 24.2958 36.5385 25.4678 36.5385 26.8526V35.4072H31.1562Z" fill="#4385C6"/>
<path d="M44.3691 24.6096C44.3691 21.2769 45.3906 18.5596 47.44 16.4577C49.4862 14.3559 52.1216 13.3018 55.3398 13.3018C58.3616 13.3018 60.7122 14.2708 62.3917 16.2024C64.0711 18.1372 64.9125 20.5861 64.9125 23.5489L64.7848 25.6245H49.8757C50.046 27.4317 50.7433 28.8362 51.971 29.838C53.1987 30.8398 54.6588 31.3407 56.3547 31.3407C57.3729 31.3407 58.4008 31.1442 59.4452 30.7481C60.4896 30.352 61.2786 29.9591 61.8155 29.563L62.5783 28.9704L64.6539 32.8237C64.5688 32.9088 64.4411 33.0201 64.2741 33.1642C64.1039 33.305 63.7307 33.5538 63.1512 33.9041C62.5717 34.2577 61.9726 34.5687 61.3506 34.8371C60.7285 35.1056 59.933 35.3511 58.9574 35.577C57.9818 35.8029 56.9898 35.9142 55.9716 35.9142C52.4981 35.9142 49.6957 34.8208 47.5644 32.6306C45.4364 30.4469 44.3691 27.7722 44.3691 24.6096ZM50.046 21.9414H59.491C59.4616 20.5304 59.0458 19.4304 58.2404 18.6381C57.4351 17.8491 56.4267 17.453 55.2121 17.453C53.8273 17.453 52.6847 17.8491 51.7811 18.6381C50.8775 19.4271 50.2981 20.5271 50.046 21.9414Z" fill="#4385C6"/>
<path d="M67.4512 35.4072V13.8096H72.6173V17.5353L72.5322 19.0609H72.6173C73.1247 17.4502 73.9923 16.1243 75.2233 15.0799C76.451 14.0355 77.8718 13.5117 79.4793 13.5117L80.4549 13.5968V18.8907C80.0882 18.835 79.6626 18.8055 79.1846 18.8055C77.9144 18.8055 76.7358 19.1853 75.6489 19.9481C74.562 20.7109 73.7795 21.8404 73.2983 23.3365C72.9872 24.2958 72.8334 25.4678 72.8334 26.8526V35.4072H67.4512Z" fill="#4385C6"/>
</svg>
