<svg width="634" height="596" viewBox="0 0 634 596" fill="none" xmlns="http://www.w3.org/2000/svg">
<g opacity="0.53">
<g opacity="0.53">
<path opacity="0.53" d="M601.92 238.734C601.92 238.734 625.682 334.165 559.505 417.319C493.329 500.473 377.979 532.776 285.262 561.277C192.546 589.766 105.701 556.878 73.126 483.618C40.5511 410.37 106.348 370.903 120.866 275.233C135.372 179.563 123.795 152.004 191.468 79.1605C259.142 6.31742 398.013 8.04582 491.921 82.8438C585.816 157.63 601.92 238.734 601.92 238.734Z" fill="#6BBFEB"/>
<path opacity="0.8" d="M601.92 238.734C601.92 238.734 625.682 334.165 559.505 417.319C493.329 500.473 377.979 532.776 285.262 561.277C192.546 589.766 105.701 556.878 73.126 483.618C40.5511 410.37 106.348 370.903 120.866 275.233C135.372 179.563 123.795 152.004 191.468 79.1605C259.142 6.31742 398.013 8.04582 491.921 82.8438C585.816 157.63 601.92 238.734 601.92 238.734Z" fill="#D0E8FF"/>
</g>
</g>
<path d="M58.2148 418.929H569.282" stroke="#263238" stroke-miterlimit="10"/>
<path d="M58.2148 327.967H569.282" stroke="#263238" stroke-miterlimit="10"/>
<path d="M58.2148 237.006H569.282" stroke="#263238" stroke-miterlimit="10"/>
<path d="M58.2148 146.044H569.282" stroke="#263238" stroke-miterlimit="10"/>
<path d="M174.414 94.3945V419.143" stroke="#263238" stroke-miterlimit="10"/>
<path d="M481.601 94.3945V419.143" stroke="#263238" stroke-miterlimit="10"/>
<path d="M185.813 214.774L182.021 218.541" stroke="#263238" stroke-miterlimit="10"/>
<path d="M250.594 150.55L190.402 210.233" stroke="#263238" stroke-miterlimit="10"/>
<path d="M254.349 160.265L220.531 192.937" stroke="#263238" stroke-miterlimit="10"/>
<path d="M494.737 214.774L490.945 218.541" stroke="#263238" stroke-miterlimit="10"/>
<path d="M559.519 150.55L499.327 210.233" stroke="#263238" stroke-miterlimit="10"/>
<path d="M563.272 160.265L529.454 192.937" stroke="#263238" stroke-miterlimit="10"/>
<path d="M50.5433 398.462L46.752 402.229" stroke="#263238" stroke-miterlimit="10"/>
<path d="M115.325 334.225L55.1328 393.92" stroke="#263238" stroke-miterlimit="10"/>
<path d="M119.079 343.939L85.2617 376.612" stroke="#263238" stroke-miterlimit="10"/>
<path d="M100.337 137.068L96.5332 140.835" stroke="#263238" stroke-miterlimit="10"/>
<path d="M165.106 72.8311L104.914 132.515" stroke="#263238" stroke-miterlimit="10"/>
<path d="M168.872 82.5459L135.055 115.219" stroke="#263238" stroke-miterlimit="10"/>
<path d="M381.833 137.068L378.029 140.835" stroke="#263238" stroke-miterlimit="10"/>
<path d="M446.603 72.8311L386.411 132.515" stroke="#263238" stroke-miterlimit="10"/>
<path d="M450.368 82.5459L416.551 115.219" stroke="#263238" stroke-miterlimit="10"/>
<path d="M294.785 309.264L290.994 313.03" stroke="#263238" stroke-miterlimit="10"/>
<path d="M359.568 245.039L299.376 304.722" stroke="#263238" stroke-miterlimit="10"/>
<path d="M363.321 254.754L329.503 287.427" stroke="#263238" stroke-miterlimit="10"/>
<path d="M354.165 401.334H236.33V208.802C236.33 196.632 246.829 186.75 259.788 186.75H330.72C343.666 186.75 354.178 196.62 354.178 208.802V401.334H354.165Z" fill="#263238" stroke="#263238" stroke-miterlimit="10" stroke-linecap="round" stroke-linejoin="round"/>
<path d="M368.077 513.99L305.843 496.777V477.61H302.331V406.9H291.261V477.61H287.749V496.253L225.516 513.978V516.779H226.34C225.883 517.578 225.617 518.507 225.617 519.485C225.617 522.632 228.331 525.183 231.678 525.183C235.026 525.183 237.739 522.632 237.739 519.485C237.739 517.47 236.636 515.706 234.962 514.693L235.076 514.586L292.098 508.137V515.861C291.236 516.851 290.716 518.114 290.716 519.485C290.716 522.632 293.43 525.183 296.777 525.183C300.125 525.183 302.838 522.632 302.838 519.485C302.838 518.114 302.318 516.851 301.456 515.861V508.137L358.389 514.574C356.601 515.563 355.397 517.387 355.397 519.485C355.397 522.632 358.11 525.183 361.458 525.183C364.805 525.183 367.519 522.632 367.519 519.485C367.519 518.507 367.253 517.59 366.796 516.779H368.052V513.99H368.077Z" fill="#263238" stroke="#263238" stroke-miterlimit="10" stroke-linecap="round" stroke-linejoin="round"/>
<path d="M350.513 427.308H242.163C237.065 427.308 232.932 423.422 232.932 418.63V409.904C232.932 405.112 237.065 401.227 242.163 401.227H350.513C355.611 401.227 359.744 405.112 359.744 409.904V418.63C359.744 423.422 355.611 427.308 350.513 427.308Z" fill="white" stroke="#263238" stroke-miterlimit="10" stroke-linecap="round" stroke-linejoin="round"/>
<path d="M341.447 358.899H253.359V404.946H341.447V358.899Z" fill="white" stroke="#263238" stroke-miterlimit="10" stroke-linecap="round" stroke-linejoin="round"/>
<path d="M289.334 226.372L275.843 231.343C275.843 231.343 280.737 259.843 287.191 274.553C293.646 289.262 317.509 312.613 317.509 312.613C317.509 312.613 329.834 295.699 334.133 282.277C338.431 268.855 333.943 231.152 333.943 231.152C333.943 231.152 330.024 228.756 323.963 227.838C317.902 226.92 289.334 226.372 289.334 226.372Z" fill="white" stroke="#263238" stroke-miterlimit="10" stroke-linecap="round" stroke-linejoin="round"/>
<path d="M302.445 246.422L308.684 257.686L298.337 279.143L314.96 302.685L325.13 281.169L312.805 257.269L319.272 246.78L310.066 238.138L302.445 246.422Z" fill="#263238" stroke="#263238" stroke-miterlimit="10" stroke-linecap="round" stroke-linejoin="round"/>
<path d="M291.299 225.085L287.001 226.194L282.893 233L293.062 260.034L309.685 243.847L327.881 261.322C327.881 261.322 330.037 234.108 330.037 230.985C330.037 227.862 327.108 226.754 324.952 226.205C322.784 225.633 291.299 225.085 291.299 225.085Z" fill="white" stroke="#263238" stroke-miterlimit="10" stroke-linecap="round" stroke-linejoin="round"/>
<path d="M286.988 226.193C286.988 226.193 288.852 250.653 299.706 272.169C305.298 283.254 315.746 298.834 315.746 298.286C315.746 297.737 326.119 268.867 326.499 259.116C326.892 249.366 328.845 228.589 328.845 228.589C328.845 228.589 348.905 236.099 353.685 238.697C361.115 242.738 370.511 243.668 370.308 248.448C370.232 250.176 371.5 261.584 373.111 275.423C373.364 277.616 385.956 296.545 386.222 298.834C388.923 321.923 379.755 331.638 379.311 331.745C378.525 331.924 362.295 331.745 362.295 331.745C362.295 331.745 371.095 369.436 372.464 371.462C373.833 373.489 373.833 373.489 373.833 373.489H303.891L300.974 365.216L298.375 373.489H226.543L236.129 332.484H225.566C225.566 332.484 222.827 327.335 226.543 308.024C230.258 288.714 242.773 240.354 242.773 238.697C242.773 237.041 282.88 230.234 286.988 226.193Z" fill="#4385C6" stroke="#263238" stroke-miterlimit="10"/>
<path d="M301.925 321.732L300.974 365.205" stroke="#263238" stroke-miterlimit="10" stroke-linecap="round" stroke-linejoin="round"/>
<path d="M328.844 305.259C340.383 295.151 345.468 274.923 345.468 274.923L335.096 270.691L345.075 266.09L336.452 231.558C331.571 227.601 328.705 227.708 328.832 228.578C328.832 228.578 326.879 249.355 326.486 259.105C326.093 268.856 315.733 297.726 315.733 298.274C315.733 298.823 304.233 283.66 299.693 272.158C289.118 245.373 287.089 229.198 286.785 226.158C286.76 225.932 286.506 225.825 286.303 225.944C284.845 226.754 281.282 227.422 278.67 229.52C277.96 234.288 277.047 241.201 276.413 248.806C275.233 262.967 275.233 269.213 275.233 269.213L288.725 272.336L279.139 277.486C279.139 277.486 289.701 287.594 298.501 295.139C307.301 302.673 313.172 305.438 313.172 305.438L301.899 321.733C301.925 321.733 317.306 315.38 328.844 305.259Z" fill="#4385C6" stroke="#263238" stroke-miterlimit="10"/>
<path d="M289.334 212.95V228.768C289.334 228.768 293.633 242.011 308.899 242.929C324.939 243.895 327.678 229.316 327.678 229.316V215.346C327.678 215.334 297.944 222.141 289.334 212.95Z" fill="white" stroke="#263238" stroke-miterlimit="10" stroke-linecap="round" stroke-linejoin="round"/>
<path d="M331.394 191.613C331.394 191.613 331.977 184.438 336.682 184.438C341.386 184.438 341.373 192.71 340.207 196.024C339.027 199.337 332.966 201.721 331.014 199.147" fill="white"/>
<path d="M331.394 191.613C331.394 191.613 331.977 184.438 336.682 184.438C341.386 184.438 341.373 192.71 340.207 196.024C339.027 199.337 332.966 201.721 331.014 199.147" stroke="#263238" stroke-miterlimit="10" stroke-linecap="round" stroke-linejoin="round"/>
<path d="M311.917 155.818C311.917 155.818 294.634 155.222 288.662 159.358C282.69 163.494 283.945 174.723 283.945 178.263C283.945 181.804 286.773 212.235 288.662 216.658C290.551 221.092 304.372 227.886 316.317 225.228C328.262 222.57 332.028 214.595 332.662 210.459C333.296 206.323 333.296 174.723 332.662 166.451C332.028 158.178 320.4 156.7 311.917 155.818Z" fill="white" stroke="#263238" stroke-miterlimit="10" stroke-linecap="round" stroke-linejoin="round"/>
<path d="M332.826 169.74C332.776 168.441 332.712 167.321 332.649 166.462C332.015 158.19 320.4 156.712 311.917 155.83C311.917 155.83 294.634 155.234 288.662 159.37C282.69 163.506 283.945 174.735 283.945 178.275C283.945 179.693 284.401 185.415 285.061 192.055C286.164 192.472 287.622 192.555 288.345 190.684C289.6 187.43 287.711 184.485 289.283 180.349C290.856 176.213 291.477 173.555 295.255 171.493C299.034 169.43 302.8 168.536 302.8 168.536C302.8 168.536 294.938 177.107 312.221 176.809C323.456 176.594 329.783 174.401 332.826 169.74Z" fill="#263238" stroke="#263238" stroke-miterlimit="10" stroke-linecap="round" stroke-linejoin="round"/>
<path d="M315.353 184.819C315.353 184.819 318.282 197.872 315.543 199.159C312.805 200.446 311.042 200.816 308.696 196.406" stroke="#263238" stroke-miterlimit="10" stroke-linecap="round" stroke-linejoin="round"/>
<path d="M300.1 198.969C300.1 198.969 299.516 205.036 312.615 204.118" stroke="#263238" stroke-miterlimit="10" stroke-linecap="round" stroke-linejoin="round"/>
<path d="M304.208 185.094C304.208 186.369 303.637 187.394 302.94 187.394C302.242 187.394 301.672 186.369 301.672 185.094C301.672 183.83 302.242 182.793 302.94 182.793C303.637 182.793 304.208 183.818 304.208 185.094Z" fill="#263238"/>
<path d="M323.862 185.094C323.862 186.369 323.292 187.394 322.594 187.394C321.897 187.394 321.326 186.369 321.326 185.094C321.326 183.83 321.897 182.793 322.594 182.793C323.292 182.793 323.862 183.818 323.862 185.094Z" fill="#263238"/>
<path d="M307.2 190.517H296.575C295.433 190.517 294.47 189.754 294.254 188.705L292.859 181.685H310.459L309.546 188.562C309.394 189.683 308.392 190.517 307.2 190.517Z" stroke="#263238" stroke-width="2" stroke-miterlimit="10" stroke-linecap="round" stroke-linejoin="round"/>
<path d="M329.898 190.517H319.272C318.131 190.517 317.167 189.754 316.951 188.705L315.557 181.685H333.156L332.244 188.562C332.091 189.683 331.09 190.517 329.898 190.517Z" stroke="#263238" stroke-width="2" stroke-miterlimit="10" stroke-linecap="round" stroke-linejoin="round"/>
<path d="M310.459 181.685H315.544" stroke="#263238" stroke-width="2" stroke-miterlimit="10" stroke-linecap="round" stroke-linejoin="round"/>
<path d="M292.859 181.685L284.452 185.177" stroke="#263238" stroke-width="2" stroke-miterlimit="10" stroke-linecap="round" stroke-linejoin="round"/>
<path d="M286.405 191.613C286.405 191.613 285.822 184.438 281.117 184.438C276.426 184.438 276.426 192.71 277.592 196.024C278.772 199.337 284.833 201.721 286.785 199.147" fill="white"/>
<path d="M286.405 191.613C286.405 191.613 285.822 184.438 281.117 184.438C276.426 184.438 276.426 192.71 277.592 196.024C278.772 199.337 284.833 201.721 286.785 199.147" stroke="#263238" stroke-miterlimit="10" stroke-linecap="round" stroke-linejoin="round"/>
<path d="M337.061 283.374C337.061 283.374 332.902 279.512 327.665 278.452C324.596 277.832 325.687 278.189 324.127 278.189C322.567 278.189 314.756 275.543 312.804 274.995C310.851 274.446 309.672 276.282 310.255 278.308C310.838 280.335 315.023 282.051 316.582 282.421C318.142 282.79 317.483 282.826 317.483 282.826C317.483 282.826 320.031 288.715 318.852 290.92C317.673 293.125 313.565 298.096 314.934 301.588C316.303 305.081 318.459 306.916 322.758 306.916C327.056 306.916 329.605 307.095 330.581 306.916C331.557 306.738 348.967 314.819 347.014 315.01C345.062 315.189 346.228 298.644 346.228 298.644L337.061 283.374Z" fill="white" stroke="#263238" stroke-miterlimit="10" stroke-linecap="round" stroke-linejoin="round"/>
<path d="M297.55 293.125C297.55 293.125 306.743 288.894 311.244 284.662C315.746 280.43 317.305 279.334 318.878 278.964C320.437 278.595 326.701 276.938 328.261 275.651C329.82 274.363 331 276.759 328.654 278.595C326.308 280.43 324.152 281.539 323.176 282.087C322.2 282.636 321.223 285.21 321.223 285.21C321.223 285.21 330.809 281.348 334.132 282.266C337.454 283.184 340.751 285.973 340.548 287.63C340.358 289.287 339.724 288.476 337.581 288.298C335.425 288.119 332.369 287.237 330.023 288.155C327.677 289.072 324.939 291.278 324.939 292.196C324.939 293.113 327.677 293.662 329.833 293.483C331.989 293.304 333.548 292.744 335.704 293.113C337.86 293.483 339.622 294.58 339.812 295.688C340.002 296.797 339.026 296.797 336.68 296.975C334.334 297.154 330.226 297.345 328.857 298.263C327.487 299.181 320.45 302.304 321.616 303.412C322.783 304.521 323.493 304.521 325.839 304.521C328.185 304.521 330.695 302.828 332.065 302.924C333.903 303.055 334.892 303.186 334.892 303.186C334.892 303.186 338.151 303.317 337.86 304.521C337.403 306.452 336.3 306.511 331.583 306.726C327.868 306.893 326.891 306.547 323.569 307.274C320.247 308.013 320.437 308.383 314.769 308.74C309.101 309.11 298.919 306.535 298.919 306.535L297.55 293.125Z" fill="white" stroke="#263238" stroke-miterlimit="10" stroke-linecap="round" stroke-linejoin="round"/>
<path d="M334.461 281.121C334.461 281.121 330.492 277.665 328.235 277.533C325.966 277.402 319.042 283.124 318.041 285.246C317.052 287.379 319.309 286.581 321.16 286.044C322.999 285.508 327.957 283.386 329.656 282.719C331.355 282.051 332.09 281.98 334.132 282.278" fill="white"/>
<path d="M334.461 281.121C334.461 281.121 330.492 277.665 328.235 277.533C325.966 277.402 319.042 283.124 318.041 285.246C317.052 287.379 319.309 286.581 321.16 286.044C322.999 285.508 327.957 283.386 329.656 282.719C331.355 282.051 332.09 281.98 334.132 282.278" stroke="#263238" stroke-miterlimit="10" stroke-linecap="round" stroke-linejoin="round"/>
<path d="M339.558 288.702C339.558 288.702 333.903 286.044 330.365 287.51C326.828 288.977 322.44 291.897 322.44 293.232C322.44 294.567 323.151 294.293 326.257 294.162C329.376 294.031 334.943 293.161 335.691 293.137C336.439 293.101 338.988 293.768 338.988 293.768" fill="white"/>
<path d="M339.558 288.702C339.558 288.702 333.903 286.044 330.365 287.51C326.828 288.977 322.44 291.897 322.44 293.232C322.44 294.567 323.151 294.293 326.257 294.162C329.376 294.031 334.943 293.161 335.691 293.137C336.439 293.101 338.988 293.768 338.988 293.768" stroke="#263238" stroke-miterlimit="10" stroke-linecap="round" stroke-linejoin="round"/>
<path d="M260.195 272.718L255.3 297.356C255.3 297.356 297.753 289.453 299.312 290.55C300.872 291.659 302.292 320.898 302.292 320.898C302.292 320.898 247.476 329.91 241.022 331.924C234.568 333.951 227.911 334.32 225.565 332.473C223.22 330.637 223.017 326.036 224.779 317.024C226.542 308.013 243.368 242.179 243.368 242.179" fill="#4385C6"/>
<path d="M260.195 272.718L255.3 297.356C255.3 297.356 297.753 289.453 299.312 290.55C300.872 291.659 302.292 320.898 302.292 320.898C302.292 320.898 247.476 329.91 241.022 331.924C234.568 333.951 227.911 334.32 225.565 332.473C223.22 330.637 223.017 326.036 224.779 317.024C226.542 308.013 243.368 242.179 243.368 242.179" stroke="#263238" stroke-miterlimit="10"/>
<path d="M358.578 271.061L360.341 299.192L346.253 298.643L344.846 321.959C344.846 321.959 383.685 330.446 385.827 331.555C387.983 332.663 387.59 330.446 390.126 326.953C392.675 323.461 394.818 315.916 394.627 312.614C394.437 309.312 386.411 298.274 386.221 298.822" fill="#4385C6"/>
<path d="M358.578 271.061L360.341 299.192L346.253 298.643L344.846 321.959C344.846 321.959 383.685 330.446 385.827 331.555C387.983 332.663 387.59 330.446 390.126 326.953C392.675 323.461 394.818 315.916 394.627 312.614C394.437 309.312 386.411 298.274 386.221 298.822" stroke="#263238" stroke-miterlimit="10"/>
<path d="M360.341 299.192H373.452" stroke="#263238" stroke-miterlimit="10" stroke-linecap="round" stroke-linejoin="round"/>
<path d="M255.3 297.356L237.891 303.054" stroke="#263238" stroke-miterlimit="10" stroke-linecap="round" stroke-linejoin="round"/>
<path d="M259.46 496.718C259.46 496.718 256.619 508.185 252.651 512.19C248.682 516.195 244.992 518.854 245.271 522.06C245.55 525.255 245.55 525.255 245.55 525.255H286.405C286.405 525.255 286.405 521.249 286.405 515.659C286.405 510.069 283.856 500.187 283.856 496.194C283.856 492.2 258.318 496.456 258.318 496.456" fill="#263238"/>
<path d="M259.46 496.718C259.46 496.718 256.619 508.185 252.651 512.19C248.682 516.195 244.992 518.854 245.271 522.06C245.55 525.255 245.55 525.255 245.55 525.255H286.405C286.405 525.255 286.405 521.249 286.405 515.659C286.405 510.069 283.856 500.187 283.856 496.194C283.856 492.2 258.318 496.456 258.318 496.456" stroke="#263238" stroke-miterlimit="10" stroke-linecap="round" stroke-linejoin="round"/>
<path d="M246.246 518.865C245.549 519.914 245.169 520.963 245.27 522.06C245.549 525.255 245.549 525.255 245.549 525.255H286.404C286.404 525.255 286.404 522.716 286.404 518.854H246.246V518.865Z" fill="#586166" stroke="#263238" stroke-miterlimit="10" stroke-linecap="round" stroke-linejoin="round"/>
<path d="M294.925 394.838C294.925 394.838 298.894 371.105 292.085 360.163C285.276 349.232 261.45 348.958 248.111 356.432C234.771 363.906 229.598 376.136 234.429 391.87C239.247 407.604 250.38 407.902 250.38 407.902C250.38 407.902 247.54 429.501 247.54 438.036C247.54 446.571 257.189 499.651 257.189 499.651H285.276C285.276 499.663 294.354 406.043 294.925 394.838Z" fill="#586166" stroke="#263238" stroke-miterlimit="10" stroke-linecap="round" stroke-linejoin="round"/>
<path d="M250.381 407.914L253.209 386.041" stroke="#263238" stroke-miterlimit="10" stroke-linecap="round" stroke-linejoin="round"/>
<path d="M342.044 496.718C342.044 496.718 344.884 508.185 348.853 512.19C352.822 516.195 356.511 518.854 356.233 522.06C355.954 525.255 355.954 525.255 355.954 525.255H315.099C315.099 525.255 315.099 521.249 315.099 515.659C315.099 510.069 317.647 500.187 317.647 496.194C317.647 492.2 343.185 496.456 343.185 496.456" fill="#263238"/>
<path d="M342.044 496.718C342.044 496.718 344.884 508.185 348.853 512.19C352.822 516.195 356.511 518.854 356.233 522.06C355.954 525.255 355.954 525.255 355.954 525.255H315.099C315.099 525.255 315.099 521.249 315.099 515.659C315.099 510.069 317.647 500.187 317.647 496.194C317.647 492.2 343.185 496.456 343.185 496.456" stroke="#263238" stroke-miterlimit="10" stroke-linecap="round" stroke-linejoin="round"/>
<path d="M355.244 518.865C355.941 519.914 356.321 520.963 356.22 522.06C355.941 525.255 355.941 525.255 355.941 525.255H315.099C315.099 525.255 315.099 522.716 315.099 518.854H355.244V518.865Z" fill="#586166" stroke="#263238" stroke-miterlimit="10" stroke-linecap="round" stroke-linejoin="round"/>
<path d="M306.578 394.838C306.578 394.838 302.609 371.105 309.418 360.163C316.227 349.232 340.053 348.958 353.392 356.432C366.732 363.906 372.006 376.136 367.188 391.87C362.37 407.604 351.122 407.902 351.122 407.902C351.122 407.902 353.963 429.501 353.963 438.036C353.963 446.571 344.313 499.651 344.313 499.651H316.227C316.227 499.663 307.148 406.043 306.578 394.838Z" fill="#586166" stroke="#263238" stroke-miterlimit="10" stroke-linecap="round" stroke-linejoin="round"/>
<path d="M351.123 407.914L348.282 386.041" stroke="#263238" stroke-miterlimit="10" stroke-linecap="round" stroke-linejoin="round"/>
<path d="M364.702 112.251H420.823C424.133 112.251 426.808 114.766 426.808 117.877V142.361C426.808 145.472 424.133 147.987 420.823 147.987H403.959L408.359 159.192L394.5 147.987H364.702C361.392 147.987 358.717 145.472 358.717 142.361V117.877C358.717 114.766 361.405 112.251 364.702 112.251Z" fill="#263238" stroke="#263238" stroke-miterlimit="10" stroke-linecap="round" stroke-linejoin="round"/>
<path d="M406.812 132.515C408.612 132.515 410.071 131.143 410.071 129.451C410.071 127.759 408.612 126.388 406.812 126.388C405.013 126.388 403.554 127.759 403.554 129.451C403.554 131.143 405.013 132.515 406.812 132.515Z" fill="#4385C6"/>
<path d="M391.203 132.515C393.003 132.515 394.462 131.143 394.462 129.451C394.462 127.759 393.003 126.388 391.203 126.388C389.403 126.388 387.944 127.759 387.944 129.451C387.944 131.143 389.403 132.515 391.203 132.515Z" fill="#4385C6"/>
<path d="M375.606 132.515C377.406 132.515 378.865 131.143 378.865 129.451C378.865 127.759 377.406 126.388 375.606 126.388C373.807 126.388 372.348 127.759 372.348 129.451C372.348 131.143 373.807 132.515 375.606 132.515Z" fill="#4385C6"/>
<path d="M146.669 311.47L136.816 331.03H164.738L174.603 312.423L146.669 311.47Z" fill="#263238" stroke="#263238" stroke-miterlimit="10" stroke-linecap="round" stroke-linejoin="round"/>
<path d="M208.001 311.47H146.668L156.533 331.03H217.853L208.001 311.47Z" fill="white" stroke="#263238" stroke-miterlimit="10" stroke-linecap="round" stroke-linejoin="round"/>
<path d="M99.0048 357.97H85.1836V525.195H99.0048V357.97Z" fill="#A3A3A3" stroke="#263238" stroke-miterlimit="10" stroke-linecap="round" stroke-linejoin="round"/>
<path d="M541.411 358.398H527.59V525.624H541.411V358.398Z" fill="#A3A3A3" stroke="#263238" stroke-miterlimit="10" stroke-linecap="round" stroke-linejoin="round"/>
<path d="M547.485 330.494H82.1797V491.664H547.485V330.494Z" fill="#A3A3A3" stroke="#263238" stroke-miterlimit="10" stroke-linecap="round" stroke-linejoin="round"/>
<path d="M547.485 330.494H82.1797V347.266H547.485V330.494Z" fill="#263238" stroke="#263238" stroke-miterlimit="10" stroke-linecap="round" stroke-linejoin="round"/>
<path d="M559.34 330.494H70.3359V340.495H559.34V330.494Z" fill="white" stroke="#263238" stroke-miterlimit="10" stroke-linecap="round" stroke-linejoin="round"/>
<path d="M89.6356 478.159C89.6356 478.159 58.2272 415.269 65.0617 413.446C71.8963 411.622 86.1866 421.647 86.1866 421.647C86.1866 421.647 44.2031 315.928 55.0699 307.715C65.9366 299.514 86.2247 341.437 86.2247 341.437C86.2247 341.437 64.5545 276.723 67.1032 252.12C69.6519 227.518 97.1802 251.214 97.1802 251.214C97.1802 251.214 75.1297 162.804 95.6079 158.25C116.086 153.697 115.401 259.415 115.401 259.415C115.401 259.415 122.122 183.771 130.326 204.726C138.53 225.694 121.285 295.867 121.285 295.867C121.285 295.867 132.532 272.17 138.783 294.043C145.034 315.916 126.357 404.327 126.357 404.327C126.357 404.327 142.232 389.749 143.716 407.974C145.199 426.2 110.837 482.713 110.837 482.713L91.3981 484.537L89.6356 478.159Z" fill="#6BBFEB"/>
<path d="M96.3426 480.889C96.3426 480.889 70.1711 437.143 75.0149 428.942C79.8586 420.741 94.4026 439.884 94.4026 439.884C94.4026 439.884 61.4346 362.416 66.291 355.121C71.1348 347.826 86.6551 379.724 86.6551 379.724C86.6551 379.724 80.835 273.088 90.5352 276.735C100.235 280.383 101.199 331.424 101.199 331.424C101.199 331.424 95.379 210.21 104.103 213.857C112.827 217.505 111.863 352.391 111.863 352.391C111.863 352.391 129.311 300.444 132.227 324.141C135.131 347.838 109.923 411.634 109.923 411.634C109.923 411.634 134.167 361.51 137.071 387.937C139.975 414.363 117.683 463.581 117.683 463.581C117.683 463.581 126.407 443.532 126.407 454.462C126.407 465.405 119.623 479.065 119.623 479.065" stroke="#263238" stroke-miterlimit="10" stroke-linecap="round" stroke-linejoin="round"/>
<path d="M131.733 480.543H76.3086V525.624H131.733V480.543Z" fill="#263238" stroke="#263238" stroke-miterlimit="10"/>
<path d="M435.926 175.439C435.926 175.439 430.258 184.236 429.395 188.241C428.546 192.246 429.966 193.843 428.825 196.776C427.684 199.708 422.865 199.708 422.865 202.64C422.865 205.573 426.263 208.243 427.405 209.041C428.533 209.84 426.555 213.309 428.533 218.375C430.524 223.441 431.374 229.842 434.772 229.842C438.17 229.842 445.271 228.769 445.271 228.769L446.97 238.508L470.377 236.505C470.377 236.505 470.098 226.909 476.337 222.904C482.575 218.899 494.926 195.965 487.546 181.029C480.179 166.105 449.252 163.173 435.926 175.439Z" fill="white" stroke="#263238" stroke-miterlimit="10" stroke-linecap="round" stroke-linejoin="round"/>
<path d="M428.153 164.377C427.405 166.594 427.088 169.038 427.24 171.624C427.507 176.285 429.218 180.934 431.78 184.903C434.671 189.397 441.607 192.258 443.306 197.05C443.876 198.647 445.297 202.914 449.265 203.987C453.234 205.06 452.385 205.06 451.256 212.26C450.128 219.459 453.526 226.659 460.335 228.53C467.144 230.402 473.674 228.793 479.063 224.799C484.452 220.794 494.673 204.261 494.951 189.326C495.459 162.899 467.74 149.966 442.748 153.208C435.241 154.173 430.144 158.453 428.153 164.377Z" fill="#263238" stroke="#263238" stroke-miterlimit="10" stroke-linecap="round" stroke-linejoin="round"/>
<path d="M458.205 231.689C458.205 231.689 452.169 231.689 447.275 234.121C444.105 235.694 433.086 245.588 430.258 247.185C427.418 248.782 422.029 247.984 425.148 249.319C428.267 250.654 430.537 250.916 435.926 249.056C441.315 247.185 452.664 243.454 456.075 243.454C459.486 243.454 471.963 245.051 473.091 245.325C474.232 245.588 481.599 248.794 481.599 248.794C481.599 248.794 477.91 241.332 473.649 237.589C469.401 233.847 464.164 231.415 458.205 231.689Z" fill="white" stroke="#263238" stroke-miterlimit="10" stroke-linecap="round" stroke-linejoin="round"/>
<path d="M448.987 198.504C447.744 198.921 447.034 200.172 447.173 201.4C447.44 203.784 447.82 208.671 446.996 211.985C445.867 216.515 451.878 216.515 453.196 209.089C454.059 204.178 452.08 197.467 448.987 198.504Z" fill="white" stroke="#263238" stroke-miterlimit="10" stroke-linecap="round" stroke-linejoin="round"/>
<path d="M401.588 259.987C401.588 259.987 398.19 261.585 397.898 269.321C397.619 277.057 383.43 331.46 382.581 339.994C381.731 348.529 386.55 354.131 394.779 357.064C403.008 359.996 418.605 364.8 421.445 363.465C424.285 362.13 429.674 334.666 431.652 322.663C433.643 310.659 409.805 269.058 408.676 267.449C407.548 265.84 403.579 260.261 401.588 259.987Z" fill="white" stroke="#263238" stroke-miterlimit="10" stroke-linecap="round" stroke-linejoin="round"/>
<path d="M420.038 323.735L404.429 345.609" stroke="#263238" stroke-miterlimit="10" stroke-linecap="round" stroke-linejoin="round"/>
<path d="M450.115 420.836L469.82 523.371C470.086 524.742 471.57 525.577 472.965 525.148C474.08 524.814 474.791 523.765 474.638 522.668L460.094 418.654L450.115 420.836Z" fill="white" stroke="#263238" stroke-miterlimit="10" stroke-linecap="round" stroke-linejoin="round"/>
<path d="M428.267 398.438C428.267 398.438 420.887 492.058 420.887 494.716C420.887 497.386 413.229 525.386 413.229 525.386H433.656C433.656 525.386 435.647 521.655 435.647 513.919C435.647 506.183 436.496 489.65 436.496 488.052C436.496 486.455 459.194 403.778 459.194 403.778C459.194 403.778 458.065 395.505 446.995 390.714C435.926 385.898 429.966 396.304 428.267 398.438Z" fill="white" stroke="#263238" stroke-miterlimit="10" stroke-linecap="round" stroke-linejoin="round"/>
<path d="M435.634 513.919C435.634 506.85 436.344 492.451 436.471 488.791C427.024 483.809 421.166 490.448 421.166 490.448L421.154 490.472C420.976 492.892 420.887 494.417 420.887 494.715C420.887 497.386 413.229 525.386 413.229 525.386H433.656C433.656 525.386 435.634 521.655 435.634 513.919Z" fill="#263238" stroke="#263238" stroke-miterlimit="10" stroke-linecap="round" stroke-linejoin="round"/>
<path d="M433.656 525.386C433.656 525.386 435.646 521.655 435.646 513.919C435.646 511.046 435.761 506.945 435.913 502.869C433.947 500.699 429.7 497.397 425.147 502.451C423.169 504.657 417.92 518.579 415.435 525.386H433.656Z" fill="#4F4F4F" stroke="#263238" stroke-miterlimit="10" stroke-linecap="round" stroke-linejoin="round"/>
<path d="M425.147 502.451L426.847 525.386H431.957L436.217 501.915C436.204 501.915 430.536 495.514 425.147 502.451Z" fill="#263238" stroke="#263238" stroke-miterlimit="10" stroke-linecap="round" stroke-linejoin="round"/>
<path d="M386.842 386.161C386.842 386.161 378.042 395.232 377.192 402.968C376.343 410.704 406.699 492.583 406.699 492.583C406.699 492.583 406.128 496.85 401.88 501.916C397.62 506.982 391.673 514.182 390.811 518.985C389.961 523.789 390.811 525.386 390.811 525.386H410.959C410.959 525.386 418.047 508.317 420.888 504.05C423.728 499.782 422.029 491.51 421.167 487.779C420.317 484.048 412.658 397.902 412.658 397.902C412.658 397.902 406.699 379.76 386.842 386.161Z" fill="white" stroke="#263238" stroke-miterlimit="10" stroke-linecap="round" stroke-linejoin="round"/>
<path d="M420.887 504.05C423.347 500.342 422.396 493.631 421.547 489.483C419.885 488.279 417.223 487.016 413.799 487.779C407.839 489.114 406.711 492.582 406.711 492.582C406.711 492.582 406.14 496.85 401.893 501.916C397.632 506.982 391.685 514.182 390.823 518.985C389.973 523.789 390.823 525.386 390.823 525.386H410.971C410.959 525.386 418.047 508.317 420.887 504.05Z" fill="#263238" stroke="#263238" stroke-miterlimit="10" stroke-linecap="round" stroke-linejoin="round"/>
<path d="M400.6 525.386H410.959C410.959 525.386 417.274 510.2 420.368 504.896C418.846 503.585 414.243 500.235 409.831 503.513C404.442 507.518 403.871 517.376 402.451 521.119C401.779 522.871 401.107 524.326 400.6 525.386Z" fill="#4F4F4F" stroke="#263238" stroke-miterlimit="10" stroke-linecap="round" stroke-linejoin="round"/>
<path d="M409.818 503.514L410.96 525.387H414.649L420.888 504.05C420.888 504.05 415.207 498.722 409.818 503.514Z" fill="#263238" stroke="#263238" stroke-miterlimit="10" stroke-linecap="round" stroke-linejoin="round"/>
<path d="M409.742 296.141C414.459 311.112 418.682 339.184 418.682 341.806C418.682 346.61 403.859 374.133 403.859 374.133C403.859 374.133 387.4 382.132 383.431 387.734C379.462 393.336 379.462 399.463 382.303 404.803C385.143 410.144 389.391 412.539 398.761 414.137C408.132 415.734 495.218 414.137 495.218 414.137C495.218 414.137 504.297 403.731 500.036 387.198C498.058 379.497 495.903 372.81 493.506 363.465C493.506 363.465 502.864 363.727 509.673 358.399C516.482 353.071 516.761 344.798 516.761 338.659C516.761 332.52 512.501 281.312 512.501 276.246C512.501 271.18 512.222 264.779 507.112 261.048C502.002 257.317 490.095 251.453 479.305 246.112C470.809 241.905 464.558 242.644 457.749 242.644C450.94 242.644 442.71 247.447 442.71 247.447C442.71 247.447 404.975 256.781 402.134 258.378C399.484 259.868 400.296 261.596 401.348 267.485" fill="white"/>
<path d="M409.742 296.141C414.459 311.112 418.682 339.184 418.682 341.806C418.682 346.61 403.859 374.133 403.859 374.133C403.859 374.133 387.4 382.132 383.431 387.734C379.462 393.336 379.462 399.463 382.303 404.803C385.143 410.144 389.391 412.539 398.761 414.137C408.132 415.734 495.218 414.137 495.218 414.137C495.218 414.137 504.297 403.731 500.036 387.198C498.058 379.497 495.903 372.81 493.506 363.465C493.506 363.465 502.864 363.727 509.673 358.399C516.482 353.071 516.761 344.798 516.761 338.659C516.761 332.52 512.501 281.312 512.501 276.246C512.501 271.18 512.222 264.779 507.112 261.048C502.002 257.317 490.095 251.453 479.305 246.112C470.809 241.905 464.558 242.644 457.749 242.644C450.94 242.644 442.71 247.447 442.71 247.447C442.71 247.447 404.975 256.781 402.134 258.378C399.484 259.868 400.296 261.596 401.348 267.485" stroke="#263238" stroke-miterlimit="10" stroke-linecap="round" stroke-linejoin="round"/>
<path d="M498.058 274.923C498.058 274.923 486.443 338.361 486.443 341.83C486.443 345.299 493.519 363.477 493.519 363.477" stroke="#263238" stroke-miterlimit="10" stroke-linecap="round" stroke-linejoin="round"/>
<path d="M418.086 344.488C415.296 352.916 403.871 374.145 403.871 374.145C403.871 374.145 387.413 382.144 383.444 387.746C379.475 393.348 379.475 399.475 382.303 404.815C385.143 410.156 389.391 412.551 398.761 414.149C408.119 415.746 495.218 414.149 495.218 414.149C495.218 414.149 504.297 403.743 500.037 387.21C498.059 379.509 495.903 372.822 493.506 363.477L486.444 344.488H418.086Z" fill="#263238" stroke="#263238" stroke-miterlimit="10"/>
<path d="M393.651 419.751L378.98 523.038C378.79 524.409 379.918 525.636 381.402 525.636C382.581 525.636 383.595 524.85 383.798 523.753L403.858 420.55L393.651 419.751Z" fill="white" stroke="#263238" stroke-miterlimit="10" stroke-linecap="round" stroke-linejoin="round"/>
<path d="M490.742 419.751L505.412 523.038C505.603 524.409 504.474 525.636 502.99 525.636C501.811 525.636 500.797 524.85 500.594 523.753L480.534 420.55L490.742 419.751Z" fill="white" stroke="#263238" stroke-miterlimit="10" stroke-linecap="round" stroke-linejoin="round"/>
<path d="M433.657 419.751L418.986 523.038C418.796 524.409 419.924 525.636 421.408 525.636C422.587 525.636 423.601 524.85 423.804 523.753L443.864 420.55L433.657 419.751Z" fill="white" stroke="#263238" stroke-miterlimit="10" stroke-linecap="round" stroke-linejoin="round"/>
<path d="M506.567 301.6H414.928C414.928 301.6 412.379 321.864 413.8 339.207C415.22 356.539 418.339 378.674 417.768 392.811C417.198 406.949 408.69 414.685 408.69 414.685H388.262C386.221 414.685 384.572 416.234 384.572 418.153C384.572 420.072 386.221 421.622 388.262 421.622H498.629C498.629 421.622 508.836 408.021 507.987 387.745C507.137 367.481 498.629 344.535 501.456 328.265C504.297 311.994 506.567 301.6 506.567 301.6Z" fill="#4385C6" stroke="#263238" stroke-miterlimit="10"/>
<path d="M482.309 177.715C482.309 177.715 476.641 179.849 476.35 184.915C476.071 189.981 474.359 207.312 467.55 217.182C460.741 227.052 467.55 242.786 484.287 245.182C501.025 247.578 514.643 223.845 508.405 199.314C502.166 174.771 487.99 175.581 482.309 177.715Z" fill="#263238" stroke="#263238" stroke-miterlimit="10" stroke-linecap="round" stroke-linejoin="round"/>
<path d="M29.1641 525.624H583.698" stroke="#263238" stroke-miterlimit="10" stroke-linecap="round" stroke-linejoin="round"/>
</svg>
