<svg width="70" height="71" viewBox="0 0 70 71" fill="none" xmlns="http://www.w3.org/2000/svg">
<circle cx="35" cy="35.6483" r="35" fill="#F0F8FF"/>
<g clip-path="url(#clip0)">
<path d="M28.9108 37.8687C29.8594 37.8687 30.6312 37.097 30.6312 36.1483C30.6312 35.1997 29.8594 34.4279 28.9108 34.4279C27.9621 34.4279 27.1904 35.1997 27.1904 36.1483C27.1904 37.097 27.9621 37.8687 28.9108 37.8687Z" fill="#5AA2E8"/>
<path d="M28.9105 39.9195C27.4108 39.9195 26.137 40.9047 25.7021 42.262H32.1187C31.6839 40.9047 30.4101 39.9195 28.9105 39.9195Z" fill="#5AA2E8"/>
<path d="M49.7779 23.5907H21.2221C19.4217 23.5907 18 25.0529 18 26.8127V45.4839C18 47.2842 19.4622 48.7059 21.2221 48.7059H49.7779C51.5783 48.7059 53 47.2437 53 45.4839V26.8127C53 25.0123 51.5378 23.5907 49.7779 23.5907ZM33.3033 44.3127H24.5169C23.9506 44.3127 23.4915 43.8536 23.4915 43.2873C23.4915 41.3285 24.5363 39.6093 26.0979 38.6573C25.5021 37.9902 25.139 37.111 25.139 36.1484C25.139 34.0689 26.8307 32.3772 28.9102 32.3772C30.9896 32.3772 32.6813 34.0689 32.6813 36.1484C32.6813 37.1111 32.3183 37.9902 31.7225 38.6573C33.284 39.6093 34.3288 41.3286 34.3288 43.2874C34.3287 43.8536 33.8696 44.3127 33.3033 44.3127ZM44.2864 44.3127H38.7949C38.2286 44.3127 37.7695 43.8536 37.7695 43.2873C37.7695 42.721 38.2286 42.2619 38.7949 42.2619H44.2864C44.8527 42.2619 45.3118 42.721 45.3118 43.2873C45.3118 43.8536 44.8527 44.3127 44.2864 44.3127ZM46.4831 39.9195H38.7949C38.2286 39.9195 37.7695 39.4604 37.7695 38.8941C37.7695 38.3278 38.2286 37.8687 38.7949 37.8687H46.4831C47.0494 37.8687 47.5085 38.3278 47.5085 38.8941C47.5085 39.4604 47.0494 39.9195 46.4831 39.9195ZM46.4831 35.5262H38.7949C38.2286 35.5262 37.7695 35.0671 37.7695 34.5008C37.7695 33.9345 38.2286 33.4754 38.7949 33.4754H46.4831C47.0494 33.4754 47.5085 33.9345 47.5085 34.5008C47.5085 35.0671 47.0494 35.5262 46.4831 35.5262ZM46.4831 30.0346H24.5169C23.9506 30.0346 23.4915 29.5755 23.4915 29.0092C23.4915 28.443 23.9506 27.9839 24.5169 27.9839H46.4831C47.0494 27.9839 47.5085 28.443 47.5085 29.0092C47.5085 29.5755 47.0494 30.0346 46.4831 30.0346Z" fill="#5AA2E8"/>
</g>
<defs>
<clipPath id="clip0">
<rect width="35" height="35" fill="white" transform="translate(18 18.6483)"/>
</clipPath>
</defs>
</svg>
