<svg width="81" height="19" viewBox="0 0 81 19" fill="none" xmlns="http://www.w3.org/2000/svg">
<g clip-path="url(#clip0)">
<path d="M78.3586 0.842041L74.033 10.0978L72.4047 6.59122H70.6456L73.3216 12.3281H74.7435L80.107 0.842041H78.3586ZM59.7994 18.0287H63.2821V11.6529C63.2821 10.1948 64.1259 9.17017 65.3792 9.17017C66.5848 9.17017 67.2114 10.0139 67.2114 11.231V18.0287H70.6941V10.5682C70.6941 8.03694 69.1752 6.25323 66.7172 6.25323C65.1506 6.25323 64.0535 6.92839 63.2336 8.15783H63.1621V6.59122H59.7871L59.7994 18.0287ZM52.954 6.27708C49.3142 6.27708 46.8792 8.89303 46.8792 12.3396C46.8792 15.7623 49.3134 18.4021 52.954 18.4021C56.593 18.4021 59.028 15.7623 59.028 12.3396C59.0395 8.89303 56.5938 6.2779 52.954 6.2779V6.27708ZM52.9293 15.8231C51.278 15.8231 50.3989 14.4366 50.3989 12.3396C50.3989 10.2187 51.2665 8.85685 52.9293 8.85685C54.5806 8.85685 55.4968 10.2187 55.4968 12.3396C55.5083 14.4366 54.5922 15.8231 52.9293 15.8231ZM36.9491 18.0287H46.7353V15.2804H41.1908V15.208L46.4935 9.26639V6.57888H36.9491V9.33875H42.3117V9.41112L36.9491 15.4013V18.0287ZM32.477 18.0287H35.9853V6.59122H32.4778V18.0287H32.477ZM24.3422 18.0287H27.8372V12.7738C27.8372 10.3873 29.2714 9.32724 31.4532 9.62823H31.5255V6.61507C31.3446 6.5427 31.139 6.53119 30.8142 6.53119C29.4524 6.53119 28.5362 7.15783 27.7533 8.495H27.681V6.59204H24.3422V18.0295V18.0287ZM17.931 15.8346C16.3882 15.8346 15.4474 14.8346 15.2665 13.2919H23.5107C23.5354 10.833 22.8841 8.86918 21.5223 7.63974C20.5584 6.74747 19.2928 6.25323 17.6777 6.25323C14.2311 6.25323 11.8446 8.86836 11.8446 12.2919C11.8446 15.7384 14.1226 18.3659 17.9063 18.3659C19.3405 18.3659 20.4737 17.9802 21.4137 17.3412C22.4137 16.6545 23.1374 15.6422 23.3298 14.6422H19.9795C19.6538 15.3889 18.9548 15.8346 17.931 15.8346ZM17.7501 8.74829C18.9795 8.74829 19.8224 9.66441 19.9672 11.0016H15.2912C15.5683 9.6529 16.3035 8.74829 17.7501 8.74829ZM4.87834 18.0287H8.54199L12.519 6.59122H9.01239L6.78295 13.9432H6.7336L4.50499 6.59122H0.901367L4.87834 18.0287ZM32.477 2.51721H35.9853V5.62658H32.4778V2.51803L32.477 2.51721Z" fill="#0A2643"/>
</g>
<defs>
<clipPath id="clip0">
<rect width="79.7697" height="18.0921" fill="white" transform="translate(0.901367 0.842041)"/>
</clipPath>
</defs>
</svg>
