<svg width="94" height="22" viewBox="0 0 94 22" fill="none" xmlns="http://www.w3.org/2000/svg">
<g clip-path="url(#clip0)">
<path d="M10.0683 14.0468C11.9433 14.0468 13.491 12.4679 13.491 10.5567C13.491 8.64548 11.9424 7.06654 10.0683 7.06654C8.19326 7.06654 6.64474 8.64548 6.64474 10.5567C6.64474 12.4679 8.19326 14.0468 10.0683 14.0468ZM10.0683 17.3289C13.736 17.3289 16.6694 14.296 16.6694 10.5978C16.6694 6.85848 13.6949 3.86752 10.0683 3.86752C6.40049 3.86752 3.46628 6.90042 3.46628 10.5978C3.46628 14.296 6.44161 17.3289 10.0683 17.3289ZM0.125 10.5978C0.125 4.98923 4.56661 0.460449 10.0674 0.460449C15.5691 0.460449 20.0115 4.98923 20.0115 10.5986C20.0115 16.2072 15.5691 20.7359 10.0683 20.7359C4.60773 20.7359 0.125 16.2072 0.125 10.5986V10.5978ZM23.2714 3.32723H34.5995V6.23594H30.6875V17.9103H27.2237V6.23594H23.2714V3.32723ZM51.6735 6.23594H48.4951V9.14384H51.3479C52.3257 9.10272 53.0995 8.6866 53.0995 7.68989C53.0995 6.6093 52.4482 6.23594 51.6735 6.23594ZM45.1941 3.32723H51.9178C55.7484 3.32723 56.2788 5.98594 56.2788 7.56489C56.2788 9.80914 54.3627 10.972 54.1998 11.0139C54.1998 11.0139 55.8709 11.6373 55.8709 13.5896V16.2902C55.8709 17.3708 56.523 17.7031 56.6456 17.9522H53.9145C52.6102 17.7861 52.6505 16.7475 52.6505 16.1241V13.7968C52.6094 13.2154 52.4474 12.5929 51.2656 12.5509H48.4942V17.9522H45.153L45.1941 3.32723ZM70.8668 3.32723V17.9103H81.1768V14.9185H74.2492V11.6364H80.1579V8.89384H74.2492V6.23512H81.1768V3.32723H70.8668ZM81.6661 6.23594H85.7821V17.9103H89.1645V6.23594H93.3207V3.32723H81.6661V6.23594ZM38.1859 8.47937L36.963 12.2598H39.4893L38.1859 8.47937ZM36.2697 3.32723H39.9375L44.9507 17.9103H41.4063L40.3865 14.8766H36.1077L35.1299 17.9103H31.5855L36.2714 3.3264L36.2697 3.32723ZM69.6859 9.76719H63.5329V12.5929H66.4663C66.4663 13.1743 66.5485 13.7557 65.8553 14.5871C65.611 14.8774 64.8364 15.5007 63.6957 15.5007C62.7582 15.5007 62.0658 15.2105 61.4951 14.7113C60.1908 13.5896 59.9054 11.4711 59.9054 10.3905C59.9054 9.01966 60.4359 5.57147 63.7771 5.44647C63.7771 5.44647 66.0181 5.28035 66.5896 8.06407H69.6859C69.6044 6.65124 68.0148 2.74581 63.7771 2.74581C62.31 2.74581 60.4359 3.20223 58.8873 4.78117C57.7459 5.94483 56.7681 7.85601 56.7681 10.5567C56.7681 13.5065 57.8273 15.4177 58.8051 16.4563C60.5173 18.2845 62.2286 18.4506 63.125 18.4506C63.8183 18.4506 65.2031 18.3264 66.9556 17.1216L67.4038 17.9522H69.727V9.76719H69.6859Z" fill="#0A2643"/>
</g>
<defs>
<clipPath id="clip0">
<rect width="93.75" height="20.5592" fill="white" transform="translate(0.125 0.460449)"/>
</clipPath>
</defs>
</svg>
