<svg width="40" height="41" viewBox="0 0 40 41" fill="none" xmlns="http://www.w3.org/2000/svg">
<circle cx="20" cy="20.369" r="20" fill="#F0F8FF"/>
<path d="M28.3337 17.5423V24.3273C28.3337 25.0191 28.069 25.6847 27.5939 26.1875C27.1188 26.6904 26.4693 26.9923 25.7787 27.0315L25.6253 27.0357H14.3753C13.6835 27.0357 13.018 26.771 12.5151 26.2959C12.0123 25.8208 11.7103 25.1713 11.6712 24.4807L11.667 24.3273V17.5423L19.7103 21.7557C19.7998 21.8025 19.8993 21.827 20.0003 21.827C20.1013 21.827 20.2008 21.8025 20.2903 21.7557L28.3337 17.5423ZM14.3753 13.7023H25.6253C26.2966 13.7023 26.9441 13.9515 27.442 14.4017C27.94 14.8519 28.253 15.4711 28.3203 16.139L20.0003 20.4973L11.6803 16.139C11.7449 15.4976 12.0362 14.9003 12.5018 14.4544C12.9674 14.0085 13.5767 13.7433 14.2203 13.7065L14.3753 13.7023H25.6253H14.3753Z" fill="#5AA2E8"/>
</svg>
