<svg width="100" height="100" viewBox="0 0 100 100" fill="none" xmlns="http://www.w3.org/2000/svg">
<path d="M84.9675 33.4165C84.9665 33.4165 84.9652 33.4165 84.9642 33.4165H1.43175C0.641947 33.4157 0.000836142 34.0551 8.17479e-07 34.8449C8.17479e-07 34.846 8.17479e-07 34.8472 8.17479e-07 34.8483V74.9438C-0.000834507 75.7336 0.638606 76.3747 1.42841 76.3756C1.42945 76.3756 1.4307 76.3756 1.43175 76.3756H58.2338C59.0244 76.3756 59.6655 75.7345 59.6655 74.9438C59.6655 74.1532 59.0244 73.5121 58.2338 73.5121H2.86349V36.28H83.5324V39.8602C83.5316 40.65 84.171 41.2911 84.9608 41.2919C84.9619 41.2919 84.9631 41.2919 84.9642 41.2919C85.754 41.2928 86.3951 40.6533 86.3959 39.8635C86.3959 39.8625 86.3959 39.8612 86.3959 39.8602V34.8483C86.3967 34.0585 85.7573 33.4175 84.9675 33.4165Z" fill="white"/>
<path d="M75.2549 26.769L8.42896 11.7332C8.05808 11.6503 7.66944 11.7175 7.34805 11.9203C7.02708 12.1248 6.80008 12.4478 6.71655 12.8191L3.37525 27.8549C3.20359 28.6272 3.69058 29.3924 4.46284 29.564C5.2351 29.7357 6.00026 29.2487 6.17191 28.4764L9.2008 14.8423L74.6267 29.5624C74.7303 29.5864 74.8362 29.5983 74.9425 29.5974C75.7331 29.596 76.373 28.9538 76.3717 28.1632C76.3705 27.4947 75.9069 26.9163 75.2549 26.769Z" fill="white"/>
<path d="M67.1401 18.4842L27.0446 1.77775C26.3477 1.48726 25.5447 1.78568 25.2069 2.46104L21.8656 9.14363C21.4882 9.84155 21.748 10.7134 22.4461 11.0908C23.144 11.4681 24.0159 11.2083 24.3933 10.5102C24.4081 10.4829 24.4221 10.4549 24.435 10.4265V10.4298L27.1766 4.94342L66.0342 21.1337C66.7659 21.439 67.6067 21.0936 67.912 20.3618C68.2173 19.6305 67.8719 18.7897 67.1401 18.4842Z" fill="white"/>
<path d="M68.1526 40.0991H54.8927C54.102 40.0991 53.4609 40.7402 53.4609 41.5309C53.4609 42.3215 54.102 42.9626 54.8927 42.9626H68.1526C68.9432 42.9626 69.5844 42.3215 69.5844 41.5309C69.5844 40.7402 68.9432 40.0991 68.1526 40.0991Z" fill="white"/>
<path d="M41.5269 40.1943C33.4073 40.1943 26.8252 46.7765 26.8252 54.896C26.8335 63.012 33.4109 69.5894 41.5269 69.5977C49.6465 69.5977 56.2286 63.0156 56.2286 54.896C56.2286 46.7765 49.6465 40.1943 41.5269 40.1943ZM41.5269 66.9247C34.8836 66.9247 29.4982 61.5394 29.4982 54.896C29.5055 48.2558 34.8867 42.8747 41.5269 42.8674C48.1702 42.8674 53.5556 48.2527 53.5556 54.896C53.5556 61.5394 48.1702 66.9247 41.5269 66.9247Z" fill="white"/>
<path d="M81.6222 44.8722C72.7678 44.8722 63.2451 46.9638 63.2451 51.5548V91.6503C63.2451 96.2413 72.7678 98.3329 81.6222 98.3329C90.4767 98.3329 99.9994 96.2413 99.9994 91.6503V51.5548C99.9994 46.9638 90.4767 44.8722 81.6222 44.8722ZM96.6581 91.6253C96.4058 92.5525 91.3955 94.9916 81.6222 94.9916C71.849 94.9916 66.8387 92.5525 66.5864 91.6503V89.0241C70.1416 90.815 76.0139 91.6503 81.6222 91.6503C87.2306 91.6503 93.1046 90.8067 96.6581 89.0224V91.6253ZM96.6581 84.9427C96.4058 85.8699 91.3955 88.309 81.6222 88.309C71.849 88.309 66.8387 85.8699 66.5864 84.9677V82.3415C70.1416 84.1324 76.0139 84.9677 81.6222 84.9677C87.2306 84.9677 93.1046 84.1241 96.6581 82.3398V84.9427ZM96.6581 78.2601C96.4058 79.1873 91.3955 81.6264 81.6222 81.6264C71.849 81.6264 66.8387 79.1873 66.5864 78.2852V75.6589C70.1416 77.4498 76.0139 78.2852 81.6222 78.2852C87.2306 78.2852 93.1046 77.4415 96.6581 75.6572V78.2601ZM96.6581 71.5775C96.4058 72.5047 91.3955 74.9439 81.6222 74.9439C71.849 74.9439 66.8387 72.5047 66.5864 71.6026V68.9763C70.1416 70.7672 76.0139 71.6026 81.6222 71.6026C87.2306 71.6026 93.1046 70.7589 96.6581 68.9746V71.5775ZM96.6581 64.8949C96.4058 65.8221 91.3955 68.2613 81.6222 68.2613C71.849 68.2613 66.8387 65.8221 66.5864 64.92V62.2937C70.1416 64.0763 76.0139 64.92 81.6222 64.92C87.2306 64.92 93.1046 64.0763 96.6581 62.292V64.8949ZM96.6581 58.2123C96.4058 59.1395 91.3955 61.5787 81.6222 61.5787C71.849 61.5787 66.8387 59.1395 66.5864 58.2374V55.6111C70.1416 57.3937 76.0139 58.2374 81.6222 58.2374C87.2306 58.2374 93.1046 57.3937 96.6581 55.6094V58.2123ZM81.6222 54.8961C71.864 54.8961 66.8554 52.4636 66.5864 51.5849V51.5748C66.8554 50.6443 71.864 48.2135 81.6222 48.2135C91.312 48.2135 96.3239 50.6092 96.6581 51.5548C96.3239 52.5004 91.312 54.8961 81.6222 54.8961Z" fill="white"/>
<path d="M28.1619 66.8278H15.5334L9.54583 60.2789V49.4197L16.1583 42.9626H28.1619C28.9525 42.9626 29.5936 42.3215 29.5936 41.5309C29.5936 40.7402 28.9525 40.0991 28.1619 40.0991H15.5769C15.2026 40.0983 14.8428 40.2441 14.5745 40.5051L7.11169 47.7841C6.8329 48.1099 6.68004 48.5248 6.68067 48.9536V60.8352C6.68067 61.1925 6.81411 61.5369 7.05489 61.8008L13.8427 69.2252C14.114 69.5222 14.4978 69.6915 14.9003 69.6913H28.1619C28.9525 69.6913 29.5936 69.0502 29.5936 68.2596C29.5936 67.4689 28.9527 66.8278 28.1619 66.8278Z" fill="white"/>
<path d="M42.3629 53.2254H40.6922C40.1727 53.2254 39.8569 52.9347 39.8569 52.8077C39.8569 52.6808 40.1727 52.3901 40.6922 52.3901H44.8689C45.7915 52.3901 46.5395 51.642 46.5395 50.7194C46.5395 49.7968 45.7915 49.0488 44.8689 49.0488H43.1982C43.1982 48.1261 42.4502 47.3781 41.5276 47.3781C40.605 47.3781 39.8569 48.1261 39.8569 49.0488V49.1239C38.004 49.3856 36.6002 50.9299 36.5156 52.7994C36.6353 54.9898 38.501 56.6728 40.6922 56.5667H42.3629C42.8825 56.5667 43.1982 56.8574 43.1982 56.9843C43.1982 57.1113 42.8825 57.402 42.3629 57.402H38.1863C37.2637 57.402 36.5156 58.15 36.5156 59.0727C36.5156 59.9953 37.2637 60.7433 38.1863 60.7433H39.8569C39.8569 61.6659 40.605 62.414 41.5276 62.414C42.4502 62.414 43.1982 61.6659 43.1982 60.7433V60.6681C45.0512 60.4065 46.4549 58.8622 46.5395 56.9927C46.4199 54.8023 44.5542 53.1193 42.3629 53.2254Z" fill="white"/>
</svg>
