<svg width="100" height="100" viewBox="0 0 100 100" fill="none" xmlns="http://www.w3.org/2000/svg">
<circle cx="50" cy="50" r="50" fill="#F0F8FF"/>
<path d="M63.1836 51.4648C56.7116 51.4648 51.4648 56.7116 51.4648 63.1836C51.4648 69.6556 56.7116 75 63.1836 75C69.6556 75 75 69.6556 75 63.1836C75 56.7116 69.6556 51.4648 63.1836 51.4648ZM63.1836 61.7188C65.6067 61.7188 67.5781 63.6902 67.5781 66.1133C67.5781 68.0206 66.3498 69.6312 64.6484 70.2381V73.5352H61.7188V70.2381C60.0174 69.6312 58.7891 68.0206 58.7891 66.1133H61.7188C61.7188 66.9216 62.3753 67.5781 63.1836 67.5781C63.9919 67.5781 64.6484 66.9216 64.6484 66.1133C64.6484 65.3049 63.9919 64.6484 63.1836 64.6484C60.7605 64.6484 58.7891 62.677 58.7891 60.2539C58.7891 58.3466 60.0174 56.736 61.7188 56.1291V52.9297H64.6484V56.1291C66.3498 56.736 67.5781 58.3466 67.5781 60.2539H64.6484C64.6484 59.4456 63.9919 58.7891 63.1836 58.7891C62.3753 58.7891 61.7188 59.4456 61.7188 60.2539C61.7188 61.0622 62.3753 61.7188 63.1836 61.7188Z" fill="#0A2643"/>
<path d="M69.043 27.9297H63.1836V25H60.2539V27.9297H57.3242V25H54.3945V27.9297H39.7461V25H36.8164V27.9297H33.8867V25H30.957V27.9297H25V36.8164H69.043V27.9297Z" fill="#0A2643"/>
<path d="M48.5352 63.1836C48.5352 55.1071 55.1071 48.5352 63.1836 48.5352C65.2691 48.5352 67.2455 48.9876 69.043 49.7768V39.7461H25V69.043H49.7768C48.9876 67.2455 48.5352 65.2691 48.5352 63.1836ZM57.3242 42.6758H63.1836V45.6055H57.3242V42.6758ZM48.5352 42.6758H54.3945V45.6055H48.5352V42.6758ZM48.5352 48.5352H54.3945V51.4648H48.5352V48.5352ZM36.8164 57.3242H30.957V54.3945H36.8164V57.3242ZM36.8164 51.4648H30.957V48.5352H36.8164V51.4648ZM36.8164 45.6055H30.957V42.6758H36.8164V45.6055ZM45.6055 57.3242H39.7461V54.3945H45.6055V57.3242ZM45.6055 51.4648H39.7461V48.5352H45.6055V51.4648ZM45.6055 45.6055H39.7461V42.6758H45.6055V45.6055Z" fill="#0A2643"/>
</svg>
