<svg width="100" height="100" viewBox="0 0 100 100" fill="none" xmlns="http://www.w3.org/2000/svg">
<circle cx="50" cy="50" r="50" fill="#F0F8FF"/>
<path d="M53.642 44.7811L53.6717 44.831C53.8068 45.0579 53.8782 45.3172 53.8782 45.5812V46.3308C53.8782 47.6975 54.9901 48.8094 56.3568 48.8094C57.7235 48.8094 58.8355 47.6975 58.8355 46.3308V45.5313C58.8355 44.7216 59.492 44.065 60.3018 44.065H66.0576C65.3386 33.8979 57.2023 25.7471 47.041 25.0059V29.3788C49.7112 29.7085 51.7854 31.9912 51.7854 34.7491C51.7854 37.5071 49.7112 39.7897 47.041 40.1194V44.065H52.3822C52.899 44.065 53.3775 44.3371 53.642 44.7811Z" fill="#0A2643"/>
<path d="M67.6907 55.9834V58.0455C67.6907 59.5269 66.4898 60.7277 65.0084 60.7277C63.5269 60.7277 62.326 59.5267 62.3262 58.0451L62.3265 55.9834H55.9371V62.5327L53.9804 62.5305C52.4872 62.5287 51.2714 63.7306 51.256 65.2238C51.2404 66.7378 52.4633 67.9735 53.9773 67.9735H55.9371V75.0001C66.1042 74.2809 74.255 66.1445 74.9962 55.9834H67.6907Z" fill="#0A2643"/>
<path d="M48.8519 34.749C48.8519 33.3823 47.7399 32.2704 46.3732 32.2704H45.5738C44.7641 32.2704 44.1075 31.6139 44.1075 30.8041V25C33.9041 25.6992 25.7213 33.8677 25 44.0649H29.4212C29.7509 41.3947 32.0336 39.3206 34.7916 39.3206C37.5496 39.3206 39.8322 41.3947 40.162 44.0649H44.1075V38.7237C44.1075 38.2072 44.3793 37.7288 44.8229 37.4643L44.8729 37.4345C45.0999 37.2991 45.3594 37.2276 45.6237 37.2276H46.3732C47.7399 37.2277 48.8519 36.1158 48.8519 34.749Z" fill="#0A2643"/>
<path d="M37.5064 46.2813L37.4768 46.2314C37.3416 46.0044 37.2702 45.7452 37.2702 45.481V44.7879C37.2702 43.4012 36.1355 42.2298 34.749 42.2533C33.4019 42.276 32.3129 43.3791 32.3129 44.7315V45.5309C32.3129 46.3408 31.6564 46.9972 30.8466 46.9972H25C25.7214 57.1946 33.9041 65.3629 44.1075 66.0622V58.6769H42.1203C40.6324 58.6769 39.4263 57.4708 39.4263 55.9829C39.4263 54.495 40.6324 53.2888 42.1203 53.2888H44.1075V46.9971H38.7663C38.2495 46.9972 37.7709 46.7252 37.5064 46.2813Z" fill="#0A2643"/>
</svg>
