<svg width="100" height="100" viewBox="0 0 100 100" fill="none" xmlns="http://www.w3.org/2000/svg">
<circle cx="50" cy="50" r="50" fill="#F0F8FF"/>
<g clip-path="url(#clip0)">
<path d="M49.9996 35.1562C41.7722 35.1562 35.0879 41.8517 35.0879 50.068C35.0879 58.2839 41.7833 64.9793 49.9996 64.9793C58.2155 64.9793 64.9109 58.2839 64.9109 50.068C64.9109 41.8517 58.2271 35.1562 49.9996 35.1562ZM57.4779 46.4933L48.4787 54.9814C48.3125 55.1445 48.0877 55.2345 47.8546 55.2314C47.6108 55.2336 47.3767 55.1352 47.2078 54.9588L42.4983 50.1247C42.1535 49.7666 42.161 49.1969 42.5161 48.8485C42.8707 48.5001 43.4399 48.5023 43.7923 48.8534L47.8776 53.0522L56.2296 45.1768C56.5931 44.8319 57.1672 44.8474 57.512 45.2109C57.8569 45.5744 57.8414 46.1485 57.4779 46.4933Z" fill="#0A2643"/>
<path d="M71.414 55.504L75.0001 50.0685L71.414 44.6324C71.3089 44.4711 71.257 44.2804 71.2663 44.0876L71.6294 37.5739L65.8307 34.6349C65.6592 34.5485 65.52 34.4093 65.4336 34.2378L62.5057 28.4387L55.992 28.8017C55.7992 28.811 55.6085 28.7596 55.4472 28.6541L50.0001 25.0684L44.564 28.6541C44.4027 28.7596 44.2121 28.811 44.0197 28.8017L37.5056 28.4387L34.5666 34.2378C34.4801 34.4093 34.341 34.5485 34.1694 34.6349L28.3703 37.5624L28.7334 44.0765C28.7427 44.2689 28.6913 44.4595 28.5862 44.6213L25 50.0685L28.5862 55.504C28.6913 55.6658 28.7427 55.856 28.7334 56.0488L28.3703 62.5625L34.1694 65.4904C34.341 65.5769 34.4801 65.7161 34.5666 65.8876L37.4945 71.6867L44.0082 71.3232H44.0534C44.2302 71.3254 44.4036 71.3764 44.553 71.4708L49.9885 75.057L55.4246 71.4708C55.5859 71.3658 55.7766 71.3143 55.9689 71.3232L62.483 71.6867L65.411 65.8876C65.4974 65.7161 65.6366 65.5769 65.8081 65.4904L71.6068 62.5625L71.2437 56.0488C71.2535 55.8556 71.312 55.6681 71.414 55.504ZM50.0001 66.7955C40.7739 66.7955 33.2726 59.2942 33.2726 50.0685C33.2726 40.8423 40.7739 33.341 50.0001 33.341C59.2262 33.341 66.7271 40.8423 66.7271 50.0685C66.7271 59.2942 59.2262 66.7955 50.0001 66.7955Z" fill="#0A2643"/>
</g>
<defs>
<clipPath id="clip0">
<rect width="50" height="50" fill="white" transform="translate(25 25)"/>
</clipPath>
</defs>
</svg>
