<svg width="672" height="896" viewBox="0 0 672 896" fill="none" xmlns="http://www.w3.org/2000/svg">
<g clip-path="url(#clip0)">
<path d="M496.82 836.17C501.12 823.17 531.4 795.32 534.67 796.68C537.94 798.04 513.3 813.91 502.26 840.8C501.6 842.46 494.09 844.46 496.82 836.17Z" fill="#74BAAB"/>
<path d="M507.58 791.98C510.69 785.36 519.72 788.19 527.39 790.91C524.08 781 528.96 768.91 536.93 770.75C544.9 772.59 539.11 784.75 536.58 791.38C541.73 790.67 551.2 785.13 554.72 791.38C558.24 797.63 546.86 798.21 541.72 797.53C543.5 801.53 554.14 812.18 544.19 813.32C537 814.15 533.19 810.26 531.04 801.22C517.25 801.4 502.82 802.12 507.58 791.98Z" fill="#EC8C92"/>
<path d="M515.609 814.27C515.609 814.27 537.999 817.65 539.809 825.12C537.389 831.18 522.149 825.74 515.609 814.27Z" fill="#74BAAB"/>
<path d="M466.914 863.15L449.14 873.818L450.169 875.533L467.943 864.865L466.914 863.15Z" fill="#74BAAB"/>
<path d="M427.62 863.05L426.29 861.55C432.29 856.17 440.85 849.38 447.29 847.55L447.84 849.48C441.76 851.21 433.5 857.81 427.62 863.05Z" fill="#74BAAB"/>
<path d="M315.98 887.05L314.58 885.62C321.72 878.62 331.84 869.41 339.49 865.19L340.49 866.95C333.01 871.05 323.03 880.15 315.98 887.05Z" fill="#74BAAB"/>
<path d="M307.309 834.33L305.699 833.14C309.839 827.54 315.909 820.45 321.309 818.52L321.979 820.4C318.139 821.78 312.929 826.72 307.309 834.33Z" fill="#74BAAB"/>
<path d="M278.669 836.33L276.979 835.27C277.419 834.56 287.829 817.99 295.979 813.67L296.979 815.43C289.249 819.51 278.819 836.16 278.669 836.33Z" fill="#74BAAB"/>
<path d="M269.469 884.35L267.819 883.28C271.959 876.74 278.339 867.94 285.259 863.13L286.399 864.77C279.709 869.39 273.509 877.97 269.469 884.35Z" fill="#74BAAB"/>
<path d="M176.01 854.63L174.09 854.06C174.27 853.47 178.53 839.62 188.43 829.99L189.82 831.43C180.29 840.74 176.05 854.54 176.01 854.63Z" fill="#74BAAB"/>
<path d="M148.65 864.26L146.75 863.63C146.95 863.04 151.75 848.96 162.1 837.77L163.57 839.13C153.49 849.99 148.69 864.12 148.65 864.26Z" fill="#74BAAB"/>
<path d="M595.909 895.84C591.647 889.579 586.913 883.651 581.75 878.11C581.369 877.689 581.081 877.194 580.903 876.655C580.725 876.116 580.661 875.547 580.716 874.982C580.77 874.417 580.942 873.87 581.22 873.376C581.498 872.881 581.876 872.45 582.33 872.11C585.14 870.054 588.156 868.294 591.33 866.86C591.85 866.62 592.169 866.27 592.139 865.98C592.109 865.69 591.729 865.36 591.139 865.2C585.323 863.642 579.175 863.855 573.48 865.81C571.42 866.47 568.98 865.66 566.43 863.49L565.43 862.66C564.79 862.124 564.267 861.464 563.89 860.72C563.514 859.975 563.292 859.162 563.24 858.33C562.818 849.87 559.852 841.735 554.73 834.99C554.606 834.838 554.441 834.726 554.254 834.667C554.067 834.609 553.868 834.606 553.68 834.66C553.476 834.717 553.296 834.836 553.165 835.001C553.034 835.167 552.959 835.369 552.95 835.58C552.84 837.13 552.63 838.96 552.34 841.03C552.187 842.128 551.761 843.17 551.101 844.061C550.44 844.951 549.566 845.661 548.559 846.125C547.552 846.589 546.445 846.793 545.339 846.717C544.233 846.641 543.163 846.288 542.23 845.69L542.1 845.61C541.195 845.03 540.501 844.174 540.121 843.169C539.741 842.164 539.695 841.063 539.99 840.03L542.5 831.23C542.529 831.143 542.529 831.05 542.5 830.963C542.471 830.877 542.415 830.802 542.34 830.75C542.266 830.696 542.176 830.666 542.085 830.666C541.993 830.666 541.903 830.696 541.83 830.75L535.2 835.04C533.657 836.04 531.875 836.608 530.038 836.683C528.202 836.759 526.379 836.34 524.759 835.47C512.958 829.16 500.77 823.599 488.27 818.82C487.717 818.612 487.218 818.285 486.807 817.862C486.396 817.439 486.084 816.93 485.892 816.372C485.701 815.813 485.636 815.22 485.701 814.634C485.766 814.047 485.96 813.482 486.27 812.98L491.41 804.9C491.58 804.644 491.663 804.34 491.645 804.033C491.627 803.726 491.509 803.434 491.31 803.2C491.117 802.958 490.85 802.786 490.551 802.709C490.252 802.631 489.935 802.653 489.65 802.77L471.259 810.05C468.78 811.019 466.045 811.122 463.5 810.34C452.39 806.96 440.76 803.97 428.92 801.47C428.468 801.373 428.051 801.157 427.711 800.844C427.372 800.531 427.123 800.132 426.99 799.69C426.855 799.25 426.842 798.782 426.951 798.335C427.06 797.888 427.288 797.479 427.61 797.15C429.77 794.94 431.53 793.1 433.2 791.36C435.66 788.79 437.979 786.36 441.139 783.21C441.293 783.052 441.39 782.848 441.415 782.629C441.44 782.41 441.393 782.189 441.28 782C441.176 781.811 441.009 781.664 440.808 781.585C440.607 781.507 440.384 781.501 440.18 781.57C430.18 784.57 416.74 790.57 408.85 795.63C407.176 796.696 405.166 797.103 403.21 796.77C379.91 792.93 359.6 791.43 330.79 791.43C315.79 791.43 300.61 792.13 285.73 793.49C285.164 793.544 284.595 793.421 284.103 793.138C283.61 792.855 283.217 792.426 282.98 791.91L281.9 789.6C281.817 789.42 281.698 789.26 281.551 789.128C281.403 788.997 281.23 788.898 281.042 788.837C280.854 788.776 280.656 788.754 280.459 788.774C280.262 788.793 280.072 788.853 279.9 788.95L273.99 792.22C273.416 792.538 272.783 792.736 272.13 792.802C271.477 792.867 270.818 792.798 270.193 792.6C269.567 792.401 268.989 792.077 268.493 791.647C267.997 791.217 267.595 790.691 267.31 790.1L267.03 789.52C266.987 789.432 266.925 789.356 266.849 789.295C266.773 789.234 266.684 789.192 266.59 789.17C266.495 789.146 266.397 789.144 266.302 789.163C266.207 789.182 266.117 789.222 266.04 789.28L262.04 792.28C261.638 792.584 261.16 792.769 260.66 792.816C260.159 792.863 259.655 792.768 259.204 792.544C258.754 792.319 258.376 791.973 258.111 791.545C257.847 791.117 257.708 790.623 257.71 790.12V784.45C257.762 784.166 257.727 783.873 257.61 783.61C257.513 783.679 257.429 783.764 257.36 783.86L248.14 796.12C246.64 797.874 244.587 799.063 242.32 799.49C207.32 806.02 178.84 814.94 152.55 827.55C151.68 827.976 150.709 828.152 149.744 828.058C148.78 827.965 147.861 827.605 147.09 827.02C136.772 819.194 124.765 813.892 112.03 811.54C111.899 811.51 111.761 811.529 111.643 811.594C111.525 811.658 111.435 811.764 111.39 811.89C111.328 812.015 111.314 812.158 111.351 812.293C111.388 812.427 111.473 812.544 111.59 812.62C117.59 816.99 122.86 820.99 127.12 824.51C127.67 824.966 128.066 825.58 128.255 826.268C128.445 826.957 128.417 827.688 128.177 828.36C127.937 829.033 127.495 829.616 126.912 830.029C126.33 830.442 125.634 830.666 124.92 830.67H117.43C117.322 830.663 117.216 830.696 117.131 830.763C117.046 830.829 116.989 830.924 116.97 831.03C116.94 831.13 116.947 831.237 116.989 831.332C117.031 831.427 117.106 831.504 117.2 831.55C118.82 832.39 120.35 833.27 121.75 834.14C122.604 834.665 123.309 835.401 123.798 836.276C124.287 837.151 124.544 838.137 124.544 839.14C124.544 840.143 124.287 841.129 123.798 842.004C123.309 842.879 122.604 843.615 121.75 844.14C117.61 846.72 113.58 849.4 109.75 852.14C108.704 852.871 107.418 853.175 106.156 852.989C104.894 852.803 103.75 852.142 102.96 851.14L95.3595 841.64C95.2859 841.541 95.2021 841.451 95.1095 841.37C95.0209 841.68 95.0209 842.01 95.1095 842.32L98.9195 857.39C99.1169 858.087 99.1066 858.826 98.8899 859.517C98.6731 860.208 98.2595 860.821 97.6996 861.28L97.1195 861.76C96.6745 862.13 96.14 862.377 95.5695 862.475C94.9991 862.573 94.4128 862.52 93.8695 862.32C90.3695 861.04 80.6795 858.47 66.2995 862.32C73.7695 863.96 79.6395 866.07 83.7295 868.61C84.1935 868.837 84.5911 869.18 84.8837 869.606C85.1763 870.031 85.354 870.525 85.3996 871.04C85.4064 871.31 85.3586 871.578 85.2589 871.829C85.1592 872.08 85.0098 872.308 84.8195 872.5C83.9947 873.236 82.9252 873.639 81.8195 873.63C75.5272 873.895 69.3549 875.44 63.6795 878.17C63.5315 878.25 63.4146 878.377 63.3476 878.531C63.2806 878.686 63.2674 878.858 63.3101 879.02C63.3528 879.183 63.4489 879.327 63.583 879.428C63.7171 879.53 63.8814 879.583 64.0495 879.58C66.9054 879.471 69.7655 879.601 72.5996 879.97C73.0898 880.037 73.5528 880.235 73.94 880.543C74.3272 880.851 74.6242 881.257 74.7995 881.72C74.9807 882.189 75.0327 882.698 74.95 883.194C74.8673 883.69 74.6531 884.155 74.3296 884.54C71.2796 888.21 68.4095 892.02 65.8095 895.87L64.1596 894.75C66.85 890.766 69.7404 886.921 72.8195 883.23C72.9121 883.117 72.9737 882.982 72.9982 882.839C73.0227 882.695 73.0094 882.547 72.9596 882.41C72.9101 882.28 72.8264 882.166 72.7172 882.079C72.608 881.993 72.4775 881.938 72.3396 881.92C69.6185 881.563 66.8718 881.439 64.1295 881.55C63.5167 881.569 62.9151 881.382 62.4204 881.02C61.9258 880.657 61.5665 880.14 61.3996 879.55C61.2339 878.95 61.2797 878.312 61.5291 877.742C61.7786 877.172 62.2166 876.705 62.7696 876.42C68.707 873.539 75.1754 871.915 81.7696 871.65C83.1596 871.6 83.5996 871.2 83.6496 871.06C83.6996 870.92 83.3896 870.6 82.9096 870.31C79.0196 867.89 73.3695 865.86 66.1195 864.31C65.675 864.22 65.2742 863.981 64.9831 863.634C64.6919 863.286 64.5275 862.849 64.5171 862.396C64.5066 861.942 64.6506 861.499 64.9254 861.138C65.2003 860.777 65.5896 860.52 66.0296 860.41C80.9596 856.41 91.1195 859.16 94.7995 860.51C95.0143 860.587 95.2457 860.607 95.4704 860.567C95.6951 860.526 95.9052 860.427 96.0796 860.28L96.6596 859.8C96.9244 859.585 97.1197 859.297 97.2212 858.971C97.3226 858.645 97.3255 858.297 97.2295 857.97L93.4295 842.9C93.1793 842.311 93.1422 841.653 93.3247 841.04C93.5073 840.427 93.898 839.896 94.4295 839.54C94.916 839.334 95.4617 839.316 95.9607 839.49C96.4596 839.663 96.8762 840.016 97.1295 840.48L104.71 849.95C105.185 850.548 105.871 850.942 106.628 851.052C107.384 851.162 108.154 850.979 108.78 850.54C112.61 847.81 116.67 845.11 120.85 842.54C121.414 842.194 121.881 841.709 122.204 841.131C122.528 840.553 122.698 839.902 122.698 839.24C122.698 838.578 122.528 837.927 122.204 837.349C121.881 836.771 121.414 836.286 120.85 835.94C119.49 835.1 118 834.25 116.43 833.43C115.946 833.172 115.561 832.761 115.337 832.26C115.112 831.76 115.061 831.199 115.19 830.667C115.32 830.134 115.623 829.659 116.052 829.318C116.481 828.976 117.011 828.787 117.56 828.78H125.07C125.376 828.782 125.675 828.686 125.923 828.506C126.172 828.326 126.356 828.072 126.45 827.78C126.555 827.491 126.567 827.177 126.485 826.881C126.402 826.585 126.229 826.322 125.99 826.13C121.77 822.64 116.58 818.67 110.57 814.32C110.087 813.975 109.736 813.476 109.576 812.905C109.416 812.334 109.456 811.725 109.689 811.18C109.923 810.634 110.336 810.185 110.86 809.907C111.384 809.629 111.987 809.538 112.57 809.65C125.614 812.069 137.914 817.5 148.49 825.51C148.965 825.873 149.533 826.095 150.129 826.152C150.724 826.209 151.324 826.097 151.86 825.83C178.32 813.14 207 804.17 242.14 797.61C243.937 797.274 245.566 796.336 246.76 794.95L255.82 782.63C256.071 782.197 256.462 781.862 256.929 781.68C257.396 781.498 257.911 781.481 258.39 781.63C258.916 781.886 259.342 782.31 259.6 782.835C259.859 783.36 259.936 783.956 259.82 784.53V790.1C259.816 790.23 259.851 790.359 259.921 790.469C259.99 790.579 260.091 790.667 260.21 790.72C260.324 790.781 260.454 790.807 260.583 790.797C260.713 790.786 260.836 790.739 260.94 790.66L264.94 787.66C265.253 787.424 265.614 787.26 265.997 787.178C266.381 787.097 266.778 787.101 267.16 787.19C267.543 787.281 267.901 787.456 268.207 787.704C268.514 787.951 268.76 788.264 268.93 788.62L269.21 789.2C269.368 789.534 269.592 789.833 269.869 790.079C270.145 790.325 270.469 790.512 270.82 790.63C271.185 790.749 271.571 790.79 271.953 790.752C272.335 790.715 272.705 790.598 273.04 790.41L278.95 787.14C279.361 786.912 279.815 786.771 280.283 786.726C280.752 786.681 281.224 786.733 281.671 786.878C282.119 787.024 282.531 787.26 282.884 787.571C283.236 787.883 283.521 788.264 283.72 788.69L284.8 791.01C284.862 791.152 284.969 791.271 285.104 791.348C285.239 791.425 285.395 791.458 285.55 791.44C300.55 790.07 315.72 789.37 330.8 789.37C359.73 789.37 380.13 790.88 403.54 794.74C405.009 794.986 406.518 794.683 407.78 793.89C415.78 788.76 429.49 782.61 439.62 779.59C440.251 779.396 440.929 779.421 441.544 779.66C442.16 779.9 442.676 780.34 443.009 780.91C443.35 781.482 443.491 782.151 443.409 782.812C443.328 783.473 443.029 784.088 442.56 784.56C439.42 787.7 437.11 790.12 434.66 792.68C432.98 794.43 431.22 796.27 429.05 798.49C428.978 798.562 428.929 798.653 428.906 798.752C428.883 798.85 428.887 798.954 428.92 799.05C428.947 799.15 429.002 799.24 429.078 799.311C429.154 799.381 429.248 799.43 429.35 799.45C441.24 801.97 452.93 804.97 464.1 808.37C466.212 809.017 468.481 808.933 470.54 808.13L488.92 800.85C489.599 800.583 490.344 800.537 491.051 800.72C491.757 800.902 492.388 801.303 492.853 801.866C493.318 802.428 493.593 803.123 493.639 803.851C493.685 804.579 493.5 805.303 493.11 805.92L487.97 813.99C487.83 814.237 487.744 814.511 487.718 814.794C487.692 815.077 487.727 815.362 487.82 815.63C487.912 815.911 488.066 816.168 488.27 816.383C488.474 816.597 488.723 816.763 489 816.87C501.579 821.674 513.84 827.272 525.71 833.63C527.014 834.331 528.483 834.668 529.962 834.607C531.442 834.545 532.878 834.087 534.12 833.28L540.75 828.99C541.168 828.721 541.658 828.587 542.155 828.604C542.652 828.62 543.133 828.788 543.532 829.085C543.931 829.381 544.231 829.792 544.391 830.262C544.552 830.733 544.565 831.242 544.43 831.72L541.91 840.52C541.733 841.141 541.761 841.802 541.99 842.405C542.218 843.009 542.636 843.522 543.18 843.87L543.3 843.95C543.952 844.366 544.699 844.612 545.472 844.664C546.244 844.716 547.017 844.573 547.72 844.249C548.423 843.924 549.033 843.428 549.494 842.806C549.956 842.185 550.253 841.457 550.36 840.69C550.65 838.69 550.85 836.88 550.96 835.37C550.999 834.759 551.224 834.175 551.605 833.696C551.985 833.217 552.504 832.866 553.09 832.69C553.663 832.517 554.276 832.52 554.848 832.698C555.42 832.876 555.926 833.222 556.3 833.69C561.71 840.745 564.83 849.288 565.24 858.17C565.278 858.729 565.429 859.275 565.684 859.775C565.938 860.275 566.29 860.719 566.72 861.08L567.72 861.91C569.12 863.1 571.14 864.4 572.88 863.91C578.939 861.828 585.482 861.605 591.669 863.27C592.295 863.381 592.87 863.687 593.31 864.146C593.75 864.604 594.034 865.19 594.12 865.82C594.126 866.446 593.937 867.058 593.578 867.571C593.22 868.084 592.71 868.471 592.12 868.68C589.087 870.044 586.205 871.72 583.519 873.68C583.284 873.854 583.089 874.076 582.946 874.331C582.803 874.586 582.715 874.869 582.69 875.16C582.659 875.446 582.691 875.735 582.782 876.008C582.874 876.28 583.023 876.53 583.22 876.74C588.456 882.365 593.253 888.382 597.57 894.74L595.909 895.84Z" fill="#74BAAB"/>
<path d="M659.2 757.13C657.524 757.111 655.868 756.772 654.32 756.13L487.08 689.03C485.496 688.461 484.059 687.545 482.874 686.349C481.689 685.154 480.785 683.709 480.23 682.12C479.326 679.222 479.478 676.097 480.66 673.3C483.04 667.36 489.54 662.64 496.9 665.59L508.9 670.39C509.238 670.578 509.615 670.686 510.002 670.705C510.389 670.725 510.775 670.654 511.13 670.5C513.56 669.27 515.13 662.9 516.96 655.5C517.51 653.27 518.07 651 518.71 648.62L518.83 648.18C521.34 638.78 526.52 619.18 548.65 620.13C556.89 620.46 560.86 620.92 568.05 621.74H568.23C570.05 621.95 572.09 622.19 574.46 622.45C581.11 623.18 585.53 624.92 588.83 628.09C592.83 631.94 594.92 637.88 595.21 646.25C595.61 657.87 598.21 660.48 602.86 661.25C642.99 667.74 642.86 685.07 642.78 701.83C642.78 702.83 642.78 703.83 642.78 704.83C642.78 714.83 643.78 724.5 650.86 727.33L663.47 732.33C665.129 732.94 666.633 733.909 667.874 735.167C669.115 736.425 670.063 737.943 670.65 739.61C671.666 742.676 671.546 746.006 670.31 748.99C669.204 751.863 667.122 754.256 664.43 755.75C662.831 756.644 661.032 757.119 659.2 757.13V757.13ZM655.07 754.28C656.391 754.875 657.83 755.165 659.279 755.129C660.728 755.093 662.15 754.731 663.44 754.07C665.722 752.791 667.49 750.758 668.44 748.32C669.491 745.775 669.601 742.939 668.75 740.32C668.255 738.931 667.461 737.667 666.425 736.618C665.388 735.569 664.133 734.761 662.75 734.25L650.15 729.19C642 725.92 640.84 715.56 640.81 704.85C640.81 703.85 640.81 702.85 640.81 701.85C640.91 685.93 641.01 669.47 602.57 663.25C595.25 662.07 593.57 655.92 593.24 646.37C592.97 638.55 591.08 633.05 587.47 629.58C584.47 626.74 580.47 625.17 574.27 624.48L568.03 623.78H567.87C560.71 622.96 556.77 622.51 548.6 622.18C528.12 621.37 523.17 639.85 520.79 648.75L520.67 649.19C520.04 651.55 519.48 653.81 518.94 655.98C516.83 664.53 515.31 670.68 512.06 672.31C511.454 672.592 510.793 672.739 510.125 672.739C509.456 672.739 508.796 672.592 508.19 672.31L496.19 667.51C490.05 665.04 484.58 669.07 482.56 674.11C481.549 676.464 481.407 679.101 482.16 681.55C482.626 682.862 483.381 684.053 484.367 685.035C485.353 686.018 486.546 686.768 487.86 687.23L655.07 754.28Z" fill="black"/>
<path d="M657.95 552.74C657.319 552.737 656.689 552.677 656.07 552.56V552.56L533.96 529.93C532.768 529.754 531.631 529.315 530.631 528.644C529.631 527.972 528.793 527.086 528.18 526.05C527.143 524.149 526.81 521.943 527.24 519.82C527.657 517.547 528.83 515.482 530.57 513.96C531.519 513.141 532.645 512.553 533.859 512.24C535.073 511.928 536.343 511.901 537.57 512.16L546.3 513.77C547.07 513.92 547.39 513.77 547.57 513.6C548.93 512.54 549.14 507.87 549.35 502.93C549.42 501.36 549.49 499.74 549.6 498.03V497.72C550.03 490.95 550.91 476.86 566.2 474.43C571.83 473.54 574.57 473.3 579.55 472.88H579.82L583.98 472.52C588.64 472.11 591.929 472.7 594.639 474.43C597.949 476.53 600.21 480.33 601.56 486.03C603.36 493.61 605.37 495.03 608.45 494.87C636.71 493.79 639.12 506.18 641.25 517.11V517.31C641.37 517.92 641.48 518.53 641.61 519.14C642.97 525.79 644.92 532.08 649.88 533L659.08 534.7C660.319 534.9 661.498 535.37 662.535 536.076C663.572 536.783 664.441 537.71 665.08 538.79C666.223 540.788 666.61 543.131 666.17 545.39C665.54 549.12 662.69 552.74 657.95 552.74ZM656.43 550.59C660.98 551.44 663.639 548.39 664.269 545C664.615 543.215 664.318 541.366 663.43 539.78C662.925 538.947 662.243 538.234 661.433 537.693C660.622 537.152 659.703 536.796 658.74 536.65L649.54 534.94C643.41 533.81 641.17 526.86 639.67 519.52C639.54 518.91 639.42 518.29 639.3 517.67V517.48C637.13 506.35 635.079 495.84 608.529 496.85C603.199 497.04 601.18 493.03 599.63 486.47C598.4 481.3 596.42 477.91 593.63 476.1C591.31 474.62 588.41 474.1 584.22 474.5L580.05 474.85H579.79C574.85 475.26 572.13 475.49 566.57 476.38C552.87 478.56 552.079 491.09 551.659 497.82V498.13C551.549 499.82 551.479 501.43 551.409 502.98C551.139 509.1 550.95 513.51 548.86 515.15C548.453 515.45 547.984 515.656 547.488 515.753C546.991 515.85 546.48 515.835 545.99 515.71L537.259 514.09C536.33 513.898 535.369 513.922 534.45 514.16C533.532 514.397 532.68 514.842 531.96 515.46C530.573 516.68 529.639 518.333 529.31 520.15C528.96 521.806 529.211 523.533 530.019 525.02C530.488 525.804 531.127 526.474 531.888 526.979C532.65 527.484 533.515 527.813 534.42 527.94L656.43 550.63V550.59Z" fill="black"/>
<path d="M9.15968 753.03C7.85267 753.033 6.56376 752.724 5.39967 752.13C3.34037 751.016 1.73721 749.215 0.869644 747.04C-0.102331 744.731 -0.261016 742.161 0.419632 739.75C0.795969 738.456 1.46403 737.266 2.37245 736.271C3.28087 735.276 4.40548 734.502 5.65968 734.01L14.6096 730.28C15.4296 729.94 15.6097 729.56 15.7197 729.28C16.3397 727.45 13.7197 723.03 10.9697 718.36C10.0797 716.86 9.18968 715.36 8.27968 713.74L8.10963 713.44C4.46963 707.02 -3.11036 693.64 9.36964 682.34C13.9896 678.17 16.3697 676.34 20.6597 672.96L20.7896 672.86L24.4796 669.97C28.4796 666.82 31.8297 665.4 35.3197 665.37H35.4597C39.6697 665.37 43.9397 667.49 48.5097 671.83C54.7297 677.74 57.4197 677.83 60.2097 675.83C85.3497 658.02 94.9296 667.83 103.37 676.58L104.95 678.2C110.19 683.5 115.75 688.1 120.89 685.96L130.33 682.03C136.21 679.58 141.21 682.92 143.11 687.49C144.9 691.79 144.11 697.49 138.11 700.02L12.9296 752.23C11.7384 752.744 10.4569 753.016 9.15968 753.03V753.03ZM35.4597 667.39H35.3397C32.3397 667.39 29.3397 668.7 25.7197 671.56L22.0197 674.46L21.8997 674.55C17.6197 677.88 15.2697 679.72 10.7197 683.84C-0.580319 694.07 6.46969 706.5 9.84969 712.48L10.0197 712.78C10.9197 714.38 11.8096 715.88 12.6696 717.33C16.0796 723.1 18.5296 727.24 17.6096 729.94C17.422 730.444 17.1246 730.901 16.739 731.276C16.3533 731.651 15.889 731.936 15.3797 732.11L6.42964 735.84C5.45007 736.223 4.57176 736.827 3.86256 737.603C3.15337 738.38 2.63232 739.31 2.33968 740.32C1.78899 742.286 1.923 744.38 2.71968 746.26C3.39468 748.003 4.66703 749.449 6.30965 750.34C7.22388 750.773 8.22293 750.998 9.23463 750.998C10.2463 750.998 11.2455 750.773 12.1597 750.34L137.38 698.14C142.1 696.14 142.73 691.74 141.27 688.22C139.81 684.7 135.76 681.89 131.1 683.83L121.66 687.77C115.43 690.37 109.26 685.36 103.53 679.57L101.94 677.94C93.2897 669.02 85.1096 660.6 61.3596 677.42C56.6696 680.74 52.4397 678.29 47.1297 673.25C42.9497 669.33 39.1297 667.39 35.4597 667.39Z" fill="black"/>
<path d="M121.06 566.81L214.06 722.9C216.22 726.284 216.976 730.376 216.167 734.308C215.359 738.24 213.05 741.703 209.73 743.96L190.92 756.75C189.895 757.449 189.12 758.459 188.71 759.631C188.3 760.803 188.276 762.075 188.642 763.261C189.007 764.448 189.743 765.486 190.742 766.223C191.74 766.961 192.949 767.359 194.19 767.36H261.41C268.27 767.363 275.083 766.228 281.57 764L324.04 749.46C342.18 743.25 347.32 721.93 337.53 705.46L290.94 622.46L293.16 621.67C302.929 618.204 311.782 612.561 319.047 605.167C326.312 597.774 331.799 588.824 335.094 578.996C338.388 569.168 339.403 558.719 338.061 548.44C336.72 538.162 333.057 528.323 327.35 519.67L322.68 512.59H144.05C116.49 512.55 106.43 543.45 121.06 566.81Z" fill="#1F5182"/>
<path d="M238.9 566.81L331.9 722.9C334.056 726.286 334.809 730.378 333.999 734.31C333.189 738.241 330.879 741.702 327.56 743.96L308.78 756.75C307.755 757.449 306.98 758.459 306.57 759.631C306.16 760.803 306.136 762.075 306.502 763.261C306.867 764.448 307.603 765.486 308.602 766.223C309.6 766.961 310.809 767.359 312.05 767.36H379.28C386.137 767.362 392.946 766.226 399.43 764L441.9 749.46C460.04 743.25 465.19 721.93 455.4 705.46L408.8 622.46L411.02 621.67C420.789 618.204 429.642 612.561 436.907 605.167C444.172 597.774 449.659 588.824 452.954 578.996C456.248 569.168 457.263 558.719 455.921 548.44C454.58 538.162 450.917 528.323 445.21 519.67L440.54 512.59H261.9C234.33 512.55 224.28 543.45 238.9 566.81Z" fill="#74BAAB"/>
<path d="M148.82 2.16001C229.57 37.87 468.95 222.47 586.16 303.75C599.59 313.05 601.61 334.89 572.25 334.63L45.5197 330.05C35.6897 329.97 34.4597 320.79 36.6897 311.22C36.6897 311.22 95.6097 45.32 116.01 8.57001C119.82 1.32001 137.7 -2.75999 148.82 2.16001Z" fill="#90C8FF"/>
<path d="M102.82 358.24C109.65 334.24 130.09 319.98 171.22 314.51C191.22 311.85 215.5 312.02 243.79 312.02C378.3 312.02 499.57 413.78 499.57 498.11C499.57 550.11 436.17 568.71 315.7 512.87C265.62 512.18 229.31 512.41 184.47 512.55C140.19 452.44 92.1697 395.56 102.82 358.24Z" fill="#FFF3A1"/>
<path d="M217.26 390.63H204.06C201.244 390.63 198.543 389.511 196.551 387.52C194.559 385.528 193.44 382.827 193.44 380.01V298.05H223.44L243.86 320.3C248.436 325.284 250.973 331.804 250.97 338.57V356.86C250.974 361.291 250.106 365.679 248.414 369.774C246.722 373.869 244.24 377.591 241.109 380.727C237.979 383.862 234.262 386.351 230.17 388.05C226.078 389.749 221.691 390.626 217.26 390.63Z" fill="#EC8C92"/>
<path d="M234.37 301.55H233.37C232.808 301.55 232.269 301.327 231.871 300.929C231.473 300.531 231.25 299.992 231.25 299.43V274.02C237.97 270.16 236.14 259.51 234.25 255.27C232.25 250.73 229.1 250.34 228.25 253.27C226.48 259.42 220.94 260.42 218.25 260.36C208.64 260.14 208.01 251.81 191.83 252.12C187.212 252.243 182.825 254.169 179.61 257.487C176.395 260.805 174.608 265.25 174.63 269.87V350.36C174.638 353.06 175.714 355.647 177.623 357.557C179.533 359.466 182.12 360.542 184.82 360.55H205.52C212.336 360.55 218.873 357.842 223.693 353.023C228.512 348.203 231.22 341.666 231.22 334.85V333.46C231.211 332.503 231.493 331.566 232.029 330.773C232.565 329.98 233.329 329.369 234.22 329.02C236.079 328.318 237.681 327.066 238.811 325.432C239.942 323.797 240.548 321.857 240.55 319.87V307.68C240.55 306.871 240.39 306.069 240.079 305.322C239.768 304.575 239.312 303.898 238.737 303.328C238.163 302.758 237.481 302.307 236.731 302.002C235.982 301.697 235.179 301.543 234.37 301.55V301.55Z" fill="#F2BDBA"/>
<path d="M220.55 297.24H168.08C167.158 297.235 166.27 297.592 165.61 298.236C164.949 298.88 164.568 299.758 164.55 300.68C164.5 302.88 164.5 304.34 164.5 306.37V306.88C164.5 317.69 171.23 326.5 179.5 326.5C185.79 326.5 191.5 321.31 193.59 313.6C193.627 313.441 193.716 313.299 193.843 313.196C193.97 313.093 194.127 313.035 194.29 313.03C194.453 313.036 194.609 313.095 194.735 313.198C194.862 313.301 194.951 313.442 194.99 313.6C197.13 321.31 202.79 326.5 209.08 326.5C217.35 326.5 224.08 317.69 224.08 306.88V300.77C224.077 299.835 223.705 298.938 223.043 298.277C222.382 297.615 221.485 297.243 220.55 297.24ZM222.08 306.88C222.08 316.61 216.26 324.5 209.08 324.5C203.51 324.5 198.76 319.74 196.92 313.07C196.767 312.489 196.426 311.976 195.95 311.609C195.474 311.243 194.891 311.044 194.29 311.044C193.689 311.044 193.106 311.243 192.63 311.609C192.154 311.976 191.813 312.489 191.66 313.07C189.81 319.74 185.07 324.5 179.5 324.5C172.32 324.5 166.5 316.61 166.5 306.88C166.5 304.58 166.5 303.08 166.55 300.73C166.56 300.331 166.726 299.952 167.012 299.674C167.298 299.396 167.681 299.24 168.08 299.24H220.55C220.956 299.24 221.345 299.401 221.632 299.688C221.919 299.975 222.08 300.364 222.08 300.77V306.88Z" fill="black"/>
<path d="M183.74 310.29H183.59C182.964 310.291 182.344 310.169 181.766 309.931C181.187 309.692 180.661 309.342 180.218 308.899C179.775 308.457 179.423 307.932 179.184 307.354C178.944 306.776 178.82 306.156 178.82 305.53V305.53C178.82 305.156 178.969 304.797 179.233 304.533C179.498 304.269 179.856 304.12 180.23 304.12H187.09C187.464 304.12 187.823 304.269 188.087 304.533C188.352 304.797 188.5 305.156 188.5 305.53V305.53C188.5 306.155 188.377 306.774 188.138 307.352C187.899 307.929 187.548 308.454 187.106 308.896C186.664 309.338 186.139 309.688 185.562 309.928C184.984 310.167 184.365 310.29 183.74 310.29V310.29Z" fill="black"/>
<path d="M205.39 310.29H205.24C203.976 310.29 202.765 309.789 201.87 308.896C200.976 308.004 200.472 306.793 200.47 305.53V305.53C200.47 305.156 200.618 304.797 200.883 304.533C201.147 304.269 201.506 304.12 201.88 304.12H208.75C209.122 304.123 209.478 304.272 209.74 304.536C210.003 304.801 210.15 305.158 210.15 305.53V305.53C210.15 306.792 209.648 308.003 208.756 308.896C207.863 309.789 206.652 310.29 205.39 310.29V310.29Z" fill="black"/>
<path d="M206.94 335.77H195.11V333.77H206.94C207.583 333.771 208.216 333.611 208.781 333.303C209.345 332.996 209.823 332.551 210.17 332.01L211.85 333.09C211.323 333.913 210.597 334.59 209.738 335.059C208.88 335.527 207.918 335.772 206.94 335.77V335.77Z" fill="black"/>
<path d="M266.74 478.93L256.58 492.93C255.518 494.395 254.782 496.071 254.423 497.845C254.063 499.619 254.089 501.449 254.497 503.212C254.906 504.975 255.688 506.63 256.791 508.065C257.894 509.5 259.292 510.681 260.89 511.53L272.69 517.8C276.512 519.83 280.942 520.4 285.154 519.405C289.365 518.409 293.071 515.916 295.58 512.39L299.58 506.75L266.74 478.93Z" fill="#EC8C92"/>
<path d="M209.65 478.93L219.81 492.93C220.873 494.395 221.609 496.071 221.968 497.845C222.327 499.619 222.302 501.449 221.893 503.212C221.485 504.975 220.702 506.63 219.6 508.065C218.497 509.5 217.099 510.681 215.5 511.53L203.7 517.8C199.883 519.83 195.457 520.403 191.248 519.414C187.039 518.424 183.333 515.938 180.82 512.42L176.82 506.78L209.65 478.93Z" fill="#EC8C92"/>
<path d="M302.55 425.2C296.219 413.801 292.217 401.257 290.777 388.297C289.337 375.338 290.487 362.221 294.16 349.71L296.08 350.27C292.475 362.533 291.346 375.391 292.757 388.096C294.168 400.8 298.092 413.097 304.3 424.27L302.55 425.2Z" fill="black"/>
<path d="M147.63 427.63C135.26 401.36 133.14 377.94 140.76 351.63L142.69 352.19C135.21 377.94 137.29 400.93 149.44 426.72L147.63 427.63Z" fill="black"/>
<path d="M449.44 403.43L234.87 186.63L233.2 184.93L232.79 184.52L232.43 184.18L231.72 183.5C230.767 182.631 229.765 181.816 228.72 181.06C226.757 179.619 224.59 178.479 222.29 177.68C217.971 176.17 213.233 176.4 209.08 178.32C204.543 180.534 200.677 183.917 197.88 188.12L187.31 203.97L145.04 267.37L60.5101 394.18L39.37 425.87L36.73 429.87L36.07 430.87L35.56 431.7C35.23 432.26 34.84 432.79 34.56 433.37C33.3125 435.58 32.3291 437.93 31.63 440.37C30.2332 444.996 30.0848 449.909 31.2001 454.61C32.3116 459.157 34.7231 463.281 38.1401 466.48C41.6645 469.714 45.9971 471.935 50.68 472.91C53.1405 473.446 55.6518 473.715 58.17 473.71H67.6601L86.73 473.63L239.23 472.99C290.07 472.59 340.9 472.99 391.73 473.15L429.54 473.25C434.607 473.153 439.6 472.016 444.21 469.91C448.663 467.794 452.565 464.676 455.61 460.8C461.8 453.01 464.5 442.16 463.27 431.71C462.666 426.437 461.154 421.308 458.8 416.55C456.419 411.694 453.257 407.262 449.44 403.43V403.43ZM462.28 390.54C467.525 395.704 471.893 401.689 475.21 408.26C478.555 414.897 480.723 422.063 481.62 429.44C482.535 436.89 482.078 444.445 480.27 451.73C478.43 459.176 475.066 466.16 470.39 472.24C465.593 478.426 459.433 483.422 452.39 486.84C445.443 490.124 437.891 491.936 430.21 492.16H428.81H425.12H420.36H410.83L391.76 492.23C340.93 492.37 290.1 492.79 239.26 492.38L86.7601 491.75L67.69 491.67H58.13C54.2858 491.652 50.4555 491.206 46.7101 490.34C38.9072 488.612 31.7147 484.812 25.8901 479.34C20.0186 473.738 15.8958 466.555 14.0201 458.66C12.222 450.921 12.5049 442.844 14.8401 435.25C15.9413 431.576 17.4648 428.043 19.38 424.72C19.82 423.88 20.3801 423.11 20.8401 422.3L21.5901 421.12L22.2601 420.12L24.94 416.12L46.3401 384.63L132.07 258.35L174.92 195.22L185.64 179.44C187.803 176.36 190.328 173.55 193.16 171.07C194.614 169.787 196.158 168.611 197.78 167.55C199.443 166.453 201.196 165.5 203.02 164.7C210.59 161.313 219.155 160.892 227.02 163.52C230.744 164.778 234.259 166.585 237.45 168.88C238.986 169.978 240.459 171.164 241.86 172.43L242.86 173.43L243.86 174.34L245.55 176.02L462.28 390.54Z" fill="white"/>
<path d="M483.61 429.2C482.691 421.59 480.451 414.199 476.99 407.36C473.583 400.594 469.09 394.433 463.69 389.12L246.89 174.63L245.19 172.95L244.19 172.02L243.19 171.02C241.734 169.7 240.202 168.468 238.6 167.33C235.253 164.885 231.554 162.963 227.63 161.63C224.058 160.434 220.317 159.82 216.55 159.81C215.96 159.81 215.37 159.81 214.79 159.86C210.443 160.067 206.173 161.085 202.2 162.86C200.278 163.701 198.431 164.705 196.68 165.86C194.973 167 193.349 168.26 191.82 169.63C188.868 172.217 186.236 175.148 183.98 178.36L173.25 194.17L130.39 257.3L44.69 383.53L23.26 415.1L20.58 419.04L19.91 420.04L19.16 421.22L18.68 421.99C18.33 422.54 17.97 423.12 17.63 423.75C15.6553 427.2 14.0786 430.864 12.93 434.67C10.4857 442.601 10.1958 451.04 12.09 459.12C14.0598 467.387 18.3763 474.909 24.52 480.78C30.5925 486.527 38.1147 490.513 46.28 492.31C50.1642 493.203 54.1347 493.665 58.12 493.69H67.7L86.76 493.77L239.26 494.4C253.72 494.52 269.14 494.58 286.39 494.58C308.39 494.58 330.66 494.48 352.24 494.4C365.42 494.34 378.6 494.29 391.78 494.25L410.85 494.18H420.38H425.14H428.82H430.24C438.204 493.937 446.033 492.058 453.24 488.66C460.574 485.117 466.988 479.925 471.98 473.49C476.82 467.183 480.306 459.946 482.22 452.23C484.097 444.704 484.568 436.897 483.61 429.2V429.2ZM480.27 451.73C478.43 459.176 475.066 466.16 470.39 472.24C465.593 478.426 459.433 483.422 452.39 486.84C445.443 490.124 437.891 491.936 430.21 492.16H428.81H425.12H420.36H410.83L391.76 492.23C356.64 492.32 321.51 492.56 286.38 492.56C270.673 492.56 254.967 492.5 239.26 492.38L86.76 491.75L67.69 491.67H58.13C54.2858 491.652 50.4555 491.206 46.71 490.34C38.9072 488.612 31.7147 484.812 25.89 479.34C20.0186 473.738 15.8958 466.555 14.02 458.66C12.222 450.921 12.5049 442.844 14.84 435.25C15.9413 431.576 17.4648 428.043 19.38 424.72C19.82 423.88 20.38 423.11 20.84 422.3L21.59 421.12L22.26 420.12L24.94 416.12L46.34 384.63L132.07 258.35L174.92 195.22L185.64 179.44C187.803 176.36 190.328 173.55 193.16 171.07C194.614 169.787 196.158 168.611 197.78 167.55C199.443 166.453 201.196 165.5 203.02 164.7C206.768 163.019 210.797 162.056 214.9 161.86C215.45 161.86 216 161.81 216.55 161.81C220.099 161.824 223.622 162.401 226.99 163.52C230.714 164.778 234.229 166.585 237.42 168.88C238.956 169.978 240.429 171.164 241.83 172.43L242.83 173.43L243.83 174.34L245.52 176.02L462.32 390.56C467.565 395.724 471.933 401.709 475.25 408.28C478.595 414.917 480.763 422.083 481.66 429.46C482.56 436.906 482.089 444.454 480.27 451.73Z" fill="#90C8FF"/>
<path d="M458.82 416.44C456.428 411.626 453.267 407.235 449.46 403.44L234.87 186.63L233.2 184.93L232.79 184.52L232.43 184.18L231.72 183.5C230.768 182.631 229.766 181.816 228.72 181.06C226.758 179.619 224.59 178.479 222.29 177.68C220.412 177.026 218.439 176.688 216.45 176.68C213.906 176.687 211.393 177.24 209.08 178.3C204.543 180.514 200.677 183.897 197.88 188.1L187.31 203.95L145.04 267.35L60.5105 394.18L39.3705 425.87L36.7304 429.87L36.0705 430.87L35.5605 431.7C35.2305 432.26 34.8405 432.79 34.5605 433.37C33.3129 435.58 32.3295 437.93 31.6305 440.37C30.2336 444.996 30.0852 449.908 31.2005 454.61C32.3121 459.157 34.7236 463.281 38.1405 466.48C41.6649 469.714 45.9976 471.935 50.6804 472.91C53.1341 473.446 55.6389 473.715 58.1505 473.71V471.71C55.7971 471.711 53.4503 471.459 51.1505 470.96C46.8185 470.064 42.8099 468.011 39.5504 465.02C36.4132 462.088 34.2023 458.303 33.1905 454.13C32.1466 449.773 32.2847 445.216 33.5905 440.93C34.246 438.652 35.1691 436.46 36.3405 434.4V434.34V434.28C36.4914 433.979 36.6617 433.689 36.8505 433.41C36.9805 433.2 37.1205 432.98 37.2505 432.75L37.7205 431.99L38.3705 430.99L41.0105 426.99L62.1405 395.3L146.67 268.51L188.95 205.11L199.51 189.26C202.095 185.366 205.671 182.232 209.87 180.18C211.923 179.228 214.158 178.734 216.42 178.73C218.187 178.733 219.941 179.03 221.61 179.61C223.722 180.34 225.712 181.385 227.51 182.71C228.495 183.416 229.437 184.181 230.33 185L231.01 185.66L231.36 185.98L231.75 186.37L233.42 188.06L448.02 404.84C451.683 408.48 454.723 412.696 457.02 417.32C459.286 421.866 460.738 426.773 461.31 431.82C462.49 441.93 459.79 452.25 454.07 459.45C451.213 463.086 447.55 466.01 443.371 467.99C439.025 469.987 434.312 471.059 429.53 471.14L391.76 471.04C378.58 471 365.404 470.95 352.23 470.89C330.65 470.8 308.33 470.71 286.37 470.71C269.12 470.71 253.7 470.77 239.24 470.88L86.7404 471.52L67.6805 471.6H58.1804V473.6H67.6704L86.7404 473.52L239.24 472.88C254.954 472.76 270.66 472.703 286.36 472.71C321.49 472.71 356.621 472.94 391.741 473.04L429.55 473.14C434.618 473.043 439.611 471.906 444.22 469.8C448.673 467.684 452.575 464.566 455.621 460.69C461.811 452.9 464.51 442.05 463.28 431.6C462.679 426.327 461.17 421.198 458.82 416.44V416.44Z" fill="#90C8FF"/>
<path d="M140.7 512.63C143.37 517.63 153.08 518.63 159.88 513.57C163.88 519.18 175.55 519.18 181.39 512.63C190.04 520.89 210.39 511.8 215.88 492.7C203.26 492.7 204.12 473.06 216.77 472.6C212.85 454.6 196.61 438.51 169.54 442.03C153.91 444.03 135.02 447.72 126.95 460.3C119.18 472.42 120.03 484 120.08 492.7C120.18 511.7 130.82 519.15 140.7 512.63Z" fill="#F2BDBA"/>
<path d="M218.98 170.42C218.98 167.12 220.84 164.69 223.06 162.98C224.48 161.88 223.65 160.49 221.86 160.49H214.21C207.21 160.49 203.91 164 203.91 170.75C203.91 177.5 207.17 181 214.21 181H219.65C221.81 181 223.77 179.21 223.55 178.18C221.01 176.92 219.02 174.52 218.98 170.42Z" fill="#1F5182"/>
<path d="M335.69 512.63C333.02 517.63 323.01 518.63 316.21 513.57C313.33 519.18 300.84 519.18 295 512.63C286.2 521.03 266 511.23 260.19 491.63C253.34 468.63 270.13 437.22 306.85 441.99C326.85 444.58 351.85 449.99 353.58 472.78C343.22 472.85 340.1 492.66 356.31 492.66C358.43 511.63 345.61 519.15 335.69 512.63Z" fill="#F2BDBA"/>
<path d="M323.785 498.802L322.349 500.194L331.766 509.908L333.202 508.516L323.785 498.802Z" fill="black"/>
<path d="M304.175 499.791L302.739 501.183L311.558 510.28L312.994 508.888L304.175 499.791Z" fill="black"/>
<path d="M282.883 498.643L281.447 500.036L291.103 509.993L292.539 508.6L282.883 498.643Z" fill="black"/>
<path d="M134.133 498.86L132.392 499.844L138.047 509.857L139.789 508.873L134.133 498.86Z" fill="black"/>
<path d="M152.94 498.976L151.198 499.96L156.341 509.068L158.083 508.085L152.94 498.976Z" fill="black"/>
<path d="M174.832 498.975L173.091 499.958L178.553 509.633L180.295 508.65L174.832 498.975Z" fill="black"/>
<path d="M233.653 205.55L231.889 206.493L290.346 315.928L292.11 314.986L233.653 205.55Z" fill="white"/>
<path d="M170.69 87.6819L168.926 88.6243L201.121 148.894L202.885 147.952L170.69 87.6819Z" fill="white"/>
<path d="M131.981 15.2322L130.217 16.1745L151.923 56.8103L153.687 55.868L131.981 15.2322Z" fill="white"/>
<path d="M232.41 276.2C239.04 268.98 236.11 259.51 234.19 255.27C232.19 250.73 229.04 250.34 228.19 253.27C226.42 259.42 220.88 260.42 218.19 260.36C208.58 260.14 207.95 251.81 191.77 252.12C187.165 252.28 182.8 254.219 179.593 257.528C176.386 260.838 174.586 265.261 174.57 269.87C174.57 285.05 189.06 267.57 201.23 276.05C218.19 287.82 227.87 281.15 232.41 276.2Z" fill="black"/>
<path d="M300.25 731.82H232.2V733.82H300.25V731.82Z" fill="white"/>
<path d="M426.95 731.82H346.9V733.82H426.95V731.82Z" fill="black"/>
<path d="M381.964 572.632L380.22 573.611L401.547 611.616L403.291 610.637L381.964 572.632Z" fill="black"/>
</g>
<defs>
<clipPath id="clip0">
<rect width="671.29" height="895.84" fill="white"/>
</clipPath>
</defs>
</svg>
