<svg width="50" height="50" viewBox="0 0 50 50" fill="none" xmlns="http://www.w3.org/2000/svg">
<circle cx="25" cy="25" r="25" fill="#F0F8FF"/>
<g clip-path="url(#clip0)">
<path d="M25.8692 29.8962V29.7989C25.3714 29.7934 24.8952 29.7664 24.4353 29.7285C24.1864 30.3724 23.8348 30.973 23.3965 31.5086C24.2243 31.6439 25.063 31.7197 25.9016 31.7305L25.8692 29.8962Z" fill="#5AA2E8"/>
<path d="M23.6778 26.3143C23.2775 24.3989 21.8653 22.8407 19.9877 22.2509C19.4683 22.094 18.9327 22.0128 18.3916 22.0128C17.0497 22.0182 15.7512 22.516 14.761 23.4142C12.5588 25.4162 12.4019 28.8303 14.4039 31.0325C16.4058 33.2346 19.82 33.3916 22.0222 31.3896C23.1476 30.367 23.7915 28.9223 23.7861 27.4019C23.7861 27.0394 23.7482 26.6714 23.6778 26.3143ZM18.3916 26.6769C19.306 26.6769 20.1122 27.2829 20.3611 28.1648C20.6641 29.2524 20.0364 30.3778 18.9435 30.6862V31.1623C18.9435 31.4599 18.7 31.7034 18.4024 31.7034C18.1048 31.7034 17.8613 31.4599 17.8613 31.1623V30.6916C16.9686 30.4481 16.3517 29.6419 16.3463 28.7167C16.3463 28.4191 16.5898 28.1756 16.8874 28.1756C17.185 28.1756 17.4285 28.4191 17.4285 28.7167C17.4285 29.2469 17.8613 29.6744 18.3916 29.6744C18.9218 29.6744 19.3493 29.2415 19.3493 28.7113C19.3493 28.181 18.9164 27.7536 18.3862 27.7536C17.4609 27.7536 16.6547 27.1314 16.4167 26.2386C16.1299 25.1564 16.7792 24.031 17.8667 23.7388V23.5062C17.8667 23.2086 18.1102 22.9651 18.4078 22.9651C18.7054 22.9651 18.9489 23.2086 18.9489 23.5062V23.7497C19.8308 23.9986 20.4368 24.8047 20.4368 25.7192C20.4368 26.0167 20.1933 26.2602 19.8958 26.2602C19.5982 26.2602 19.3547 26.0167 19.3547 25.7192C19.3547 25.1889 18.9218 24.7561 18.3916 24.7561C17.8613 24.7561 17.4339 25.1835 17.4285 25.7192C17.4285 26.2494 17.8613 26.6769 18.3916 26.6769Z" fill="#5AA2E8"/>
<path d="M25.8531 28.7113L25.8206 26.7959C25.4852 26.7904 25.1551 26.7796 24.8413 26.758C24.8575 26.9744 24.8683 27.1854 24.8683 27.3964C24.8683 27.8185 24.8251 28.2459 24.7439 28.6626C25.101 28.695 25.4743 28.7113 25.8531 28.7113Z" fill="#5AA2E8"/>
<path d="M31.7777 19.7565C31.4043 19.9513 31.0094 20.1082 30.6036 20.2272C29.3861 20.5952 27.79 20.7954 26.1235 20.7954C24.5273 20.7954 23.0069 20.6114 21.8328 20.2705C21.427 20.1623 21.0374 20.0108 20.6641 19.8214L20.7019 21.3473C21.3133 21.5745 21.8815 21.8992 22.3955 22.305C22.4117 22.3104 22.4225 22.3104 22.4388 22.3158C23.4776 22.5809 24.787 22.7216 26.1235 22.7216C27.6709 22.7216 29.1914 22.5268 30.2897 22.1968C31.4639 21.8396 31.7236 21.4663 31.7236 21.396C31.7236 21.3202 31.7182 21.2499 31.7777 21.1741V19.7565Z" fill="#5AA2E8"/>
<path d="M30.2842 17.6085C29.1858 17.273 27.6654 17.0836 26.118 17.0836C24.5597 17.0836 23.0988 17.273 22.0058 17.6085C20.8642 17.9547 20.6153 18.2956 20.6099 18.4038C20.6099 18.4038 20.6153 18.4038 20.6153 18.4147C20.6423 18.5337 20.967 18.9016 22.1303 19.2371C23.207 19.5509 24.6246 19.724 26.118 19.724C27.6654 19.724 29.1804 19.5347 30.2788 19.2046C31.4529 18.8529 31.7181 18.4796 31.7181 18.4038C31.7181 18.3335 31.4583 17.9656 30.2842 17.6085Z" fill="#5AA2E8"/>
<path d="M37.9891 32.5799V30.9567C37.6266 31.1407 37.2479 31.2976 36.8529 31.4166C35.6409 31.7845 34.0555 31.9847 32.3836 31.9847C30.9011 31.9847 29.4564 31.817 28.3202 31.5194C27.8548 31.4004 27.4058 31.2381 26.9729 31.027L27 32.5961C27 32.6016 27 32.6016 27 32.607C27 32.6881 27.238 33.0506 28.3797 33.4023C29.4618 33.7324 30.9227 33.9164 32.4864 33.9164C34.0447 33.9164 35.511 33.727 36.604 33.3861C37.7456 33.029 37.9945 32.6557 37.9945 32.5799H37.9891Z" fill="#5AA2E8"/>
<path d="M31.7669 22.7757C31.3935 22.9651 31.004 23.122 30.5982 23.241C29.3808 23.6089 27.7846 23.8091 26.1127 23.8091C25.2902 23.8091 24.4732 23.755 23.6616 23.6522C24.0999 24.2582 24.4245 24.94 24.6301 25.665C25.0955 25.6975 25.5987 25.7191 26.1181 25.7191C26.1343 25.7191 26.156 25.7191 26.1722 25.7191C27.0596 24.7452 29.4457 24.2582 31.7669 24.1933V22.7757Z" fill="#5AA2E8"/>
<path d="M36.8151 28.4245C35.6085 28.7816 34.0394 28.9764 32.3946 28.9764C30.7984 28.9764 29.278 28.7925 28.1039 28.4516C27.698 28.338 27.3031 28.1865 26.9243 27.9971L26.946 29.2415L26.9514 29.696C27.3734 30.2209 29.3916 30.8972 32.3891 30.8972C33.9528 30.8972 35.43 30.7133 36.5392 30.3778C37.7079 30.0207 37.9622 29.6528 37.9622 29.577C37.9622 29.5175 37.9946 29.4526 37.9946 29.3985H38.0001V27.9646C37.6213 28.154 37.2263 28.3163 36.8151 28.4245Z" fill="#5AA2E8"/>
<path d="M36.5608 25.8003C35.457 25.4648 33.942 25.2863 32.3946 25.2863H32.3026C30.8634 25.2863 29.4944 25.4486 28.4448 25.7462C27.3247 26.06 26.9406 26.4171 26.8919 26.5632C26.8865 26.574 26.8865 26.5794 26.8865 26.5848C26.8865 26.5848 26.8865 26.5848 26.8973 26.6065C26.9298 26.7201 27.249 27.088 28.4123 27.4289C29.489 27.7373 30.9066 27.9105 32.4 27.9105C33.942 27.9105 35.4029 27.7319 36.5121 27.4018C37.7133 27.0447 37.9839 26.6714 37.9893 26.5902V26.5848C37.9839 26.5037 37.7133 26.1466 36.5608 25.8003Z" fill="#5AA2E8"/>
</g>
<defs>
<clipPath id="clip0">
<rect width="25" height="25" fill="white" transform="translate(13 13)"/>
</clipPath>
</defs>
</svg>
