<svg width="75" height="75" viewBox="0 0 75 75" fill="none" xmlns="http://www.w3.org/2000/svg">
<g clip-path="url(#clip0)">
<path d="M16.0272 13.0503H2.20586C0.987447 13.0503 0 12.0622 0 10.8445C0 9.62672 0.987447 8.63861 2.20586 8.63861H16.0272C17.2456 8.63861 18.233 9.62672 18.233 10.8445C18.233 12.0622 17.2456 13.0503 16.0272 13.0503Z" fill="white"/>
<path d="M23.924 20.9477C18.3525 20.9477 13.8201 16.4152 13.8201 10.8442C13.8201 5.27209 18.3525 0.739624 23.924 0.739624C29.4955 0.739624 34.028 5.27209 34.028 10.8442C34.028 16.4154 29.4955 20.9477 23.924 20.9477ZM23.924 5.15151C20.7853 5.15151 18.2318 7.70547 18.2318 10.8442C18.2318 13.983 20.7853 16.5358 23.924 16.5358C27.0628 16.5358 29.6163 13.983 29.6163 10.8442C29.6163 7.70547 27.0628 5.15151 23.924 5.15151Z" fill="white"/>
<path d="M72.7926 13.0503H39.8238C38.6054 13.0503 37.6179 12.0622 37.6179 10.8445C37.6179 9.62672 38.6054 8.63861 39.8238 8.63861H72.7925C74.0109 8.63861 74.9983 9.62672 74.9983 10.8445C74.9983 12.0622 74.011 13.0503 72.7926 13.0503Z" fill="white"/>
<path d="M53.542 47.6034C47.9703 47.6034 43.438 43.0709 43.438 37.4999C43.438 31.9289 47.9705 27.3964 53.542 27.3964C59.1135 27.3964 63.6459 31.9289 63.6459 37.4999C63.6459 43.0709 59.1136 47.6034 53.542 47.6034ZM53.542 31.8083C50.4032 31.8083 47.8497 34.3611 47.8497 37.4999C47.8497 40.6387 50.4032 43.1915 53.542 43.1915C56.6807 43.1915 59.2342 40.6387 59.2342 37.4999C59.2342 34.3611 56.6807 31.8083 53.542 31.8083Z" fill="white"/>
<path d="M37.6431 39.7057H2.20586C0.987448 39.7057 0 38.7176 0 37.4999C0 36.2821 0.987448 35.294 2.20586 35.294H37.6431C38.8615 35.294 39.8489 36.2821 39.8489 37.4999C39.8489 38.7176 38.8615 39.7057 37.6431 39.7057Z" fill="white"/>
<path d="M72.7924 39.7057H61.439C60.2206 39.7057 59.2332 38.7176 59.2332 37.4999C59.2332 36.2821 60.2206 35.294 61.439 35.294H72.7924C74.0109 35.294 74.9983 36.2821 74.9983 37.4999C74.9983 38.7176 74.0109 39.7057 72.7924 39.7057Z" fill="white"/>
<path d="M21.4567 74.26C15.8852 74.26 11.3528 69.7275 11.3528 64.1553C11.3528 58.5843 15.8852 54.0519 21.4567 54.0519C27.0282 54.0519 31.5607 58.5843 31.5607 64.1553C31.5607 69.7275 27.0282 74.26 21.4567 74.26ZM21.4567 58.4638C18.318 58.4638 15.7645 61.0166 15.7645 64.1553C15.7645 67.2941 18.318 69.8481 21.4567 69.8481C24.5955 69.8481 27.149 67.2941 27.149 64.1553C27.149 61.0166 24.5955 58.4638 21.4567 58.4638Z" fill="white"/>
<path d="M72.7944 66.3615H37.3572C36.1388 66.3615 35.1514 65.3734 35.1514 64.1556C35.1514 62.9379 36.1388 61.9498 37.3572 61.9498H72.7944C74.0129 61.9498 75.0003 62.9379 75.0003 64.1556C75.0003 65.3734 74.0129 66.3615 72.7944 66.3615Z" fill="white"/>
<path d="M13.5593 66.3615H2.20586C0.987447 66.3615 0 65.3734 0 64.1554C0 62.9377 0.987447 61.9496 2.20586 61.9496H13.5593C14.7777 61.9496 15.7652 62.9377 15.7652 64.1554C15.7652 65.3734 14.7777 66.3615 13.5593 66.3615Z" fill="white"/>
</g>
<defs>
<clipPath id="clip0">
<rect width="75" height="75" fill="white"/>
</clipPath>
</defs>
</svg>
