<svg width="70" height="71" viewBox="0 0 70 71" fill="none" xmlns="http://www.w3.org/2000/svg">
<circle cx="35" cy="35.369" r="35" fill="#F0F8FF"/>
<g clip-path="url(#clip0)">
<path d="M45.8222 39.0143C45.2317 39.0143 44.6579 39.0865 44.1085 39.2216L32.1483 27.2614C32.2834 26.712 32.3555 26.1382 32.3555 25.5478C32.3555 21.59 29.1356 18.37 25.1778 18.37C24.3122 18.37 23.4643 18.5238 22.6577 18.8271C22.3315 18.9498 22.0899 19.2297 22.0163 19.5702C21.9427 19.9108 22.0471 20.2655 22.2935 20.5119L24.3571 22.5754L24.0711 24.4409L22.2055 24.7268L20.142 22.6633C19.8957 22.4169 19.5408 22.3127 19.2004 22.3861C18.8598 22.4597 18.5798 22.7012 18.4572 23.0274C18.1538 23.834 18 24.682 18 25.5478C18 29.5056 21.2199 32.7255 25.1777 32.7255C25.7683 32.7255 26.3422 32.6533 26.8916 32.5183L38.8517 44.4783C38.7166 45.0277 38.6445 45.6016 38.6445 46.1921C38.6445 50.1499 41.8644 53.3698 45.8222 53.3698C46.6879 53.3698 47.5358 53.216 48.3425 52.9126C48.6687 52.79 48.9102 52.51 48.9837 52.1695C49.0574 51.8288 48.953 51.4741 48.7066 51.2278L46.6429 49.1643L46.9288 47.2989L48.7945 47.013L50.858 49.0765C51.1043 49.3228 51.4589 49.4274 51.7996 49.3537C52.1402 49.2801 52.4201 49.0385 52.5427 48.7124C52.8461 47.9058 52.9999 47.0578 52.9999 46.1921C52.9999 42.2343 49.7801 39.0143 45.8222 39.0143Z" fill="#5AA2E8"/>
<path d="M49.7997 26.8267L52.7003 23.9261C52.8926 23.7338 53.0006 23.473 53.0006 23.201C53.0006 22.929 52.8926 22.6682 52.7003 22.476L48.8936 18.6694C48.4933 18.269 47.844 18.269 47.4435 18.6694L44.543 21.57L49.7997 26.8267Z" fill="#5AA2E8"/>
<path d="M20.7557 45.8178L18.0857 51.9334C17.9169 52.3199 18.0021 52.7704 18.3004 53.0687C18.4967 53.265 18.759 53.369 19.0257 53.369C19.1641 53.369 19.3036 53.341 19.4358 53.2833L25.5513 50.6133L20.7557 45.8178Z" fill="#5AA2E8"/>
<path d="M36.9482 29.1635L43.0895 23.0222L48.3454 28.2781L42.2041 34.4193L36.9482 29.1635Z" fill="#5AA2E8"/>
<path d="M21.9727 44.1353L28.7896 37.3184L34.0455 42.5743L27.2286 49.3912L21.9727 44.1353Z" fill="#5AA2E8"/>
</g>
<defs>
<clipPath id="clip0">
<rect width="35" height="35" fill="white" transform="translate(18 18.369)"/>
</clipPath>
</defs>
</svg>
