<svg width="200" height="201" viewBox="0 0 200 201" fill="none" xmlns="http://www.w3.org/2000/svg">
<path d="M194.667 99.9976C194.667 152.279 152.283 194.667 100 194.667C47.7178 194.667 5.3335 152.279 5.3335 99.9976C5.3335 47.7166 47.7178 5.3335 100 5.3335C152.283 5.3335 194.667 47.7166 194.667 99.9976Z" fill="#4DDA89"/>
<path d="M100 199.005C45.4103 199.005 1 154.59 1 100C1 45.4103 45.4103 1 100 1C154.59 1 199 45.4103 199 100C199 154.59 154.59 199.005 100 199.005ZM100 176.354C142.103 176.354 176.349 142.103 176.349 100C176.349 57.9023 142.103 23.6509 100 23.6509C57.8974 23.6509 23.6509 57.8974 23.6509 100C23.6509 142.103 57.8973 176.354 100 176.354Z" fill="#4385C6" stroke="white" stroke-width="2"/>
<path d="M79.0305 90.3855L79.0308 90.3858L92.0737 103.424L93.8414 105.191L95.6089 103.423L125.07 73.9627C128.908 70.1247 135.129 70.1244 138.967 73.9618C142.802 77.8009 142.801 84.0232 138.968 87.8562L100.788 126.036C98.8678 127.956 96.3582 128.915 93.8411 128.915C91.324 128.915 88.8144 127.956 86.8944 126.036L65.137 104.279C61.2982 100.44 61.2995 94.2192 65.1362 90.3863L65.137 90.3855C68.9754 86.5471 75.1922 86.5471 79.0305 90.3855Z" fill="#4385C6" stroke="#4DDA89" stroke-width="5"/>
</svg>
