<svg width="25" height="25" viewBox="0 0 25 25" fill="none" xmlns="http://www.w3.org/2000/svg">
<g clip-path="url(#clip0)">
<path d="M15.6249 6.77075C15.0499 6.77075 14.5832 6.30409 14.5832 5.72909V4.16659H10.4166V5.72909C10.4166 6.30409 9.94992 6.77075 9.37492 6.77075C8.79992 6.77075 8.33325 6.30409 8.33325 5.72909V4.16659C8.33325 3.01763 9.26763 2.08325 10.4166 2.08325H14.5832C15.7322 2.08325 16.6666 3.01763 16.6666 4.16659V5.72909C16.6666 6.30409 16.1999 6.77075 15.6249 6.77075Z" fill="#B0D8FF"/>
<path d="M13.2396 16.0209C13.0521 16.0938 12.7812 16.1459 12.5 16.1459C12.2187 16.1459 11.9479 16.0938 11.6979 16.0001L0 12.1042V20.0522C0 21.6355 1.28125 22.9168 2.86458 22.9168H22.1354C23.7187 22.9168 25 21.6355 25 20.0522V12.1042L13.2396 16.0209Z" fill="#70B8FF"/>
<path d="M25 8.07284V10.4583L12.75 14.5416C12.6667 14.5728 12.5833 14.5833 12.5 14.5833C12.4167 14.5833 12.3333 14.5728 12.25 14.5416L0 10.4583V8.07284C0 6.4895 1.28125 5.20825 2.86458 5.20825H22.1354C23.7187 5.20825 25 6.4895 25 8.07284V8.07284Z" fill="#B0D8FF"/>
</g>
<defs>
<clipPath id="clip0">
<rect width="25" height="25" fill="white"/>
</clipPath>
</defs>
</svg>
