<svg width="25" height="25" viewBox="0 0 25 25" fill="none" xmlns="http://www.w3.org/2000/svg">
<g clip-path="url(#clip0)">
<path d="M12.4999 7.01904L15.2478 8.46386L14.7229 5.4039L16.9475 3.23601L13.874 2.78969L12.4999 0L11.1259 2.78969L8.05237 3.23601L10.2769 5.4039L9.75201 8.46386L12.4999 7.01904Z" fill="#70B8FF"/>
<path d="M21.7841 7.76994L20.41 4.9856L19.036 7.76994L15.964 8.21626L18.187 10.3836L17.6621 13.4441L20.41 11.9993L23.1595 13.4441L22.633 10.3836L25.0001 8.21626L21.7841 7.76994Z" fill="#70B8FF"/>
<path d="M2.36702 10.3836L1.84059 13.4441L4.59003 11.9993L7.33795 13.4441L6.81305 10.3836L9.03606 8.21626L5.96409 7.76994L4.59003 4.9856L3.21598 7.76994L0 8.21626L2.36702 10.3836Z" fill="#70B8FF"/>
<path d="M16.1621 13.9648C16.1621 11.9457 14.5191 10.3027 12.5 10.3027C10.4809 10.3027 8.83789 11.9457 8.83789 13.9648C8.83789 15.984 10.4809 17.627 12.5 17.627C14.5191 17.627 16.1621 15.984 16.1621 13.9648Z" fill="#B0D8FF"/>
<path d="M7.37305 22.7539V25H17.627V22.7539C17.627 19.9272 15.3267 17.627 12.5 17.627C9.67331 17.627 7.37305 19.9272 7.37305 22.7539Z" fill="#B0D8FF"/>
<path d="M23.4863 24.2188C23.4863 22.1996 21.8433 20.5566 19.8242 20.5566C19.4454 20.5566 19.0872 20.631 18.7433 20.7382C18.9506 21.3776 19.0918 22.0465 19.0918 22.7539V25H23.4863V24.2188Z" fill="#B0D8FF"/>
<path d="M22.7539 17.627C22.7539 16.0112 21.4399 14.6973 19.8242 14.6973C18.2085 14.6973 16.8945 16.0112 16.8945 17.627C16.8945 17.7202 16.9134 17.8083 16.922 17.8993C17.6443 18.5577 18.2268 19.3613 18.601 20.2805C18.9745 20.4535 19.3863 20.5566 19.8242 20.5566C21.4399 20.5566 22.7539 19.2427 22.7539 17.627Z" fill="#B0D8FF"/>
<path d="M8.078 17.8993C8.08659 17.8083 8.10547 17.7202 8.10547 17.627C8.10547 16.0112 6.7915 14.6973 5.17578 14.6973C3.56007 14.6973 2.24609 16.0112 2.24609 17.627C2.24609 19.2427 3.56007 20.5566 5.17578 20.5566C5.61371 20.5566 6.02551 20.4535 6.39896 20.2806C6.77319 19.3613 7.35569 18.5577 8.078 17.8993Z" fill="#B0D8FF"/>
<path d="M1.51367 24.2188V25H5.9082V22.7539C5.9082 22.0465 6.04935 21.3776 6.25668 20.7382C5.91278 20.631 5.55458 20.5566 5.17578 20.5566C3.15666 20.5566 1.51367 22.1996 1.51367 24.2188Z" fill="#B0D8FF"/>
</g>
<defs>
<clipPath id="clip0">
<rect width="25" height="25" fill="white"/>
</clipPath>
</defs>
</svg>
