<svg width="50" height="50" viewBox="0 0 50 50" fill="none" xmlns="http://www.w3.org/2000/svg">
<circle cx="25" cy="25" r="25" fill="#F0F8FF"/>
<g clip-path="url(#clip0)">
<path d="M25.5001 22.375H18.2084C17.6334 22.375 17.1667 22.8417 17.1667 23.4167V24.9792C17.1667 25.5542 17.6334 26.0208 18.2084 26.0208C18.7834 26.0208 19.2501 25.5542 19.2501 24.9792V24.4583H20.8126V30.7083H20.2917C19.7167 30.7083 19.2501 31.175 19.2501 31.75C19.2501 32.325 19.7167 32.7917 20.2917 32.7917H23.4167C23.9918 32.7917 24.4584 32.325 24.4584 31.75C24.4584 31.175 23.9918 30.7083 23.4167 30.7083H22.8959V24.4583H24.4584V24.9792C24.4584 25.5542 24.9251 26.0208 25.5001 26.0208C26.0751 26.0208 26.5418 25.5542 26.5418 24.9792V23.4167C26.5418 22.8417 26.0751 22.375 25.5001 22.375Z" fill="#5AA2E8"/>
<path d="M32.7917 24.4583H29.6667C29.0917 24.4583 28.625 23.9917 28.625 23.4167C28.625 22.8417 29.0917 22.375 29.6667 22.375H32.7917C33.3667 22.375 33.8333 22.8417 33.8333 23.4167C33.8333 23.9917 33.3667 24.4583 32.7917 24.4583Z" fill="#5AA2E8"/>
<path d="M32.7917 28.625H29.6667C29.0917 28.625 28.625 28.1583 28.625 27.5833C28.625 27.0083 29.0917 26.5417 29.6667 26.5417H32.7917C33.3667 26.5417 33.8333 27.0083 33.8333 27.5833C33.8333 28.1583 33.3667 28.625 32.7917 28.625Z" fill="#5AA2E8"/>
<path d="M32.7917 32.7917H29.6667C29.0917 32.7917 28.625 32.325 28.625 31.75C28.625 31.175 29.0917 30.7083 29.6667 30.7083H32.7917C33.3667 30.7083 33.8333 31.175 33.8333 31.75C33.8333 32.325 33.3667 32.7917 32.7917 32.7917Z" fill="#5AA2E8"/>
<path d="M34.875 14.0417H16.125C14.4021 14.0417 13 15.4437 13 17.1667V33.8333C13 35.5562 14.4021 36.9583 16.125 36.9583H34.875C36.5979 36.9583 38 35.5562 38 33.8333V17.1667C38 15.4437 36.5979 14.0417 34.875 14.0417ZM34.875 34.875H16.125C15.551 34.875 15.0833 34.4083 15.0833 33.8333V19.25H35.9167V33.8333C35.9167 34.4083 35.449 34.875 34.875 34.875Z" fill="#5AA2E8"/>
</g>
<defs>
<clipPath id="clip0">
<rect width="25" height="25" fill="white" transform="translate(13 13)"/>
</clipPath>
</defs>
</svg>
