<svg width="50" height="50" viewBox="0 0 50 50" fill="none" xmlns="http://www.w3.org/2000/svg">
<circle cx="25" cy="25" r="25" fill="#F0F8FF"/>
<g clip-path="url(#clip0)">
<path d="M28.6249 19.7708C28.0499 19.7708 27.5833 19.3042 27.5833 18.7292V17.1667H23.4166V18.7292C23.4166 19.3042 22.9499 19.7708 22.3749 19.7708C21.7999 19.7708 21.3333 19.3042 21.3333 18.7292V17.1667C21.3333 16.0177 22.2676 15.0833 23.4166 15.0833H27.5833C28.7322 15.0833 29.6666 16.0177 29.6666 17.1667V18.7292C29.6666 19.3042 29.1999 19.7708 28.6249 19.7708Z" fill="#5AA2E8"/>
<path d="M26.2396 29.0208C26.0521 29.0937 25.7812 29.1458 25.5 29.1458C25.2187 29.1458 24.9479 29.0937 24.6979 29L13 25.1042V33.0521C13 34.6354 14.2812 35.9167 15.8646 35.9167H35.1354C36.7188 35.9167 38 34.6354 38 33.0521V25.1042L26.2396 29.0208Z" fill="#5AA2E8"/>
<path d="M38 21.0729V23.4583L25.75 27.5417C25.6667 27.5729 25.5833 27.5833 25.5 27.5833C25.4167 27.5833 25.3333 27.5729 25.25 27.5417L13 23.4583V21.0729C13 19.4896 14.2812 18.2083 15.8646 18.2083H35.1354C36.7188 18.2083 38 19.4896 38 21.0729Z" fill="#5AA2E8"/>
</g>
<defs>
<clipPath id="clip0">
<rect width="25" height="25" fill="white" transform="translate(13 13)"/>
</clipPath>
</defs>
</svg>
