<svg width="100" height="100" viewBox="0 0 100 100" fill="none" xmlns="http://www.w3.org/2000/svg">
<circle cx="50" cy="50" r="50" fill="#F0F8FF"/>
<path d="M49.9997 46.5254C48.084 46.5254 46.5254 48.084 46.5254 49.9997C46.5254 51.9154 48.0841 53.474 49.9997 53.474C51.9154 53.474 53.474 51.9154 53.474 49.9997C53.474 48.084 51.9154 46.5254 49.9997 46.5254Z" fill="#0A2643"/>
<path d="M49.9995 39.0801C43.9785 39.0801 39.0801 43.9785 39.0801 49.9995C39.0801 56.0205 43.9785 60.9189 49.9995 60.9189C56.0205 60.9189 60.9189 56.0205 60.9189 49.9995C60.9189 43.9785 56.0205 39.0801 49.9995 39.0801ZM49.9995 56.4518C46.4417 56.4518 43.5472 53.5573 43.5472 49.9995C43.5472 46.4417 46.4417 43.5472 49.9995 43.5472C53.5573 43.5472 56.4518 46.4417 56.4518 49.9995C56.4518 53.5573 53.5573 56.4518 49.9995 56.4518Z" fill="#0A2643"/>
<path d="M39.1619 41.3096C34.8201 43.1728 30.9725 46.1445 28.0508 49.9996C30.9725 53.8548 34.8201 56.8265 39.1619 58.6896C37.2482 56.308 36.1012 53.2854 36.1012 49.9996C36.1012 46.7138 37.2482 43.6912 39.1619 41.3096Z" fill="#0A2643"/>
<path d="M60.8359 41.3096C62.7496 43.6912 63.8967 46.7138 63.8967 49.9996C63.8967 53.2854 62.7496 56.308 60.8359 58.6896C65.1777 56.8264 69.0254 53.8548 71.947 49.9996C69.0254 46.1443 65.1777 43.1727 60.8359 41.3096Z" fill="#0A2643"/>
<path d="M64.3194 60.3315C59.9421 62.6645 54.9906 63.8976 49.9999 63.8976C45.0092 63.8976 40.0577 62.6645 35.6804 60.3315C31.4493 58.0764 27.7564 54.8038 25 50.8672C27.7067 56.5229 31.3237 61.2386 35.4723 64.5144C39.8959 68.0074 44.9194 69.8537 50 69.8537C55.0805 69.8537 60.1039 68.0074 64.5275 64.5145C68.6762 61.2387 72.2932 56.523 75 50.8673C72.2435 54.8038 68.5506 58.0764 64.3194 60.3315Z" fill="#0A2643"/>
<path d="M64.5274 35.4856C60.1038 31.9927 55.0804 30.1465 49.9998 30.1465C44.9193 30.1465 39.8957 31.9928 35.4722 35.4856C31.3237 38.7614 27.7067 43.477 25 49.1328C27.7564 45.1962 31.4493 41.9236 35.6804 39.6684C40.0577 37.3354 45.0092 36.1023 49.9999 36.1023C54.9905 36.1023 59.942 37.3354 64.3194 39.6684C68.5506 41.9236 72.2434 45.1962 74.9999 49.1329C72.2932 43.4771 68.6761 38.7615 64.5274 35.4856Z" fill="#0A2643"/>
</svg>
