<svg width="891" height="367" viewBox="0 0 891 367" fill="none" xmlns="http://www.w3.org/2000/svg">
<g opacity="0.3">
<mask id="mask0" mask-type="alpha" maskUnits="userSpaceOnUse" x="0" y="0" width="891" height="367">
<g clip-path="url(#clip0)">
<path d="M245.637 359.283C228.547 359.283 212.361 362.104 196.88 367H215.139C224.996 365.011 235.143 363.93 245.631 363.93C256.119 363.93 266.266 365.019 276.123 367H294.382C278.914 362.104 262.733 359.283 245.637 359.283Z" fill="#F0F8FF"/>
<path d="M885.369 365.962C884.243 366.297 883.123 366.648 882.003 367H885.369V365.962Z" fill="#F0F8FF"/>
<path d="M885.369 339.552V334.785C862.172 341.61 840.572 353.16 819.899 367H827.764C846.066 355.313 865.118 345.606 885.369 339.552Z" fill="#F0F8FF"/>
<path d="M348.554 367H356.425C322.895 344.534 286.908 328.105 245.637 328.105C204.367 328.105 168.387 344.543 134.856 367H142.727C174.067 346.969 207.634 332.752 245.637 332.752C283.647 332.752 317.208 346.969 348.554 367Z" fill="#F0F8FF"/>
<path d="M885.369 308.383V303.615C846.141 315.157 811.466 340.204 778.152 367H784.866C816.187 342.116 848.832 319.307 885.369 308.383Z" fill="#F0F8FF"/>
<path d="M391.439 367H398.153C352.582 330.343 304.486 296.927 245.643 296.927C186.8 296.927 138.699 330.334 93.1338 367H99.8472C143.543 332.272 189.807 301.575 245.65 301.575C301.479 301.575 347.743 332.272 391.439 367Z" fill="#F0F8FF"/>
<path d="M245.637 270.405C312.054 270.405 364.92 313.828 416.035 355.81C420.576 359.54 425.13 363.279 429.709 367H436.355C430.111 361.967 423.918 356.882 417.743 351.814C366.232 309.506 312.97 265.758 245.631 265.758C178.292 265.758 125.03 309.506 73.5196 351.814C67.363 356.873 61.1631 361.958 54.9014 367.009H61.5653C66.1502 363.279 70.7104 359.54 75.2397 355.819C126.361 313.819 179.221 270.405 245.637 270.405Z" fill="#F0F8FF"/>
<path d="M760.258 355.81C799.209 323.818 839.174 291.019 885.37 277.205V272.438C838.394 286.26 797.952 319.444 758.55 351.814C752.382 356.882 746.182 361.975 739.938 367H746.584C751.163 363.279 755.717 359.54 760.258 355.81Z" fill="#F0F8FF"/>
<path d="M760.258 324.632C799.208 292.64 839.173 259.841 885.369 246.027V241.26C838.394 255.082 797.952 288.266 758.55 320.636C738.967 336.722 719.123 353.014 698.364 367H705.932C724.581 353.932 742.524 339.201 760.258 324.632Z" fill="#F0F8FF"/>
<path d="M75.2402 324.632C126.361 282.641 179.221 239.227 245.638 239.227C312.054 239.227 364.92 282.641 416.035 324.632C433.769 339.201 451.712 353.932 470.368 367H477.935C457.176 353.014 437.333 336.722 417.749 320.636C366.238 278.328 312.976 234.58 245.638 234.58C178.299 234.58 125.037 278.328 73.5263 320.636C54.048 336.637 34.0872 353.006 13.3838 367H20.914C39.5693 353.915 57.5997 339.123 75.2402 324.632Z" fill="#F0F8FF"/>
<path d="M417.749 289.458C366.238 247.151 312.976 203.402 245.638 203.402C178.299 203.402 125.037 247.151 73.5322 289.458C49.8898 308.88 25.5358 328.86 0 344.448V349.525C26.2102 333.713 51.0902 313.296 75.24 293.454C126.361 251.464 179.221 208.05 245.638 208.05C312.054 208.05 364.92 251.472 416.035 293.454C450.654 321.888 486.071 350.982 526.018 367H539.364C494.641 352.612 455.716 320.645 417.749 289.458Z" fill="#F0F8FF"/>
<path d="M760.259 293.454C799.209 261.462 839.174 228.663 885.37 214.849V210.082C838.394 223.904 797.953 257.089 758.551 289.458C720.584 320.645 681.659 352.612 636.936 367H650.282C690.222 350.982 725.639 321.897 760.259 293.454Z" fill="#F0F8FF"/>
<path d="M245.638 176.872C312.054 176.872 364.92 220.294 416.035 262.276C467.546 304.584 520.808 348.333 588.147 348.333C655.485 348.333 708.747 304.584 760.258 262.276C799.209 230.284 839.174 197.485 885.37 183.671V178.904C838.394 192.726 797.952 225.911 758.55 258.272C707.429 300.263 654.57 343.677 588.153 343.677C521.736 343.677 468.87 300.254 417.755 258.272C366.244 215.964 312.982 172.216 245.644 172.216C178.305 172.216 125.043 215.964 73.5323 258.272C49.8836 277.702 25.5358 297.682 0 313.27V318.347C26.2103 302.535 51.0902 282.118 75.24 262.276C126.361 220.294 179.221 176.872 245.638 176.872Z" fill="#F0F8FF"/>
<path d="M245.638 145.702C312.054 145.702 364.92 189.125 416.035 231.107C467.546 273.415 520.808 317.163 588.147 317.163C655.485 317.163 708.747 273.415 760.258 231.107C799.209 199.115 839.174 166.316 885.37 152.502V147.735C838.394 161.557 797.952 194.742 758.55 227.103C707.429 269.093 654.57 312.507 588.153 312.507C521.736 312.507 468.87 269.085 417.755 227.103C366.238 184.803 312.976 141.055 245.638 141.055C178.299 141.055 125.037 184.803 73.5261 227.111C49.8836 246.525 25.5358 266.504 0 282.093V287.169C26.2103 271.357 51.0902 250.941 75.24 231.099C126.361 189.117 179.221 145.702 245.638 145.702Z" fill="#F0F8FF"/>
<path d="M245.638 114.524C312.054 114.524 364.92 157.947 416.035 199.929C467.546 242.237 520.808 285.985 588.147 285.985C655.485 285.985 708.747 242.237 760.258 199.929C799.209 167.937 839.174 135.138 885.37 121.324V116.557C838.394 130.379 797.952 163.564 758.55 195.933C707.429 237.924 654.57 281.338 588.153 281.338C521.736 281.338 468.87 237.915 417.755 195.933C366.244 153.625 312.982 109.877 245.644 109.877C178.305 109.877 125.043 153.625 73.5384 195.933C49.8836 215.355 25.5358 235.334 0 250.923V256C26.2103 240.188 51.0902 219.771 75.24 199.929C126.361 157.939 179.221 114.524 245.638 114.524Z" fill="#F0F8FF"/>
<path d="M245.638 83.3467C312.054 83.3467 364.92 126.761 416.035 168.751C467.546 211.059 520.808 254.808 588.147 254.808C655.485 254.808 708.747 211.059 760.258 168.751C799.209 136.759 839.174 103.96 885.37 90.1465V85.379C838.394 99.2015 797.952 132.386 758.55 164.747C707.429 206.738 654.57 250.152 588.153 250.152C521.736 250.152 468.87 206.729 417.755 164.747C366.238 122.448 312.976 78.6992 245.638 78.6992C178.299 78.6992 125.037 122.448 73.5261 164.756C49.8836 184.177 25.5358 204.157 0 219.746V224.822C26.2103 209.01 51.0902 188.593 75.24 168.751C126.361 126.769 179.221 83.3467 245.638 83.3467Z" fill="#F0F8FF"/>
<path d="M245.638 52.169C312.054 52.169 364.92 95.5831 416.035 137.574C467.546 179.882 520.808 223.63 588.147 223.63C655.485 223.63 708.747 179.882 760.258 137.574C799.209 105.581 839.174 72.7827 885.37 58.9688V54.2012C838.394 68.0238 797.952 101.208 758.55 133.578C707.429 175.568 654.57 218.983 588.153 218.983C521.736 218.983 468.87 175.56 417.755 133.578C366.238 91.2699 312.976 47.5215 245.638 47.5215C178.299 47.5215 125.037 91.2699 73.5261 133.578C49.8836 153 25.5358 172.979 0 188.568V193.644C26.2103 177.832 51.0902 157.416 75.24 137.574C126.361 95.5916 179.221 52.169 245.638 52.169Z" fill="#F0F8FF"/>
<path d="M245.638 20.9996C312.054 20.9996 364.92 64.4222 416.035 106.404C467.546 148.712 520.808 192.461 588.147 192.461C655.485 192.461 708.747 148.712 760.258 106.404C799.209 74.4118 839.174 41.6133 885.37 27.7994V23.0318C838.394 36.8543 797.952 70.0387 758.55 102.4C707.429 144.39 654.57 187.805 588.153 187.805C521.736 187.805 468.87 144.382 417.755 102.4C366.238 60.1005 312.976 16.3521 245.638 16.3521C178.299 16.3521 125.037 60.1005 73.5261 102.408C49.8836 121.83 25.5358 141.809 0 157.398V162.475C26.2103 146.663 51.0902 126.246 75.24 106.404C126.361 64.4136 179.221 20.9996 245.638 20.9996Z" fill="#F0F8FF"/>
<path d="M187.005 1.16626H175.36C138.711 17.6898 105.782 44.7432 73.5322 71.2307C49.8836 90.6525 25.5358 110.632 0 126.221V131.297C26.2103 115.485 51.0902 95.0685 75.24 75.2265C110.391 46.3553 146.365 16.8066 187.005 1.16626Z" fill="#F0F8FF"/>
<path d="M588.147 161.291C655.485 161.291 708.747 117.543 760.258 75.2351C795.41 46.3639 831.384 16.8152 872.023 1.16626H860.378C823.73 17.6984 790.794 44.7432 758.545 71.2307C707.423 113.221 654.564 156.635 588.147 156.635C521.73 156.635 468.864 113.221 417.749 71.2307C385.5 44.7432 352.564 17.6984 315.915 1.16626H304.271C344.91 16.8066 380.884 46.3553 416.035 75.2351C467.546 117.543 520.808 161.291 588.147 161.291Z" fill="#F0F8FF"/>
<path d="M130.358 1.16626H122.964C106.06 13.3424 89.7064 26.7705 73.5261 40.0528C49.8836 59.4747 25.5358 79.4539 0 95.0428V100.119C26.2102 84.3072 51.0902 63.8907 75.24 44.0487C93.2271 29.2829 111.431 14.3371 130.358 1.16626Z" fill="#F0F8FF"/>
<path d="M588.147 130.114C655.485 130.114 708.747 86.3651 760.258 44.0572C778.245 29.2829 796.449 14.3457 815.383 1.16626H807.988C791.084 13.3424 774.731 26.7705 758.55 40.0614C707.429 82.052 654.569 125.466 588.153 125.466C521.736 125.466 468.87 82.052 417.755 40.0614C401.575 26.7705 385.221 13.3424 368.317 1.16626H360.917C379.851 14.3371 398.054 29.2829 416.041 44.0572C467.546 86.3651 520.808 130.114 588.147 130.114Z" fill="#F0F8FF"/>
<path d="M588.147 98.9357C655.485 98.9357 708.747 55.1873 760.258 12.8794C765.004 8.98645 769.787 5.06778 774.595 1.16626H767.962C764.812 3.73869 761.675 6.31969 758.551 8.88355C707.429 50.8742 654.57 94.2882 588.153 94.2882C521.73 94.2882 468.87 50.8656 417.743 8.87498C414.625 6.31112 411.488 3.73869 408.338 1.16626H401.705C406.507 5.06778 411.29 8.97787 416.035 12.8794C467.54 55.1873 520.808 98.9357 588.147 98.9357Z" fill="#F0F8FF"/>
<path d="M89.5703 1.16626H82.9372C79.7878 3.73869 76.6508 6.31112 73.5261 8.87498C49.8836 28.3054 25.5358 48.276 0 63.865V68.9412C26.2103 53.1293 51.0902 32.7043 75.24 12.8708C79.9858 8.97787 84.7688 5.06778 89.5703 1.16626Z" fill="#F0F8FF"/>
<path d="M736.319 1.16626H729.549C687.14 34.4449 642.12 63.1104 588.146 63.1104C534.173 63.1104 489.153 34.4449 446.75 1.16626H439.98C484.271 36.4343 531.172 67.7579 588.153 67.7579C645.133 67.7579 692.028 36.4343 736.319 1.16626Z" fill="#F0F8FF"/>
<path d="M44.5067 1.16626C30.0279 12.5364 15.2274 23.4006 0 32.6957V37.7719C17.6344 27.1307 34.6562 14.3971 51.2696 1.16626H44.5067Z" fill="#F0F8FF"/>
<path d="M693.625 1.16626H685.489C655.739 19.3448 623.917 31.9411 588.153 31.9411C552.389 31.9411 520.561 19.3448 490.818 1.16626H482.675C514.695 21.8229 549.048 36.5886 588.153 36.5886C627.252 36.5886 661.605 21.8229 693.625 1.16626Z" fill="#F0F8FF"/>
<path d="M0.556875 1.16626C0.37125 1.27773 0.185625 1.40635 0 1.51783V6.59409C2.88956 4.85341 5.75437 3.01841 8.613 1.16626H0.556875Z" fill="#F0F8FF"/>
<path d="M624.151 1.16626H552.147C563.638 3.84159 575.617 5.41077 588.146 5.41077C600.676 5.41077 612.661 3.84159 624.151 1.16626Z" fill="#F0F8FF"/>
</g>
</mask>
<g mask="url(#mask0)">
<rect width="891" height="367" rx="10" fill="#F0F8FF"/>
</g>
</g>
<defs>
<clipPath id="clip0">
<rect width="891" height="367" fill="white"/>
</clipPath>
</defs>
</svg>
