<svg width="100" height="100" viewBox="0 0 100 100" fill="none" xmlns="http://www.w3.org/2000/svg">
<circle cx="50" cy="50" r="50" fill="#F0F8FF"/>
<path d="M50.0003 49.7256C49.1237 49.7256 48.4131 50.4362 48.4131 51.3128V73.4126C48.4131 74.2891 49.1237 74.9998 50.0003 74.9998C50.8768 74.9998 51.5874 74.2891 51.5874 73.4126V51.3128C51.5874 50.4362 50.8768 49.7256 50.0003 49.7256Z" fill="#70B8FF"/>
<path d="M49.9998 46.5515C52.3151 46.5515 54.2488 48.213 54.6736 50.4061H61.7466C61.524 38.9098 56.7791 29.9598 50.9889 25.3459C50.4101 24.8847 49.5894 24.8847 49.0107 25.3459C43.2237 29.9572 38.4754 38.9131 38.2529 50.4061H45.3259C45.7507 48.213 47.6844 46.5515 49.9998 46.5515ZM47.4852 37.9008C48.874 36.512 51.1257 36.512 52.5144 37.9008C53.9032 39.2896 53.9032 41.5412 52.5144 42.93C51.1257 44.3188 48.874 44.3188 47.4852 42.93C46.0964 41.5413 46.0964 39.2896 47.4852 37.9008Z" fill="#70B8FF"/>
<path d="M54.7617 53.5807V64.8627H58.2653C58.9483 64.8627 59.5547 64.4257 59.7708 63.7778C60.8495 60.5452 61.4919 57.1244 61.6893 53.5806H54.7617V53.5807Z" fill="#70B8FF"/>
<path d="M45.2381 53.5806H38.3105C38.508 57.1244 39.1504 60.5451 40.229 63.7778C40.4452 64.4257 41.0516 64.8627 41.7346 64.8627H45.2381V53.5806Z" fill="#70B8FF"/>
<path d="M41.7351 68.0367C39.6831 68.0367 37.868 66.7288 37.2184 64.7823C36.0535 61.2908 35.0383 52.4839 35.0383 52.4839C31.0829 55.5927 29.8537 61.0762 32.14 65.5887L35.7275 72.6695C36.1592 73.5216 37.2426 73.8025 38.034 73.2659C39.8629 72.026 41.3628 70.2435 42.2515 68.0367H41.7351Z" fill="#70B8FF"/>
<path d="M64.9621 52.4839C64.9621 52.4839 63.9469 61.2908 62.7819 64.7823C62.1324 66.7288 60.3173 68.0367 58.2653 68.0367H57.749C58.6105 70.1758 60.076 71.9842 61.9665 73.2659C62.7564 73.8015 63.8403 73.5236 64.273 72.6695L67.8605 65.5887C70.1431 61.0831 68.9234 55.5973 64.9621 52.4839Z" fill="#70B8FF"/>
</svg>
