<svg width="200" height="200" viewBox="0 0 200 200" fill="none" xmlns="http://www.w3.org/2000/svg">
<circle opacity="0.2" cx="100" cy="100" r="100" fill="#4385C6"/>
<circle cx="100" cy="100" r="78.125" fill="#4385C6"/>
<path d="M129.706 78.7939C129.295 78.379 128.805 78.0496 128.266 77.8248C127.726 77.6001 127.148 77.4844 126.563 77.4844C125.979 77.4844 125.4 77.6001 124.861 77.8248C124.321 78.0496 123.832 78.379 123.42 78.7939L90.4382 111.82L76.5814 97.9189C76.1541 97.5061 75.6497 97.1816 75.0969 96.9637C74.5442 96.7459 73.954 96.6391 73.3599 96.6494C72.7659 96.6596 72.1797 96.7868 71.6348 97.0236C71.09 97.2604 70.5971 97.6023 70.1843 98.0296C69.7715 98.4569 69.4469 98.9613 69.2291 99.5141C69.0113 100.067 68.9045 100.657 68.9147 101.251C68.925 101.845 69.0522 102.431 69.289 102.976C69.5258 103.521 69.8677 104.014 70.295 104.427L87.295 121.427C87.7065 121.842 88.1962 122.171 88.7356 122.396C89.2751 122.621 89.8538 122.736 90.4382 122.736C91.0226 122.736 91.6013 122.621 92.1408 122.396C92.6802 122.171 93.1699 121.842 93.5814 121.427L129.706 85.3017C130.156 84.8872 130.514 84.384 130.76 83.824C131.005 83.264 131.132 82.6592 131.132 82.0478C131.132 81.4364 131.005 80.8317 130.76 80.2716C130.514 79.7116 130.156 79.2085 129.706 78.7939Z" fill="#F0F8FF"/>
</svg>
