<svg width="150" height="150" viewBox="0 0 150 150" fill="none" xmlns="http://www.w3.org/2000/svg">
<circle cx="75" cy="75" r="75" fill="#F0F8FF"/>
<path d="M41.5801 60.9926L47.7747 67.1374V58.4222L41.5801 60.9926Z" fill="#70B8FF"/>
<path d="M108.419 60.9926L102.225 58.4222V67.1374L108.419 60.9926Z" fill="#70B8FF"/>
<path d="M98.1237 44.403C98.1237 42.9881 96.9727 41.8369 95.5578 41.8369H54.4429C53.028 41.8369 51.877 42.9881 51.877 44.403V71.206L65.2088 84.431L73.6747 77.2584C74.4396 76.6104 75.5612 76.6104 76.3261 77.2584L84.792 84.431L98.1238 71.206V44.403H98.1237ZM86.4203 66.9649H63.5803C62.4478 66.9649 61.5296 66.0467 61.5296 64.9141C61.5296 63.7815 62.4478 62.8633 63.5803 62.8633H86.4203C87.5529 62.8633 88.4711 63.7815 88.4711 64.9141C88.4711 66.0467 87.5529 66.9649 86.4203 66.9649ZM86.4203 55.9645H63.5803C62.4478 55.9645 61.5296 55.0463 61.5296 53.9137C61.5296 52.7811 62.4478 51.8629 63.5803 51.8629H86.4203C87.5529 51.8629 88.4711 52.7811 88.4711 53.9137C88.4711 55.0463 87.5529 55.9645 86.4203 55.9645Z" fill="#70B8FF"/>
<path d="M40 65.2021V105.789L62.0672 87.0924L40 65.2021Z" fill="#70B8FF"/>
<path d="M87.9326 87.0924L110 105.789V65.2021L87.9326 87.0924Z" fill="#70B8FF"/>
<path d="M74.9996 81.511L43.542 108.163H106.457L74.9996 81.511Z" fill="#70B8FF"/>
</svg>
