<svg width="350" height="270" viewBox="0 0 350 270" fill="none" xmlns="http://www.w3.org/2000/svg">
<path d="M189.84 184.31H116.9V240.52H189.84V184.31Z" fill="#EBEBEB"/>
<path d="M171.57 240.17C171.5 240.17 171.36 227.64 171.36 212.17C171.36 196.7 171.43 184.17 171.57 184.17C171.71 184.17 171.78 196.7 171.78 212.17C171.78 227.64 171.64 240.17 171.57 240.17Z" fill="#E0E0E0"/>
<path d="M183.68 227.78H178.08V234.08H183.68V227.78Z" fill="#FAFAFA"/>
<path d="M147.42 184.45H139.16V196.42H147.42V184.45Z" fill="#E0E0E0"/>
<path d="M147.42 228.41H139.16V240.38H147.42V228.41Z" fill="#E0E0E0"/>
<path d="M322.07 170.24H230.16V241.15H322.07V170.24Z" fill="#EBEBEB"/>
<path d="M299.04 240.59C298.97 240.59 298.83 224.77 298.83 205.31C298.83 185.85 298.9 170.03 299.04 170.03C299.18 170.03 299.25 185.85 299.25 205.31C299.25 224.77 299.18 240.59 299.04 240.59Z" fill="#E0E0E0"/>
<path d="M314.3 224.98H307.23V232.96H314.3V224.98Z" fill="#FAFAFA"/>
<path d="M268.66 170.38H258.23V185.5H268.66V170.38Z" fill="#E0E0E0"/>
<path d="M268.66 225.75H258.23V240.87H268.66V225.75Z" fill="#E0E0E0"/>
<path d="M57.0499 172.27C60.7599 170.38 65.1699 170.1 69.2999 170.8C71.5399 171.15 73.8499 171.85 75.3199 173.53C76.7899 175.21 77.1399 178.15 75.3899 179.55C74.3399 180.39 72.9399 180.53 71.6099 180.53C68.3899 180.46 64.8199 179.9 62.2299 181.86C60.7599 182.98 59.7799 184.8 58.0299 185.36C56.2799 185.92 54.3899 184.87 53.4799 183.33C52.6399 181.72 52.4299 179.83 52.9899 178.08C53.2699 175.56 54.8099 173.46 57.0499 172.27Z" fill="#EBEBEB"/>
<path d="M48.5101 155.82C50.7501 159.04 55.2301 157.99 57.2601 156.03C59.2901 154.07 60.2001 151.2 60.9701 148.4C62.7901 142.1 64.6101 135.59 63.2801 129.15C62.9301 127.19 62.0901 125.44 60.8301 123.9C59.5001 122.43 57.4701 121.73 55.5801 122.15C53.3401 122.71 51.9401 124.95 50.9601 126.98C48.0201 133.14 46.4801 139.79 46.4101 146.65C46.3401 149.94 46.6901 153.23 48.5101 155.82Z" fill="#EBEBEB"/>
<path d="M42.28 160.51C44.73 157.57 45.22 153.3 44.1 149.66C42.98 146.02 40.53 142.87 37.66 140.28C34.3 137.27 30.38 134.96 26.11 133.49C24.43 132.79 22.68 132.51 20.93 132.58C19.11 132.65 17.5 133.7 16.59 135.24C15.4 137.55 16.52 140.35 17.78 142.66C20.02 146.72 22.54 150.57 25.34 154.21C27.58 157.15 30.24 160.02 33.67 161.35C37.1 162.68 40.74 162.54 42.56 160.09" fill="#EBEBEB"/>
<path d="M48.37 204.89C48.51 204.4 48.58 203.91 48.58 203.42C48.72 202.37 48.79 200.97 49 199.36C49.21 197.4 49.49 195.37 49.91 193.48C50.47 191.1 51.17 188.72 52.08 186.48C52.99 184.24 54.18 182.07 55.65 180.18C56.84 178.64 58.38 177.31 60.13 176.4C61.32 175.84 62.58 175.42 63.91 175.21C64.4 175.21 64.89 175.14 65.38 175C64.89 174.93 64.4 174.93 63.91 175C62.51 175.07 61.18 175.42 59.92 176.05C58.03 176.96 56.42 178.22 55.16 179.83C53.62 181.79 52.36 183.96 51.45 186.27C50.54 188.58 49.84 190.96 49.35 193.34C49 195.3 48.72 197.33 48.58 199.29C48.44 201.04 48.44 202.37 48.37 203.35C48.3 203.91 48.3 204.4 48.37 204.89Z" fill="#E0E0E0"/>
<path d="M48.65 201.74C48.72 201.53 48.72 201.25 48.72 201.04C48.72 200.55 48.72 199.85 48.72 199.08C48.72 197.4 48.72 194.88 48.79 191.87C48.93 185.78 49.49 179.27 50.47 170.03C51.45 161.35 52.71 151.27 54.04 144.69C54.32 143.22 54.6 141.89 54.88 140.7C55.16 139.51 55.37 138.53 55.58 137.69C55.79 136.85 55.93 136.29 56.07 135.8C56.14 135.59 56.21 135.31 56.21 135.1C56.07 135.31 56 135.52 56 135.73C55.86 136.22 55.65 136.85 55.44 137.62C55.23 138.39 54.95 139.44 54.6 140.63C54.25 141.82 53.97 143.15 53.69 144.62C52.01 152.39 50.75 160.23 49.91 168.14C48.93 177.38 48.44 185.78 48.37 191.87C48.37 194.95 48.37 197.4 48.51 199.08C48.58 199.85 48.58 200.55 48.65 201.04C48.51 201.32 48.58 201.53 48.65 201.74Z" fill="#E0E0E0"/>
<path d="M48.65 185.57C48.72 184.87 48.72 184.17 48.65 183.54C48.58 182.21 48.37 180.32 48.02 178.01C47.53 175.28 46.97 172.62 46.2 169.96C45.29 166.67 44.17 163.52 42.84 160.37C40.53 154.63 37.17 149.45 32.9 144.9C32.2 144.13 31.36 143.43 30.59 142.73C30.24 142.45 29.89 142.1 29.61 141.89L28.77 141.26C28.21 140.84 27.65 140.49 27.02 140.14C26.95 140.28 29.47 141.75 32.69 145.18C36.75 149.73 40.04 154.91 42.35 160.58C43.68 163.66 44.8 166.81 45.71 170.03C46.48 172.69 47.11 175.35 47.6 178.01C48.02 180.32 48.3 182.21 48.44 183.47C48.44 184.17 48.51 184.87 48.65 185.57Z" fill="#E0E0E0"/>
<path d="M31.92 211.68L33.53 233.94H62.16L63.77 211.68H31.92Z" fill="#EBEBEB"/>
<path d="M67.13 202.93H29.12V211.68H67.13V202.93Z" fill="#EBEBEB"/>
<path d="M29.12 233.1V235.55H30.94H66.57V233.1H29.12Z" fill="#E0E0E0"/>
<path d="M32.6899 239.54L30.9399 235.27H65.1699L63.1399 239.54H32.6899Z" fill="#E0E0E0"/>
<path d="M63.21 218.96C63.14 219.03 63.14 219.1 63.07 219.17C62.93 219.31 62.79 219.52 62.65 219.73L60.97 221.83L60.9 221.9L60.83 221.83L56.77 216.16H56.98L52.92 221.83L52.78 222.04L52.64 221.9L47.88 216.23H48.16L47.88 216.58L43.61 221.9L43.47 222.11L43.4 221.9L39.34 216.23H39.55L34.58 221.9L34.51 221.97L34.44 221.83L32.9 219.24C32.76 218.96 32.62 218.75 32.48 218.54C32.41 218.47 32.41 218.4 32.34 218.26C32.41 218.33 32.48 218.4 32.48 218.47L32.9 219.17L34.51 221.76H34.37L39.27 216.02L39.41 215.88L39.55 216.02L43.61 221.69H43.4L47.67 216.3C47.74 216.16 47.88 216.09 47.95 215.95L48.09 215.81L48.23 215.95L52.99 221.62H52.71L56.77 215.95L56.91 215.81L57.05 215.95C58.66 218.26 60.06 220.22 61.04 221.69H60.9L62.65 219.59C62.86 219.38 63 219.17 63.14 219.03C63.14 219.1 63.14 219.03 63.21 218.96Z" fill="#F5F5F5"/>
<path d="M64.19 211.54C64.19 211.61 57.05 211.75 48.16 211.75C39.27 211.75 32.13 211.68 32.13 211.54C32.13 211.4 39.27 211.4 48.16 211.4C57.05 211.4 64.19 211.47 64.19 211.54Z" fill="#F5F5F5"/>
<path d="M198.024 42.685L192.144 42.7168L192.302 71.9068L198.182 71.875L198.024 42.685Z" fill="#E0E0E0"/>
<path d="M156.479 42.7298L141.289 42.812L141.376 58.912L156.566 58.8298L156.479 42.7298Z" fill="#EBEBEB"/>
<path d="M171.599 42.6598L156.409 42.7419L156.496 58.8419L171.686 58.7598L171.599 42.6598Z" fill="#F5F5F5"/>
<path d="M141.33 47.32C151.41 47.39 161.56 47.39 171.64 47.18C171.71 47.18 171.78 47.11 171.78 47.04C171.78 46.97 171.71 46.9 171.64 46.9C161.56 46.83 151.41 46.9 141.33 47.11C141.26 47.11 141.19 47.18 141.19 47.25C141.26 47.25 141.26 47.25 141.33 47.32Z" fill="#E0E0E0"/>
<path d="M159.427 58.5864L131.847 58.7356L131.918 71.8956L159.498 71.7464L159.427 58.5864Z" fill="#EBEBEB"/>
<path d="M186.867 58.4465L159.287 58.5957L159.358 71.7557L186.938 71.6065L186.867 58.4465Z" fill="#F5F5F5"/>
<path d="M131.88 62.4401C150.22 62.6501 168.63 62.4401 186.97 62.1601C187.04 62.1601 187.11 62.0901 187.11 62.0201C187.11 61.9501 187.04 61.8801 186.97 61.8801C168.63 61.8101 150.22 61.8101 131.88 62.1601C131.81 62.1601 131.74 62.2301 131.74 62.3001C131.74 62.3701 131.81 62.4401 131.88 62.4401Z" fill="#E0E0E0"/>
<path d="M228.48 71.8901H121.52V76.5801H228.48V71.8901Z" fill="#E0E0E0"/>
<path d="M143.36 74.1301H139.02V90.1601H143.36V74.1301Z" fill="#E0E0E0"/>
<path d="M208.18 74.1301H203.84V90.1601H208.18V74.1301Z" fill="#E0E0E0"/>
<path d="M203.734 31.7648L197.854 31.7966L198.071 71.9066L203.951 71.8748L203.734 31.7648Z" fill="#EBEBEB"/>
<path d="M212.855 39.2464L203.755 39.2957L203.931 71.8457L213.031 71.7964L212.855 39.2464Z" fill="#F5F5F5"/>
<path d="M212.8 45.5701C209.79 45.7801 206.71 45.7801 203.7 45.5701C206.78 45.3601 209.79 45.3601 212.8 45.5701Z" fill="#E0E0E0"/>
<path d="M212.8 44.24C211.26 44.38 209.79 44.45 208.25 44.38C206.71 44.45 205.24 44.38 203.7 44.24C206.71 44.03 209.79 44.03 212.8 44.24Z" fill="#E0E0E0"/>
<path d="M212.8 66.92C209.79 67.13 206.71 67.13 203.7 66.92C206.78 66.71 209.79 66.71 212.8 66.92Z" fill="#E0E0E0"/>
<path d="M212.8 65.5201C209.79 65.7301 206.71 65.7301 203.7 65.5201C206.78 65.31 209.79 65.31 212.8 65.5201Z" fill="#E0E0E0"/>
<path d="M208.39 62.5801C208.32 62.5801 208.25 59.2901 208.25 55.2301C208.25 51.1701 208.32 47.8801 208.39 47.8801C208.46 47.8801 208.53 51.1701 208.53 55.2301C208.53 59.2901 208.53 62.5801 208.39 62.5801Z" fill="#E0E0E0"/>
<path d="M222.88 47.25H212.94V71.82H222.88V47.25Z" fill="#EBEBEB"/>
<path d="M200.69 40.32C201.618 40.32 202.37 39.5678 202.37 38.64C202.37 37.7121 201.618 36.96 200.69 36.96C199.762 36.96 199.01 37.7121 199.01 38.64C199.01 39.5678 199.762 40.32 200.69 40.32Z" fill="#E0E0E0"/>
<path d="M201.25 43.3301H200.2V67.2001H201.25V43.3301Z" fill="#E0E0E0"/>
<path d="M325.29 240.73C325.29 240.8 258.02 240.94 175.07 240.94C92.1199 240.94 24.7799 240.87 24.7799 240.73C24.7799 240.59 92.0499 240.52 175.07 240.52C258.09 240.52 325.29 240.66 325.29 240.73Z" fill="#123960"/>
<path d="M205.38 95.2C205.38 95.2 205.17 95.2 204.82 95.2C204.26 95.2 203.77 95.2 203.21 95.2C201.18 95.34 199.15 95.76 197.26 96.6C194.25 97.86 191.66 99.89 189.7 102.48C188.51 104.09 187.6 105.91 187.04 107.87C185.78 112.49 186.48 117.46 188.86 121.59C189.49 122.71 190.33 123.83 191.24 124.74C192.15 125.72 193.27 126.63 194.46 127.26C195.72 127.96 197.12 128.31 198.52 128.24C199.99 128.24 201.39 127.68 202.44 126.63C203.49 125.58 204.05 124.11 203.98 122.57C203.98 121.03 203.49 119.56 202.58 118.3C200.76 115.78 197.82 114.03 194.67 113.12C191.45 112.21 188.02 112.14 184.73 112.98C183.05 113.4 181.44 114.03 179.97 114.87C178.43 115.71 177.03 116.83 175.84 118.09C175.56 118.44 175.21 118.72 175 119.07L174.23 120.12C173.74 120.89 173.32 121.66 172.97 122.43C172.2 124.04 171.71 125.79 171.43 127.61C170.94 131.18 171.43 134.82 172.83 138.11C174.16 141.33 176.54 144.06 179.55 145.81C181.02 146.65 182.63 147.14 184.31 147.28C185.99 147.35 187.6 147 189.07 146.16C190.47 145.39 191.59 144.13 192.29 142.66C192.92 141.19 192.92 139.58 192.43 138.04C191.87 136.57 190.96 135.31 189.77 134.33C188.65 133.35 187.32 132.58 185.92 132.09C183.12 131.25 180.18 131.18 177.38 131.95C174.79 132.65 172.34 133.98 170.38 135.87C168.56 137.62 167.23 139.72 166.39 142.1C164.92 146.16 164.99 150.64 166.6 154.7C167.86 157.71 169.82 160.37 172.34 162.4C173.95 163.66 175.7 164.71 177.66 165.48C178.29 165.76 178.85 165.9 179.2 166.04L179.69 166.18C179.69 166.18 179.48 166.11 179.13 166.04C178.64 165.9 178.08 165.76 177.59 165.55C175.63 164.85 173.88 163.8 172.2 162.54C169.61 160.51 167.58 157.85 166.32 154.77C164.71 150.71 164.64 146.16 166.11 142.03C166.95 139.65 168.35 137.48 170.17 135.73C172.2 133.84 174.65 132.44 177.24 131.74C180.11 130.97 183.12 130.97 185.92 131.88C187.39 132.37 188.72 133.14 189.91 134.19C191.1 135.24 192.08 136.57 192.64 138.04C193.2 139.58 193.2 141.33 192.57 142.87C191.87 144.41 190.68 145.67 189.21 146.51C187.74 147.35 185.99 147.77 184.31 147.7C182.56 147.56 180.88 147.07 179.41 146.23C176.33 144.41 173.88 141.68 172.48 138.39C171.01 135.03 170.52 131.32 171.01 127.68C171.29 125.86 171.78 124.11 172.55 122.43C172.9 121.59 173.39 120.82 173.88 120.05L174.72 118.93C175 118.58 175.35 118.23 175.63 117.88C176.89 116.55 178.29 115.5 179.83 114.59C181.37 113.75 183.05 113.12 184.73 112.63C188.09 111.79 191.52 111.86 194.88 112.77C198.1 113.75 201.04 115.5 202.93 118.09C203.91 119.42 204.4 120.96 204.4 122.57C204.4 124.18 203.84 125.72 202.72 126.84C201.6 127.89 200.13 128.45 198.59 128.52C197.12 128.52 195.65 128.17 194.39 127.47C193.13 126.77 192.08 125.93 191.1 124.88C190.19 123.9 189.35 122.85 188.65 121.66C186.2 117.39 185.57 112.42 186.83 107.66C187.39 105.7 188.3 103.81 189.56 102.2C191.52 99.61 194.18 97.51 197.26 96.32C199.15 95.55 201.18 95.06 203.28 94.99C203.84 94.92 204.33 94.92 204.89 94.99L205.38 95.2Z" fill="#123960"/>
<path d="M228.69 165.2H130.55V240.87H228.69V165.2Z" fill="#70B8FF"/>
<path d="M130.55 165.2L148.68 182.14H245.21L228.76 165.2H130.55Z" fill="#70B8FF"/>
<path d="M130.55 165.2L228.76 165.06H228.83L228.9 165.13L245.21 181.86L245.35 182L245.63 182.28H245.21L148.75 182.21H148.68L130.55 165.2L148.75 182H148.68L245.14 181.93L245 182.21L244.86 182.07L228.55 165.34L228.69 165.41L130.55 165.2Z" fill="#123960"/>
<path d="M160.09 200.13C158.97 200.2 158.06 201.11 158.13 202.23C158.2 203.35 159.11 204.26 160.23 204.19C161.35 204.12 162.26 203.21 162.19 202.09C162.12 201.04 161.28 200.2 160.23 200.13" fill="#123960"/>
<path d="M183.26 200.13C182.14 200.2 181.3 201.11 181.3 202.23C181.37 203.35 182.28 204.19 183.4 204.19C184.52 204.12 185.36 203.21 185.36 202.09C185.29 201.04 184.45 200.2 183.4 200.13" fill="#123960"/>
<path d="M183.4 218.26C182.98 216.72 182.35 215.25 181.44 213.92C180.46 212.52 179.2 211.26 177.73 210.35C174.09 207.97 169.47 207.83 165.76 210C164.22 210.84 162.89 211.96 161.84 213.36C160.86 214.62 160.16 216.09 159.67 217.63C159.67 217.49 159.67 217.42 159.74 217.28C159.81 216.93 159.88 216.65 160.02 216.37C160.37 215.25 160.93 214.2 161.7 213.22C162.75 211.82 164.08 210.63 165.62 209.72C169.47 207.41 174.23 207.55 177.94 210.07C179.41 211.05 180.67 212.31 181.65 213.78C182.28 214.76 182.84 215.88 183.12 217C183.19 217.28 183.26 217.63 183.33 217.98C183.4 217.98 183.4 218.12 183.4 218.26Z" fill="#123960"/>
<path opacity="0.5" d="M130.83 166.04L148.19 188.09H228.76V182.14H148.68L130.83 166.04Z" fill="#0A2643"/>
<path d="M209.37 240.73C209.3 240.73 209.16 227.57 209.16 211.33C209.16 195.09 209.23 181.93 209.37 181.93C209.51 181.93 209.58 195.09 209.58 211.33C209.58 227.57 209.51 240.73 209.37 240.73Z" fill="#123960"/>
<path d="M255.78 136.15H247.1V145.95H255.78V136.15Z" fill="#F5F5F5"/>
<path d="M130.55 165.2L110.46 182.14H130.55V165.2Z" fill="#70B8FF"/>
<g opacity="0.4">
<path opacity="0.4" d="M130.55 165.2L110.46 182.14H130.55V165.2Z" fill="#0A2643"/>
</g>
<path d="M253.05 220.71H244.37V230.51H253.05V220.71Z" fill="#F5F5F5"/>
</svg>
