<svg width="565" height="526" viewBox="0 0 565 526" fill="none" xmlns="http://www.w3.org/2000/svg">
<path fill-rule="evenodd" clip-rule="evenodd" d="M267.556 275.689C253.591 277.3 242.874 277.107 235.407 275.11C227.939 273.113 222.05 268.865 217.739 262.366C213.04 252.427 210.433 246.73 209.919 245.278C207.399 238.158 207.12 231.16 207.602 226.451C208.232 220.302 211.611 212.289 217.739 202.411C218.612 195.545 220.06 189.462 222.084 184.165C224.107 178.867 228.162 171.24 234.248 161.284L235.117 128.555C237.685 121.064 240.098 115.753 242.358 112.625C244.617 109.497 247.224 107.855 250.178 107.701C252.671 107.465 254.988 108.044 257.129 109.439C259.27 110.835 263.326 114.407 269.294 120.156C274.222 111.555 279.822 104.989 286.093 100.461C292.363 95.932 300.665 92.4567 311 90.0341L312.449 87.1378L312.624 70.1013L307.815 28.6317H301.443L311.29 14.15C312.169 10.9587 313.038 8.64218 313.897 7.1987C314.756 5.7558 316.36 4.11407 318.711 2.27523C318.753 1.74189 320.686 1.45204 324.508 1.40566C328.33 1.35929 334.351 1.55233 342.571 1.98537C346.079 2.79117 348.496 3.8532 349.812 5.17146C351.128 6.48914 352.287 9.28913 353.284 13.5709L367.406 28.652L358.502 29.2109L357.632 56.7262C356.392 61.4451 355.232 64.6306 354.154 66.2839C353.076 67.9373 351.342 69.1923 348.942 70.0491L334.751 70.9181L333.012 87.717L334.171 90.0341C341.418 92.1059 346.345 93.7471 348.942 94.9575C355.186 97.8648 360.832 102.075 365.163 109.439C368.195 114.595 371.331 121.718 375.586 129.134C379.337 135.665 386.189 147.153 396.154 163.601L405.997 172.29L410.925 182.137L422.798 191.116L428.299 173.159C417.105 156.167 411.505 145.354 411.505 140.72C411.505 138.783 412.676 136.957 413.818 135.796C415.418 134.179 417.609 133.185 421.348 133.479C423.841 133.675 426.258 135.219 428.589 138.113L461.899 227.61C458.583 238.474 455.69 246.584 453.209 251.939C450.734 257.294 447.064 262.604 442.206 267.869C435.203 271.797 429.313 274.114 424.537 274.82C419.76 275.526 411.939 274.851 401.076 272.793C397.273 271.051 394.763 269.41 393.545 267.869C389.041 262.155 387.151 254.908 384.855 251.07C381.632 245.679 379.702 240.659 379.064 236.009L364.003 187.061L298.836 185.033L292.754 234.561C289.429 248.022 285.857 257.869 282.037 264.104C278.218 270.338 273.391 274.2 267.556 275.689Z" fill="white"/>
<path fill-rule="evenodd" clip-rule="evenodd" d="M272.043 286.359C270.864 286.146 269.994 286.041 269.435 286.044C267.287 286.052 265.534 285.942 264.507 284.305C263.079 282.027 263.465 279.321 265.667 276.189L271.754 274.16H274.652L295.812 275.029L302.478 274.16L325.956 273.29C328.468 274.449 329.336 276.671 328.565 279.957C327.792 283.241 325.667 285.27 322.188 286.044L315.232 286.359L268.275 501.667H238.13C243.291 467.847 247.445 442.405 250.594 425.353C253.743 408.3 260.893 361.969 272.043 286.359ZM345.667 286.359C345.62 285.675 343.783 285.569 340.159 286.044C337.069 284.498 335.812 282.082 336.391 278.797C336.971 275.512 338.42 273.773 340.739 273.58L345.087 274.16H358.42L371.754 275.029L386.536 273.58C391.174 273.966 393.493 276.092 393.493 279.957C393.493 282.153 392.751 283.294 391.754 284.305C391.249 284.816 390.281 285.396 388.855 286.044L384.217 286.359L396.101 501.957H364.797C360.583 463.186 357.875 436.008 356.681 420.42C355.261 401.854 347.22 309.572 345.667 286.359Z" fill="white"/>
<path fill-rule="evenodd" clip-rule="evenodd" d="M272.043 286.068H315.232L268.275 501.377H238.13C243.291 467.556 247.445 442.115 250.594 425.063C253.743 408.01 260.893 361.679 272.043 286.068ZM345.667 286.068H384.217L396.101 501.667H364.797C360.583 462.896 357.875 435.718 356.681 420.13C355.261 401.564 347.22 309.282 345.667 286.068Z" stroke="#263E4B" stroke-width="1.5"/>
<path fill-rule="evenodd" clip-rule="evenodd" d="M299 93.9722L266.32 94.1258C250.016 94.2023 236.61 107.001 235.78 123.284L235.232 134.017C235.743 128.498 236.419 124.629 237.261 122.409C238.598 118.887 240.141 116.86 241.899 114.575C244.555 111.119 247.564 108.203 250.015 107.61C255.619 106.256 261.899 110.609 268.855 120.668C270.02 118.415 270.987 116.674 271.754 115.445C273.285 112.992 274.916 110.344 277.841 107.61C283.638 102.194 290.691 97.6481 299 93.9722Z" fill="#5AA2E8"/>
<path fill-rule="evenodd" clip-rule="evenodd" d="M272.333 273.591C275.315 274.679 280.919 275.162 289.145 275.042C293.625 274.976 301.688 273.639 308.565 273.301C312.401 273.112 318.198 273.112 325.957 273.301L332.623 255.6H339L341.029 273.301C347.812 273.725 352.641 274.015 355.522 274.172C361.713 274.507 366.861 274.752 370.884 274.752C377.713 274.752 382.733 274.268 385.957 273.301L371.174 190.601L302.478 193.212C301.58 205.806 298.296 219.637 292.623 234.707C291.415 237.919 291.221 241.979 290.015 246.024C288.176 252.188 286.151 258.151 283.928 262.274C281.819 266.186 277.954 269.958 272.333 273.591Z" fill="#5AA2E8"/>
<path d="M385.499 273.494L378.861 234.781C378.82 234.544 378.983 234.319 379.215 234.278C379.452 234.238 379.678 234.397 379.719 234.634L386.322 273.156H387.261C390.942 273.156 393.928 276.144 393.928 279.83C393.928 283.516 390.942 286.504 387.261 286.504H341.522C338.258 286.504 335.615 283.855 335.615 280.587C335.615 280.314 335.632 280.041 335.673 279.77L336.02 277.278C336.333 275.035 338.067 273.281 340.264 272.92L338.606 256.035H332.925L326.553 272.953C328.33 273.364 329.591 275.025 329.447 276.901C329.435 277.064 329.412 277.224 329.377 277.383L328.844 279.919C328.044 283.755 324.665 286.504 320.749 286.504H267.724C265.28 286.504 263.299 284.521 263.299 282.075C263.299 281.612 263.372 281.152 263.514 280.711C263.901 279.515 264.383 277.969 264.961 276.075C265.031 275.845 265.274 275.716 265.504 275.786C265.734 275.856 265.863 276.1 265.793 276.33C265.213 278.228 264.73 279.778 264.342 280.979C264.227 281.333 264.169 281.703 264.169 282.075C264.169 284.04 265.76 285.633 267.724 285.633H320.749C324.253 285.633 327.277 283.174 327.995 279.74L328.525 277.205C328.551 277.083 328.568 276.959 328.578 276.835C328.7 275.249 327.517 273.864 325.935 273.736C322.339 273.665 319.794 273.629 318.303 273.627C314.268 273.623 302.888 274.283 300.507 274.603C295.103 275.327 292.241 275.431 287.566 275.274C287.414 275.268 287.414 275.268 287.262 275.263C285.591 275.206 284.793 275.187 283.727 275.187C279.86 275.187 276.972 275.09 275.055 274.894C272.806 274.665 271.787 274.345 271.903 273.53L272.764 273.652C272.773 273.589 272.756 273.542 272.744 273.521C272.805 273.568 272.93 273.626 273.114 273.683C273.541 273.818 274.221 273.934 275.143 274.028C277.025 274.22 279.888 274.317 283.727 274.317C284.805 274.317 285.612 274.336 287.291 274.393C287.443 274.398 287.443 274.398 287.595 274.403C292.225 274.559 295.04 274.457 300.392 273.74C302.814 273.415 314.232 272.752 318.304 272.757C319.761 272.758 322.212 272.793 325.658 272.86L332.218 255.446C332.281 255.277 332.444 255.165 332.623 255.165H339H342.768C343.006 255.165 343.203 255.359 343.203 255.6C343.203 255.841 343.006 256.035 342.768 256.035H339.481L341.145 272.968C343.064 273.285 346.902 273.446 352.623 273.446C354.774 273.446 365.29 274.034 368.316 274.318C371.765 274.642 377.499 274.369 385.499 273.494ZM385.974 274.026L386.003 274.314C377.731 275.23 371.812 275.522 368.235 275.185C365.238 274.903 354.745 274.317 352.623 274.317C346.502 274.317 342.525 274.134 340.652 273.764L340.658 273.745C338.716 273.947 337.151 275.451 336.878 277.398L336.531 279.89C336.502 280.121 336.484 280.354 336.484 280.587C336.484 283.374 338.739 285.633 341.522 285.633H387.261C390.461 285.633 393.058 283.035 393.058 279.83C393.058 276.624 390.461 274.026 387.261 274.026H385.974Z" fill="#263E4B"/>
<path d="M335.353 70.9032L333.666 88.7374C347.406 93.4128 356.194 97.4725 360.055 100.952C365.069 105.464 377.916 131.544 384.495 148.659C386.484 153.828 389.568 157.102 397.046 163.162L397.672 163.671C405.185 169.757 408.252 173.043 410.136 178.266C413.035 186.329 418.843 188.266 427.8 184.112C428.02 184.011 428.281 184.106 428.38 184.324C428.478 184.542 428.385 184.801 428.165 184.902C418.768 189.26 412.403 187.134 409.313 178.561C407.51 173.538 404.519 170.336 397.127 164.348L396.495 163.838C388.901 157.685 385.748 154.33 383.684 148.972C377.162 132.006 364.339 105.98 359.475 101.599C355.695 98.1971 346.878 94.1357 333.064 89.4516C332.872 89.3867 332.75 89.1988 332.768 88.9983L334.484 70.9032H329.435C329.197 70.9032 329 70.7084 329 70.4678C329 70.2278 329.197 70.0325 329.435 70.0325H334.953C334.959 70.0325 334.959 70.0325 334.965 70.0325H344.617C350.6 70.0325 354.072 67.5977 355.887 62.676C357.342 58.7212 357.695 54.1502 357.695 44.3786V37.7235C357.695 37.6313 357.695 37.5565 357.695 37.3873C357.701 34.1519 357.551 32.2876 356.855 29.4452C356.843 29.4284 356.82 29.4075 356.797 29.3832C356.727 29.3154 356.635 29.2267 356.513 29.1177H315.062C314.822 29.1177 314.627 28.9229 314.627 28.6829C314.627 28.4423 314.822 28.2476 315.062 28.2476H356.681C356.785 28.2476 356.89 28.2864 356.971 28.3565C357.481 28.8116 357.637 28.9647 357.684 29.1589C358.414 32.1276 358.571 34.0592 358.565 37.3884C358.565 37.5577 358.565 37.6319 358.565 37.7235V44.3786C358.565 54.2603 358.206 58.8887 356.698 62.9774C354.762 68.24 350.965 70.9032 344.617 70.9032H335.353ZM462.351 227.04L463.185 227.286C455.904 252.048 448.165 266.482 439.887 270.614C426.849 277.119 410.913 277.619 397.939 271.249C396.223 270.407 394.878 269.231 393.51 267.424C392.536 266.136 391.58 264.586 390.043 261.894C389.643 261.191 388.113 258.48 387.887 258.083C386.924 256.388 386.095 254.946 385.214 253.442C384.003 251.383 382.281 246.837 380.037 239.772L380.861 239.508C383.087 246.51 384.797 251.017 385.962 253C386.849 254.508 387.684 255.955 388.646 257.653C388.872 258.052 390.397 260.761 390.797 261.463C392.316 264.123 393.261 265.649 394.206 266.899C395.493 268.603 396.739 269.689 398.322 270.467C411.046 276.714 426.698 276.223 439.498 269.835C447.487 265.849 455.133 251.576 462.351 227.04Z" fill="#263E4B"/>
<path fill-rule="evenodd" clip-rule="evenodd" d="M343.058 92.8116L348.276 94.8429C351.945 106.063 354.751 115.639 356.681 123.57C358.612 131.501 359.87 143.302 360.45 158.972L353.203 156.94C353.783 144.366 352.722 133.243 350.015 123.57C348.838 119.357 346.519 109.104 343.058 92.8116ZM298.71 93.9722L303.638 91.9409C304.797 100.517 305.377 107.288 305.377 112.253C305.377 117.219 305.377 122.248 305.377 127.343L297.841 138.079C299 134.597 299.58 126.762 299.58 114.575C299.58 102.387 299.29 95.52 298.71 93.9722Z" fill="#5AA2E8"/>
<path d="M342.925 92.9022L342.757 92.1144L348.913 94.512L348.977 94.7074C352.652 105.938 355.458 115.524 357.394 123.467C359.336 131.433 360.594 143.259 361.174 158.956L361.197 159.552L353.041 157.266L353.058 156.921C353.638 144.39 352.577 133.313 349.887 123.688C348.705 119.463 346.386 109.205 342.925 92.9022ZM350.722 123.453C353.418 133.084 354.49 144.138 353.945 156.615L360.281 158.392C359.696 143.046 358.449 131.47 356.548 123.674C354.629 115.8 351.852 106.3 348.218 95.1741L343.939 93.5097C347.307 109.335 349.568 119.321 350.722 123.453ZM298.593 94.1254L298.445 93.7306L304.283 91.3242L304.358 91.8831C305.521 100.477 306.102 107.266 306.102 112.253V127.48L296.779 140.762L297.718 137.942C298.858 134.52 299.435 126.714 299.435 114.575C299.435 102.484 299.144 95.5967 298.593 94.1254ZM300.305 114.575C300.305 124.637 299.911 131.742 299.116 135.92L305.232 127.205V112.253C305.232 107.419 304.679 100.853 303.572 92.559L299.528 94.2257C300.053 96.4048 300.305 103.131 300.305 114.575Z" fill="#263E4B"/>
<path d="M334.815 94.0956L335.649 93.8486L375.081 227.081C377.33 238.857 385.452 244.718 399.58 244.718C413.713 244.718 425.33 235.275 434.449 216.304L435.232 216.682C425.986 235.926 414.096 245.589 399.58 245.589C385.058 245.589 376.559 239.457 374.235 227.286L334.815 94.0956ZM356.252 201.851L357.11 201.984C352.635 231.001 344.229 245.589 331.754 245.589C321.663 245.589 314.948 214.16 312.189 154.058C311.668 142.726 311.379 123.376 311.319 96.0046L312.188 96.0023C312.248 123.362 312.538 142.702 313.057 154.018C315.781 213.337 322.485 244.718 331.754 244.718C343.626 244.718 351.835 230.482 356.252 201.851Z" fill="#263E4B"/>
<path fill-rule="evenodd" clip-rule="evenodd" d="M399.568 187.578L429.939 184.386L431.736 201.477L401.365 204.67L399.568 187.578ZM371.4 156.938L368.542 129.781C369.69 126.844 372.704 125.119 377.597 124.605C382.484 124.091 385.794 125.152 387.528 127.786L390.38 154.942L371.4 156.938ZM451.122 148.558L432.142 150.553L429.284 123.396C430.432 120.46 433.446 118.735 438.339 118.221C443.226 117.707 446.536 118.767 448.27 121.401L451.122 148.558Z" fill="#263E4B"/>
<path fill-rule="evenodd" clip-rule="evenodd" d="M369.012 187.092L364.6 145.122C366.449 140.576 371.284 137.892 379.11 137.07C386.93 136.247 392.218 137.867 394.971 141.931L399.383 183.9L369.012 187.092ZM460.125 177.515L429.754 180.708L425.342 138.738C427.191 134.192 432.026 131.507 439.852 130.685C447.673 129.863 452.96 131.483 455.713 135.546L460.125 177.515Z" fill="white"/>
<path fill-rule="evenodd" clip-rule="evenodd" d="M368.82 187.209L364.409 145.239C366.258 140.693 371.093 138.009 378.919 137.187C386.739 136.365 392.026 137.984 394.78 142.047L399.191 184.017L368.82 187.209ZM459.933 177.633L429.562 180.825L425.151 138.855C427 134.309 431.835 131.624 439.661 130.802C447.481 129.98 452.768 131.6 455.522 135.663L459.933 177.633Z" fill="white" stroke="#263E4B" stroke-width="1.5" stroke-linecap="round" stroke-linejoin="round"/>
<path fill-rule="evenodd" clip-rule="evenodd" d="M368.078 233.609L362.971 185.056C365.615 179.743 372.31 176.522 383.07 175.391C393.823 174.261 401.047 176.019 404.734 180.666L409.835 229.22L368.078 233.609ZM470.577 222.835L428.82 227.224L423.713 178.671C426.357 173.359 433.052 170.138 443.812 169.007C454.565 167.877 461.789 169.635 465.476 174.282L470.577 222.835Z" fill="white"/>
<path d="M367.986 234.056C367.748 234.081 367.534 233.908 367.51 233.668L362.409 185.115C362.397 185.033 362.415 184.95 362.449 184.876C365.168 179.402 371.997 176.117 382.89 174.973C393.777 173.828 401.139 175.621 404.942 180.41C404.994 180.475 405.023 180.553 405.035 180.635L410.136 229.188C410.16 229.428 409.986 229.642 409.748 229.667L367.986 234.056ZM409.226 228.846L404.183 180.853C400.583 176.421 393.528 174.73 382.977 175.838C372.432 176.947 365.881 180.068 363.284 185.152L368.328 233.145L409.226 228.846ZM470.878 222.804C470.902 223.043 470.728 223.257 470.49 223.282L428.728 227.672C428.49 227.697 428.276 227.523 428.252 227.284L423.151 178.731C423.139 178.649 423.157 178.566 423.191 178.492C425.916 173.017 432.745 169.733 443.632 168.588C454.519 167.444 461.881 169.236 465.684 174.025C465.736 174.09 465.765 174.169 465.777 174.251L470.878 222.804ZM469.968 222.462L464.925 174.469C461.325 170.036 454.27 168.345 443.725 169.454C433.174 170.563 426.629 173.683 424.026 178.767L429.07 226.76L469.968 222.462Z" fill="#263E4B"/>
<path fill-rule="evenodd" clip-rule="evenodd" d="M389.568 238.55C378.038 239.762 368.357 237.556 367.939 233.623C367.528 229.69 376.542 225.519 388.073 224.306C399.603 223.095 409.29 225.301 409.702 229.233C410.119 233.167 401.105 237.338 389.568 238.55ZM450.316 232.166C438.78 233.378 429.099 231.171 428.687 227.239C428.27 223.305 437.284 219.134 448.815 217.922C460.351 216.711 470.032 218.916 470.444 222.849C470.861 226.782 461.847 230.953 450.316 232.166Z" fill="#263E4B"/>
<path d="M357.678 195.299C361.324 194.915 363.968 191.648 363.585 187.999C363.203 184.352 359.933 181.705 356.287 182.089C352.64 182.472 349.997 185.739 350.38 189.387C350.762 193.035 354.032 195.682 357.678 195.299ZM357.585 194.432C354.414 194.766 351.58 192.466 351.243 189.296C350.913 186.127 353.209 183.287 356.38 182.954C359.545 182.621 362.385 184.921 362.722 188.09C363.052 191.26 360.756 194.1 357.585 194.432Z" fill="#263E4B"/>
<path d="M218.501 202.481L224.359 200.348C224.584 200.266 224.833 200.383 224.916 200.608C224.998 200.834 224.881 201.084 224.655 201.166L219.447 203.062L224.728 206.186C224.935 206.308 225.003 206.575 224.882 206.782C224.759 206.989 224.493 207.057 224.286 206.935L218.389 203.447L218.279 203.488C218.228 203.506 218.175 203.515 218.123 203.514C207.478 217.706 205.015 231.707 210.706 245.569C216.254 259.083 218.747 263.906 222.95 268.069C227.795 272.868 234.468 275.362 246.004 276.641C267.76 279.051 280.466 271.833 286.126 255.746C289.662 245.695 291.684 238.656 292.192 234.653C292.222 234.415 292.439 234.246 292.678 234.276C292.916 234.306 293.084 234.524 293.054 234.762C292.537 238.845 290.501 245.928 286.946 256.035C281.147 272.52 268.051 279.959 245.908 277.506C234.195 276.208 227.346 273.648 222.338 268.688C218.02 264.41 215.497 259.529 209.902 245.9C204.057 231.66 206.635 217.261 217.606 202.755C218.786 188.027 224.127 174.242 233.622 161.407C243.088 148.612 252.843 138.992 262.89 132.552C269.682 114.539 279.542 102.476 292.476 96.389C298.92 93.3565 303.756 91.3403 306.993 90.3392C309.162 89.669 310.705 89.4221 311.568 89.6945L313.058 62.3194C313.071 62.0794 313.276 61.8957 313.516 61.9073C313.756 61.9218 313.94 62.127 313.927 62.367L312.376 90.8447C312.345 91.4081 311.507 91.3855 311.507 90.8209C311.507 90.2881 310.166 90.2696 307.25 91.171C304.06 92.1577 299.256 94.16 292.846 97.1768C280.104 103.173 270.371 115.103 263.653 132.994C263.62 133.082 263.559 133.157 263.48 133.208C253.487 139.587 243.766 149.158 234.32 161.925C224.995 174.531 219.723 188.047 218.501 202.481Z" fill="#263E4B"/>
<path fill-rule="evenodd" clip-rule="evenodd" d="M312.043 87.2988L307.971 97.6107C307.736 98.2061 308.028 98.8797 308.624 99.1151C308.858 99.2072 309.116 99.2211 309.359 99.1539L326.752 94.3284L338.264 98.4281C338.867 98.6432 339.527 98.3284 339.742 97.7249C339.875 97.3643 339.817 96.9632 339.591 96.6536L333.203 87.8791C332.02 88.9104 329.481 89.4264 325.589 89.4264C321.698 89.4264 317.183 88.7174 312.043 87.2988Z" fill="white"/>
<path d="M326.482 94.6453L309.766 99.2824C309.432 99.3752 309.077 99.3566 308.754 99.2291C307.935 98.905 307.534 97.9775 307.858 97.1578L311.929 86.8482C312.011 86.6413 312.235 86.5294 312.449 86.5885C317.554 87.9978 322.032 88.701 325.88 88.701C329.673 88.701 332.125 88.2018 333.209 87.2604C333.4 87.0929 333.696 87.1259 333.847 87.3323L340.229 96.1039C340.536 96.5299 340.618 97.0824 340.444 97.5786C340.148 98.4094 339.238 98.843 338.403 98.5473L327.353 94.6105C327.373 94.7758 327.396 94.9694 327.421 95.192C327.53 96.1363 327.693 97.5995 327.911 99.5833C328.346 103.55 329 109.595 329.87 117.721C329.893 117.96 329.719 118.174 329.481 118.199C329.244 118.225 329.029 118.052 329 117.813C328.133 109.689 327.481 103.644 327.046 99.6783C326.829 97.6963 326.666 96.2337 326.557 95.2917C326.528 95.0384 326.503 94.8227 326.482 94.6453ZM326.471 89.5676C326.567 89.9404 326.658 90.356 326.745 90.8099C326.887 91.5491 326.998 92.2604 327.129 93.1989L327.185 93.5966C327.187 93.6076 327.188 93.6181 327.19 93.6285L338.699 97.727C339.076 97.8615 339.487 97.6644 339.621 97.287C339.702 97.0615 339.667 96.8105 339.528 96.6169L333.4 88.203C332.09 89.0784 329.789 89.5213 326.471 89.5676ZM326.334 93.7827C326.331 93.7624 326.328 93.741 326.324 93.7184L326.269 93.3201C326.139 92.3949 326.03 91.6957 325.891 90.974C325.789 90.4465 325.683 89.9758 325.572 89.57C321.806 89.5346 317.481 88.8546 312.594 87.5311L308.666 97.4778C308.519 97.8505 308.702 98.272 309.074 98.4192C309.22 98.4772 309.382 98.4859 309.534 98.4436L326.334 93.7827Z" fill="#263E4B"/>
<path fill-rule="evenodd" clip-rule="evenodd" d="M267.116 186.915C291.17 148.533 304.986 127.35 308.565 123.366C311.359 120.257 316.144 120.001 319.254 122.795C321.58 124.886 322.381 128.192 321.269 131.116L312.623 153.835" fill="white"/>
<path d="M267.383 187.35C291.409 149.012 305.234 127.816 308.787 123.861C311.422 120.929 315.932 120.69 318.86 123.328C321.052 125.301 321.805 128.421 320.756 131.179L312.116 153.884L312.929 154.194L321.568 131.489C322.746 128.395 321.901 124.895 319.442 122.681C316.157 119.722 311.097 119.989 308.141 123.279C304.535 127.292 290.728 148.461 266.646 186.887L267.383 187.35Z" fill="#263E4B"/>
<path fill-rule="evenodd" clip-rule="evenodd" d="M320.845 45.82C320.168 45.6205 319.452 45.5133 318.71 45.5133C314.548 45.5133 311.174 48.8913 311.174 53.0576C311.174 56.5979 313.61 59.569 316.895 60.3823L316.554 67.402C316.463 69.2745 314.906 70.7377 313.031 70.7116L304.087 70.5858C303.513 70.5777 302.943 70.4924 302.392 70.3319C299.011 69.3469 297.069 65.8072 298.053 62.4258L307.884 28.6831H309.048L309.053 28.6768L310.416 28.6831H315.522L315.523 28.7075L327.649 28.766C326.249 35.2055 324.991 39.5086 323.877 41.675C323.081 43.2223 322.07 44.6043 320.845 45.82ZM362.044 28.6831C363.18 33.5191 361.418 35.9376 356.745 35.9376C352.067 35.9376 345.058 33.5191 335.713 28.6831H362.044Z" fill="#263E4B"/>
<path fill-rule="evenodd" clip-rule="evenodd" d="M254.76 197.044L294.118 161.975C299.847 156.87 307.28 154.093 314.954 154.193L359.771 154.769C365.893 154.848 370.896 159.676 371.191 165.791C371.475 171.579 367.012 176.499 361.22 176.78C361.093 176.786 360.959 176.79 360.826 176.792L322.885 177.207C320.563 177.232 318.702 179.135 318.727 181.456C318.727 181.457 318.727 181.459 318.727 181.46C318.756 183.81 320.635 185.719 322.984 185.783L362.148 186.856C367.487 187.003 371.742 191.356 371.771 196.695C371.8 201.955 367.556 206.242 362.298 206.27C362.281 206.27 362.264 206.27 362.246 206.27H324.914C322.618 206.27 320.756 208.132 320.756 210.428C320.756 210.445 320.756 210.461 320.756 210.478C320.787 213.003 322.397 215.237 324.782 216.066L348.687 224.364C352.826 225.8 355.012 230.318 353.574 234.454C353.51 234.638 353.441 234.819 353.365 234.998C351.452 239.429 346.467 241.659 341.887 240.131L303.025 227.163L282.001 241.195C271.218 248.391 256.643 245.484 249.447 234.701C248.77 233.688 248.174 232.623 247.663 231.515C245.831 227.552 245.26 221.874 245.949 214.48C246.575 207.762 249.723 201.532 254.76 197.044Z" fill="white"/>
<path d="M253.195 238.258L260.526 233.54C258.01 231.135 255.979 228.181 254.263 224.746C251.777 219.767 252.594 210.247 256.669 196.124L255.28 197.361C250.317 201.783 247.215 207.926 246.601 214.548C245.923 221.858 246.487 227.456 248.279 231.333C248.778 232.414 249.36 233.454 250.02 234.445C250.959 235.854 252.025 237.127 253.195 238.258ZM253.853 238.869C261.493 245.699 273.049 246.794 281.968 240.841L283.996 239.487C275.937 240.944 269.381 239.755 264.127 236.38C263.08 235.707 262.103 234.962 261.187 234.149L253.853 238.869ZM257.132 194.546C257.133 194.544 257.133 194.541 257.134 194.538C257.184 194.373 257.323 194.258 257.483 194.233L294.054 161.647C299.863 156.471 307.395 153.657 315.171 153.757L360.008 154.334C366.35 154.416 371.539 159.425 371.846 165.77C372.142 171.797 367.498 176.921 361.475 177.214C361.342 177.221 361.203 177.225 361.064 177.227L323.106 177.642C321.028 177.665 319.362 179.37 319.384 181.451V181.455C319.41 183.572 321.1 185.29 323.214 185.348L362.391 186.421C367.956 186.574 372.397 191.119 372.426 196.692C372.455 202.194 368.026 206.676 362.53 206.705H362.478H325.131C323.077 206.705 321.413 208.372 321.413 210.428C321.413 210.45 321.413 210.45 321.413 210.472C321.441 212.814 322.933 214.886 325.142 215.653L349.058 223.955C353.417 225.468 355.724 230.23 354.211 234.592C354.142 234.787 354.066 234.98 353.985 235.17C351.979 239.81 346.768 242.145 341.98 240.546L303.311 227.643L282.45 241.566C271.464 248.898 256.621 245.926 249.297 234.927C248.612 233.9 248.008 232.82 247.49 231.698C245.624 227.658 245.044 221.917 245.735 214.468C246.37 207.625 249.575 201.279 254.702 196.711L257.132 194.546ZM257.895 195.032C253.543 209.69 252.609 219.487 255.041 224.357C257.444 229.169 260.472 232.996 264.597 235.647C269.967 239.097 276.766 240.181 285.285 238.344C285.404 238.319 285.522 238.344 285.616 238.407L303.182 226.683L342.252 239.721C346.611 241.176 351.365 239.05 353.185 234.825C353.261 234.654 353.33 234.482 353.388 234.307C354.745 230.399 352.675 226.133 348.774 224.777L324.858 216.475C322.302 215.588 320.576 213.191 320.544 210.483C320.544 210.456 320.544 210.456 320.544 210.428C320.544 207.891 322.597 205.835 325.131 205.835H362.478L362.524 205.835C367.539 205.809 371.585 201.717 371.556 196.697C371.533 191.594 367.464 187.431 362.368 187.292L323.19 186.218C320.61 186.147 318.546 184.049 318.515 181.465V181.46C318.487 178.899 320.538 176.799 323.097 176.771L361.058 176.356C361.18 176.355 361.307 176.351 361.435 176.345C366.977 176.075 371.249 171.359 370.977 165.812C370.693 159.927 365.881 155.28 359.997 155.205L315.16 154.627C307.601 154.53 300.279 157.266 294.632 162.297L257.895 195.032Z" fill="#263E4B"/>
<path fill-rule="evenodd" clip-rule="evenodd" d="M450.931 164.901L450.936 166.081C450.965 172.099 455.847 176.962 461.87 176.962H470.113C463.302 177.487 458.855 179.711 456.78 183.637C453.516 189.819 455.881 197.477 462.067 200.743C463.887 201.705 465.916 202.208 467.974 202.208H471.563L470.583 202.689C463.69 206.074 460.838 214.408 464.223 221.305C464.426 221.721 464.652 222.127 464.896 222.52C468.194 227.11 474.589 228.16 479.174 224.864C479.481 224.644 479.777 224.407 480.055 224.154L486.455 218.389C489.992 215.205 491.65 210.437 490.861 205.747C490.809 205.405 490.751 205.096 490.693 204.819C490.363 203.128 489.203 200.613 487.215 197.275C488.571 194.567 488.954 191.278 488.374 187.409C487.795 183.54 486.154 180.154 483.447 177.253C484.768 173.875 484.96 170.103 484.026 165.936C483.661 164.286 483.151 162.88 482.496 161.717C481.302 159.585 479.145 158.166 476.71 157.911L460.531 156.212C455.754 155.711 451.476 159.176 450.977 163.953C450.942 164.267 450.931 164.584 450.931 164.901Z" fill="white"/>
<path d="M471.684 201.482L487.098 196.625C488.339 194.034 488.693 190.89 488.136 187.183C487.568 183.412 485.974 180.115 483.342 177.283V177.397L469.98 177.135C463.504 177.698 459.313 179.844 457.354 183.549C454.206 189.516 456.478 196.911 462.443 200.065C464.2 200.996 466.159 201.482 468.148 201.482H471.684ZM471.916 202.323L470.954 202.793C464.287 206.067 461.528 214.134 464.797 220.813C465 221.219 465.214 221.615 465.441 221.975C468.6 226.375 474.722 227.378 479.116 224.216C479.406 224.007 479.684 223.782 479.951 223.542L486.345 217.782C489.777 214.693 491.388 210.062 490.617 205.508C490.565 205.178 490.507 204.88 490.455 204.613C490.148 203.032 489.064 200.654 487.209 197.503L471.916 202.323ZM470.304 176.271L483.336 176.527C484.525 173.304 484.681 169.712 483.794 165.741C483.435 164.131 482.936 162.766 482.31 161.644C481.18 159.633 479.151 158.294 476.855 158.054L460.675 156.355C456.136 155.878 452.072 159.174 451.597 163.717C451.568 164.017 451.551 164.317 451.551 164.618L451.557 165.788C451.586 171.567 456.27 176.237 462.043 176.237H470.304V176.271ZM456.588 183.142C458.136 180.213 460.936 178.204 464.971 177.108H462.043C455.794 177.108 450.716 172.05 450.687 165.792L450.681 164.622C450.681 164.29 450.699 163.957 450.733 163.626C451.261 158.606 455.754 154.963 460.768 155.489L476.948 157.188C479.522 157.458 481.8 158.96 483.07 161.218C483.742 162.419 484.264 163.863 484.641 165.551C485.568 169.694 485.4 173.469 484.142 176.865C486.797 179.787 488.414 183.186 488.994 187.054C489.574 190.905 489.209 194.212 487.898 196.964C489.835 200.242 490.971 202.727 491.313 204.444C491.365 204.72 491.423 205.026 491.475 205.363C492.293 210.211 490.577 215.14 486.925 218.429L480.536 224.189C480.246 224.45 479.939 224.695 479.626 224.923C474.838 228.366 468.171 227.274 464.716 222.459C464.461 222.05 464.229 221.629 464.02 221.196C460.646 214.308 463.296 206.032 469.922 202.353H468.148C466.014 202.353 463.916 201.832 462.032 200.835C455.649 197.455 453.209 189.534 456.588 183.142ZM462.032 158.672C462.27 158.669 462.467 158.861 462.472 159.101C462.472 159.342 462.281 159.539 462.043 159.542C458.838 159.588 457.417 161.505 457.69 165.52C457.968 169.554 459.394 171.364 462.009 171.181C462.252 171.164 462.455 171.345 462.472 171.585C462.49 171.825 462.31 172.033 462.072 172.05C458.89 172.272 457.128 170.039 456.826 165.58C456.519 161.103 458.281 158.725 462.032 158.672ZM466.188 183.493C466.426 183.473 466.635 183.651 466.658 183.89C466.675 184.13 466.501 184.341 466.258 184.36C463.064 184.629 461.783 186.641 462.333 190.628C462.89 194.632 464.443 196.338 467.041 195.973C467.278 195.939 467.498 196.105 467.527 196.344C467.562 196.582 467.394 196.802 467.156 196.835C464.003 197.279 462.09 195.174 461.475 190.747C460.855 186.303 462.449 183.808 466.188 183.493ZM472.281 208.876C472.519 208.826 472.745 208.978 472.797 209.213C472.843 209.448 472.693 209.679 472.461 209.728C469.325 210.384 468.293 212.537 469.33 216.426C470.368 220.333 472.113 221.837 474.646 221.159C474.878 221.097 475.116 221.235 475.18 221.467C475.243 221.699 475.104 221.938 474.872 222C471.794 222.825 469.638 220.968 468.49 216.65C467.33 212.315 468.612 209.643 472.281 208.876Z" fill="#263E4B"/>
<path fill-rule="evenodd" clip-rule="evenodd" d="M95.6496 286.761L109.724 433.752H116.971L110.069 285.345C109.888 281.452 106.585 278.441 102.69 278.622C102.571 278.628 102.452 278.636 102.333 278.648C98.2491 279.046 95.2583 282.676 95.6496 286.761Z" fill="white"/>
<path d="M95.217 286.529L109.329 433.912H117.427L110.504 285.051C110.312 280.918 106.805 277.722 102.67 277.914C102.544 277.92 102.418 277.929 102.291 277.941C97.9683 278.363 94.8031 282.205 95.217 286.529ZM110.12 433.043L96.0831 286.446C95.7144 282.6 98.5301 279.182 102.376 278.807C102.487 278.796 102.599 278.788 102.711 278.782C106.365 278.613 109.466 281.438 109.636 285.092L116.516 433.043H110.12Z" fill="#263E4B"/>
<path d="M106.173 437.995C106.082 438.217 105.828 438.324 105.606 438.233C105.383 438.142 105.277 437.888 105.368 437.666C111.104 423.641 114.444 413.84 115.383 408.289C115.423 408.053 115.648 407.893 115.884 407.933C116.121 407.973 116.281 408.198 116.241 408.435C115.287 414.067 111.932 423.912 106.173 437.995ZM115.064 388.921C115.141 389.148 115.018 389.395 114.791 389.471C114.563 389.548 114.317 389.425 114.24 389.197C111.687 381.584 106.529 375.089 98.7526 369.707C98.5555 369.57 98.5062 369.299 98.6424 369.101C98.7793 368.904 99.05 368.855 99.2477 368.991C107.172 374.476 112.449 381.122 115.064 388.921ZM108.827 419.75C108.728 419.969 108.47 420.066 108.252 419.967C108.033 419.868 107.936 419.61 108.035 419.391C108.811 417.68 109.33 416.286 109.593 415.215C113.201 400.501 110.964 389.748 104.575 382.106C104.421 381.922 104.445 381.647 104.63 381.493C104.814 381.34 105.088 381.364 105.242 381.548C111.813 389.409 114.11 400.446 110.437 415.422C110.16 416.553 109.623 417.994 108.827 419.75ZM98.5781 279.575C98.5479 279.337 98.7161 279.119 98.9543 279.089C99.1926 279.058 99.4106 279.227 99.4407 279.465C103.208 309 117.347 324.62 141.919 326.453C142.158 326.471 142.338 326.68 142.32 326.919C142.302 327.159 142.093 327.338 141.854 327.32C116.841 325.454 102.395 309.496 98.5781 279.575ZM104.944 279.127C104.921 278.889 105.097 278.676 105.336 278.654C105.575 278.631 105.787 278.806 105.81 279.046C108.28 305.053 120.036 318.611 141.158 320.165C141.398 320.183 141.578 320.391 141.56 320.631C141.543 320.871 141.334 321.05 141.095 321.032C119.517 319.445 107.451 305.53 104.944 279.127Z" fill="#263E4B"/>
<path fill-rule="evenodd" clip-rule="evenodd" d="M336.391 48.4146C335.273 48.4146 334.362 47.3751 334.362 46.0934C334.362 44.8111 335.273 43.7717 336.391 43.7717C337.51 43.7717 338.42 44.8111 338.42 46.0934C338.42 47.3751 337.51 48.4146 336.391 48.4146ZM354.362 48.4146C353.244 48.4146 352.333 47.3751 352.333 46.0934C352.333 44.8111 353.244 43.7717 354.362 43.7717C355.481 43.7717 356.391 44.8111 356.391 46.0934C356.391 47.3751 355.481 48.4146 354.362 48.4146ZM332.374 44.0534C332.217 44.2366 331.945 44.2592 331.765 44.1038C331.58 43.9485 331.557 43.6743 331.713 43.4905C331.783 43.4088 331.904 43.2725 332.078 43.1004C332.368 42.8151 332.687 42.5299 333.041 42.2633C334.072 41.4865 335.151 41.0151 336.241 41.0151C337.817 41.0151 338.675 41.392 339.545 42.3479C339.684 42.4986 339.823 42.6633 340.009 42.8893C340.061 42.9554 340.391 43.3693 340.496 43.4969C340.646 43.6835 340.617 43.9578 340.432 44.1096C340.246 44.2609 339.974 44.2331 339.823 44.047C339.719 43.916 339.383 43.5015 339.33 43.4378C339.157 43.2238 339.029 43.0702 338.907 42.934C338.2 42.1601 337.574 41.8859 336.241 41.8859C335.377 41.8859 334.461 42.2853 333.568 42.9589C333.244 43.2001 332.954 43.4592 332.693 43.7183C332.536 43.872 332.426 43.9896 332.374 44.0534ZM350.936 44.0412C350.786 44.2302 350.513 44.2627 350.328 44.1143C350.136 43.9653 350.101 43.6917 350.252 43.5027C350.316 43.4209 350.432 43.2847 350.594 43.112C350.861 42.8262 351.162 42.5404 351.493 42.2731C352.455 41.4905 353.464 41.0151 354.49 41.0151C355.968 41.0151 356.786 41.3977 357.597 42.3595C357.725 42.5108 357.852 42.6754 358.02 42.9015C358.073 42.9676 358.38 43.3815 358.478 43.5091C358.623 43.7009 358.583 43.974 358.391 44.1189C358.2 44.2638 357.928 44.2262 357.783 44.0343C357.684 43.9038 357.377 43.4888 357.33 43.425C357.168 43.2117 357.046 43.058 356.93 42.9218C356.281 42.1543 355.713 41.8859 354.49 41.8859C353.701 41.8859 352.861 42.2806 352.038 42.9491C351.742 43.1896 351.47 43.4482 351.232 43.7067C351.087 43.8604 350.988 43.9775 350.936 44.0412ZM347.887 52.0418H351.307L347.481 42.1885C347.394 41.9647 347.504 41.7125 347.725 41.625C347.951 41.538 348.2 41.6488 348.287 41.8731L352.345 52.3195C352.461 52.6047 352.246 52.9125 351.945 52.9125H347.887C347.643 52.9125 347.452 52.7178 347.452 52.4772C347.452 52.2366 347.643 52.0418 347.887 52.0418ZM345.771 58.0841C345.557 58.1978 345.296 58.1178 345.18 57.9062C345.07 57.694 345.151 57.4302 345.359 57.3166C346.936 56.472 348.449 56.472 349.852 57.3293C350.055 57.4546 350.119 57.7224 349.997 57.9276C349.87 58.1328 349.603 58.1972 349.394 58.0714C348.27 57.3809 347.081 57.3809 345.771 58.0841Z" fill="#263E4B"/>
<path fill-rule="evenodd" clip-rule="evenodd" d="M25.9565 313.03L49.145 384.704L163.638 369.324V285.464L50.531 308.11L49.145 317.963L41.727 309.873L25.9565 313.03Z" fill="white"/>
<path d="M42.0477 309.314C41.9451 309.201 41.7909 309.151 41.6419 309.181L25.8714 312.339C25.6164 312.39 25.4627 312.652 25.5427 312.899L48.7312 384.572C48.7961 384.772 48.9949 384.898 49.203 384.869L163.696 369.49C163.911 369.461 164.073 369.277 164.073 369.059V285.198C164.073 284.924 163.822 284.718 163.553 284.772L50.4459 307.418C50.2645 307.455 50.1259 307.601 50.1004 307.784L48.843 316.725L42.0477 309.314ZM41.5723 310.082L48.8245 317.992C49.0732 318.263 49.5242 318.123 49.5758 317.758L50.9184 308.211L163.203 285.729V368.679L49.4471 383.959L26.5207 313.095L41.5723 310.082Z" fill="#263E4B"/>
<path fill-rule="evenodd" clip-rule="evenodd" d="M0.449219 512.542H39C54.1849 472.982 68.1263 448.281 80.8249 438.439C81.575 437.858 77.102 431.414 67.4058 419.107C73.691 424.083 78.0388 427.275 80.4492 428.683C81.5843 429.346 81.6811 419.868 80.7391 400.246L91.1182 431.699C95.0701 429.713 98.0834 428.32 100.159 427.523C129.338 416.302 153.3 444.64 172.043 512.542H563.928" fill="white"/>
<path d="M80.2303 428.92C80.6436 429.162 81.017 428.938 81.2205 428.502C81.3526 428.22 81.4541 427.791 81.537 427.201C81.6941 426.076 81.7839 424.324 81.8083 421.937C81.8512 417.714 81.6889 411.488 81.3207 403.257L90.7057 431.697C90.7892 431.949 91.0767 432.069 91.3138 431.949C95.2535 429.969 98.2558 428.582 100.316 427.79C129.151 416.702 152.941 444.838 171.625 512.519C171.677 512.71 171.848 512.837 172.044 512.837H563.928C564.165 512.837 564.363 512.646 564.363 512.403C564.363 512.165 564.165 511.968 563.928 511.968H172.375C153.583 444.078 129.48 415.644 100.004 426.978C97.9915 427.752 95.1167 429.074 91.3735 430.946L81.152 399.971C80.9938 399.491 80.2807 399.623 80.3051 400.129C80.7758 409.931 80.9868 417.199 80.9387 421.929C80.9144 424.281 80.8263 426.001 80.6755 427.08C80.6135 427.523 80.5416 427.85 80.4674 428.05C78.0413 426.598 73.7724 423.454 67.6755 418.628C67.2715 418.308 66.7451 418.833 67.0645 419.238C71.9074 425.385 75.4454 430.066 77.6755 433.28C78.7845 434.877 79.5683 436.109 80.0239 436.969C80.2431 437.382 80.3822 437.703 80.4419 437.922C80.4535 437.964 80.461 438 80.4657 438.029C67.7399 447.956 53.8349 472.594 38.7016 511.968H0.449431C0.209431 511.968 0.0146484 512.165 0.0146484 512.403C0.0146484 512.646 0.209431 512.837 0.449431 512.837H39.0002C39.1804 512.837 39.3416 512.727 39.406 512.559C54.5636 473.069 68.4749 448.42 81.0912 438.644C81.8042 438.092 80.9312 436.445 78.3897 432.784C76.5045 430.068 73.6975 426.318 69.9683 421.533C74.7619 425.261 78.1793 427.722 80.2303 428.92Z" fill="#263E4B"/>
<path d="M340.872 0.971191H324.403C317.006 0.971191 310.999 6.93815 310.926 14.3271L301.15 28.435C300.95 28.7237 301.156 29.1184 301.507 29.1184H367.597C367.98 29.1184 368.171 28.657 367.91 28.3811L353.765 13.7068C353.672 6.65699 347.933 0.971191 340.872 0.971191ZM311.718 14.7127C311.768 14.6396 311.795 14.5532 311.795 14.4645C311.795 7.49293 317.44 1.84192 324.403 1.84192H340.872C347.516 1.84192 352.901 7.23322 352.901 13.8842C352.901 13.9967 352.942 14.1051 353.023 14.1863L366.571 28.2477H302.338L311.718 14.7127Z" fill="#263E4B"/>
<path fill-rule="evenodd" clip-rule="evenodd" d="M353.157 14.1738L311.174 14.7541L308.275 19.1072H357.841L353.157 14.1738Z" fill="#5AA2E8"/>
<path d="M353.441 13.4488L311.458 14.0291C311.315 14.0314 311.182 14.1039 311.102 14.2227L308.204 18.5758C308.011 18.865 308.218 19.2523 308.565 19.2523H358.131C358.513 19.2523 358.71 18.7943 358.444 18.5172L353.76 13.5838C353.678 13.4963 353.562 13.447 353.441 13.4488ZM357.116 18.3815H309.378L311.699 14.8963L353.261 14.3218L357.116 18.3815Z" fill="#263E4B"/>
<path fill-rule="evenodd" clip-rule="evenodd" d="M235.522 501.087L230.594 524.884H249.725H323.928C319.648 515.841 314.624 509.557 308.855 506.02C303.086 502.49 292.555 500.844 277.261 501.087L285.087 460.467L238.13 460.757L237.551 491.22L235.522 501.087Z" fill="white"/>
<path fill-rule="evenodd" clip-rule="evenodd" d="M361.609 497.608V525.174L373.203 524.884H447.406C443.127 515.84 438.101 509.556 432.333 506.02C426.565 502.49 416.032 500.843 400.739 501.087L407.985 461.116L357.261 460.756L361.029 491.22L361.609 497.608Z" fill="white"/>
<path fill-rule="evenodd" clip-rule="evenodd" d="M237.551 491.516C241.989 492.229 245.468 495.034 247.986 499.927C250.504 504.82 251.857 511.394 252.044 519.661L231.754 519.371" fill="#5AA2E8"/>
<path fill-rule="evenodd" clip-rule="evenodd" d="M361.609 491.516C369.528 493.394 374.745 496.779 377.261 501.666C379.777 506.559 380.936 512.559 380.739 519.661L361.609 519.371V491.516Z" fill="#5AA2E8"/>
<path d="M251.97 460.525L255.197 438.265H248.276V437.395H255.323L257.048 425.497H250.884V424.628H284.508V425.497H277.768L275.563 437.395H281.899V438.265H275.402L271.3 460.403L285.614 460.316L279.203 493.597L281.417 487.528C281.51 487.273 281.626 487.023 281.763 486.791C283.021 484.652 285.776 483.933 287.918 485.191C288.279 485.4 288.604 485.667 288.881 485.98C290.335 487.626 290.183 490.131 288.541 491.586L278.236 500.716C280.175 500.229 284.938 499.006 291.934 497.186C292.167 497.128 292.404 497.267 292.465 497.499C292.525 497.731 292.386 497.968 292.153 498.026C287.057 499.354 283.381 500.304 280.955 500.925C294.338 500.983 303.707 502.646 309.083 505.939C314.932 509.528 320.008 515.875 324.321 524.989L324.615 525.609H230.061L235.096 501.29L237.117 491.464L237.704 460.612L251.97 460.525ZM252.849 460.519L261.258 460.467L264.655 438.265H256.076L252.849 460.519ZM262.138 460.461L270.415 460.409L274.517 438.265H265.535L262.138 460.461ZM277.629 501.806C277.592 501.817 277.554 501.817 277.515 501.817L267.709 502.101C267.469 502.113 267.268 501.922 267.261 501.684C267.254 501.441 267.443 501.244 267.683 501.232L276.441 500.977L265.839 491.586C264.197 490.131 264.044 487.626 265.498 485.98C265.775 485.667 266.101 485.4 266.461 485.191C268.603 483.933 271.359 484.652 272.616 486.791C272.753 487.023 272.869 487.273 272.962 487.528L277.19 499.122L277.325 498.745L284.56 461.191L238.557 461.475L237.992 491.186C247.018 493.87 252.192 503.157 252.472 518.936H320.085C316.662 513.348 312.841 509.261 308.628 506.681C302.993 503.232 292.651 501.597 277.629 501.806ZM278.166 498.977L278.019 499.742L287.964 490.936C289.247 489.8 289.365 487.841 288.23 486.56C288.013 486.316 287.76 486.107 287.478 485.939C285.75 484.925 283.527 485.504 282.513 487.232C282.403 487.423 282.309 487.62 282.234 487.823L278.166 498.977ZM320.607 519.806H232.15L231.128 524.739H323.237C322.389 522.988 321.513 521.342 320.607 519.806ZM232.33 518.936H251.603C251.327 503.591 246.382 494.67 237.882 492.061L235.948 501.47L232.33 518.936ZM272.145 487.823C272.07 487.62 271.977 487.423 271.866 487.232C270.852 485.504 268.629 484.925 266.901 485.939C266.619 486.107 266.366 486.316 266.149 486.56C265.014 487.841 265.132 489.8 266.415 490.936L276.554 499.916L272.145 487.823ZM276.883 425.497H267.49L265.668 437.395H274.679L276.883 425.497ZM266.61 425.497H257.927L256.202 437.395H264.789L266.61 425.497Z" fill="#263E4B"/>
<path fill-rule="evenodd" clip-rule="evenodd" d="M233.782 150.846H224.217L234.652 134.307" fill="#5AA2E8"/>
<path d="M367.452 460.38L364.24 438.265H358.71V437.395H364.119L362.391 425.497H356.971V424.628H392.043V425.497H384.553L385.754 437.395H392.333V438.265H385.84L388.078 460.496L408.501 460.612L401.887 498.948L406.055 487.528C406.148 487.273 406.264 487.023 406.403 486.791C407.655 484.652 410.414 483.933 412.554 485.191C412.919 485.4 413.243 485.667 413.516 485.98C414.971 487.626 414.82 490.131 413.18 491.586L403.336 500.304C405.788 499.684 409.91 498.617 415.412 497.186C415.643 497.128 415.881 497.267 415.945 497.499C416.003 497.731 415.864 497.968 415.632 498.026C410.536 499.354 406.861 500.304 404.438 500.919C417.974 500.96 427.435 502.623 432.849 505.939C438.698 509.528 443.777 515.875 448.09 524.989L448.38 525.609H361.18L361.174 525.18L360.89 491.568L356.762 460.316L367.452 460.38ZM368.327 460.386L377.058 460.432L375.098 438.265H365.122L368.327 460.386ZM377.933 460.438L387.203 460.49L384.965 438.265H375.968L377.933 460.438ZM361.696 491.087C374.293 493.626 380.791 502.954 381.168 518.936H443.852C440.432 513.348 436.611 509.261 432.397 506.681C426.78 503.244 416.496 501.609 401.562 501.806C401.504 501.817 401.446 501.817 401.388 501.806C401.284 501.812 401.18 501.812 401.075 501.812C401.052 501.817 401.023 501.817 400.994 501.817L391.185 502.101C390.948 502.113 390.745 501.922 390.739 501.684C390.733 501.441 390.919 501.244 391.162 501.232L399.922 500.977L389.319 491.586C387.672 490.131 387.522 487.626 388.977 485.98C389.255 485.667 389.58 485.4 389.939 485.191C392.084 483.933 394.838 484.652 396.096 486.791C396.229 487.023 396.345 487.273 396.438 487.528L400.878 499.696L407.469 461.475L357.759 461.191L361.696 491.087ZM361.759 491.986L361.991 518.936H380.293C379.927 503.441 373.759 494.502 361.759 491.986ZM444.374 519.806H361.997L362.038 524.739H447.006C446.159 522.988 445.278 521.342 444.374 519.806ZM395.626 487.823C395.551 487.62 395.452 487.423 395.342 487.232C394.327 485.504 392.107 484.925 390.38 485.939C390.096 486.107 389.846 486.316 389.626 486.56C388.49 487.841 388.612 489.8 389.893 490.936L400.032 499.916L395.626 487.823ZM406.872 487.823L402.461 499.916L412.6 490.936C413.887 489.8 414.003 487.841 412.867 486.56C412.652 486.316 412.397 486.107 412.113 485.939C410.385 484.925 408.165 485.504 407.151 487.232C407.041 487.423 406.948 487.62 406.872 487.823ZM383.678 425.497H374.838L375.893 437.395H384.878L383.678 425.497ZM373.962 425.497H363.272L364.994 437.395H375.017L373.962 425.497Z" fill="#263E4B"/>
<path d="M84.599 344.07L85.4546 349.471L80.4842 350.259L81.1259 354.31L74.7364 355.322L74.0946 351.271L56.5578 354.048L55.7021 348.647L70.7961 330.445L77.1862 329.433L79.6291 344.857L84.599 344.07ZM62.5891 347.556L73.239 345.869L71.8094 336.842L62.5891 347.556ZM102.376 351.309C92.5068 352.872 87.1004 349.065 85.7891 340.784C84.483 332.539 88.454 327.284 98.323 325.721C108.156 324.164 113.598 327.965 114.899 336.174C116.204 344.419 112.209 349.751 102.376 351.309ZM101.526 345.942C107.135 345.054 109.246 341.842 108.509 337.186C107.777 332.566 104.782 330.199 99.1729 331.087C93.5642 331.976 91.4413 335.117 92.1787 339.772C92.9219 344.463 95.9167 346.831 101.526 345.942ZM146.368 334.287L147.223 339.688L142.253 340.476L142.895 344.527L136.506 345.539L135.864 341.488L118.327 344.265L117.471 338.863L132.565 320.662L138.955 319.649L141.398 335.073L146.368 334.287ZM124.358 337.772L135.008 336.085L133.579 327.059L124.358 337.772Z" fill="#5AA2E8"/>
<path d="M85.2378 343.287L86.2297 349.548L81.2598 350.335L81.9016 354.386L74.6529 355.534L74.0111 351.483L56.4743 354.26L55.5195 348.235L70.8436 329.756L77.8251 328.65L80.268 344.074L85.2378 343.287ZM79.5451 345.069L77.1022 329.645L71.3039 330.563L56.4401 348.487L57.1972 353.265L74.734 350.488L75.3752 354.54L80.9062 353.663L80.2651 349.612L85.2349 348.825L84.5155 344.282L79.5451 345.069ZM61.7642 347.885L72.3694 335.562L74.014 345.945L61.7642 347.885ZM73.0193 345.222L71.8042 337.552L63.9694 346.656L73.0193 345.222ZM102.721 351.453C92.8001 353.024 87.0129 349.253 85.6372 340.568C84.2679 331.921 88.6071 326.578 98.5329 325.006C108.421 323.44 114.242 327.208 115.606 335.821C116.976 344.473 112.606 349.887 102.721 351.453ZM102.586 350.594C112.014 349.101 116.039 344.114 114.747 335.956C113.462 327.841 108.102 324.371 98.6685 325.865C89.1984 327.365 85.2054 332.281 86.4964 340.431C87.7938 348.623 93.1196 352.093 102.586 350.594ZM101.871 346.086C96.2036 346.984 92.8349 344.654 92.0274 339.555C91.2256 334.496 93.712 331.271 99.3827 330.373C105.04 329.476 108.418 331.796 109.216 336.833C110.02 341.909 107.527 345.191 101.871 346.086ZM101.735 345.228C106.924 344.406 109.084 341.562 108.357 336.969C107.636 332.417 104.711 330.409 99.5184 331.231C94.312 332.056 92.1619 334.846 92.8859 339.419C93.6169 344.035 96.5335 346.052 101.735 345.228ZM147.007 333.504L147.999 339.765L143.029 340.551L143.67 344.603L136.422 345.751L135.78 341.7L118.244 344.477L117.289 338.452L132.613 319.973L139.594 318.867L142.037 334.291L147.007 333.504ZM141.314 335.286L138.871 319.862L133.073 320.78L118.209 338.704L118.966 343.482L136.503 340.705L137.144 344.756L142.676 343.88L142.034 339.829L147.004 339.042L146.284 334.499L141.314 335.286ZM123.533 338.102L134.139 325.779L135.783 336.162L123.533 338.102ZM134.789 335.439L133.573 327.768L125.739 336.872L134.789 335.439Z" fill="#263E4B"/>
<path d="M234.539 133.84C234.592 133.643 234.637 133.458 234.674 133.288L235.149 123.254C235.937 106.619 249.639 93.5371 266.274 93.5371H299V94.4078H266.274C250.103 94.4078 236.784 107.124 236.018 123.295L235.88 126.212C237.417 120.312 240.381 115.033 244.775 110.499C251.4 103.666 259.604 107.072 269.208 120.414C269.349 120.609 269.305 120.881 269.11 121.022C268.915 121.163 268.643 121.118 268.503 120.923C259.169 107.956 251.528 104.785 245.399 111.106C239.632 117.055 236.393 124.31 235.665 132.604C235.645 132.835 235.603 133.1 235.539 133.402L234.217 161.314L233.349 161.273L233.836 150.992H224.508C224.165 150.992 223.957 150.614 224.14 150.324L234.539 133.84ZM233.877 150.121L234.573 135.417L225.297 150.121H233.877Z" fill="#263E4B"/>
<path d="M362.861 172.799C362.623 172.79 362.432 172.588 362.443 172.348C362.449 172.107 362.652 171.92 362.896 171.929C366.096 172.052 367.62 170.212 367.551 166.187C367.487 162.145 366.159 160.263 363.539 160.308C363.296 160.313 363.099 160.121 363.093 159.881C363.093 159.641 363.284 159.442 363.522 159.438C366.71 159.383 368.351 161.705 368.42 166.173C368.496 170.66 366.606 172.943 362.861 172.799ZM361.933 203.417C361.696 203.395 361.516 203.184 361.539 202.944C361.562 202.705 361.771 202.528 362.014 202.55C365.203 202.84 366.82 201.082 366.965 197.06C367.11 193.02 365.881 191.07 363.261 190.979C363.023 190.971 362.832 190.769 362.844 190.529C362.849 190.288 363.052 190.1 363.29 190.109C366.478 190.22 367.997 192.625 367.835 197.091C367.672 201.576 365.667 203.756 361.933 203.417ZM342.93 237.297C342.71 237.2 342.606 236.944 342.704 236.724C342.803 236.503 343.058 236.403 343.278 236.499C346.229 237.794 348.2 236.945 349.394 233.853C350.594 230.741 349.962 228.82 347.499 227.874C347.273 227.787 347.162 227.536 347.249 227.311C347.336 227.087 347.585 226.975 347.812 227.061C350.768 228.195 351.568 230.637 350.206 234.166C348.838 237.717 346.339 238.793 342.93 237.297ZM311.623 121.427L312.464 121.651C310.878 127.606 307.568 131.12 302.563 132.122L302.393 131.268C307.05 130.336 310.118 127.079 311.623 121.427Z" fill="#263E4B"/>
<path d="M262.928 132.968L264.087 137.32C264.149 137.553 264.387 137.691 264.619 137.629C264.851 137.567 264.989 137.329 264.927 137.096L263.768 132.744C263.706 132.511 263.468 132.373 263.236 132.435C263.004 132.497 262.866 132.736 262.928 132.968Z" fill="#263E4B"/>
<path d="M263.251 133.28L267.019 134.151C267.252 134.205 267.486 134.059 267.54 133.825C267.594 133.59 267.448 133.357 267.214 133.303L263.446 132.432C263.212 132.378 262.979 132.524 262.924 132.758C262.87 132.993 263.016 133.226 263.251 133.28Z" fill="#263E4B"/>
<path d="M426.867 136.035C423.939 132.496 418.844 132.122 414.641 134.889C413 135.967 411.812 137.502 411.25 139.257C409.835 143.678 415.389 154.976 427.916 173.435C428.05 173.633 428.322 173.685 428.519 173.55C428.716 173.415 428.768 173.144 428.635 172.945C416.31 154.787 410.792 143.551 412.079 139.522C412.577 137.961 413.644 136.586 415.116 135.616C418.971 133.079 423.568 133.417 426.2 136.591C426.351 136.776 426.629 136.802 426.809 136.648C426.994 136.495 427.023 136.22 426.867 136.035Z" fill="#263E4B"/>
</svg>
