<svg width="200" height="200" viewBox="0 0 200 200" fill="none" xmlns="http://www.w3.org/2000/svg">
<path opacity="0.2" d="M100 200C155.228 200 200 155.228 200 100C200 44.7715 155.228 0 100 0C44.7715 0 0 44.7715 0 100C0 155.228 44.7715 200 100 200Z" fill="#FFEBEB"/>
<path d="M100.176 178.25C143.352 178.25 178.353 143.272 178.353 100.125C178.353 56.9778 143.352 22 100.176 22C57.0007 22 22 56.9778 22 100.125C22 143.272 57.0007 178.25 100.176 178.25Z" fill="#DD2323"/>
<path d="M120.406 129.594L130.107 119.892L80.61 70.3949L70.9084 80.0964L120.406 129.594Z" fill="white"/>
<path d="M80.6119 129.607L130.109 80.1091L120.408 70.4076L70.9103 119.905L80.6119 129.607Z" fill="white"/>
</svg>
