<svg width="1067" height="800" viewBox="0 0 1067 800" fill="none" xmlns="http://www.w3.org/2000/svg">
<path fill-rule="evenodd" clip-rule="evenodd" d="M518.556 412.689C504.591 414.3 493.874 414.107 486.407 412.11C478.939 410.113 473.05 405.865 468.739 399.366C464.04 389.427 461.433 383.73 460.919 382.278C458.399 375.158 458.12 368.16 458.602 363.451C459.232 357.302 462.611 349.289 468.739 339.411C469.612 332.545 471.06 326.462 473.084 321.165C475.107 315.867 479.162 308.24 485.248 298.284L486.117 265.555C488.685 258.064 491.098 252.753 493.358 249.625C495.617 246.497 498.224 244.855 501.178 244.701C503.671 244.465 505.988 245.044 508.129 246.439C510.27 247.835 514.326 251.407 520.294 257.156C525.222 248.555 530.822 241.989 537.093 237.461C543.363 232.932 551.665 229.457 562 227.034L563.449 224.138L563.624 207.101L558.815 165.632H552.443L562.29 151.15C563.169 147.959 564.038 145.642 564.897 144.199C565.756 142.756 567.36 141.114 569.711 139.275C569.753 138.742 571.686 138.452 575.508 138.406C579.33 138.359 585.351 138.552 593.571 138.985C597.079 139.791 599.496 140.853 600.812 142.171C602.128 143.489 603.287 146.289 604.284 150.571L618.406 165.652L609.502 166.211L608.632 193.726C607.392 198.445 606.232 201.631 605.154 203.284C604.076 204.937 602.342 206.192 599.942 207.049L585.751 207.918L584.012 224.717L585.171 227.034C592.418 229.106 597.345 230.747 599.942 231.958C606.186 234.865 611.832 239.075 616.163 246.439C619.195 251.595 622.331 258.718 626.586 266.134C630.337 272.665 637.189 284.153 647.154 300.601L656.997 309.29L661.925 319.137L673.798 328.116L679.299 310.159C668.105 293.167 662.505 282.354 662.505 277.72C662.505 275.783 663.676 273.957 664.818 272.796C666.418 271.179 668.609 270.185 672.348 270.479C674.841 270.675 677.258 272.219 679.589 275.113L712.899 364.61C709.583 375.474 706.69 383.584 704.209 388.939C701.734 394.294 698.064 399.604 693.206 404.869C686.203 408.797 680.313 411.114 675.537 411.82C670.76 412.526 662.939 411.851 652.076 409.793C648.273 408.051 645.763 406.41 644.545 404.869C640.041 399.155 638.151 391.908 635.855 388.07C632.632 382.679 630.702 377.659 630.064 373.009L615.003 324.061L549.836 322.033L543.754 371.561C540.429 385.022 536.857 394.869 533.037 401.104C529.218 407.338 524.391 411.2 518.556 412.689Z" fill="white"/>
<path fill-rule="evenodd" clip-rule="evenodd" d="M523.043 423.359C521.864 423.146 520.994 423.041 520.435 423.044C518.287 423.052 516.534 422.942 515.507 421.305C514.079 419.027 514.465 416.321 516.667 413.189L522.754 411.16H525.652L546.812 412.029L553.478 411.16L576.956 410.29C579.468 411.449 580.336 413.671 579.565 416.957C578.792 420.241 576.667 422.27 573.188 423.044L566.232 423.359L519.275 638.667H489.13C494.291 604.847 498.445 579.405 501.594 562.353C504.743 545.3 511.893 498.969 523.043 423.359ZM596.667 423.359C596.62 422.675 594.783 422.569 591.159 423.044C588.069 421.498 586.812 419.082 587.391 415.797C587.971 412.512 589.42 410.773 591.739 410.58L596.087 411.16H609.42L622.754 412.029L637.536 410.58C642.174 410.966 644.493 413.092 644.493 416.957C644.493 419.153 643.751 420.294 642.754 421.305C642.249 421.816 641.281 422.396 639.855 423.044L635.217 423.359L647.101 638.957H615.797C611.583 600.186 608.875 573.008 607.681 557.42C606.261 538.854 598.22 446.572 596.667 423.359Z" fill="white"/>
<path fill-rule="evenodd" clip-rule="evenodd" d="M523.043 423.068H566.232L519.275 638.377H489.13C494.291 604.556 498.445 579.115 501.594 562.063C504.743 545.01 511.893 498.679 523.043 423.068ZM596.667 423.068H635.217L647.101 638.667H615.797C611.583 599.896 608.875 572.718 607.681 557.13C606.261 538.564 598.22 446.282 596.667 423.068Z" stroke="#263E4B" stroke-width="1.5"/>
<path fill-rule="evenodd" clip-rule="evenodd" d="M550 230.972L517.32 231.126C501.016 231.202 487.61 244.001 486.78 260.284L486.232 271.017C486.743 265.498 487.419 261.629 488.261 259.409C489.598 255.887 491.141 253.86 492.899 251.575C495.555 248.119 498.564 245.203 501.015 244.61C506.619 243.256 512.899 247.609 519.855 257.668C521.02 255.415 521.987 253.674 522.754 252.445C524.285 249.992 525.916 247.344 528.841 244.61C534.638 239.194 541.691 234.648 550 230.972Z" fill="#5AA2E8"/>
<path fill-rule="evenodd" clip-rule="evenodd" d="M523.333 410.591C526.315 411.679 531.919 412.162 540.145 412.042C544.625 411.976 552.688 410.639 559.565 410.301C563.401 410.112 569.198 410.112 576.957 410.301L583.623 392.6H590L592.029 410.301C598.812 410.725 603.641 411.015 606.522 411.172C612.713 411.507 617.861 411.752 621.884 411.752C628.713 411.752 633.733 411.268 636.957 410.301L622.174 327.601L553.478 330.212C552.58 342.806 549.296 356.637 543.623 371.707C542.415 374.919 542.221 378.979 541.015 383.024C539.176 389.188 537.151 395.151 534.928 399.274C532.819 403.186 528.954 406.958 523.333 410.591Z" fill="#5AA2E8"/>
<path d="M636.499 410.494L629.861 371.781C629.82 371.544 629.983 371.319 630.215 371.278C630.452 371.238 630.678 371.397 630.719 371.634L637.322 410.156H638.261C641.942 410.156 644.928 413.144 644.928 416.83C644.928 420.516 641.942 423.504 638.261 423.504H592.522C589.258 423.504 586.615 420.855 586.615 417.587C586.615 417.314 586.632 417.041 586.673 416.77L587.02 414.278C587.333 412.035 589.067 410.281 591.264 409.92L589.606 393.035H583.925L577.553 409.953C579.33 410.364 580.591 412.025 580.447 413.901C580.435 414.064 580.412 414.224 580.377 414.383L579.844 416.919C579.044 420.755 575.665 423.504 571.749 423.504H518.724C516.28 423.504 514.299 421.521 514.299 419.075C514.299 418.612 514.372 418.152 514.514 417.711C514.901 416.515 515.383 414.969 515.961 413.075C516.031 412.845 516.274 412.716 516.504 412.786C516.734 412.856 516.863 413.1 516.793 413.33C516.213 415.228 515.73 416.778 515.342 417.979C515.227 418.333 515.169 418.703 515.169 419.075C515.169 421.04 516.76 422.633 518.724 422.633H571.749C575.253 422.633 578.277 420.174 578.995 416.74L579.525 414.205C579.551 414.083 579.568 413.959 579.578 413.835C579.7 412.249 578.517 410.864 576.935 410.736C573.339 410.665 570.794 410.629 569.303 410.627C565.268 410.623 553.888 411.283 551.507 411.603C546.103 412.327 543.241 412.431 538.566 412.274C538.414 412.268 538.414 412.268 538.262 412.263C536.591 412.206 535.793 412.187 534.727 412.187C530.86 412.187 527.972 412.09 526.055 411.894C523.806 411.665 522.787 411.345 522.903 410.53L523.764 410.652C523.773 410.589 523.756 410.542 523.744 410.521C523.805 410.568 523.93 410.626 524.114 410.683C524.541 410.818 525.221 410.934 526.143 411.028C528.025 411.22 530.888 411.317 534.727 411.317C535.805 411.317 536.612 411.336 538.291 411.393C538.443 411.398 538.443 411.398 538.595 411.403C543.225 411.559 546.04 411.457 551.392 410.74C553.814 410.415 565.232 409.752 569.304 409.757C570.761 409.758 573.212 409.793 576.658 409.86L583.218 392.446C583.281 392.277 583.444 392.165 583.623 392.165H590H593.768C594.006 392.165 594.203 392.359 594.203 392.6C594.203 392.841 594.006 393.035 593.768 393.035H590.481L592.145 409.968C594.064 410.285 597.902 410.446 603.623 410.446C605.774 410.446 616.29 411.034 619.316 411.318C622.765 411.642 628.499 411.369 636.499 410.494ZM636.974 411.026L637.003 411.314C628.731 412.23 622.812 412.522 619.235 412.185C616.238 411.903 605.745 411.317 603.623 411.317C597.502 411.317 593.525 411.134 591.652 410.764L591.658 410.745C589.716 410.947 588.151 412.451 587.878 414.398L587.531 416.89C587.502 417.121 587.484 417.354 587.484 417.587C587.484 420.374 589.739 422.633 592.522 422.633H638.261C641.461 422.633 644.058 420.035 644.058 416.83C644.058 413.624 641.461 411.026 638.261 411.026H636.974Z" fill="#263E4B"/>
<path d="M586.353 207.903L584.666 225.737C598.406 230.413 607.194 234.472 611.055 237.952C616.069 242.464 628.916 268.544 635.495 285.659C637.484 290.828 640.568 294.102 648.046 300.162L648.672 300.671C656.185 306.757 659.252 310.043 661.136 315.266C664.035 323.329 669.843 325.266 678.8 321.112C679.02 321.011 679.281 321.106 679.38 321.324C679.478 321.542 679.385 321.801 679.165 321.902C669.768 326.26 663.403 324.134 660.313 315.561C658.51 310.538 655.519 307.336 648.127 301.348L647.495 300.838C639.901 294.685 636.748 291.33 634.684 285.972C628.162 269.006 615.339 242.98 610.475 238.599C606.695 235.197 597.878 231.136 584.064 226.452C583.872 226.387 583.75 226.199 583.768 225.998L585.484 207.903H580.435C580.197 207.903 580 207.708 580 207.468C580 207.228 580.197 207.032 580.435 207.032H585.953C585.959 207.032 585.959 207.032 585.965 207.032H595.617C601.6 207.032 605.072 204.598 606.887 199.676C608.342 195.721 608.695 191.15 608.695 181.379V174.724C608.695 174.631 608.695 174.557 608.695 174.387C608.701 171.152 608.551 169.288 607.855 166.445C607.843 166.428 607.82 166.408 607.797 166.383C607.727 166.315 607.635 166.227 607.513 166.118H566.062C565.822 166.118 565.627 165.923 565.627 165.683C565.627 165.442 565.822 165.248 566.062 165.248H607.681C607.785 165.248 607.89 165.286 607.971 165.357C608.481 165.812 608.637 165.965 608.684 166.159C609.414 169.128 609.571 171.059 609.565 174.388C609.565 174.558 609.565 174.632 609.565 174.724V181.379C609.565 191.26 609.206 195.889 607.698 199.977C605.762 205.24 601.965 207.903 595.617 207.903H586.353ZM713.351 364.04L714.185 364.286C706.904 389.048 699.165 403.482 690.887 407.614C677.849 414.119 661.913 414.619 648.939 408.249C647.223 407.407 645.878 406.231 644.51 404.424C643.536 403.136 642.58 401.586 641.043 398.894C640.643 398.191 639.113 395.48 638.887 395.083C637.924 393.388 637.095 391.946 636.214 390.442C635.003 388.383 633.281 383.837 631.037 376.772L631.861 376.508C634.087 383.51 635.797 388.017 636.962 390C637.849 391.508 638.684 392.955 639.646 394.653C639.872 395.052 641.397 397.761 641.797 398.463C643.316 401.123 644.261 402.649 645.206 403.899C646.493 405.603 647.739 406.689 649.322 407.467C662.046 413.714 677.698 413.223 690.498 406.835C698.487 402.849 706.133 388.576 713.351 364.04Z" fill="#263E4B"/>
<path fill-rule="evenodd" clip-rule="evenodd" d="M594.058 229.812L599.276 231.843C602.945 243.063 605.751 252.639 607.681 260.57C609.612 268.501 610.87 280.302 611.45 295.972L604.203 293.94C604.783 281.366 603.722 270.243 601.015 260.57C599.838 256.357 597.519 246.104 594.058 229.812ZM549.71 230.972L554.638 228.941C555.797 237.517 556.377 244.288 556.377 249.253C556.377 254.219 556.377 259.248 556.377 264.343L548.841 275.079C550 271.597 550.58 263.762 550.58 251.575C550.58 239.387 550.29 232.52 549.71 230.972Z" fill="#5AA2E8"/>
<path d="M593.925 229.902L593.757 229.114L599.913 231.512L599.977 231.707C603.652 242.938 606.458 252.524 608.394 260.467C610.336 268.433 611.594 280.259 612.174 295.956L612.197 296.552L604.041 294.266L604.058 293.921C604.638 281.39 603.577 270.313 600.887 260.688C599.705 256.463 597.386 246.205 593.925 229.902ZM601.722 260.453C604.418 270.084 605.49 281.138 604.945 293.615L611.281 295.392C610.696 280.046 609.449 268.47 607.548 260.674C605.629 252.8 602.852 243.3 599.218 232.174L594.939 230.51C598.307 246.335 600.568 256.321 601.722 260.453ZM549.593 231.125L549.445 230.731L555.283 228.324L555.358 228.883C556.521 237.477 557.102 244.266 557.102 249.253V264.48L547.779 277.762L548.718 274.942C549.858 271.52 550.435 263.714 550.435 251.575C550.435 239.484 550.144 232.597 549.593 231.125ZM551.305 251.575C551.305 261.637 550.911 268.742 550.116 272.92L556.232 264.205V249.253C556.232 244.419 555.679 237.853 554.572 229.559L550.528 231.226C551.053 233.405 551.305 240.131 551.305 251.575Z" fill="#263E4B"/>
<path d="M585.815 231.096L586.649 230.849L626.081 364.081C628.33 375.857 636.452 381.718 650.58 381.718C664.713 381.718 676.33 372.275 685.449 353.304L686.232 353.682C676.986 372.926 665.096 382.589 650.58 382.589C636.058 382.589 627.559 376.457 625.235 364.286L585.815 231.096ZM607.252 338.851L608.11 338.984C603.635 368.001 595.229 382.589 582.754 382.589C572.663 382.589 565.948 351.16 563.189 291.058C562.668 279.726 562.379 260.376 562.319 233.005L563.188 233.002C563.248 260.362 563.538 279.702 564.057 291.018C566.781 350.337 573.485 381.718 582.754 381.718C594.626 381.718 602.835 367.482 607.252 338.851Z" fill="#263E4B"/>
<path fill-rule="evenodd" clip-rule="evenodd" d="M650.568 324.578L680.939 321.386L682.736 338.477L652.365 341.67L650.568 324.578ZM622.4 293.938L619.542 266.781C620.69 263.844 623.704 262.119 628.597 261.605C633.484 261.091 636.794 262.152 638.528 264.786L641.38 291.942L622.4 293.938ZM702.122 285.558L683.142 287.553L680.284 260.396C681.432 257.46 684.446 255.735 689.339 255.221C694.226 254.707 697.536 255.767 699.27 258.401L702.122 285.558Z" fill="#263E4B"/>
<path fill-rule="evenodd" clip-rule="evenodd" d="M620.012 324.092L615.6 282.122C617.449 277.576 622.284 274.892 630.11 274.07C637.93 273.247 643.218 274.867 645.971 278.931L650.383 320.9L620.012 324.092ZM711.125 314.515L680.754 317.708L676.342 275.738C678.191 271.192 683.026 268.507 690.852 267.685C698.673 266.863 703.96 268.483 706.713 272.546L711.125 314.515Z" fill="white"/>
<path fill-rule="evenodd" clip-rule="evenodd" d="M619.82 324.209L615.409 282.239C617.258 277.693 622.093 275.009 629.919 274.187C637.739 273.365 643.026 274.984 645.78 279.047L650.191 321.017L619.82 324.209ZM710.933 314.633L680.562 317.825L676.151 275.855C678 271.309 682.835 268.624 690.661 267.802C698.481 266.98 703.768 268.6 706.522 272.663L710.933 314.633Z" fill="white" stroke="#263E4B" stroke-width="1.5" stroke-linecap="round" stroke-linejoin="round"/>
<path fill-rule="evenodd" clip-rule="evenodd" d="M619.078 370.609L613.971 322.056C616.615 316.743 623.31 313.522 634.07 312.391C644.823 311.261 652.047 313.019 655.734 317.666L660.835 366.22L619.078 370.609ZM721.577 359.835L679.82 364.224L674.713 315.671C677.357 310.359 684.052 307.138 694.812 306.007C705.565 304.877 712.789 306.635 716.476 311.282L721.577 359.835Z" fill="white"/>
<path d="M618.986 371.056C618.748 371.081 618.534 370.908 618.51 370.668L613.409 322.115C613.397 322.033 613.415 321.95 613.449 321.876C616.168 316.402 622.997 313.117 633.89 311.973C644.777 310.828 652.139 312.621 655.942 317.41C655.994 317.475 656.023 317.553 656.035 317.635L661.136 366.188C661.16 366.428 660.986 366.642 660.748 366.667L618.986 371.056ZM660.226 365.846L655.183 317.853C651.583 313.421 644.528 311.73 633.977 312.838C623.432 313.947 616.881 317.068 614.284 322.152L619.328 370.145L660.226 365.846ZM721.878 359.804C721.902 360.043 721.728 360.257 721.49 360.282L679.728 364.672C679.49 364.697 679.276 364.523 679.252 364.284L674.151 315.731C674.139 315.649 674.157 315.566 674.191 315.492C676.916 310.017 683.745 306.733 694.632 305.588C705.519 304.444 712.881 306.236 716.684 311.025C716.736 311.09 716.765 311.169 716.777 311.251L721.878 359.804ZM720.968 359.462L715.925 311.469C712.325 307.036 705.27 305.345 694.725 306.454C684.174 307.563 677.629 310.683 675.026 315.767L680.07 363.76L720.968 359.462Z" fill="#263E4B"/>
<path fill-rule="evenodd" clip-rule="evenodd" d="M640.568 375.55C629.038 376.762 619.357 374.556 618.939 370.623C618.528 366.69 627.542 362.519 639.073 361.306C650.603 360.095 660.29 362.301 660.702 366.233C661.119 370.167 652.105 374.338 640.568 375.55ZM701.316 369.166C689.78 370.378 680.099 368.171 679.687 364.239C679.27 360.305 688.284 356.134 699.815 354.922C711.351 353.711 721.032 355.916 721.444 359.849C721.861 363.782 712.847 367.953 701.316 369.166Z" fill="#263E4B"/>
<path d="M608.678 332.299C612.324 331.915 614.968 328.648 614.585 324.999C614.203 321.352 610.933 318.705 607.287 319.089C603.64 319.472 600.997 322.739 601.38 326.387C601.762 330.035 605.032 332.682 608.678 332.299ZM608.585 331.432C605.414 331.766 602.58 329.466 602.243 326.296C601.913 323.127 604.209 320.287 607.38 319.954C610.545 319.621 613.385 321.921 613.722 325.09C614.052 328.26 611.756 331.1 608.585 331.432Z" fill="#263E4B"/>
<path d="M469.501 339.481L475.359 337.348C475.584 337.266 475.833 337.383 475.916 337.608C475.998 337.834 475.881 338.084 475.655 338.166L470.447 340.062L475.728 343.186C475.935 343.308 476.003 343.575 475.882 343.782C475.759 343.989 475.493 344.057 475.286 343.935L469.389 340.447L469.279 340.488C469.228 340.506 469.175 340.515 469.123 340.514C458.478 354.706 456.015 368.707 461.706 382.569C467.254 396.083 469.747 400.906 473.95 405.069C478.795 409.868 485.468 412.362 497.004 413.641C518.76 416.051 531.466 408.833 537.126 392.746C540.662 382.695 542.684 375.656 543.192 371.653C543.222 371.415 543.439 371.246 543.678 371.276C543.916 371.306 544.084 371.524 544.054 371.762C543.537 375.845 541.501 382.928 537.946 393.035C532.147 409.52 519.051 416.959 496.908 414.506C485.195 413.208 478.346 410.648 473.338 405.688C469.02 401.41 466.497 396.529 460.902 382.9C455.057 368.66 457.635 354.261 468.606 339.755C469.786 325.027 475.127 311.242 484.622 298.407C494.088 285.612 503.843 275.992 513.89 269.552C520.682 251.539 530.542 239.476 543.476 233.389C549.92 230.357 554.756 228.34 557.993 227.339C560.162 226.669 561.705 226.422 562.568 226.695L564.058 199.319C564.071 199.079 564.276 198.896 564.516 198.907C564.756 198.922 564.94 199.127 564.927 199.367L563.376 227.845C563.345 228.408 562.507 228.386 562.507 227.821C562.507 227.288 561.166 227.27 558.25 228.171C555.06 229.158 550.256 231.16 543.846 234.177C531.104 240.173 521.371 252.103 514.653 269.994C514.62 270.082 514.559 270.157 514.48 270.208C504.487 276.587 494.766 286.158 485.32 298.925C475.995 311.531 470.723 325.047 469.501 339.481Z" fill="#263E4B"/>
<path fill-rule="evenodd" clip-rule="evenodd" d="M563.043 224.299L558.971 234.611C558.736 235.206 559.028 235.88 559.624 236.115C559.858 236.207 560.116 236.221 560.359 236.154L577.752 231.328L589.264 235.428C589.867 235.643 590.527 235.328 590.742 234.725C590.875 234.364 590.817 233.963 590.591 233.654L584.203 224.879C583.02 225.91 580.481 226.426 576.589 226.426C572.698 226.426 568.183 225.717 563.043 224.299Z" fill="white"/>
<path d="M577.482 231.645L560.766 236.282C560.432 236.375 560.077 236.357 559.754 236.229C558.935 235.905 558.534 234.977 558.858 234.158L562.929 223.848C563.011 223.641 563.235 223.529 563.449 223.589C568.554 224.998 573.032 225.701 576.88 225.701C580.673 225.701 583.125 225.202 584.209 224.26C584.4 224.093 584.696 224.126 584.847 224.332L591.229 233.104C591.536 233.53 591.618 234.082 591.444 234.579C591.148 235.409 590.238 235.843 589.403 235.547L578.353 231.611C578.373 231.776 578.396 231.969 578.421 232.192C578.53 233.136 578.693 234.6 578.911 236.583C579.346 240.55 580 246.595 580.87 254.721C580.893 254.96 580.719 255.174 580.481 255.199C580.244 255.225 580.029 255.052 580 254.813C579.133 246.689 578.481 240.644 578.046 236.678C577.829 234.696 577.666 233.234 577.557 232.292C577.528 232.038 577.503 231.823 577.482 231.645ZM577.471 226.568C577.567 226.94 577.658 227.356 577.745 227.81C577.887 228.549 577.998 229.26 578.129 230.199L578.185 230.597C578.187 230.608 578.188 230.618 578.19 230.629L589.699 234.727C590.076 234.862 590.487 234.664 590.621 234.287C590.702 234.062 590.667 233.811 590.528 233.617L584.4 225.203C583.09 226.078 580.789 226.521 577.471 226.568ZM577.334 230.783C577.331 230.762 577.328 230.741 577.324 230.718L577.269 230.32C577.139 229.395 577.03 228.696 576.891 227.974C576.789 227.446 576.683 226.976 576.572 226.57C572.806 226.535 568.481 225.855 563.594 224.531L559.666 234.478C559.519 234.851 559.702 235.272 560.074 235.419C560.22 235.477 560.382 235.486 560.534 235.444L577.334 230.783Z" fill="#263E4B"/>
<path fill-rule="evenodd" clip-rule="evenodd" d="M518.116 323.915C542.17 285.533 555.986 264.35 559.565 260.366C562.359 257.257 567.144 257.001 570.254 259.795C572.58 261.886 573.381 265.192 572.269 268.116L563.623 290.835" fill="white"/>
<path d="M518.383 324.35C542.409 286.012 556.234 264.816 559.787 260.861C562.422 257.929 566.932 257.69 569.86 260.328C572.052 262.301 572.805 265.421 571.756 268.179L563.116 290.884L563.929 291.194L572.568 268.489C573.746 265.395 572.901 261.895 570.442 259.681C567.157 256.722 562.097 256.989 559.141 260.279C555.535 264.292 541.728 285.461 517.646 323.887L518.383 324.35Z" fill="#263E4B"/>
<path fill-rule="evenodd" clip-rule="evenodd" d="M571.845 182.82C571.168 182.621 570.452 182.513 569.71 182.513C565.548 182.513 562.174 185.891 562.174 190.058C562.174 193.598 564.61 196.569 567.895 197.382L567.554 204.402C567.463 206.274 565.906 207.738 564.031 207.712L555.087 207.586C554.513 207.578 553.943 207.492 553.392 207.332C550.011 206.347 548.069 202.807 549.053 199.426L558.884 165.683H560.048L560.053 165.677L561.416 165.683H566.522L566.523 165.707L578.649 165.766C577.249 172.205 575.991 176.509 574.877 178.675C574.081 180.222 573.07 181.604 571.845 182.82ZM613.044 165.683C614.18 170.519 612.418 172.938 607.745 172.938C603.067 172.938 596.058 170.519 586.713 165.683H613.044Z" fill="#263E4B"/>
<path fill-rule="evenodd" clip-rule="evenodd" d="M505.76 334.044L545.118 298.975C550.847 293.87 558.28 291.093 565.954 291.193L610.771 291.769C616.893 291.848 621.896 296.676 622.191 302.791C622.475 308.579 618.012 313.499 612.22 313.78C612.093 313.786 611.959 313.79 611.826 313.792L573.885 314.207C571.563 314.232 569.702 316.135 569.727 318.456C569.727 318.457 569.727 318.459 569.727 318.46C569.756 320.81 571.635 322.719 573.984 322.783L613.148 323.856C618.487 324.003 622.742 328.356 622.771 333.695C622.8 338.955 618.556 343.242 613.298 343.27C613.281 343.27 613.264 343.27 613.246 343.27H575.914C573.618 343.27 571.756 345.132 571.756 347.428C571.756 347.445 571.756 347.461 571.756 347.478C571.787 350.003 573.397 352.237 575.782 353.066L599.687 361.364C603.826 362.8 606.012 367.318 604.574 371.454C604.51 371.638 604.441 371.819 604.365 371.998C602.452 376.429 597.467 378.659 592.887 377.131L554.025 364.163L533.001 378.195C522.218 385.391 507.643 382.484 500.447 371.701C499.77 370.688 499.174 369.623 498.663 368.515C496.831 364.552 496.26 358.874 496.949 351.48C497.575 344.762 500.723 338.532 505.76 334.044Z" fill="white"/>
<path d="M504.195 375.258L511.526 370.54C509.01 368.135 506.979 365.181 505.263 361.746C502.777 356.767 503.594 347.247 507.669 333.124L506.28 334.361C501.317 338.783 498.215 344.926 497.601 351.548C496.923 358.858 497.487 364.456 499.279 368.333C499.778 369.414 500.36 370.454 501.02 371.445C501.959 372.854 503.025 374.127 504.195 375.258ZM504.853 375.869C512.493 382.699 524.049 383.794 532.968 377.841L534.996 376.487C526.937 377.944 520.381 376.755 515.127 373.38C514.08 372.707 513.103 371.962 512.187 371.149L504.853 375.869ZM508.132 331.546C508.133 331.544 508.133 331.541 508.134 331.538C508.184 331.373 508.323 331.258 508.483 331.233L545.054 298.647C550.863 293.471 558.395 290.657 566.171 290.757L611.008 291.334C617.35 291.416 622.539 296.425 622.846 302.77C623.142 308.797 618.498 313.921 612.475 314.214C612.342 314.221 612.203 314.225 612.064 314.227L574.106 314.642C572.028 314.665 570.362 316.37 570.384 318.451V318.455C570.41 320.572 572.1 322.29 574.214 322.348L613.391 323.421C618.956 323.574 623.397 328.119 623.426 333.692C623.455 339.194 619.026 343.676 613.53 343.705H613.478H576.131C574.077 343.705 572.413 345.372 572.413 347.428C572.413 347.45 572.413 347.45 572.413 347.472C572.441 349.814 573.933 351.886 576.142 352.653L600.058 360.955C604.417 362.468 606.724 367.23 605.211 371.592C605.142 371.787 605.066 371.98 604.985 372.17C602.979 376.81 597.768 379.145 592.98 377.546L554.311 364.643L533.45 378.566C522.464 385.898 507.621 382.926 500.297 371.927C499.612 370.9 499.008 369.82 498.49 368.698C496.624 364.658 496.044 358.917 496.735 351.468C497.37 344.625 500.575 338.279 505.702 333.711L508.132 331.546ZM508.895 332.032C504.543 346.69 503.609 356.487 506.041 361.357C508.444 366.169 511.472 369.996 515.597 372.647C520.967 376.097 527.766 377.181 536.285 375.344C536.404 375.319 536.522 375.344 536.616 375.407L554.182 363.683L593.252 376.721C597.611 378.176 602.365 376.05 604.185 371.825C604.261 371.654 604.33 371.482 604.388 371.307C605.745 367.399 603.675 363.133 599.774 361.777L575.858 353.475C573.302 352.588 571.576 350.191 571.544 347.483C571.544 347.456 571.544 347.456 571.544 347.428C571.544 344.891 573.597 342.835 576.131 342.835H613.478L613.524 342.835C618.539 342.809 622.585 338.717 622.556 333.697C622.533 328.594 618.464 324.431 613.368 324.292L574.19 323.218C571.61 323.147 569.546 321.049 569.515 318.465V318.46C569.487 315.899 571.538 313.799 574.097 313.771L612.058 313.356C612.18 313.355 612.307 313.351 612.435 313.345C617.977 313.075 622.249 308.359 621.977 302.812C621.693 296.927 616.881 292.28 610.997 292.205L566.16 291.627C558.601 291.53 551.279 294.266 545.632 299.297L508.895 332.032Z" fill="#263E4B"/>
<path fill-rule="evenodd" clip-rule="evenodd" d="M701.931 301.901L701.936 303.081C701.965 309.099 706.847 313.962 712.87 313.962H721.113C714.302 314.487 709.855 316.711 707.78 320.637C704.516 326.819 706.881 334.477 713.067 337.743C714.887 338.705 716.916 339.208 718.974 339.208H722.563L721.583 339.689C714.69 343.074 711.838 351.408 715.223 358.305C715.426 358.721 715.652 359.127 715.896 359.52C719.194 364.11 725.589 365.16 730.174 361.864C730.481 361.644 730.777 361.407 731.055 361.154L737.455 355.389C740.992 352.205 742.65 347.437 741.861 342.747C741.809 342.405 741.751 342.096 741.693 341.819C741.363 340.128 740.203 337.613 738.215 334.275C739.571 331.567 739.954 328.278 739.374 324.409C738.795 320.54 737.154 317.154 734.447 314.253C735.768 310.875 735.96 307.103 735.026 302.936C734.661 301.286 734.151 299.88 733.496 298.717C732.302 296.585 730.145 295.166 727.71 294.911L711.531 293.212C706.754 292.711 702.476 296.176 701.977 300.953C701.942 301.267 701.931 301.584 701.931 301.901Z" fill="white"/>
<path d="M722.684 338.482L738.098 333.625C739.339 331.034 739.693 327.89 739.136 324.183C738.568 320.412 736.974 317.115 734.342 314.283V314.397L720.98 314.135C714.504 314.698 710.313 316.844 708.354 320.549C705.206 326.516 707.478 333.911 713.443 337.065C715.2 337.996 717.159 338.482 719.148 338.482H722.684ZM722.916 339.323L721.954 339.793C715.287 343.067 712.528 351.134 715.797 357.813C716 358.219 716.214 358.615 716.441 358.975C719.6 363.375 725.722 364.378 730.116 361.216C730.406 361.007 730.684 360.782 730.951 360.542L737.345 354.782C740.777 351.693 742.388 347.062 741.617 342.508C741.565 342.178 741.507 341.88 741.455 341.613C741.148 340.032 740.064 337.654 738.209 334.503L722.916 339.323ZM721.304 313.271L734.336 313.527C735.525 310.304 735.681 306.712 734.794 302.741C734.435 301.131 733.936 299.766 733.31 298.644C732.18 296.633 730.151 295.294 727.855 295.054L711.675 293.355C707.136 292.878 703.072 296.174 702.597 300.717C702.568 301.017 702.551 301.317 702.551 301.618L702.557 302.788C702.586 308.567 707.27 313.237 713.043 313.237H721.304V313.271ZM707.588 320.142C709.136 317.213 711.936 315.204 715.971 314.108H713.043C706.794 314.108 701.716 309.05 701.687 302.792L701.681 301.622C701.681 301.29 701.699 300.957 701.733 300.626C702.261 295.606 706.754 291.963 711.768 292.489L727.948 294.188C730.522 294.458 732.8 295.96 734.07 298.218C734.742 299.419 735.264 300.863 735.641 302.551C736.568 306.694 736.4 310.469 735.142 313.865C737.797 316.787 739.414 320.186 739.994 324.054C740.574 327.905 740.209 331.212 738.898 333.964C740.835 337.242 741.971 339.727 742.313 341.444C742.365 341.72 742.423 342.026 742.475 342.363C743.293 347.211 741.577 352.14 737.925 355.429L731.536 361.189C731.246 361.45 730.939 361.695 730.626 361.923C725.838 365.366 719.171 364.274 715.716 359.459C715.461 359.05 715.229 358.629 715.02 358.196C711.646 351.308 714.296 343.032 720.922 339.353H719.148C717.014 339.353 714.916 338.832 713.032 337.835C706.649 334.455 704.209 326.534 707.588 320.142ZM713.032 295.672C713.27 295.669 713.467 295.861 713.472 296.101C713.472 296.342 713.281 296.539 713.043 296.542C709.838 296.588 708.417 298.505 708.69 302.52C708.968 306.554 710.394 308.364 713.009 308.181C713.252 308.164 713.455 308.345 713.472 308.585C713.49 308.825 713.31 309.033 713.072 309.05C709.89 309.272 708.128 307.039 707.826 302.58C707.519 298.103 709.281 295.725 713.032 295.672ZM717.188 320.493C717.426 320.473 717.635 320.651 717.658 320.89C717.675 321.13 717.501 321.341 717.258 321.36C714.064 321.629 712.783 323.641 713.333 327.628C713.89 331.632 715.443 333.338 718.041 332.973C718.278 332.939 718.498 333.105 718.527 333.344C718.562 333.582 718.394 333.802 718.156 333.835C715.003 334.279 713.09 332.174 712.475 327.747C711.855 323.303 713.449 320.808 717.188 320.493ZM723.281 345.876C723.519 345.826 723.745 345.978 723.797 346.213C723.843 346.448 723.693 346.679 723.461 346.728C720.325 347.384 719.293 349.537 720.33 353.426C721.368 357.333 723.113 358.837 725.646 358.159C725.878 358.097 726.116 358.235 726.18 358.467C726.243 358.699 726.104 358.938 725.872 359C722.794 359.825 720.638 357.968 719.49 353.65C718.33 349.315 719.612 346.643 723.281 345.876Z" fill="#263E4B"/>
<path fill-rule="evenodd" clip-rule="evenodd" d="M346.65 423.761L360.724 570.752H367.971L361.069 422.345C360.888 418.452 357.585 415.441 353.69 415.622C353.571 415.628 353.452 415.636 353.333 415.648C349.249 416.046 346.258 419.676 346.65 423.761Z" fill="white"/>
<path d="M346.217 423.529L360.329 570.912H368.427L361.504 422.051C361.312 417.918 357.805 414.722 353.67 414.914C353.544 414.92 353.418 414.929 353.291 414.941C348.968 415.363 345.803 419.205 346.217 423.529ZM361.12 570.043L347.083 423.446C346.714 419.6 349.53 416.182 353.376 415.807C353.487 415.796 353.599 415.788 353.711 415.782C357.365 415.613 360.466 418.438 360.636 422.092L367.516 570.043H361.12Z" fill="#263E4B"/>
<path d="M357.173 574.995C357.082 575.217 356.828 575.324 356.606 575.233C356.383 575.142 356.277 574.888 356.368 574.666C362.104 560.641 365.444 550.84 366.383 545.289C366.423 545.053 366.648 544.893 366.884 544.933C367.121 544.973 367.281 545.198 367.241 545.435C366.287 551.067 362.932 560.912 357.173 574.995ZM366.064 525.921C366.141 526.148 366.018 526.395 365.791 526.471C365.563 526.548 365.317 526.425 365.24 526.197C362.687 518.584 357.529 512.089 349.753 506.707C349.555 506.57 349.506 506.299 349.642 506.101C349.779 505.904 350.05 505.855 350.248 505.991C358.172 511.476 363.449 518.122 366.064 525.921ZM359.827 556.75C359.728 556.969 359.47 557.066 359.252 556.967C359.033 556.868 358.936 556.61 359.035 556.391C359.811 554.68 360.33 553.286 360.593 552.215C364.201 537.501 361.964 526.748 355.575 519.106C355.421 518.922 355.445 518.647 355.63 518.493C355.814 518.34 356.088 518.364 356.242 518.548C362.813 526.409 365.11 537.446 361.437 552.422C361.16 553.553 360.623 554.994 359.827 556.75ZM349.578 416.575C349.548 416.337 349.716 416.119 349.954 416.089C350.193 416.058 350.411 416.227 350.441 416.465C354.208 446 368.347 461.62 392.919 463.453C393.158 463.471 393.338 463.68 393.32 463.919C393.302 464.159 393.093 464.338 392.854 464.32C367.841 462.454 353.395 446.496 349.578 416.575ZM355.944 416.127C355.921 415.889 356.097 415.676 356.336 415.654C356.575 415.631 356.787 415.806 356.81 416.046C359.28 442.053 371.036 455.611 392.158 457.165C392.398 457.183 392.578 457.391 392.56 457.631C392.543 457.871 392.334 458.05 392.095 458.032C370.517 456.445 358.451 442.53 355.944 416.127Z" fill="#263E4B"/>
<path fill-rule="evenodd" clip-rule="evenodd" d="M587.391 185.415C586.273 185.415 585.362 184.375 585.362 183.093C585.362 181.811 586.273 180.772 587.391 180.772C588.51 180.772 589.42 181.811 589.42 183.093C589.42 184.375 588.51 185.415 587.391 185.415ZM605.362 185.415C604.244 185.415 603.333 184.375 603.333 183.093C603.333 181.811 604.244 180.772 605.362 180.772C606.481 180.772 607.391 181.811 607.391 183.093C607.391 184.375 606.481 185.415 605.362 185.415ZM583.374 181.053C583.217 181.237 582.945 181.259 582.765 181.104C582.58 180.948 582.557 180.674 582.713 180.491C582.783 180.409 582.904 180.273 583.078 180.1C583.368 179.815 583.687 179.53 584.041 179.263C585.072 178.486 586.151 178.015 587.241 178.015C588.817 178.015 589.675 178.392 590.545 179.348C590.684 179.499 590.823 179.663 591.009 179.889C591.061 179.955 591.391 180.369 591.496 180.497C591.646 180.684 591.617 180.958 591.432 181.11C591.246 181.261 590.974 181.233 590.823 181.047C590.719 180.916 590.383 180.502 590.33 180.438C590.157 180.224 590.029 180.07 589.907 179.934C589.2 179.16 588.574 178.886 587.241 178.886C586.377 178.886 585.461 179.285 584.568 179.959C584.244 180.2 583.954 180.459 583.693 180.718C583.536 180.872 583.426 180.99 583.374 181.053ZM601.936 181.041C601.786 181.23 601.513 181.263 601.328 181.114C601.136 180.965 601.101 180.692 601.252 180.503C601.316 180.421 601.432 180.285 601.594 180.112C601.861 179.826 602.162 179.54 602.493 179.273C603.455 178.491 604.464 178.015 605.49 178.015C606.968 178.015 607.786 178.398 608.597 179.359C608.725 179.511 608.852 179.675 609.02 179.902C609.073 179.968 609.38 180.382 609.478 180.509C609.623 180.701 609.583 180.974 609.391 181.119C609.2 181.264 608.928 181.226 608.783 181.034C608.684 180.904 608.377 180.489 608.33 180.425C608.168 180.212 608.046 180.058 607.93 179.922C607.281 179.154 606.713 178.886 605.49 178.886C604.701 178.886 603.861 179.281 603.038 179.949C602.742 180.19 602.47 180.448 602.232 180.707C602.087 180.86 601.988 180.977 601.936 181.041ZM598.887 189.042H602.307L598.481 179.188C598.394 178.965 598.504 178.713 598.725 178.625C598.951 178.538 599.2 178.649 599.287 178.873L603.345 189.319C603.461 189.605 603.246 189.913 602.945 189.913H598.887C598.643 189.913 598.452 189.718 598.452 189.477C598.452 189.237 598.643 189.042 598.887 189.042ZM596.771 195.084C596.557 195.198 596.296 195.118 596.18 194.906C596.07 194.694 596.151 194.43 596.359 194.317C597.936 193.472 599.449 193.472 600.852 194.329C601.055 194.455 601.119 194.722 600.997 194.928C600.87 195.133 600.603 195.197 600.394 195.071C599.27 194.381 598.081 194.381 596.771 195.084Z" fill="#263E4B"/>
<path fill-rule="evenodd" clip-rule="evenodd" d="M276.957 450.03L300.145 521.704L414.638 506.324V422.464L301.531 445.11L300.145 454.963L292.727 446.873L276.957 450.03Z" fill="white"/>
<path d="M293.048 446.314C292.945 446.201 292.791 446.151 292.642 446.181L276.871 449.339C276.616 449.39 276.463 449.652 276.543 449.899L299.731 521.572C299.796 521.772 299.995 521.898 300.203 521.869L414.696 506.49C414.911 506.461 415.073 506.277 415.073 506.059V422.198C415.073 421.924 414.822 421.718 414.553 421.772L301.446 444.418C301.264 444.455 301.126 444.601 301.1 444.784L299.843 453.725L293.048 446.314ZM292.572 447.082L299.824 454.992C300.073 455.263 300.524 455.123 300.576 454.758L301.918 445.211L414.203 422.729V505.679L300.447 520.959L277.521 450.095L292.572 447.082Z" fill="#263E4B"/>
<path fill-rule="evenodd" clip-rule="evenodd" d="M251.449 649.542H290C305.185 609.982 319.126 585.281 331.825 575.439C332.575 574.858 328.102 568.414 318.406 556.107C324.691 561.083 329.039 564.275 331.449 565.683C332.584 566.346 332.681 556.868 331.739 537.246L342.118 568.699C346.07 566.713 349.083 565.32 351.159 564.523C380.338 553.302 404.3 581.64 423.043 649.542H814.928" fill="white"/>
<path d="M331.23 565.92C331.644 566.162 332.017 565.938 332.22 565.502C332.353 565.22 332.454 564.791 332.537 564.201C332.694 563.076 332.784 561.324 332.808 558.937C332.851 554.714 332.689 548.488 332.321 540.257L341.706 568.697C341.789 568.949 342.077 569.069 342.314 568.949C346.254 566.969 349.256 565.582 351.316 564.79C380.151 553.702 403.941 581.838 422.625 649.519C422.677 649.71 422.848 649.837 423.044 649.837H814.928C815.165 649.837 815.363 649.646 815.363 649.403C815.363 649.165 815.165 648.968 814.928 648.968H423.375C404.583 581.078 380.48 552.644 351.004 563.978C348.991 564.752 346.117 566.074 342.373 567.946L332.152 536.971C331.994 536.491 331.281 536.623 331.305 537.129C331.776 546.931 331.987 554.199 331.939 558.929C331.914 561.281 331.826 563.001 331.676 564.08C331.614 564.523 331.542 564.85 331.467 565.05C329.041 563.598 324.772 560.454 318.676 555.628C318.271 555.308 317.745 555.833 318.065 556.238C322.907 562.385 326.445 567.066 328.676 570.28C329.785 571.877 330.568 573.109 331.024 573.969C331.243 574.382 331.382 574.703 331.442 574.922C331.453 574.964 331.461 575 331.466 575.029C318.74 584.956 304.835 609.594 289.702 648.968H251.449C251.209 648.968 251.015 649.165 251.015 649.403C251.015 649.646 251.209 649.837 251.449 649.837H290C290.18 649.837 290.342 649.727 290.406 649.559C305.564 610.069 319.475 585.42 332.091 575.644C332.804 575.092 331.931 573.445 329.39 569.784C327.505 567.068 324.698 563.318 320.968 558.533C325.762 562.261 329.179 564.722 331.23 565.92Z" fill="#263E4B"/>
<path d="M591.872 137.971H575.403C568.006 137.971 561.999 143.938 561.926 151.327L552.15 165.435C551.95 165.724 552.156 166.118 552.507 166.118H618.597C618.98 166.118 619.171 165.657 618.91 165.381L604.765 150.707C604.672 143.657 598.933 137.971 591.872 137.971ZM562.718 151.713C562.768 151.64 562.795 151.553 562.795 151.465C562.795 144.493 568.44 138.842 575.403 138.842H591.872C598.516 138.842 603.901 144.233 603.901 150.884C603.901 150.997 603.942 151.105 604.023 151.186L617.571 165.248H553.338L562.718 151.713Z" fill="#263E4B"/>
<path fill-rule="evenodd" clip-rule="evenodd" d="M604.157 151.174L562.174 151.754L559.275 156.107H608.841L604.157 151.174Z" fill="#5AA2E8"/>
<path d="M604.441 150.449L562.458 151.029C562.315 151.031 562.182 151.104 562.102 151.223L559.204 155.576C559.011 155.865 559.218 156.252 559.565 156.252H609.131C609.513 156.252 609.71 155.794 609.444 155.517L604.76 150.584C604.678 150.496 604.562 150.447 604.441 150.449ZM608.116 155.382H560.378L562.699 151.896L604.261 151.322L608.116 155.382Z" fill="#263E4B"/>
<path fill-rule="evenodd" clip-rule="evenodd" d="M486.522 638.087L481.594 661.884H500.725H574.928C570.648 652.841 565.624 646.557 559.855 643.02C554.086 639.49 543.555 637.844 528.261 638.087L536.087 597.467L489.13 597.757L488.551 628.22L486.522 638.087Z" fill="white"/>
<path fill-rule="evenodd" clip-rule="evenodd" d="M612.609 634.608V662.174L624.203 661.884H698.406C694.127 652.84 689.101 646.556 683.333 643.02C677.565 639.49 667.032 637.843 651.739 638.087L658.985 598.116L608.261 597.756L612.029 628.22L612.609 634.608Z" fill="white"/>
<path fill-rule="evenodd" clip-rule="evenodd" d="M488.551 628.516C492.989 629.229 496.468 632.034 498.986 636.927C501.504 641.82 502.857 648.394 503.044 656.661L482.754 656.371" fill="#5AA2E8"/>
<path fill-rule="evenodd" clip-rule="evenodd" d="M612.609 628.516C620.528 630.394 625.745 633.779 628.261 638.666C630.777 643.559 631.936 649.559 631.739 656.661L612.609 656.371V628.516Z" fill="#5AA2E8"/>
<path d="M502.97 597.525L506.197 575.265H499.276V574.395H506.323L508.048 562.497H501.884V561.628H535.508V562.497H528.768L526.563 574.395H532.899V575.265H526.402L522.3 597.403L536.614 597.316L530.203 630.597L532.417 624.528C532.51 624.273 532.626 624.023 532.763 623.791C534.021 621.652 536.776 620.933 538.918 622.191C539.279 622.4 539.604 622.667 539.881 622.98C541.335 624.626 541.183 627.131 539.541 628.586L529.236 637.716C531.175 637.229 535.938 636.006 542.934 634.186C543.167 634.128 543.404 634.267 543.465 634.499C543.525 634.731 543.386 634.968 543.153 635.026C538.057 636.354 534.381 637.304 531.955 637.925C545.338 637.983 554.707 639.646 560.083 642.939C565.932 646.528 571.008 652.875 575.321 661.989L575.615 662.609H481.061L486.096 638.29L488.117 628.464L488.704 597.612L502.97 597.525ZM503.849 597.519L512.258 597.467L515.655 575.265H507.076L503.849 597.519ZM513.138 597.461L521.415 597.409L525.517 575.265H516.535L513.138 597.461ZM528.629 638.806C528.592 638.817 528.554 638.817 528.515 638.817L518.709 639.101C518.469 639.113 518.268 638.922 518.261 638.684C518.254 638.441 518.443 638.244 518.683 638.232L527.441 637.977L516.839 628.586C515.197 627.131 515.044 624.626 516.498 622.98C516.775 622.667 517.101 622.4 517.461 622.191C519.603 620.933 522.359 621.652 523.616 623.791C523.753 624.023 523.869 624.273 523.962 624.528L528.19 636.122L528.325 635.745L535.56 598.191L489.557 598.475L488.992 628.186C498.018 630.87 503.192 640.157 503.472 655.936H571.085C567.662 650.348 563.841 646.261 559.628 643.681C553.993 640.232 543.651 638.597 528.629 638.806ZM529.166 635.977L529.019 636.742L538.964 627.936C540.247 626.8 540.365 624.841 539.23 623.56C539.013 623.316 538.76 623.107 538.478 622.939C536.75 621.925 534.527 622.504 533.513 624.232C533.403 624.423 533.309 624.62 533.234 624.823L529.166 635.977ZM571.607 656.806H483.15L482.128 661.739H574.237C573.389 659.988 572.513 658.342 571.607 656.806ZM483.33 655.936H502.603C502.327 640.591 497.382 631.67 488.882 629.061L486.948 638.47L483.33 655.936ZM523.145 624.823C523.07 624.62 522.977 624.423 522.866 624.232C521.852 622.504 519.629 621.925 517.901 622.939C517.619 623.107 517.366 623.316 517.149 623.56C516.014 624.841 516.132 626.8 517.415 627.936L527.554 636.916L523.145 624.823ZM527.883 562.497H518.49L516.668 574.395H525.679L527.883 562.497ZM517.61 562.497H508.927L507.202 574.395H515.789L517.61 562.497Z" fill="#263E4B"/>
<path fill-rule="evenodd" clip-rule="evenodd" d="M484.782 287.846H475.217L485.652 271.307" fill="#5AA2E8"/>
<path d="M618.452 597.38L615.24 575.265H609.71V574.395H615.119L613.391 562.497H607.971V561.628H643.043V562.497H635.553L636.754 574.395H643.333V575.265H636.84L639.078 597.496L659.501 597.612L652.887 635.948L657.055 624.528C657.148 624.273 657.264 624.023 657.403 623.791C658.655 621.652 661.414 620.933 663.554 622.191C663.919 622.4 664.243 622.667 664.516 622.98C665.971 624.626 665.82 627.131 664.18 628.586L654.336 637.304C656.788 636.684 660.91 635.617 666.412 634.186C666.643 634.128 666.881 634.267 666.945 634.499C667.003 634.731 666.864 634.968 666.632 635.026C661.536 636.354 657.861 637.304 655.438 637.919C668.974 637.96 678.435 639.623 683.849 642.939C689.698 646.528 694.777 652.875 699.09 661.989L699.38 662.609H612.18L612.174 662.18L611.89 628.568L607.762 597.316L618.452 597.38ZM619.327 597.386L628.058 597.432L626.098 575.265H616.122L619.327 597.386ZM628.933 597.438L638.203 597.49L635.965 575.265H626.968L628.933 597.438ZM612.696 628.087C625.293 630.626 631.791 639.954 632.168 655.936H694.852C691.432 650.348 687.611 646.261 683.397 643.681C677.78 640.244 667.496 638.609 652.562 638.806C652.504 638.817 652.446 638.817 652.388 638.806C652.284 638.812 652.18 638.812 652.075 638.812C652.052 638.817 652.023 638.817 651.994 638.817L642.185 639.101C641.948 639.113 641.745 638.922 641.739 638.684C641.733 638.441 641.919 638.244 642.162 638.232L650.922 637.977L640.319 628.586C638.672 627.131 638.522 624.626 639.977 622.98C640.255 622.667 640.58 622.4 640.939 622.191C643.084 620.933 645.838 621.652 647.096 623.791C647.229 624.023 647.345 624.273 647.438 624.528L651.878 636.696L658.469 598.475L608.759 598.191L612.696 628.087ZM612.759 628.986L612.991 655.936H631.293C630.927 640.441 624.759 631.502 612.759 628.986ZM695.374 656.806H612.997L613.038 661.739H698.006C697.159 659.988 696.278 658.342 695.374 656.806ZM646.626 624.823C646.551 624.62 646.452 624.423 646.342 624.232C645.327 622.504 643.107 621.925 641.38 622.939C641.096 623.107 640.846 623.316 640.626 623.56C639.49 624.841 639.612 626.8 640.893 627.936L651.032 636.916L646.626 624.823ZM657.872 624.823L653.461 636.916L663.6 627.936C664.887 626.8 665.003 624.841 663.867 623.56C663.652 623.316 663.397 623.107 663.113 622.939C661.385 621.925 659.165 622.504 658.151 624.232C658.041 624.423 657.948 624.62 657.872 624.823ZM634.678 562.497H625.838L626.893 574.395H635.878L634.678 562.497ZM624.962 562.497H614.272L615.994 574.395H626.017L624.962 562.497Z" fill="#263E4B"/>
<path d="M335.599 481.07L336.455 486.471L331.484 487.259L332.126 491.31L325.736 492.322L325.095 488.271L307.558 491.048L306.702 485.647L321.796 467.445L328.186 466.433L330.629 481.857L335.599 481.07ZM313.589 484.556L324.239 482.869L322.809 473.842L313.589 484.556ZM353.376 488.309C343.507 489.872 338.1 486.065 336.789 477.784C335.483 469.539 339.454 464.284 349.323 462.721C359.156 461.164 364.598 464.965 365.899 473.174C367.204 481.419 363.209 486.751 353.376 488.309ZM352.526 482.942C358.135 482.054 360.246 478.842 359.509 474.186C358.777 469.566 355.782 467.199 350.173 468.087C344.564 468.976 342.441 472.117 343.179 476.772C343.922 481.463 346.917 483.831 352.526 482.942ZM397.368 471.287L398.223 476.688L393.253 477.476L393.895 481.527L387.506 482.539L386.864 478.488L369.327 481.265L368.471 475.863L383.565 457.662L389.955 456.649L392.398 472.073L397.368 471.287ZM375.358 474.772L386.008 473.085L384.579 464.059L375.358 474.772Z" fill="#5AA2E8"/>
<path d="M336.238 480.287L337.23 486.548L332.26 487.335L332.902 491.386L325.653 492.534L325.011 488.483L307.474 491.26L306.52 485.235L321.844 466.756L328.825 465.65L331.268 481.074L336.238 480.287ZM330.545 482.069L328.102 466.645L322.304 467.563L307.44 485.487L308.197 490.265L325.734 487.488L326.375 491.54L331.906 490.663L331.265 486.612L336.235 485.825L335.515 481.282L330.545 482.069ZM312.764 484.885L323.369 472.562L325.014 482.945L312.764 484.885ZM324.019 482.222L322.804 474.552L314.969 483.656L324.019 482.222ZM353.721 488.453C343.8 490.024 338.013 486.253 336.637 477.568C335.268 468.921 339.607 463.578 349.533 462.006C359.421 460.44 365.242 464.208 366.606 472.821C367.976 481.473 363.606 486.887 353.721 488.453ZM353.586 487.594C363.014 486.101 367.039 481.114 365.747 472.956C364.462 464.841 359.102 461.371 349.669 462.865C340.198 464.365 336.205 469.281 337.496 477.431C338.794 485.623 344.12 489.093 353.586 487.594ZM352.871 483.086C347.204 483.984 343.835 481.654 343.027 476.555C342.226 471.496 344.712 468.271 350.383 467.373C356.04 466.476 359.418 468.796 360.216 473.833C361.02 478.909 358.527 482.191 352.871 483.086ZM352.735 482.228C357.924 481.406 360.084 478.562 359.357 473.969C358.636 469.417 355.711 467.409 350.518 468.231C345.312 469.056 343.162 471.846 343.886 476.419C344.617 481.035 347.533 483.052 352.735 482.228ZM398.007 470.504L398.999 476.765L394.029 477.551L394.67 481.603L387.422 482.751L386.78 478.7L369.244 481.477L368.289 475.452L383.613 456.973L390.594 455.867L393.037 471.291L398.007 470.504ZM392.314 472.286L389.871 456.862L384.073 457.78L369.209 475.704L369.966 480.482L387.503 477.705L388.144 481.756L393.676 480.88L393.034 476.829L398.004 476.042L397.284 471.499L392.314 472.286ZM374.533 475.102L385.139 462.779L386.783 473.162L374.533 475.102ZM385.789 472.439L384.573 464.768L376.739 473.872L385.789 472.439Z" fill="#263E4B"/>
<path d="M485.539 270.84C485.592 270.643 485.637 270.458 485.674 270.288L486.149 260.254C486.937 243.619 500.639 230.537 517.274 230.537H550V231.408H517.274C501.103 231.408 487.784 244.124 487.018 260.295L486.88 263.212C488.417 257.312 491.381 252.033 495.775 247.499C502.4 240.666 510.604 244.072 520.208 257.414C520.349 257.609 520.305 257.881 520.11 258.022C519.915 258.163 519.643 258.118 519.503 257.923C510.169 244.956 502.528 241.785 496.399 248.106C490.632 254.055 487.393 261.31 486.665 269.604C486.645 269.835 486.603 270.1 486.539 270.402L485.217 298.314L484.349 298.273L484.836 287.992H475.508C475.165 287.992 474.957 287.614 475.14 287.324L485.539 270.84ZM484.877 287.121L485.573 272.417L476.297 287.121H484.877Z" fill="#263E4B"/>
<path d="M613.861 309.799C613.623 309.79 613.432 309.588 613.443 309.348C613.449 309.107 613.652 308.92 613.896 308.929C617.096 309.052 618.62 307.212 618.551 303.187C618.487 299.145 617.159 297.263 614.539 297.308C614.296 297.313 614.099 297.121 614.093 296.881C614.093 296.641 614.284 296.442 614.522 296.438C617.71 296.383 619.351 298.705 619.42 303.173C619.496 307.66 617.606 309.943 613.861 309.799ZM612.933 340.417C612.696 340.395 612.516 340.184 612.539 339.944C612.562 339.705 612.771 339.528 613.014 339.55C616.203 339.84 617.82 338.082 617.965 334.06C618.11 330.02 616.881 328.07 614.261 327.979C614.023 327.971 613.832 327.769 613.844 327.529C613.849 327.288 614.052 327.1 614.29 327.109C617.478 327.22 618.997 329.625 618.835 334.091C618.672 338.576 616.667 340.756 612.933 340.417ZM593.93 374.297C593.71 374.2 593.606 373.944 593.704 373.724C593.803 373.503 594.058 373.403 594.278 373.499C597.229 374.794 599.2 373.945 600.394 370.853C601.594 367.741 600.962 365.82 598.499 364.874C598.273 364.787 598.162 364.536 598.249 364.311C598.336 364.087 598.585 363.975 598.812 364.061C601.768 365.195 602.568 367.637 601.206 371.166C599.838 374.717 597.339 375.793 593.93 374.297ZM562.623 258.427L563.464 258.651C561.878 264.606 558.568 268.12 553.563 269.122L553.393 268.268C558.05 267.336 561.118 264.079 562.623 258.427Z" fill="#263E4B"/>
<path d="M513.928 269.968L515.087 274.32C515.149 274.553 515.387 274.691 515.619 274.629C515.851 274.567 515.989 274.329 515.927 274.096L514.768 269.744C514.706 269.511 514.468 269.373 514.236 269.435C514.004 269.497 513.866 269.736 513.928 269.968Z" fill="#263E4B"/>
<path d="M514.251 270.28L518.019 271.151C518.252 271.205 518.486 271.059 518.54 270.825C518.594 270.59 518.448 270.357 518.214 270.303L514.446 269.432C514.212 269.378 513.979 269.524 513.924 269.758C513.87 269.993 514.016 270.226 514.251 270.28Z" fill="#263E4B"/>
<path d="M677.867 273.035C674.939 269.496 669.844 269.122 665.641 271.889C664 272.967 662.812 274.502 662.25 276.257C660.835 280.678 666.389 291.976 678.916 310.435C679.05 310.633 679.322 310.685 679.519 310.55C679.716 310.415 679.768 310.144 679.635 309.945C667.31 291.787 661.792 280.551 663.079 276.522C663.577 274.961 664.644 273.586 666.116 272.616C669.971 270.079 674.568 270.417 677.2 273.591C677.351 273.776 677.629 273.802 677.809 273.648C677.994 273.495 678.023 273.22 677.867 273.035Z" fill="#263E4B"/>
</svg>
