<svg width="107" height="48" viewBox="0 0 107 48" fill="none" xmlns="http://www.w3.org/2000/svg">
<path d="M30.0798 0C32.5433 0 34.5385 1.99526 34.5385 4.45871C34.5385 6.92215 32.5433 8.91742 30.0798 8.91742C27.6164 8.91742 25.6211 6.92215 25.6211 4.45871C25.6211 1.99526 27.6164 0 30.0798 0Z" fill="white"/>
<path d="M8.91304 0H0V47.5362H8.91304V0Z" fill="white"/>
<path d="M0 17.3882L0 26.0781L34.5364 26.0781V17.3882H0Z" fill="white"/>
<path d="M25.6221 47.5332H34.5352L34.5352 12.6905H25.6221L25.6221 47.5332Z" fill="white"/>
<path d="M41.0352 47.3224V18.4568H47.9398V23.4362L47.826 25.4752H47.9398C48.618 23.3224 49.7775 21.5503 51.4228 20.1545C53.0636 18.7587 54.9626 18.0586 57.111 18.0586L58.4149 18.1724V25.2477C57.9249 25.1733 57.356 25.1339 56.7172 25.1339C55.0195 25.1339 53.4443 25.6415 51.9916 26.661C50.5389 27.6805 49.4931 29.19 48.8499 31.1897C48.4342 32.4717 48.2286 34.0382 48.2286 35.8891V47.3224H41.0352V47.3224Z" fill="white"/>
<path d="M58.6953 32.8916C58.6953 28.4372 60.0605 24.8055 62.7996 21.9964C65.5343 19.1873 69.0567 17.7783 73.3578 17.7783C77.3965 17.7783 80.5382 19.0735 82.7828 21.6551C85.0275 24.241 86.152 27.514 86.152 31.4739L85.9814 34.248H66.055C66.2825 36.6633 67.2145 38.5404 68.8554 39.8793C70.4962 41.2183 72.4477 41.8877 74.7143 41.8877C76.0751 41.8877 77.449 41.6252 78.8448 41.0958C80.2406 40.5663 81.2951 40.0412 82.0127 39.5118L83.0322 38.7198L85.8063 43.8699C85.6926 43.9836 85.5219 44.1324 85.2988 44.3249C85.0712 44.5131 84.5724 44.8456 83.798 45.3138C83.0235 45.7864 82.2228 46.202 81.3914 46.5608C80.56 46.9196 79.4968 47.2478 78.1929 47.5497C76.8889 47.8516 75.5631 48.0004 74.2023 48.0004C69.5598 48.0004 65.8144 46.539 62.9659 43.6117C60.1217 40.6932 58.6953 37.1184 58.6953 32.8916ZM66.2825 29.3255H78.9061C78.8667 27.4396 78.311 25.9694 77.2346 24.9105C76.1582 23.856 74.8105 23.3266 73.1872 23.3266C71.3363 23.3266 69.8093 23.856 68.6016 24.9105C67.3939 25.965 66.6195 27.4352 66.2825 29.3255Z" fill="white"/>
<path d="M89.543 47.3224V18.4568H96.4476V23.4362L96.3338 25.4752H96.4476C97.1258 23.3224 98.2854 21.5503 99.9306 20.1545C101.571 18.7587 103.47 18.0586 105.619 18.0586L106.923 18.1724V25.2477C106.433 25.1733 105.864 25.1339 105.225 25.1339C103.527 25.1339 101.952 25.6415 100.499 26.661C99.0467 27.6805 98.0009 29.19 97.3577 31.1897C96.9421 32.4717 96.7364 34.0382 96.7364 35.8891V47.3224H89.543V47.3224Z" fill="white"/>
</svg>
