<svg width="100" height="100" viewBox="0 0 100 100" fill="none" xmlns="http://www.w3.org/2000/svg">
<circle cx="50" cy="50" r="50" fill="#F0F8FF"/>
<g clip-path="url(#clip0)">
<path d="M54.7069 45.876H53.0342V47.6532H54.7069C55.1983 47.6532 55.5958 47.255 55.5958 46.7648C55.5958 46.2727 55.1983 45.876 54.7069 45.876Z" fill="#70B8FF"/>
<path d="M44.1175 41.1685C43.4011 41.1685 42.835 41.7452 42.835 42.4479V46.3736C42.835 47.0812 43.4072 47.6531 44.1144 47.6531C44.8304 47.6531 45.3969 47.0763 45.3969 46.3736V42.4479C45.3969 41.7403 44.8243 41.1685 44.1175 41.1685Z" fill="#70B8FF"/>
<path d="M54.7069 41.1689H53.0342V42.9462H54.7069C55.1983 42.9462 55.5958 42.548 55.5958 42.0578C55.5958 41.5645 55.1971 41.1689 54.7069 41.1689Z" fill="#70B8FF"/>
<path d="M73.5962 66.7199L68.1034 61.2275C66.5932 59.7168 64.3254 59.4262 62.5225 60.3531L59.3018 57.1328C65.9073 49.4679 65.5751 37.8872 58.3046 30.6164C50.6859 22.9977 38.3331 22.9977 30.714 30.6164C23.0953 38.2355 23.0953 50.5883 30.714 58.207C37.9849 65.4774 49.5655 65.8097 57.2304 59.2041L60.4508 62.4249C59.5234 64.2277 59.8145 66.4956 61.3247 68.0058L66.8175 73.4986C68.6894 75.3705 71.724 75.3705 73.5959 73.4986C75.4681 71.6267 75.4681 68.5917 73.5962 66.7199ZM38.1283 46.7644C38.1283 48.8697 36.4151 50.5829 34.3098 50.5829C32.2041 50.5829 30.4913 48.8697 30.4913 46.7644C30.4913 45.9553 31.1474 45.2996 31.9561 45.2996C32.7652 45.2996 33.421 45.9553 33.421 46.7644C33.421 47.2546 33.8196 47.6532 34.3098 47.6532C34.8 47.6532 35.1986 47.2546 35.1986 46.7644V41.1686H33.5255C32.7164 41.1686 32.0606 40.5129 32.0606 39.7038C32.0606 38.8947 32.7164 38.2389 33.5255 38.2389H36.6634C37.4725 38.2389 38.1283 38.8947 38.1283 39.7038V46.7644ZM48.3269 46.3738C48.3269 48.7015 46.4428 50.5829 44.1178 50.5829C41.782 50.5829 39.9056 48.6954 39.9056 46.3738V42.4481C39.9056 40.1203 41.7893 38.2389 44.1147 38.2389C46.4497 38.2389 48.3269 40.1261 48.3269 42.4481V46.3738ZM58.5255 46.7648C58.5255 48.8762 56.8165 50.5829 54.707 50.5829H51.5694C50.7595 50.5829 50.1045 49.9268 50.1045 49.1181V39.7041C50.1045 38.8947 50.7595 38.2393 51.5694 38.2393H54.707C56.8184 38.2393 58.5255 39.9483 58.5255 42.0578C58.5255 42.9218 58.2394 43.7412 57.713 44.4111C58.2394 45.0802 58.5255 45.8992 58.5255 46.7648Z" fill="#70B8FF"/>
</g>
<defs>
<clipPath id="clip0">
<rect width="50" height="50" fill="white" transform="translate(25 25)"/>
</clipPath>
</defs>
</svg>
