<svg width="78" height="22" viewBox="0 0 78 22" fill="none" xmlns="http://www.w3.org/2000/svg">
<g clip-path="url(#clip0)">
<path d="M10.5995 20.0096C9.43997 20.2135 8.25987 20.2752 7.03865 20.4389L3.31579 9.47421V20.9092C2.15625 21.0326 1.09786 21.1954 0 21.3591V0.411711H3.09211L7.32401 12.2974V0.411711H10.5995V20.0096ZM17.0082 8.08194C18.2697 8.08194 20.2023 8.02109 21.3618 8.02109V11.2941C19.9169 11.2941 18.2286 11.2941 17.0082 11.355V16.2234C18.9202 16.1009 20.8322 15.9372 22.7648 15.8764V19.026L13.7525 19.7423V0.411711H22.7656V3.68474H17.0082V8.08277V8.08194ZM34.8701 3.68392H31.4942V18.7398C30.3956 18.7398 29.2969 18.7398 28.2393 18.781V3.68474H24.8618V0.411711H34.8717V3.68474L34.8701 3.68392ZM40.1604 7.85744H44.616V11.1305H40.1604V18.5565H36.9663V0.410889H46.06V3.68392H40.1604V7.85744ZM51.3503 15.6921C53.2007 15.7333 55.0732 15.8764 56.884 15.9783V19.2102C53.9745 19.026 51.065 18.8426 48.0946 18.781V0.411711H51.3503V15.693V15.6921ZM59.6299 19.4356C60.6678 19.4972 61.7665 19.5589 62.824 19.6815V0.411711H59.6308V19.4364L59.6299 19.4356ZM77.0864 0.411711L72.9564 10.3739L77.0864 21.3591C75.8651 21.1954 74.6447 20.9709 73.4243 20.7662L71.0847 14.7111L68.7048 20.2752C67.5239 20.0704 66.3849 20.0096 65.2048 19.8451L69.3964 10.2514L65.6118 0.411711H69.111L71.2475 5.915L73.5255 0.411711H77.0864Z" fill="#0A2643"/>
</g>
<defs>
<clipPath id="clip0">
<rect width="77.3026" height="21.3816" fill="white"/>
</clipPath>
</defs>
</svg>
