<svg width="100" height="100" viewBox="0 0 100 100" fill="none" xmlns="http://www.w3.org/2000/svg">
<circle cx="50" cy="50" r="50" fill="#F0F8FF"/>
<path d="M46.2687 40.7833L50.0003 38.8214L53.732 40.7833C53.9255 40.885 54.1437 40.9306 54.3618 40.9148C54.5799 40.8991 54.7892 40.8226 54.9661 40.6941C55.143 40.5656 55.2804 40.3902 55.3628 40.1876C55.4452 39.9851 55.4693 39.7635 55.4324 39.548L54.7195 35.3926L57.7386 32.4499C57.8952 32.2972 58.0059 32.1038 58.0583 31.8916C58.1107 31.6793 58.1027 31.4566 58.0351 31.2486C57.9676 31.0407 57.8432 30.8557 57.676 30.7148C57.5089 30.5739 57.3056 30.4825 57.0892 30.451L52.917 29.8448L51.0512 26.0644C50.9545 25.8683 50.8048 25.7032 50.619 25.5878C50.4333 25.4723 50.219 25.4111 50.0003 25.4111C49.7817 25.4111 49.5674 25.4723 49.3817 25.5878C49.1959 25.7032 49.0462 25.8683 48.9495 26.0644L47.0837 29.8448L42.9115 30.451C42.6951 30.4825 42.4918 30.5739 42.3247 30.7148C42.1575 30.8557 42.0331 31.0407 41.9656 31.2486C41.898 31.4566 41.89 31.6793 41.9424 31.8916C41.9948 32.1038 42.1055 32.2972 42.2621 32.4499L45.281 35.3926L44.5681 39.548C44.5312 39.7635 44.5553 39.9851 44.6377 40.1876C44.7201 40.3902 44.8575 40.5656 45.0344 40.6941C45.2113 40.8226 45.4206 40.8991 45.6387 40.9148C45.8568 40.9306 46.075 40.885 46.2685 40.7833H46.2687Z" fill="#70B8FF"/>
<path d="M74.1247 42.8116L70.7517 40.2823L70.9231 36.0697C70.932 35.8512 70.8796 35.6345 70.7718 35.4443C70.664 35.254 70.505 35.0976 70.313 34.993C70.1209 34.8883 69.9034 34.8395 69.6851 34.852C69.4667 34.8646 69.2562 34.9379 69.0774 35.0639L65.63 37.4902L61.6765 36.0253C61.4715 35.9494 61.2493 35.9323 61.0351 35.976C60.8209 36.0198 60.6231 36.1226 60.4643 36.2728C60.3054 36.423 60.1918 36.6147 60.1361 36.8262C60.0805 37.0376 60.0852 37.2604 60.1496 37.4694L61.3917 41.4983L58.777 44.8056C58.6414 44.9771 58.5565 45.1832 58.5319 45.4004C58.5072 45.6177 58.5439 45.8376 58.6377 46.0351C58.7315 46.2326 58.8787 46.3999 59.0626 46.5182C59.2466 46.6364 59.4599 46.7008 59.6786 46.7041L63.894 46.7677L66.2315 50.2765C66.3385 50.4371 66.4835 50.5687 66.6535 50.6598C66.8236 50.7509 67.0136 50.7986 67.2065 50.7987C67.2571 50.7986 67.3076 50.7953 67.3577 50.7889C67.5745 50.7607 67.7792 50.6725 67.9485 50.534C68.1178 50.3956 68.245 50.2126 68.3157 50.0057L69.6789 46.0161L73.7382 44.8774C73.9487 44.8183 74.1385 44.7015 74.2861 44.5402C74.4337 44.3789 74.5333 44.1795 74.5735 43.9646C74.6137 43.7497 74.593 43.5278 74.5137 43.324C74.4343 43.1202 74.2996 42.9427 74.1247 42.8115V42.8116Z" fill="#70B8FF"/>
<path d="M40.3219 46.7042C40.5405 46.7009 40.7539 46.6365 40.9378 46.5183C41.1218 46.4 41.269 46.2327 41.3628 46.0352C41.4566 45.8377 41.4932 45.6178 41.4686 45.4005C41.444 45.1833 41.3591 44.9772 41.2235 44.8057L38.6088 41.4984L39.8509 37.4695C39.9153 37.2605 39.92 37.0377 39.8644 36.8262C39.8088 36.6147 39.6951 36.423 39.5363 36.2728C39.3774 36.1226 39.1797 36.0197 38.9654 35.976C38.7512 35.9323 38.529 35.9494 38.3239 36.0253L34.3705 37.4902L30.9233 35.0639C30.7444 34.9379 30.534 34.8646 30.3156 34.852C30.0972 34.8395 29.8797 34.8883 29.6877 34.993C29.4956 35.0976 29.3367 35.254 29.2289 35.4443C29.1211 35.6345 29.0686 35.8512 29.0776 36.0697L29.2489 40.2823L25.876 42.8116C25.7011 42.9428 25.5663 43.1203 25.487 43.3241C25.4077 43.5279 25.387 43.7498 25.4272 43.9647C25.4674 44.1796 25.567 44.379 25.7146 44.5403C25.8622 44.7016 26.052 44.8184 26.2625 44.8775L30.3218 46.0162L31.6848 50.0058C31.7555 50.2127 31.8827 50.3957 32.052 50.5341C32.2212 50.6725 32.4259 50.7608 32.6427 50.789C32.8595 50.8171 33.0799 50.7841 33.279 50.6935C33.478 50.603 33.6477 50.4586 33.769 50.2766L36.1065 46.7678L40.3219 46.7042Z" fill="#70B8FF"/>
<path d="M64.4531 58.9844C64.9728 58.9843 65.4777 58.8117 65.8886 58.4935C66.2994 58.1753 66.593 57.7297 66.723 57.2266C66.593 56.7235 66.2994 56.2778 65.8886 55.9596C65.4777 55.6415 64.9728 55.4688 64.4531 55.4688H55.8594V50.0977C55.8594 48.6365 55.8594 45.7235 52.0262 45.3516C51.9178 45.3414 51.8086 45.354 51.7054 45.3885C51.6022 45.423 51.5073 45.4787 51.4269 45.552C51.3465 45.6252 51.2822 45.7145 51.2383 45.8141C51.1944 45.9136 51.1718 46.0213 51.1719 46.1301V51.4391C51.1719 51.5836 51.1317 51.7253 51.056 51.8484L48.8281 55.4688H48.9258L45.7031 57.5733V72.6277C46.1778 72.9029 46.7169 73.0475 47.2656 73.0469H62.8906C63.4103 73.0468 63.9152 72.8742 64.3261 72.556C64.7369 72.2378 65.0305 71.7922 65.1605 71.2891C65.0305 70.786 64.7369 70.3403 64.3261 70.0221C63.9152 69.704 63.4103 69.5313 62.8906 69.5313H60.5469V68.3594H63.6719C64.1915 68.3593 64.6965 68.1867 65.1073 67.8685C65.5182 67.5503 65.8117 67.1047 65.9418 66.6016C65.8117 66.0985 65.5182 65.6528 65.1073 65.3346C64.6965 65.0165 64.1915 64.8438 63.6719 64.8438H60.5469V63.6719H64.4531C64.9728 63.6718 65.4777 63.4992 65.8886 63.181C66.2994 62.8628 66.593 62.4172 66.723 61.9141C66.593 61.411 66.2994 60.9653 65.8886 60.6471C65.4777 60.329 64.9728 60.1563 64.4531 60.1563H60.5469V58.9844H64.4531Z" fill="#70B8FF"/>
<path d="M43.3594 55.4688H35.5469C35.2361 55.4688 34.938 55.5922 34.7182 55.812C34.4985 56.0318 34.375 56.3298 34.375 56.6406V73.0469C34.375 73.3577 34.4985 73.6557 34.7182 73.8755C34.938 74.0953 35.2361 74.2188 35.5469 74.2188H43.3594C43.6702 74.2188 43.9682 74.0953 44.188 73.8755C44.4078 73.6557 44.5312 73.3577 44.5312 73.0469V56.6406C44.5312 56.3298 44.4078 56.0318 44.188 55.812C43.9682 55.5922 43.6702 55.4688 43.3594 55.4688ZM39.4531 72.3633C39.2214 72.3633 38.9948 72.2946 38.8021 72.1658C38.6094 72.037 38.4592 71.854 38.3705 71.6399C38.2818 71.4257 38.2586 71.1901 38.3038 70.9628C38.349 70.7355 38.4606 70.5267 38.6245 70.3628C38.7884 70.1989 38.9972 70.0873 39.2245 70.042C39.4518 69.9968 39.6874 70.02 39.9016 70.1087C40.1157 70.1974 40.2987 70.3476 40.4275 70.5403C40.5563 70.7331 40.625 70.9596 40.625 71.1914C40.625 71.5022 40.5015 71.8003 40.2818 72.02C40.062 72.2398 39.7639 72.3633 39.4531 72.3633Z" fill="#70B8FF"/>
</svg>
