<svg width="226" height="235" viewBox="0 0 226 235" fill="none" xmlns="http://www.w3.org/2000/svg">
<g clip-path="url(#clip0)">
<path d="M187.062 111.455L113.427 93.72V232.509L187.062 213.234V111.455Z" fill="#E6E6E6"/>
<path opacity="0.1" d="M187.062 111.455L113.427 93.72V232.509L187.062 213.234V111.455Z" fill="#0A2643"/>
<path d="M39.7949 111.455L113.427 93.72V232.509L39.7949 213.617V111.455Z" fill="#E6E6E6"/>
<path opacity="0.17" d="M39.7949 110.842L113.427 93.1068V232.509L39.7949 213.617V110.842Z" fill="#0A2643"/>
<path d="M112.813 94.3338L151.594 62.1081L225.229 81L186.448 112.069L112.813 94.3338Z" fill="#E6E6E6"/>
<path d="M2.62793 81.9966L40.4087 112.069L114.041 94.3336L76.6465 62.7213L2.62793 81.9966Z" fill="#E6E6E6"/>
<path opacity="0.05" d="M2.01416 81.3834L40.7151 112.069L114.347 94.3338L76.0327 62.1081L2.01416 81.3834Z" fill="#0A2643"/>
<g opacity="0.5">
<path opacity="0.5" d="M112.086 77.678H60.1923C59.43 77.678 58.812 78.296 58.812 79.0583V126.725C58.812 127.487 59.43 128.105 60.1923 128.105H112.086C112.848 128.105 113.466 127.487 113.466 126.725V79.0583C113.466 78.296 112.848 77.678 112.086 77.678Z" fill="url(#paint0_linear)"/>
</g>
<path d="M111.494 78.0704H60.8613C60.0989 78.0704 59.481 78.6884 59.481 79.4507V125.894C59.481 126.656 60.0989 127.274 60.8613 127.274H111.494C112.257 127.274 112.875 126.656 112.875 125.894V79.4507C112.875 78.6884 112.257 78.0704 111.494 78.0704Z" fill="#F5F5F5"/>
<path d="M71.2197 86.1746H64.9746C64.2122 86.1746 63.5942 86.7925 63.5942 87.5549V92.8982C63.5942 93.6605 64.2122 94.2785 64.9746 94.2785H71.2197C71.982 94.2785 72.6 93.6605 72.6 92.8982V87.5549C72.6 86.7925 71.982 86.1746 71.2197 86.1746Z" fill="#4384C5"/>
<path d="M110.853 86.1746H75.5476C75.4121 86.1746 75.3022 86.2844 75.3022 86.4199V86.831C75.3022 86.9665 75.4121 87.0764 75.5476 87.0764H110.853C110.989 87.0764 111.098 86.9665 111.098 86.831V86.4199C111.098 86.2844 110.989 86.1746 110.853 86.1746Z" fill="#E0E0E0"/>
<path d="M110.853 88.874H75.5476C75.4121 88.874 75.3022 88.9839 75.3022 89.1194V89.5304C75.3022 89.666 75.4121 89.7758 75.5476 89.7758H110.853C110.989 89.7758 111.098 89.666 111.098 89.5304V89.1194C111.098 88.9839 110.989 88.874 110.853 88.874Z" fill="#E0E0E0"/>
<path d="M110.853 98.6802H62.9412C62.8057 98.6802 62.6958 98.79 62.6958 98.9256V99.3366C62.6958 99.4721 62.8057 99.582 62.9412 99.582H110.853C110.989 99.582 111.099 99.4721 111.099 99.3366V98.9256C111.099 98.79 110.989 98.6802 110.853 98.6802Z" fill="#E0E0E0"/>
<path d="M110.853 101.383H62.9412C62.8057 101.383 62.6958 101.492 62.6958 101.628V102.039C62.6958 102.175 62.8057 102.284 62.9412 102.284H110.853C110.989 102.284 111.099 102.175 111.099 102.039V101.628C111.099 101.492 110.989 101.383 110.853 101.383Z" fill="#E0E0E0"/>
<path d="M110.853 104.983H62.9412C62.8057 104.983 62.6958 105.093 62.6958 105.229V105.64C62.6958 105.775 62.8057 105.885 62.9412 105.885H110.853C110.989 105.885 111.099 105.775 111.099 105.64V105.229C111.099 105.093 110.989 104.983 110.853 104.983Z" fill="#E0E0E0"/>
<path d="M90.3665 107.686H62.9412C62.8057 107.686 62.6958 107.796 62.6958 107.931V108.342C62.6958 108.478 62.8057 108.588 62.9412 108.588H90.3665C90.502 108.588 90.6119 108.478 90.6119 108.342V107.931C90.6119 107.796 90.502 107.686 90.3665 107.686Z" fill="#E0E0E0"/>
<path d="M110.853 111.278H62.9412C62.8057 111.278 62.6958 111.388 62.6958 111.523V111.934C62.6958 112.07 62.8057 112.18 62.9412 112.18H110.853C110.989 112.18 111.099 112.07 111.099 111.934V111.523C111.099 111.388 110.989 111.278 110.853 111.278Z" fill="#E0E0E0"/>
<path d="M110.853 113.98H62.9412C62.8057 113.98 62.6958 114.09 62.6958 114.225V114.637C62.6958 114.772 62.8057 114.882 62.9412 114.882H110.853C110.989 114.882 111.099 114.772 111.099 114.637V114.225C111.099 114.09 110.989 113.98 110.853 113.98Z" fill="#E0E0E0"/>
<path d="M110.853 117.581H62.9412C62.8057 117.581 62.6958 117.691 62.6958 117.827V118.238C62.6958 118.373 62.8057 118.483 62.9412 118.483H110.853C110.989 118.483 111.099 118.373 111.099 118.238V117.827C111.099 117.691 110.989 117.581 110.853 117.581Z" fill="#E0E0E0"/>
<path d="M90.3665 120.284H62.9412C62.8057 120.284 62.6958 120.394 62.6958 120.529V120.94C62.6958 121.076 62.8057 121.186 62.9412 121.186H90.3665C90.502 121.186 90.6119 121.076 90.6119 120.94V120.529C90.6119 120.394 90.502 120.284 90.3665 120.284Z" fill="#E0E0E0"/>
<g opacity="0.5">
<path opacity="0.5" d="M120.335 89.3309H68.4409C67.6785 89.3309 67.0605 89.9489 67.0605 90.7112V138.378C67.0605 139.14 67.6785 139.758 68.4409 139.758H120.335C121.097 139.758 121.715 139.14 121.715 138.378V90.7112C121.715 89.9489 121.097 89.3309 120.335 89.3309Z" fill="url(#paint1_linear)"/>
</g>
<path d="M119.743 89.7233H69.1098C68.3475 89.7233 67.7295 90.3413 67.7295 91.1036V137.547C67.7295 138.309 68.3475 138.927 69.1098 138.927H119.743C120.505 138.927 121.123 138.309 121.123 137.547V91.1036C121.123 90.3413 120.505 89.7233 119.743 89.7233Z" fill="white"/>
<path d="M79.4682 97.8274H73.2231C72.4608 97.8274 71.8428 98.4454 71.8428 99.2077V104.551C71.8428 105.313 72.4608 105.931 73.2231 105.931H79.4682C80.2306 105.931 80.8486 105.313 80.8486 104.551V99.2077C80.8486 98.4454 80.2306 97.8274 79.4682 97.8274Z" fill="#4384C5"/>
<path d="M119.101 97.8274H83.7957C83.6602 97.8274 83.5503 97.9373 83.5503 98.0728V98.4838C83.5503 98.6193 83.6602 98.7292 83.7957 98.7292H119.101C119.237 98.7292 119.346 98.6193 119.346 98.4838V98.0728C119.346 97.9373 119.237 97.8274 119.101 97.8274Z" fill="#E0E0E0"/>
<path d="M119.101 100.527H83.7957C83.6602 100.527 83.5503 100.637 83.5503 100.772V101.183C83.5503 101.319 83.6602 101.429 83.7957 101.429H119.101C119.237 101.429 119.346 101.319 119.346 101.183V100.772C119.346 100.637 119.237 100.527 119.101 100.527Z" fill="#E0E0E0"/>
<path d="M119.101 110.333H71.1887C71.0532 110.333 70.9434 110.443 70.9434 110.578V110.989C70.9434 111.125 71.0532 111.235 71.1887 111.235H119.101C119.237 111.235 119.346 111.125 119.346 110.989V110.578C119.346 110.443 119.237 110.333 119.101 110.333Z" fill="#E0E0E0"/>
<path d="M119.101 113.035H71.1887C71.0532 113.035 70.9434 113.145 70.9434 113.281V113.692C70.9434 113.827 71.0532 113.937 71.1887 113.937H119.101C119.237 113.937 119.346 113.827 119.346 113.692V113.281C119.346 113.145 119.237 113.035 119.101 113.035Z" fill="#E0E0E0"/>
<path d="M119.101 116.637H71.1887C71.0532 116.637 70.9434 116.747 70.9434 116.882V117.293C70.9434 117.429 71.0532 117.539 71.1887 117.539H119.101C119.237 117.539 119.346 117.429 119.346 117.293V116.882C119.346 116.747 119.237 116.637 119.101 116.637Z" fill="#E0E0E0"/>
<path d="M98.6141 119.339H71.1887C71.0532 119.339 70.9434 119.449 70.9434 119.585V119.996C70.9434 120.131 71.0532 120.241 71.1887 120.241H98.6141C98.7496 120.241 98.8594 120.131 98.8594 119.996V119.585C98.8594 119.449 98.7496 119.339 98.6141 119.339Z" fill="#E0E0E0"/>
<path d="M119.101 122.931H71.1887C71.0532 122.931 70.9434 123.04 70.9434 123.176V123.587C70.9434 123.723 71.0532 123.832 71.1887 123.832H119.101C119.237 123.832 119.346 123.723 119.346 123.587V123.176C119.346 123.04 119.237 122.931 119.101 122.931Z" fill="#E0E0E0"/>
<path d="M119.101 125.633H71.1887C71.0532 125.633 70.9434 125.743 70.9434 125.878V126.289C70.9434 126.425 71.0532 126.535 71.1887 126.535H119.101C119.237 126.535 119.346 126.425 119.346 126.289V125.878C119.346 125.743 119.237 125.633 119.101 125.633Z" fill="#E0E0E0"/>
<path d="M119.101 129.234H71.1887C71.0532 129.234 70.9434 129.344 70.9434 129.48V129.891C70.9434 130.026 71.0532 130.136 71.1887 130.136H119.101C119.237 130.136 119.346 130.026 119.346 129.891V129.48C119.346 129.344 119.237 129.234 119.101 129.234Z" fill="#E0E0E0"/>
<path d="M98.6141 131.937H71.1887C71.0532 131.937 70.9434 132.047 70.9434 132.182V132.593C70.9434 132.729 71.0532 132.839 71.1887 132.839H98.6141C98.7496 132.839 98.8594 132.729 98.8594 132.593V132.182C98.8594 132.047 98.7496 131.937 98.6141 131.937Z" fill="#E0E0E0"/>
<g opacity="0.5">
<path opacity="0.5" d="M146.202 95.8583H98.8447V151.497H146.202V95.8583Z" fill="url(#paint2_linear)"/>
</g>
<path d="M145.196 96.7538H100.302V150.267H145.196V96.7538Z" fill="white"/>
<g opacity="0.5">
<path opacity="0.5" d="M125.193 105.263V103.916H120.301V105.263H116.877V111.867H128.616V105.263H125.193ZM120.899 104.407H124.58V105.263H120.899V104.407Z" fill="url(#paint3_linear)"/>
</g>
<path d="M128.123 105.486H117.375V111.532H128.123V105.486Z" fill="#4384C5"/>
<path d="M120.509 104.254V105.821H121.068V104.701H124.426V105.821H124.988V104.254H120.509Z" fill="#4384C5"/>
<path d="M138.588 120.232H107.019V121.575H138.588V120.232Z" fill="#E0E0E0"/>
<path d="M138.588 129.074H107.019V130.418H138.588V129.074Z" fill="#E0E0E0"/>
<path d="M138.588 131.427H107.019V132.771H138.588V131.427Z" fill="#E0E0E0"/>
<path d="M120.341 126.725H107.019V128.069H120.341V126.725Z" fill="#E0E0E0"/>
<path opacity="0.6" d="M138.588 126.725H128.625V128.069H138.588V126.725Z" fill="#3AD29F"/>
<path d="M128.064 136.912H118.102V138.255H128.064V136.912Z" fill="#4384C5"/>
<path d="M39.7949 111.456V213.617L113.427 232.509L114.421 131.118L39.7949 111.456Z" fill="#E6E6E6"/>
<path d="M187.062 213.234L113.427 232.509V131.118L187.062 111.456V213.234Z" fill="#E6E6E6"/>
<path opacity="0.07" d="M187.062 213.234L113.427 232.509V131.118L187.062 111.456V213.234Z" fill="#0A2643"/>
<path opacity="0.07" d="M157.762 179.309V212.848L187.062 204.753V171.211L157.762 179.309Z" fill="#0A2643"/>
<path d="M170.244 102.935H148.527V123.799H170.244V102.935Z" fill="url(#paint4_linear)"/>
<path d="M169.903 103.444H148.867V123.372H169.903V103.444Z" fill="#F5F5F5"/>
<g opacity="0.5">
<path opacity="0.5" d="M161.247 106.937V105.901H157.527V106.925H154.922V111.949H163.851V106.937H161.247ZM157.993 106.287H160.784V106.937H157.993V106.287Z" fill="url(#paint5_linear)"/>
</g>
<path opacity="0.6" d="M163.47 107.106H155.296V111.704H163.47V107.106Z" fill="#4384C5"/>
<path opacity="0.6" d="M157.683 106.171V107.364H158.109V106.511H160.664V107.364H161.087V106.171H157.683Z" fill="#4384C5"/>
<g opacity="0.6">
<path opacity="0.6" d="M163.345 115.284H155.766V116.305H163.345V115.284Z" fill="#4384C5"/>
</g>
<path d="M165.857 117.158H152.913V118.18H165.857V117.158Z" fill="#BDBDBD"/>
<g opacity="0.5">
<path opacity="0.5" d="M140.429 4.00318V2.98175H136.708V4.00318H134.104V9.02753H143.033V4.00318H140.429ZM137.174 3.3529H139.966V4.00318H137.174V3.3529Z" fill="url(#paint6_linear)"/>
</g>
<g opacity="0.5">
<path opacity="0.5" d="M125.181 39.152H97.0439V62.2646H125.181V39.152Z" fill="url(#paint7_linear)"/>
</g>
<path d="M124.8 39.5908H97.3721V61.8813H124.8V39.5908Z" fill="#F2F2F2"/>
<path d="M124.8 39.5908H97.3721V44.563H124.8V39.5908Z" fill="#4384C5"/>
<path opacity="0.1" d="M124.8 39.5908H97.3721V44.563H124.8V39.5908Z" fill="#0A2643"/>
<path d="M122.616 46.3666H99.5591V49.2622H122.616V46.3666Z" fill="#E0E0E0"/>
<path d="M116.387 51.4456H99.5591V52.4302H116.387V51.4456Z" fill="#E0E0E0"/>
<path d="M110.485 53.1389H99.5591V54.1235H110.485V53.1389Z" fill="#E0E0E0"/>
<path d="M113.982 54.8321H99.5591V55.8167H113.982V54.8321Z" fill="#E0E0E0"/>
<path d="M116.387 56.5283H99.5591V57.5129H116.387V56.5283Z" fill="#E0E0E0"/>
<path d="M105.188 58.2214H99.5591V59.2061H105.188V58.2214Z" fill="#E0E0E0"/>
<g opacity="0.5">
<path opacity="0.5" d="M173.287 56.5071H138.411V85.1533H173.287V56.5071Z" fill="url(#paint8_linear)"/>
</g>
<path d="M172.814 57.0466H138.818V84.6774H172.814V57.0466Z" fill="white"/>
<path d="M172.814 57.0466H138.818V63.2089H172.814V57.0466Z" fill="#4384C5"/>
<path d="M170.106 65.4453H141.527V69.0341H170.106V65.4453Z" fill="#F5F5F5"/>
<path d="M162.385 71.7427H141.527V72.9604H162.385V71.7427Z" fill="#E0E0E0"/>
<path d="M155.073 73.8435H141.527V75.0612H155.073V73.8435Z" fill="#E0E0E0"/>
<path d="M159.404 75.942H141.527V77.1598H159.404V75.942Z" fill="#E0E0E0"/>
<path d="M162.385 78.0429H141.527V79.2607H162.385V78.0429Z" fill="#E0E0E0"/>
<path d="M148.503 80.1408H141.527V81.3586H148.503V80.1408Z" fill="#E0E0E0"/>
<path d="M151.143 66.663H143.018V67.7457H151.143V66.663Z" fill="#69F0AE"/>
<path opacity="0.1" d="M38.8315 164.466L80.0815 174.873L113.237 147.887V131.311L39.6014 112.805L38.8315 164.466Z" fill="#0A2643"/>
<path opacity="0.1" d="M187.642 164.466L146.392 174.873L113.237 147.887V131.311L186.872 112.805L187.642 164.466Z" fill="#0A2643"/>
<path d="M39.7949 111.456L2.01416 142.682L75.6462 161.187L113.427 131.118L39.7949 111.456Z" fill="#E6E6E6"/>
<path d="M187.062 111.456L225.229 142.682L151.98 161.187L113.427 131.118L187.062 111.456Z" fill="#E6E6E6"/>
<path opacity="0.07" d="M187.062 111.456L225.229 142.682L151.98 161.187L113.427 131.118L187.062 111.456Z" fill="#0A2643"/>
</g>
<defs>
<linearGradient id="paint0_linear" x1="15357.6" y1="21138.2" x2="15357.6" y2="12847.9" gradientUnits="userSpaceOnUse">
<stop stop-color="#808080" stop-opacity="0.25"/>
<stop offset="0.54" stop-color="#808080" stop-opacity="0.12"/>
<stop offset="1" stop-color="#808080" stop-opacity="0.1"/>
</linearGradient>
<linearGradient id="paint1_linear" x1="16836.1" y1="23065.6" x2="16836.1" y2="14775.3" gradientUnits="userSpaceOnUse">
<stop stop-color="#808080" stop-opacity="0.25"/>
<stop offset="0.54" stop-color="#808080" stop-opacity="0.12"/>
<stop offset="1" stop-color="#808080" stop-opacity="0.1"/>
</linearGradient>
<linearGradient id="paint2_linear" x1="18972.5" y1="27575.9" x2="18972.5" y2="17483.6" gradientUnits="userSpaceOnUse">
<stop stop-color="#808080" stop-opacity="0.25"/>
<stop offset="0.54" stop-color="#808080" stop-opacity="0.12"/>
<stop offset="1" stop-color="#808080" stop-opacity="0.1"/>
</linearGradient>
<linearGradient id="paint3_linear" x1="7538.97" y1="3542.16" x2="7538.97" y2="3336.08" gradientUnits="userSpaceOnUse">
<stop stop-color="#808080" stop-opacity="0.25"/>
<stop offset="0.54" stop-color="#808080" stop-opacity="0.12"/>
<stop offset="1" stop-color="#808080" stop-opacity="0.1"/>
</linearGradient>
<linearGradient id="paint4_linear" x1="11413.3" y1="8523.73" x2="11413.3" y2="7104.55" gradientUnits="userSpaceOnUse">
<stop stop-color="#808080" stop-opacity="0.25"/>
<stop offset="0.54" stop-color="#808080" stop-opacity="0.12"/>
<stop offset="1" stop-color="#808080" stop-opacity="0.1"/>
</linearGradient>
<linearGradient id="paint5_linear" x1="6867.02" y1="2723.6" x2="6867.02" y2="2604.38" gradientUnits="userSpaceOnUse">
<stop stop-color="#808080" stop-opacity="0.25"/>
<stop offset="0.54" stop-color="#808080" stop-opacity="0.12"/>
<stop offset="1" stop-color="#808080" stop-opacity="0.1"/>
</linearGradient>
<linearGradient id="paint6_linear" x1="6240.19" y1="590.51" x2="6240.19" y2="471.348" gradientUnits="userSpaceOnUse">
<stop stop-color="#808080" stop-opacity="0.25"/>
<stop offset="0.54" stop-color="#808080" stop-opacity="0.12"/>
<stop offset="1" stop-color="#808080" stop-opacity="0.1"/>
</linearGradient>
<linearGradient id="paint7_linear" x1="10264" y1="4730.78" x2="10264" y2="2989.24" gradientUnits="userSpaceOnUse">
<stop stop-color="#808080" stop-opacity="0.25"/>
<stop offset="0.54" stop-color="#808080" stop-opacity="0.12"/>
<stop offset="1" stop-color="#808080" stop-opacity="0.1"/>
</linearGradient>
<linearGradient id="paint8_linear" x1="17826.8" y1="8008.95" x2="17826.8" y2="5333.69" gradientUnits="userSpaceOnUse">
<stop stop-color="#808080" stop-opacity="0.25"/>
<stop offset="0.54" stop-color="#808080" stop-opacity="0.12"/>
<stop offset="1" stop-color="#808080" stop-opacity="0.1"/>
</linearGradient>
<clipPath id="clip0">
<rect width="225.145" height="234.5" fill="white" transform="translate(0.277832)"/>
</clipPath>
</defs>
</svg>
