<svg width="836" height="825" viewBox="0 0 836 825" fill="none" xmlns="http://www.w3.org/2000/svg">
<g clip-path="url(#clip0)">
<g opacity="0.5">
<path opacity="0.5" d="M637.084 257.015L287.577 141.271L132.043 610.928L481.55 726.673L637.084 257.015Z" fill="url(#paint0_linear)"/>
</g>
<path d="M628.606 261.282L290.018 149.153L139.909 602.428L478.497 714.557L628.606 261.282Z" fill="#F2F2F2"/>
<path d="M426.588 215.587L310.086 177.006L308.881 180.646L425.383 219.227L426.588 215.587Z" fill="#E0E0E0"/>
<path opacity="0.7" d="M421.164 231.97L304.661 193.388L303.456 197.028L419.958 235.61L421.164 231.97Z" fill="#6C63FF"/>
<path d="M560.386 259.896L443.884 221.315L442.678 224.954L559.181 263.536L560.386 259.896Z" fill="#E0E0E0"/>
<path d="M544.22 369.69L427.718 331.109L426.512 334.749L543.015 373.33L544.22 369.69Z" fill="#E0E0E0"/>
<path d="M543.642 380.604L427.14 342.022L425.934 345.662L542.437 384.244L543.642 380.604Z" fill="#E0E0E0"/>
<path d="M545.789 392.428L429.286 353.846L428.081 357.486L544.583 396.068L545.789 392.428Z" fill="#E0E0E0"/>
<path d="M490.87 530.789L374.367 492.208L373.162 495.847L489.664 534.429L490.87 530.789Z" fill="#E0E0E0"/>
<path d="M490.289 541.71L373.786 503.129L372.581 506.768L489.083 545.35L490.289 541.71Z" fill="#E0E0E0"/>
<path d="M492.439 553.527L375.937 514.945L374.731 518.585L491.234 557.167L492.439 553.527Z" fill="#E0E0E0"/>
<g opacity="0.5">
<path opacity="0.5" d="M412.777 284.743L288.995 243.75L247.399 369.356L371.181 410.348L412.777 284.743Z" fill="url(#paint1_linear)"/>
</g>
<path d="M410.702 287.091L288.868 246.744L249.081 366.886L370.915 407.233L410.702 287.091Z" fill="#F5F5F5"/>
<g opacity="0.5">
<path opacity="0.5" d="M404.386 293.078L290.752 255.446L264.83 333.719L378.465 371.351L404.386 293.078Z" fill="url(#paint2_linear)"/>
</g>
<path d="M403.297 293.729L291.229 256.616L266.211 332.161L378.279 369.274L403.297 293.729Z" fill="white"/>
<path opacity="0.4" d="M257.614 326.287L300.305 291.941L305.807 314.969L340.032 297.02L353.139 330.644L385.209 297.84L408.436 392.39L250.962 334.177L257.614 326.287Z" fill="#6C63FF"/>
<path opacity="0.4" d="M297.245 279.815C301.769 281.313 306.651 278.86 308.149 274.336C309.648 269.812 307.195 264.93 302.671 263.432C298.147 261.934 293.265 264.387 291.767 268.911C290.269 273.435 292.722 278.316 297.245 279.815Z" fill="#6C63FF"/>
<g opacity="0.5">
<path opacity="0.5" d="M359.423 445.849L235.642 404.857L194.045 530.463L317.827 571.455L359.423 445.849Z" fill="url(#paint3_linear)"/>
</g>
<path d="M357.351 448.19L235.518 407.843L195.731 527.985L317.564 568.332L357.351 448.19Z" fill="#F5F5F5"/>
<g opacity="0.5">
<path opacity="0.5" d="M351.033 454.184L237.398 416.552L211.477 494.826L325.111 532.458L351.033 454.184Z" fill="url(#paint4_linear)"/>
</g>
<path d="M349.947 454.827L237.879 417.714L212.861 493.26L324.928 530.373L349.947 454.827Z" fill="white"/>
<path opacity="0.4" d="M204.263 487.386L246.954 453.04L252.454 476.076L286.682 458.118L299.786 491.751L331.858 458.939L355.085 553.489L197.609 495.284L204.263 487.386Z" fill="#BDBDBD"/>
<path opacity="0.4" d="M243.893 440.921C248.417 442.419 253.299 439.967 254.797 435.443C256.295 430.919 253.842 426.037 249.318 424.539C244.794 423.04 239.912 425.493 238.414 430.017C236.916 434.541 239.369 439.423 243.893 440.921Z" fill="#BDBDBD"/>
<g opacity="0.5">
<path opacity="0.5" d="M438.119 165.375L194.022 595.707L514.265 777.358L758.361 347.025L438.119 165.375Z" fill="url(#paint5_linear)"/>
</g>
<path d="M438.974 173.579L203.393 588.9L513.63 764.876L749.212 349.554L438.974 173.579Z" fill="white"/>
<path d="M670.826 330.427L450.654 205.54L448.763 208.875L668.935 333.762L670.826 330.427Z" fill="#E0E0E0"/>
<path d="M492.011 645.678L271.839 520.79L269.947 524.125L490.119 649.013L492.011 645.678Z" fill="#E0E0E0"/>
<path d="M431.087 636.466L260.954 539.961L259.062 543.296L429.196 639.801L431.087 636.466Z" fill="#E0E0E0"/>
<path opacity="0.7" d="M313.452 595.1L250.073 559.15L248.182 562.485L311.56 598.435L313.452 595.1Z" fill="#6C63FF"/>
<path opacity="0.7" d="M549.848 287.165L439.766 224.723L437.874 228.058L547.956 290.5L549.848 287.165Z" fill="#6C63FF"/>
<path d="M627.381 356.491L428.896 243.905L427.005 247.24L625.489 359.826L627.381 356.491Z" fill="#E0E0E0"/>
<path opacity="0.7" d="M466.378 290.525L418.011 263.089L416.119 266.424L464.487 293.86L466.378 290.525Z" fill="#3AD29F"/>
<path d="M627.307 407.16L407.135 282.272L405.243 285.607L625.415 410.495L627.307 407.16Z" fill="#E0E0E0"/>
<g opacity="0.5">
<path opacity="0.5" d="M399.177 375.879L334.844 489.297L532.492 601.408L596.826 487.991L399.177 375.879Z" fill="url(#paint6_linear)"/>
</g>
<path d="M595.141 488.128L399.992 377.434L337.076 488.352L532.226 599.046L595.141 488.128Z" fill="white"/>
<path d="M616.424 426.348L396.252 301.46L394.36 304.795L614.532 429.683L616.424 426.348Z" fill="#E0E0E0"/>
<path d="M436.102 417.758L411.915 404.038L366.029 484.934L390.216 498.654L436.102 417.758Z" fill="#6C63FF"/>
<path d="M464.329 469.045L440.142 455.325L409.393 509.534L433.58 523.254L464.329 469.045Z" fill="#3AD29F"/>
<path d="M493.51 518.667L469.322 504.947L452.767 534.133L476.954 547.853L493.51 518.667Z" fill="#F55F44"/>
<path d="M553.907 513.242L529.72 499.522L496.131 558.737L520.319 572.457L553.907 513.242Z" fill="#FDD835"/>
<path d="M657.403 453.84C650.041 438.441 639.673 424.67 626.909 413.337C614.146 402.005 599.245 393.34 583.082 387.852C566.92 382.364 549.823 380.165 532.798 381.383C515.774 382.601 499.164 387.212 483.948 394.945C422.612 426.075 396.835 501.3 426.136 563.535C439.008 590.877 461.14 612.782 488.613 625.372C516.085 637.962 547.127 640.424 576.241 632.324L633.818 752.761C634.531 754.252 635.807 755.398 637.365 755.948C638.923 756.498 640.635 756.407 642.126 755.694L670.98 741.898C672.471 741.185 673.617 739.91 674.167 738.351C674.717 736.793 674.626 735.081 673.913 733.59L616.358 613.168C640.835 595.67 658.365 570.109 665.871 540.973C673.377 511.836 670.379 480.986 657.403 453.84ZM581.406 591.656C565.072 599.464 546.788 602.253 528.868 599.671C510.948 597.088 494.196 589.249 480.731 577.146C467.266 565.043 457.692 549.219 453.22 531.675C448.748 514.131 449.579 495.655 455.608 478.583C461.636 461.511 472.592 446.61 487.089 435.764C501.586 424.918 518.974 418.615 537.053 417.651C555.133 416.687 573.092 421.106 588.66 430.349C604.228 439.592 616.706 453.244 624.515 469.578C629.701 480.424 632.699 492.186 633.339 504.191C633.979 516.196 632.248 528.21 628.245 539.546C624.242 550.882 618.045 561.318 610.009 570.259C601.972 579.2 592.253 586.471 581.406 591.656Z" fill="url(#paint7_linear)"/>
<path d="M485.567 463.572C475.794 460.335 470.748 475.52 480.537 478.762C490.326 482.004 495.356 466.814 485.567 463.572Z" fill="url(#paint8_linear)"/>
<path d="M569.806 437.476C543.698 428.172 515.393 433.441 496.069 449.147C489.762 454.272 499.652 463.921 505.925 458.82C521.924 445.818 545.415 441.973 566.894 449.692C589.401 457.777 605.754 477.601 610.722 499.242C612.605 507.45 625.534 504.839 623.677 496.682C617.608 470.456 596.761 447.12 569.806 437.476Z" fill="url(#paint9_linear)"/>
<path d="M668.463 452.383C661.101 436.984 650.733 423.213 637.97 411.88C625.206 400.548 610.305 391.882 594.143 386.395C577.981 380.907 560.884 378.707 543.859 379.925C526.834 381.144 510.225 385.755 495.008 393.488C433.673 424.617 407.896 499.843 437.197 562.078C450.07 589.419 472.203 611.322 499.676 623.911C527.149 636.499 558.191 638.961 587.304 630.858L644.87 751.301C645.583 752.792 646.859 753.938 648.417 754.488C649.975 755.038 651.688 754.947 653.179 754.234L682.033 740.439C683.523 739.725 684.67 738.45 685.22 736.892C685.77 735.333 685.679 733.621 684.966 732.13L627.39 611.692C651.867 594.2 669.401 568.644 676.912 539.511C684.423 510.378 681.432 479.53 668.463 452.383ZM592.488 590.136C576.153 597.944 557.869 600.734 539.949 598.151C522.029 595.568 505.278 587.73 491.812 575.627C478.347 563.524 468.773 547.699 464.301 530.155C459.829 512.611 460.66 494.135 466.689 477.063C472.717 459.991 483.673 445.09 498.17 434.244C512.667 423.399 530.055 417.095 548.134 416.131C566.214 415.168 584.173 419.587 599.741 428.83C615.309 438.072 627.787 451.724 635.597 468.059C640.782 478.905 643.781 490.666 644.421 502.671C645.06 514.676 643.33 526.69 639.326 538.026C635.323 549.362 629.127 559.799 621.09 568.74C613.053 577.681 603.334 584.951 592.488 590.136Z" fill="#4385C6"/>
<path d="M496.629 462.107C486.855 458.87 481.809 474.055 491.598 477.297C501.388 480.539 506.418 465.348 496.629 462.107Z" fill="#6C63FF"/>
<path d="M580.866 436.018C554.758 426.715 526.453 431.984 507.128 447.69C500.822 452.814 510.712 462.463 516.985 457.362C532.983 444.36 556.475 440.516 577.953 448.234C600.46 456.319 616.814 476.144 621.781 497.784C623.664 505.993 636.594 503.381 634.737 495.225C628.665 468.929 607.849 445.603 580.866 436.018Z" fill="#6C63FF"/>
<path d="M127.068 549.691L124.34 548.788L119.216 564.259L121.944 565.162L127.068 549.691Z" fill="#47E6B1"/>
<path d="M130.432 560.898L131.335 558.17L115.864 553.047L114.961 555.775L130.432 560.898Z" fill="#47E6B1"/>
<path d="M644.697 153.799C644.053 153.221 643.643 152.427 643.546 151.567C643.45 150.708 643.673 149.842 644.174 149.137C644.252 149.028 644.317 148.91 644.368 148.786C644.512 148.433 644.538 148.043 644.442 147.674C644.346 147.304 644.133 146.976 643.835 146.738C643.537 146.501 643.17 146.365 642.789 146.354C642.408 146.342 642.033 146.454 641.721 146.673C641.612 146.749 641.513 146.838 641.425 146.938C640.848 147.582 640.054 147.992 639.194 148.089C638.334 148.185 637.469 147.962 636.764 147.461C636.655 147.383 636.537 147.318 636.413 147.267C636.057 147.12 635.664 147.093 635.292 147.191C634.92 147.288 634.59 147.504 634.352 147.806C634.114 148.108 633.981 148.479 633.974 148.863C633.966 149.247 634.084 149.624 634.31 149.935C634.386 150.043 634.475 150.143 634.575 150.23C635.22 150.808 635.629 151.602 635.726 152.462C635.822 153.321 635.599 154.187 635.098 154.892C635.02 155.001 634.955 155.119 634.904 155.243C634.754 155.6 634.725 155.996 634.821 156.37C634.918 156.745 635.135 157.077 635.439 157.316C635.743 157.556 636.117 157.688 636.504 157.694C636.891 157.7 637.269 157.579 637.58 157.349C637.688 157.272 637.788 157.183 637.875 157.083C638.452 156.439 639.247 156.029 640.106 155.933C640.966 155.836 641.832 156.059 642.537 156.56C642.646 156.638 642.764 156.704 642.888 156.754C643.241 156.898 643.631 156.925 644 156.829C644.37 156.733 644.698 156.52 644.935 156.222C645.173 155.924 645.308 155.556 645.32 155.175C645.332 154.794 645.22 154.419 645.001 154.107C644.914 153.992 644.811 153.888 644.697 153.799Z" fill="#4D8AF0"/>
<path d="M268.129 156.357C267.485 155.779 267.075 154.985 266.979 154.125C266.882 153.266 267.105 152.4 267.606 151.695C267.684 151.586 267.75 151.468 267.8 151.344C267.944 150.991 267.97 150.601 267.874 150.232C267.778 149.862 267.566 149.534 267.267 149.296C266.969 149.058 266.602 148.923 266.221 148.912C265.84 148.9 265.465 149.012 265.153 149.23C265.044 149.307 264.945 149.396 264.857 149.496C264.28 150.14 263.486 150.55 262.626 150.646C261.767 150.743 260.901 150.52 260.196 150.019C260.087 149.941 259.969 149.876 259.845 149.825C259.492 149.681 259.101 149.655 258.732 149.751C258.363 149.847 258.035 150.06 257.797 150.358C257.559 150.656 257.424 151.023 257.412 151.404C257.401 151.785 257.512 152.16 257.731 152.472C257.808 152.581 257.897 152.68 257.997 152.768C258.641 153.345 259.051 154.139 259.147 154.999C259.244 155.859 259.021 156.724 258.52 157.429C258.442 157.538 258.376 157.656 258.326 157.78C258.182 158.133 258.155 158.524 258.251 158.893C258.347 159.262 258.56 159.59 258.858 159.828C259.157 160.066 259.524 160.201 259.905 160.213C260.286 160.225 260.661 160.113 260.973 159.894C261.082 159.817 261.181 159.728 261.268 159.628C261.846 158.984 262.64 158.574 263.5 158.478C264.359 158.381 265.225 158.605 265.93 159.105C266.039 159.184 266.157 159.249 266.281 159.299C266.634 159.444 267.024 159.47 267.394 159.374C267.763 159.278 268.091 159.065 268.329 158.767C268.567 158.469 268.702 158.101 268.714 157.72C268.725 157.339 268.613 156.964 268.395 156.652C268.318 156.543 268.229 156.444 268.129 156.357Z" fill="#FDD835"/>
<path d="M592.881 789.098C592.237 788.521 591.827 787.727 591.731 786.867C591.634 786.007 591.857 785.142 592.358 784.436C592.436 784.327 592.501 784.21 592.552 784.085C592.696 783.732 592.722 783.342 592.626 782.973C592.53 782.604 592.317 782.276 592.019 782.038C591.721 781.8 591.354 781.665 590.973 781.653C590.592 781.641 590.217 781.753 589.905 781.972C589.796 782.048 589.697 782.138 589.609 782.237C589.032 782.882 588.238 783.291 587.378 783.388C586.518 783.484 585.653 783.261 584.948 782.76C584.839 782.682 584.721 782.617 584.597 782.566C584.244 782.422 583.853 782.396 583.484 782.492C583.115 782.588 582.787 782.801 582.549 783.099C582.311 783.397 582.176 783.764 582.164 784.145C582.153 784.526 582.264 784.901 582.483 785.214C582.56 785.322 582.649 785.421 582.749 785.509C583.393 786.086 583.803 786.88 583.899 787.74C583.996 788.6 583.772 789.465 583.272 790.171C583.194 790.28 583.128 790.398 583.078 790.522C582.933 790.875 582.907 791.265 583.003 791.634C583.099 792.003 583.312 792.331 583.61 792.569C583.908 792.807 584.276 792.942 584.657 792.954C585.038 792.966 585.413 792.854 585.725 792.635C585.834 792.559 585.933 792.47 586.02 792.37C586.598 791.725 587.392 791.316 588.252 791.219C589.111 791.123 589.977 791.346 590.682 791.847C590.791 791.925 590.909 791.99 591.033 792.041C591.386 792.185 591.776 792.211 592.146 792.115C592.515 792.019 592.843 791.806 593.081 791.508C593.319 791.21 593.454 790.843 593.465 790.462C593.477 790.081 593.365 789.706 593.147 789.394C593.07 789.285 592.981 789.186 592.881 789.098Z" fill="#FDD835"/>
<path d="M430.09 147.065C433.107 148.064 436.364 146.428 437.363 143.411C438.362 140.394 436.726 137.137 433.709 136.138C430.691 135.139 427.435 136.775 426.436 139.792C425.437 142.81 427.073 146.066 430.09 147.065Z" fill="#F55F44"/>
<path d="M798.86 344.934C801.878 345.933 805.134 344.297 806.133 341.28C807.133 338.262 805.497 335.006 802.479 334.007C799.462 333.008 796.206 334.644 795.206 337.661C794.207 340.678 795.843 343.935 798.86 344.934Z" fill="#F55F44"/>
<path d="M713.965 497.61C716.982 498.609 720.239 496.973 721.238 493.955C722.237 490.938 720.601 487.682 717.584 486.683C714.566 485.683 711.31 487.319 710.311 490.337C709.312 493.354 710.948 496.61 713.965 497.61Z" fill="#4D8AF0"/>
<path opacity="0.5" d="M197.313 29.571C200.33 30.5703 203.586 28.9342 204.585 25.9168C205.585 22.8994 203.949 19.6433 200.931 18.644C197.914 17.6448 194.658 19.2808 193.658 22.2982C192.659 25.3156 194.295 28.5717 197.313 29.571Z" fill="#47E6B1"/>
</g>
<defs>
<linearGradient id="paint0_linear" x1="306.797" y1="668.8" x2="462.331" y2="199.143" gradientUnits="userSpaceOnUse">
<stop stop-color="#808080" stop-opacity="0.25"/>
<stop offset="0.54" stop-color="#808080" stop-opacity="0.12"/>
<stop offset="1" stop-color="#808080" stop-opacity="0.1"/>
</linearGradient>
<linearGradient id="paint1_linear" x1="17233.5" y1="62906.6" x2="23937.2" y2="42664" gradientUnits="userSpaceOnUse">
<stop stop-color="#808080" stop-opacity="0.25"/>
<stop offset="0.54" stop-color="#808080" stop-opacity="0.12"/>
<stop offset="1" stop-color="#808080" stop-opacity="0.1"/>
</linearGradient>
<linearGradient id="paint2_linear" x1="22107.5" y1="38874.3" x2="24710.8" y2="31013.3" gradientUnits="userSpaceOnUse">
<stop stop-color="#808080" stop-opacity="0.25"/>
<stop offset="0.54" stop-color="#808080" stop-opacity="0.12"/>
<stop offset="1" stop-color="#808080" stop-opacity="0.1"/>
</linearGradient>
<linearGradient id="paint3_linear" x1="8581.8" y1="89031.6" x2="15285.5" y2="68789" gradientUnits="userSpaceOnUse">
<stop stop-color="#808080" stop-opacity="0.25"/>
<stop offset="0.54" stop-color="#808080" stop-opacity="0.12"/>
<stop offset="1" stop-color="#808080" stop-opacity="0.1"/>
</linearGradient>
<linearGradient id="paint4_linear" x1="16695.9" y1="55215.4" x2="19299.2" y2="47354.4" gradientUnits="userSpaceOnUse">
<stop stop-color="#808080" stop-opacity="0.25"/>
<stop offset="0.54" stop-color="#808080" stop-opacity="0.12"/>
<stop offset="1" stop-color="#808080" stop-opacity="0.1"/>
</linearGradient>
<linearGradient id="paint5_linear" x1="157606" y1="413595" x2="267069" y2="220617" gradientUnits="userSpaceOnUse">
<stop stop-color="#808080" stop-opacity="0.25"/>
<stop offset="0.54" stop-color="#808080" stop-opacity="0.12"/>
<stop offset="1" stop-color="#808080" stop-opacity="0.1"/>
</linearGradient>
<linearGradient id="paint6_linear" x1="14756.9" y1="157011" x2="32562.5" y2="125620" gradientUnits="userSpaceOnUse">
<stop stop-color="#808080" stop-opacity="0.25"/>
<stop offset="0.54" stop-color="#808080" stop-opacity="0.12"/>
<stop offset="1" stop-color="#808080" stop-opacity="0.1"/>
</linearGradient>
<linearGradient id="paint7_linear" x1="510.822" y1="714.044" x2="615.31" y2="398.526" gradientUnits="userSpaceOnUse">
<stop stop-color="#B3B3B3" stop-opacity="0.25"/>
<stop offset="0.54" stop-color="#B3B3B3" stop-opacity="0.1"/>
<stop offset="1" stop-color="#B3B3B3" stop-opacity="0.05"/>
</linearGradient>
<linearGradient id="paint8_linear" x1="480.54" y1="478.754" x2="485.567" y2="463.572" gradientUnits="userSpaceOnUse">
<stop stop-opacity="0.12"/>
<stop offset="0.55" stop-opacity="0.09"/>
<stop offset="1" stop-opacity="0.02"/>
</linearGradient>
<linearGradient id="paint9_linear" x1="94550.1" y1="56538.3" x2="95466.3" y2="53771.6" gradientUnits="userSpaceOnUse">
<stop stop-opacity="0.12"/>
<stop offset="0.55" stop-opacity="0.09"/>
<stop offset="1" stop-opacity="0.02"/>
</linearGradient>
<clipPath id="clip0">
<rect width="691.291" height="639.502" fill="white" transform="translate(201.043) rotate(18.3231)"/>
</clipPath>
</defs>
</svg>
