<svg width="100" height="100" viewBox="0 0 100 100" fill="none" xmlns="http://www.w3.org/2000/svg">
<circle cx="50" cy="50" r="50" fill="#F0F8FF"/>
<g clip-path="url(#clip0)">
<path d="M56.2503 38.5415C55.1003 38.5415 54.167 37.6082 54.167 36.4582V33.3332H45.8337V36.4582C45.8337 37.6082 44.9003 38.5415 43.7503 38.5415C42.6003 38.5415 41.667 37.6082 41.667 36.4582V33.3332C41.667 31.0353 43.5357 29.1665 45.8337 29.1665H54.167C56.4649 29.1665 58.3337 31.0353 58.3337 33.3332V36.4582C58.3337 37.6082 57.4003 38.5415 56.2503 38.5415Z" fill="#70B8FF"/>
<path d="M51.4792 57.0418C51.1042 57.1877 50.5625 57.2918 50 57.2918C49.4375 57.2918 48.8958 57.1877 48.3958 57.0002L25 49.2085V65.1043C25 68.271 27.5625 70.8335 30.7292 70.8335H69.2708C72.4375 70.8335 75 68.271 75 65.1043V49.2085L51.4792 57.0418Z" fill="#70B8FF"/>
<path d="M75 41.1457V45.9165L50.5 54.0832C50.3333 54.1457 50.1667 54.1665 50 54.1665C49.8333 54.1665 49.6667 54.1457 49.5 54.0832L25 45.9165V41.1457C25 37.979 27.5625 35.4165 30.7292 35.4165H69.2708C72.4375 35.4165 75 37.979 75 41.1457Z" fill="#70B8FF"/>
</g>
<defs>
<clipPath id="clip0">
<rect width="50" height="50" fill="white" transform="translate(25 25)"/>
</clipPath>
</defs>
</svg>
